<?xml version="1.0" encoding="UTF-8"?>
<svg width="117.21" height="115.8" version="1.1" viewBox="0 0 31.011706 30.637488" xmlns="http://www.w3.org/2000/svg" xmlns:cc="http://creativecommons.org/ns#" xmlns:dc="http://purl.org/dc/elements/1.1/" xmlns:rdf="http://www.w3.org/1999/02/22-rdf-syntax-ns#" xmlns:xlink="http://www.w3.org/1999/xlink">
<defs>
<linearGradient id="a">
<stop stop-color="#025" stop-opacity="0" offset="0"/>
<stop stop-color="#025" offset="1"/>
</linearGradient>
<linearGradient id="b">
<stop stop-color="#0cf" offset="0"/>
<stop stop-color="#0cf" stop-opacity="0" offset="1"/>
</linearGradient>
<radialGradient id="g" cx="276.48" cy="94.488" r="15.506" gradientTransform="matrix(1.2191 -.23675 .23309 1.2003 -82.6 46.409)" gradientUnits="userSpaceOnUse">
<stop stop-color="#17280b" offset="0"/>
<stop stop-color="#17280b" stop-opacity="0" offset="1"/>
</radialGradient>
<linearGradient id="i" x1="219.9" x2="217.72" y1="128.71" y2="130.81" gradientUnits="userSpaceOnUse">
<stop offset="0"/>
<stop stop-opacity="0" offset="1"/>
</linearGradient>
<linearGradient id="h" x1="202.76" x2="205.7" y1="127.93" y2="132.64" gradientTransform="scale(3.7795)" gradientUnits="userSpaceOnUse">
<stop stop-color="#faa" offset="0"/>
<stop stop-color="#faa" stop-opacity="0" offset="1"/>
</linearGradient>
<radialGradient id="f" cx="224.27" cy="142.36" r="1.8542" gradientTransform="matrix(1 0 0 .87387 -9.8723 15.7)" gradientUnits="userSpaceOnUse" xlink:href="#b"/>
<radialGradient id="e" cx="224.34" cy="139.22" r="1.8542" gradientTransform="matrix(1.2886 -.035519 .030529 1.1076 -78.93 -6.123)" gradientUnits="userSpaceOnUse" xlink:href="#a"/>
<radialGradient id="d" cx="221.07" cy="140.44" r=".87817" gradientTransform="matrix(1 0 0 1.543 0 -76.254)" gradientUnits="userSpaceOnUse" xlink:href="#b"/>
<radialGradient id="c" cx="221.07" cy="140.44" r=".87817" gradientTransform="matrix(1 0 0 1.543 -1e-7 -76.254)" gradientUnits="userSpaceOnUse" xlink:href="#a"/>
</defs>
<metadata>
<rdf:RDF>
<cc:Work rdf:about="">
<dc:format>image/svg+xml</dc:format>
<dc:type rdf:resource="http://purl.org/dc/dcmitype/StillImage"/>
<dc:title/>
</cc:Work>
</rdf:RDF>
</metadata>
<g transform="translate(-35.231 -69.654)">
<g transform="translate(-163.57 -55.058)">
<g transform="translate(-60.475 55.968)">
<g>
<path d="m290.2 84.063c0 8.4132-6.9047 15.234-15.422 15.234-8.5176 2.8e-4 -15.423-6.8196-15.423-15.233-5.6e-4 -8.4132 6.9037-15.234 15.421-15.235 8.5176-8.3e-4 15.423 6.8186 15.424 15.232-1e-3 -0.53617-8e-3 0.42347 0 2e-3z" fill="#447821"/>
<path d="m290.2 84.061c0 8.4132-6.9047 15.234-15.422 15.234-8.5176 2.8e-4 -15.423-6.8196-15.423-15.233-5.6e-4 -8.4132 6.9037-15.234 15.421-15.235 8.5176-8.3e-4 15.423 6.8186 15.424 15.232-1e-3 -0.53616-8e-3 0.42347 0 2e-3z" fill="url(#g)" stroke="#000" stroke-linecap="round" stroke-linejoin="bevel" stroke-width=".16601"/>
</g>
</g>
<path d="m214.48 131.67s1.0691-1.1359 1.47-1.4032c0.40091-0.26727 1.4032-0.60135 1.8709-0.93544s1.8709-0.66817 1.8709-0.66817l0.25056-0.11693-0.0167 0.16704 0.26727-0.11693s-0.0668 0.16704 0 0.33408c0.025 0.0501 0.20045-0.23386 0.20045-0.23386 0.11694 0.0835 0.0835 0.31738 0.0835 0.31738s0.0501 0.0835 0.0167 0.3842c-0.0334 0.30068-0.16704 0.60136-0.10022 0.83522 0.0668 0.23386 0.16704 1.3029 0.16704 1.3029s-0.0334 2.205-0.13363 2.4054l-0.10023 0.20045-3.107-1.0357z" fill="#4d4d4d" stroke="#000" stroke-linecap="round" stroke-width=".165"/>
<path d="m219.13 132.44s0.56795-0.7684 0.63477-1.0691c0.0668-0.30068 0.30067-1.1025 0.20045-1.47-0.10023-0.3675-0.13364-0.80181-0.43432-0.90204-0.30067-0.10022-0.63476-0.10022-0.86862-0.0334-0.23386 0.0668-1.3364 0.66818-1.5702 0.7684-0.23386 0.10023-0.86863 0.7684-1.1025 0.83522-0.23386 0.0668-0.53453 0.43431-0.70158 0.73499" fill="url(#i)"/>
<path d="m220.2 133.91s-0.0668-0.33409 0.23386-0.33409c0.30068 0 0.4009 0.20045 0.4009 0.20045s0.0668-0.4009-0.16704-0.50113c-0.23386-0.10022-0.46772-0.13363-0.46772-0.13363l0.7684-0.20045-0.60136-0.0668s0.56795-0.23386 0.63477-0.4009c0.0668-0.16705 0.10022-0.16705 0.10022-0.16705s-0.30067 0.26727-0.50113 0.13364c-0.20045-0.13364-0.20045-0.16705-0.20045-0.16705l0.40091-0.0334 0.0668 0.10022s-0.13363-0.50113-0.26727-0.50113h-0.13363l0.33409-0.43431-0.43432 0.23386s-0.0334-0.16704 0.13363-0.33409c0.16705-0.16704 0.40091-0.26727 0.40091-0.26727h-0.50113s0.0334-0.33408 0.23386-0.4009c0.20045-0.0668 0.10023-0.16705 0.10023-0.16705h-0.3675l0.26727-0.36749-0.43431 0.20045s-0.26727 0.93544-0.30068 1.1693c-0.0334 0.23386-0.16704 0.43431-0.30068 0.56794-0.13363 0.13364-0.43431 0.56795-0.53454 0.70158-0.10022 0.13364-0.26727 0.33409-0.26727 0.33409z" fill="#ccc"/>
<path transform="scale(.26458)" d="m808.93 497.14c-1.1607 0-18.124 0.17841-19.553 0.625-1.4286 0.44644-11.428 6.3387-14.018 8.6602-2.5893 2.3214-8.2143 8.5717-9.375 10.982-1.1607 2.4107-4.0184 9.9995-4.4648 12.41-0.44644 2.4107-0.9827 8.3931-0.71485 10.357 0.26797 1.9643 1.4286 3.4816 1.25 4.9102-0.17839 1.4286-0.89257 2.5-0.89257 2.5s-0.98242-0.0875-3.4824-0.35547c-0.95622-0.10249-2.0465-0.12366-3.1152-0.10547 7.6142 23.048 29.54 39.706 55.416 39.705 12.678-4.2e-4 24.401-4.0093 33.967-10.799-0.11936-1.0839-0.32916-2.1892-0.7207-3.1289-1.2627-3.0305-4.0394-7.8297-5.5547-8.8398-1.5152-1.0102-2.9414-1.8418-2.9414-1.8418s1.342-1.2399 1.6992-2.7578c0.49112-1.183 0.35743-0.24609 0.35743-0.24609s0.17948-0.17915 0.44726-0.0234c0.44644 0.0892 1.1613-0.17784 1.3398-0.53515 0.17877-0.35717 1.5173-1.7866 1.7852-4.1973 0.26797-2.4107 0.17748-5.178-0.17969-6.1602-0.35716-0.98211-2.5-4.4648-2.5-4.4648s0.98353-3.3917 1.1621-4.1953c0.1784-0.80357 1.1607-5.358 1.25-6.6973 0.0892-1.3393 0.26667-7.4107 0.0879-8.125-0.17839-0.71425 1.1616-1.3379 1.6973-1.3379h0.53516s-1.4286-2.4107-2.5-3.75c-1.0715-1.3393-1.3398-1.7871-1.3398-1.7871s-0.71375-2.4096-1.1602-3.5703c-0.44644-1.1607-3.3033-6.6967-4.0176-7.2324 0 0-4.0182-2.053-6.6074-3.6602-2.5893-1.6071-8.1247-5.0008-10.893-5.4473-2.7679-0.44644-5.8042-0.89258-6.9648-0.89258z" fill="#999" stroke="#000" stroke-linecap="round" stroke-linejoin="bevel" stroke-width=".62746"/>
<path transform="scale(.26458)" d="m804.33 497.36c-2.2698 0.11857-8.1527 0.29479-11.87 0.40979-2.8785 0.089-4.8288 0.63213-4.8288 0.63213s-10.828 5.8078-12.091 7.323c-1.2627 1.5152-9.0918 10.859-9.0918 10.859s0.253 5.5553-0.25195 7.8281c-0.50506 2.2728-3.2832 7.8281-3.2832 7.8281l3.2832-1.0098s-3.5352 4.0399-3.5352 7.0703c0 3.0305-0.82232 4.4202-0.82232 4.4202s0.56842 1.1374 0.56841 2.4001c-0.25247 1.2627-0.75742 3.7867-1.7676 4.7969-1.0102 1.0101-2.7184-0.22357-3.7285 0.78655-0.29584 0.0726-0.29952 0.36648-0.48996 0.55691 7.6484 18.515 25.723 32.597 47.156 34.945-0.4688-0.74352-0.82375-1.18-1.0153-1.6908-0.75765-2.0203 5.8086-0.75781 5.8086-0.75781l2.5254-3.0293 5.8086-0.75781 3.2832-5.3027 3.5352 0.5039 0.50391-2.5254h4.5469l-1.2637-2.2715 3.7891 0.25195-0.25391-2.7773 3.7891-0.50586-0.50586-2.2734 1.5156-0.25195-0.75782-2.2734s-1.7674 2.2728-3.5352 2.5254c-1.7678 0.25247-4.294 1.5164-8.082 2.0215-3.7881 0.50506-9.0906 2.0201-12.121 1.7676-3.0305-0.25247-3.282-1.2627-1.2617-2.5254 2.0203-1.2627 0.50391-1.2637 0.50391-1.2637s-1.7682 1.5164-4.041-0.50391c-2.2729-2.0203-5.5547-6.3144-5.5547-6.3144l-2.7774-4.5449 4.7969 1.0098-1.2617-1.5156s4.5455 2e-4 6.8184 0.75781c2.2728 0.75761 6.3125 3.2832 8.8379 3.2832 2.5254 0 12.121 1.0094 11.111-0.50586-1.0102-1.5152-1.7676-1.5137-1.7676-1.5137s-3.5352-3.2842-3.5352-4.5469c0-1.2627 1.5162 0.75742 3.7891 1.7676 2.2728 1.0102 2.0195 0 2.0195 0l6.0605 1.0098 5.0508-5.0508-7.5762-13.637s-1.2623-3.0305-1.0098-5.0508c0.25247-2.0203 2.0209-3.7877 2.2734-6.0606 0.25247-2.2728 2.5246-2.7785 2.0195-4.7988-0.50506-2.0203 3.9e-4 -4.7978-1.0098-6.0606-1.0102-1.2627-6.0613-4.2934-6.5664-5.8086-0.50506-1.5152-2.7783-3.7867-4.041-4.7969-1.8624-1.2311-6.2176-3.851-8.743-4.1036-2.5254-0.25247-6.7237-0.94721-10.954-0.72624z" fill="#4d4d4d"/>
<path d="m218.69 144.03s-1.8351-4.1899-2.1024-4.524c-0.26727-0.33409-0.9725-1.3013-1.3734-1.3013-0.4009 0-1.5456-0.247-1.6124-0.58109-0.35028-0.47583-0.73163-0.3496-0.93208-0.61687s-0.73974-1.0536-0.53927-1.5213c0.20045-0.46772 0.81872-0.7944 0.75188-1.2621-0.0668-0.46772-0.65739-1.0576-0.65739-1.0576s-0.83354-0.45658-1.9273-0.88554c-1.8024-0.86596-2.2235-0.37983-2.2235-0.37983s-0.60946 5.1138-1.144 6.0492-1.8041 2.94-1.5368 3.4077c0.26727 0.46772 1.0023 0.26727 1.8041 0s1.9377 0.86863 2.4054 1.2027c0.46772 0.33409 3.0736 0.86862 3.4077 1.4032 0.33409 0.53453 1.2695 0.66817 1.2695 0.66817s1.1359 0.0668 1.4032 0.26727c0.26727 0.20045-0.60135-1.4032-0.60135-1.4032s0.93544 0.73499 1.5368 0.86863c0.60136 0.13363 2.0713-0.33409 2.0713-0.33409z" fill="#999"/>
<path transform="scale(.26458)" d="m775.41 482.9c-5.2374 3.8159-9.8024 8.477-13.494 13.779 0.60355 2.033 1.3519 4.2617 1.502 5.0117 0.25247 1.2627 0.2539 5.05 0.2539 7.0703s2.0195 5.5576 2.0195 6.8203c0 1.2627 1.1465 4.2498 0.38896 5.7651l35.472-16.878s-4.5459 6.1e-4 -8.334-2.7773c-3.7881-2.7779-11.365-12.121-11.365-12.121s-3.7874-4.4326-6.4434-6.6699z" fill="#4d4d4d" stroke="#000" stroke-linecap="round" stroke-linejoin="bevel" stroke-width=".62746"/>
<path d="m221.08 148.48s-0.47751 0.71339-0.97864 0.94725-3.1819 0.94928-5.2199 1.0495-2.7395 0.13363-2.7395 0.13363" fill="none" stroke="#000" stroke-linecap="round" stroke-linejoin="round" stroke-width=".165"/>
<path d="m202.79 144.03s1.5368 2.7395 2.0045 3.107 1.7707 1.3364 2.2384 1.5702c0.46773 0.23386 1.8709 0.96885 1.8709 0.96885" fill="none" stroke="#000" stroke-linecap="round" stroke-linejoin="round" stroke-width=".165"/>
<path d="m221.4 147.87s-0.50113-0.4009-0.83522-0.4009c-0.33408 0-2.4722 0.90203-2.8731 0.93544-0.40091 0.0334-2.8063-0.90203-2.9734-1.1025-0.16704-0.20045-0.23386-0.20045-0.23386-0.20045" fill="none" stroke="#000" stroke-linecap="round" stroke-linejoin="round" stroke-width=".165"/>
<path d="m221.67 143.96-1.4781-2.5904s-0.12958-0.68202-0.0293-1.0495c0.10022-0.3675 0.13363-0.70158 0.46772-0.90204 0.33409-0.20045 0.83522-0.56795 1.1025-0.60135s0.70158-0.20046 0.70158-0.20046" fill="none" stroke="#000" stroke-linecap="round" stroke-linejoin="round" stroke-width=".165"/>
<path d="m218.59 143.9s-1.9043-4.0759-2.205-4.4434-1.0691-0.86862-1.5034-1.0023c-0.43432-0.13363-1.3029-0.26727-1.5702-0.20045-0.26727 0.0668-0.93545 0.30068-1.1025 0.53454s-0.26727 0.63476-0.50113 0.63476-0.50113 0.0668-0.50113 0.0668 0.50113 0.0668 0.66818 0.0668c0.16704 0 0.16704 0.36749 0.30067 0.56795 0.13364 0.20045 0.56795 0.86862 0.93545 1.1025 0.36749 0.23386 0.50113 0.40091 0.96885 0.50113 0.46772 0.10023 1.8041-0.16704 2.0379-0.10022 0.23386 0.0668 0.53454 0.26727 0.53454 0.26727l-0.0668 0.73499s0.7684 0.43431 1.1359 0.70158c0.3675 0.26727 0.86863 0.56795 0.86863 0.56795z" stroke="#000" stroke-width=".26458px"/>
<path d="m210.74 140.46s0.60135 0.20045 0.63476 0.33409l0.0334 0.13363s-0.33408-0.16704-0.60135-0.13363c-0.26727 0.0334-0.60136 0.0668-0.60136 0.0668l-0.46772 0.66817s-1.4032-0.30068-1.6036-0.30068-0.73499 0.13364-0.73499 0.13364l0.46772 0.10022s0.20045 0 0.26727 0.16705l0.0668 0.16704-0.60136-0.20045 0.3675 0.16704-0.56795 0.0334 0.46772 0.20045-0.43431-0.0334 0.50113 0.23386-0.93545 0.0668 0.40091 0.56795s-0.40091-0.0334-0.56795-0.16705l-0.16704-0.13363 0.4009 0.46772-0.23386 0.0334s0.0334 0.3675 0.3675 0.56795c0.33409 0.20045 1.1359 0.86862 1.3364 0.93544 0.20045 0.0668 0.93544 0.43432 0.93544 0.43432l-1.0023-0.13364s0.4009 0.3675 0.7684 0.73499c0.36749 0.3675 1.0023 1.0357 1.3363 1.2695 0.33409 0.23386 1.1025 0.7684 1.3698 0.7684s0.43431 0.26727 0.43431 0.26727-0.96885-0.26727-1.2361-0.30068c-0.26727-0.0334-0.63476-0.53454-1.0357-0.63476-0.4009-0.10023-1.5368-0.86863-1.9377-1.1359s-1.5702-0.7684-1.6036-1.0357c-0.0334-0.26727 0.0668-0.16704 0.0668-0.16704h0.4009s-0.43431 0-0.63476-0.20045-0.83522-0.83522-1.1359-0.90204c-0.30067-0.0668-0.53454-0.10022-0.53454-0.10022l0.53454-0.10023s-1.1025-0.90203-1.3363-0.86863c-0.23387 0.0334-0.63477-0.10022-0.63477-0.10022l-1.1693-1.47 0.80181-0.13364s0.86862 0.46772 0.73498 0.40091c-0.13363-0.0668-0.50112-0.53454-0.50112-0.53454l1.0691 0.36749-0.4009-0.53454 0.90203 0.33409-0.0668-0.46772s0.56794 0.4009 0.90203 0.4009-0.30068-0.26727-0.30068-0.26727 0.56795 0.13364 0.96885 0.13364c0.40091 0 1.1025 0.36749 1.1025 0.36749s0.50113-0.10022 1.0691-0.33408 0.90204-0.30068 1.2695-0.26727c0.3675 0.0334 0.43431 0.16704 0.63477 0 0.20045-0.16705 0.60135-0.20045 0.70158-0.33409 0.10023-0.13363 0.10023 0.20045 0.10023 0.20045z" fill="#1a1a1a"/>
<path d="m218.43 137.98s0-0.46772 0.13363-0.56795c0.13364-0.10023 0.26727 0.0334 0.26727 0.0334l-0.86862-1.8709-0.16705 0.0334-0.30068-0.26727 0.0334-0.16704-0.26727-0.23386-0.13363-0.26727-0.26727 0.43431 0.3675 0.4009-0.10023 0.23387h0.23386l0.30068 0.83521z" fill="#1a1a1a"/>
<path d="m219.73 137.75s-0.26727 0-0.3675-0.30068-0.0668-0.50113-0.0668-0.50113l-0.0668-0.13363 0.0668-0.20046s0.0334-0.43431-0.20045-0.60135c-0.23386-0.16705-0.4009-0.50114-0.4009-0.50114l0.50113 0.3675s0.30067 0.13364 0.30067 0.3675-0.10022 0.50113 0 0.70158c0.10023 0.20045 0.23387 0.80181 0.23387 0.80181z" fill="#1a1a1a"/>
<path d="m220.06 138.92c0.40091-0.60135 0.46772-0.70158 0.46772-0.86862 0-0.16705-0.20045-0.33409-0.20045-0.56795s-0.0334-0.43431-0.0334-0.43431l-0.30067-0.0668 0.16704 0.33408s-0.0334 0.23387 0 0.43432 0.16704 0.36749 0.0668 0.50113c-0.10023 0.13363-0.0334 0.26727-0.0334 0.26727z" fill="#1a1a1a"/>
<path d="m218.49 135.04s0.0334 0-0.0668-0.33409c-0.10023-0.33409-0.23386-0.63477-0.23386-0.63477s0 0.3675 0.33408 0.33409c0.33409-0.0334 0.46773-0.13364 0.46773-0.13364z" fill="#1a1a1a"/>
<path d="m216.76 133.17 0.10023 0.36749s0.0334 0.16705 0.23386 0.20045c0.20045 0.0334 0.66817-0.20045 0.66817-0.20045s-0.60135 0.16705-0.70158 0.0334c-0.10023-0.13363-0.30068-0.4009-0.30068-0.4009z" fill="#1a1a1a"/>
<path d="m221.7 137.62c-0.33409-0.0668-0.63477-0.0334-0.80181-0.4009s-0.20045-0.43431-0.20045-0.43431z" fill="#1a1a1a"/>
<path d="m217.66 138.58s0.20045-0.20046 0.13363-0.46773c-0.0668-0.26727-0.4009-0.30067-0.50113-0.46772-0.10022-0.16704-0.16704-0.66817-0.16704-0.66817l-0.53454-0.73499-0.10023 0.13363-0.23386-0.46772-0.23386-0.70158-0.26727 0.0334-0.60136-0.40091s0.33409 0.43432 0.20046 0.53454l-0.13364 0.10023s0.43432-0.13364 0.50113 0.0334c0.0668 0.16705 0.23386 0.40091 0.23386 0.40091l0.0668 0.20045-0.0668 0.26727 0.43432 0.40091 0.4009 0.33408-0.0334 0.40091 0.40091 0.53454 0.10022-0.10023s0.10023 0 0.20046 0.20045c0.10022 0.20045 0.20045 0.43432 0.20045 0.43432z" fill="#1a1a1a"/>
<path d="m220.66 141.86s0.60136-0.16705 0.93544-0.53454c0.33409-0.3675 0.40091-0.73499 0.46772-0.96885 0.0668-0.23386 0.23386-1.5368 0.23386-1.5368l-0.43431-0.0334s-0.93544 0.4009-1.2361 0.63476-0.46772 0.80181-0.46772 0.80181-0.0334 0.56795 0 0.7684 0.50113 0.86863 0.50113 0.86863z" stroke="#000" stroke-width=".26458px"/>
<path d="m215.72 137.95s-0.13363-0.4009-0.63476-0.4009-2.205-0.60136-2.205-0.60136 0.83521 0.56795 1.0023 0.53454c0.16704-0.0334 0.83521 0.30068 1.0691 0.23386 0.23386-0.0668 0.7684 0.23386 0.7684 0.23386z" fill="#1a1a1a"/>
<path d="m216.79 138.72s-0.16704-0.46772-0.36749-0.70158c-0.20046-0.23386-0.33409-0.66818-0.33409-0.80181 0-0.13364-0.16705 0.3675-0.13364 0.50113 0.0334 0.13363 0.16705 0.56795 0.3675 0.66817 0.20045 0.10023 0.46772 0.33409 0.46772 0.33409z" fill="#1a1a1a"/>
<path d="m214.95 136.98c-0.63476-0.33409-1.0691-0.40091-1.0691-0.40091l0.50113 0.40091 0.13363-0.0334z" fill="#1a1a1a"/>
<path d="m215.65 136.91s-0.26727-0.0668-0.40091-0.56795c-0.13363-0.50113-0.26727-0.10022-0.26727-0.10022s0.0668 0.53454 0.33409 0.63476c0.26727 0.10023 0.33409 0.0334 0.33409 0.0334z" fill="#1a1a1a"/>
<path d="m220.13 136.15c0.0334-0.53454 0.20045-0.70158-0.13363-0.90203-0.33409-0.20045-0.66818-0.26727-0.66818-0.26727s0.60136 0.23386 0.60136 0.50113 0.20045 0.66817 0.20045 0.66817z" fill="#1a1a1a"/>
<path d="m213.15 131.9s1.6036 1.2027 1.7373 1.637c0.13363 0.43432 0.53454 0.86863 0.53454 0.86863v-0.53454s0.36749 0.20045 0.7684 0.3675c0.4009 0.16704 0.10022-0.16705 0.10022-0.16705s-0.26727 0-0.50113-0.63476c-0.23386-0.63477-0.83522-1.2695-1.4032-1.4032-0.56795-0.13363-1.2361-0.13363-1.2361-0.13363z" fill="#1a1a1a"/>
<path d="m215.79 132.67c0.13363 0.20045 0.3675 0.30067 0.43431 0.60135 0.0668 0.30068 0.3675 0.50113 0.3675 0.50113s-0.30068-0.50113-0.30068-0.70158-0.50113-0.4009-0.50113-0.4009z" fill="#1a1a1a"/>
<path d="m211.91 132.91s0.90204 0.43431 1.0023 0.7684c0.10023 0.33409 0.53454 1.3029 0.43432 1.5702-0.10023 0.26726-0.26727 0.60135-0.26727 0.60135s0.0668-1.1025-0.13364-1.4032c-0.20045-0.30068-0.30068-0.63477-0.4009-0.7684-0.10023-0.13364-0.30068-0.10023-0.30068-0.10023z" fill="#1a1a1a"/>
<path d="m211.14 131.7s1.0691 0.23386 1.0691 0.53454c0 0.30067 0.56795 0.73498 0.86863 0.83521 0.30067 0.10023 0.93544 1.0691 0.93544 1.0691s-0.20045-0.63477-0.33409-0.90203c-0.13363-0.26728-0.90203-0.60136-1.0691-0.90204-0.16704-0.30068-0.96885-0.70158-0.96885-0.70158z" fill="#1a1a1a"/>
<path d="m214.15 134.64c-0.13363 0.26727 0.0668 0.66817 0.10023 0.96885 0.0334 0.30068-0.26727 0.50113-0.26727 0.50113s0.66818-0.33408 0.56795-0.80181c-0.10023-0.46772-0.40091-0.66817-0.40091-0.66817z" fill="#1a1a1a"/>
<path d="m213.05 136.18s0-0.16704-0.56795-0.13363c-0.56795 0.0334-0.83522 0.26726-1.1025 0.0668-0.26726-0.20045-0.53454-0.43431-0.53454-0.43431s0.60136 0.26727 0.86863 0.23386c0.26727-0.0334 0.7684-0.0334 0.90203 0 0.13364 0.0334 0.43432 0.26727 0.43432 0.26727z" fill="#1a1a1a"/>
<path d="m201.58 144.85 1.2321 2.4388 0.16705-0.70159s1.1025 2.1048 1.1025 1.9377c0-0.16705 0.16704-0.70159 0.16704-0.70159l0.90203 0.86863 0.56795 0.16705 0.56795 1.2027 0.23386-0.50113 0.86862 1.1359 0.43432-0.16704 0.56795 1.1359s-0.26727-0.735-0.10023-0.70159c0.16704 0.0334 1.0691 1.5368 1.0691 1.5368s-0.10023-0.43431 0-0.70158l0.10022-0.26727s-0.10022 0.46772 0.30068 0.73499c0.40091 0.26727 1.3364 1.3364 1.3364 1.3364l-0.20045 0.56795s-0.66818-0.96886-1.1359-1.0023c-0.46772-0.0334-1.3029-0.60135-1.3029-0.60135l0.30068 0.96885-0.90203-1.0357-0.60136-0.0668-0.43431-0.46773-0.83522-0.43431-0.60136-1.1025-0.66817-0.0334 0.0668 0.3675s-0.63477-1.0691-0.90204-1.0691-0.66817-0.43431-0.66817-0.43431l-0.50113-0.60136s0.0334 0.43432 0.13363 0.60136-0.0668 0.16704-0.0668 0.16704-0.53453-0.26727-0.60135-0.70158c-0.0668-0.43431-0.3675-0.7684-0.3675-0.7684s-0.13363-0.43431-0.30067-0.10023c-0.16705 0.33409 0.60135 1.3029 0.46772 1.1359-0.13364-0.16704-0.89781-1.3052-0.89781-1.3052l-0.29656-1.0001s0.22551-0.76839 0.35915-1.0022c0.13363-0.23386 0.43836-0.83522 0.43836-0.83522z" fill="#1a1a1a"/>
<path d="m201.62 144c0.0545 0.0273 0.0335 0.81856-0.33409 1.3029-0.46772 0.73499-0.66412 1.7389-0.66412 1.7389" fill="none" stroke="#000" stroke-width=".165"/>
<path d="m222.28 150.16s-0.35079 0.98555-0.65147 1.186c-0.30068 0.20046-0.50113 0.26727-0.50113 0.26727l0.43431-0.73499-0.56794 0.43432-0.20045-0.86863s-0.10023 1.0357-0.46773 1.2027c-0.36749 0.16705-0.80181-0.13363-0.80181-0.13363l-0.60135 1.0023s-0.0668-0.73499-0.13364-0.60136c-0.0668 0.13364-0.63476 0.93545-0.63476 0.93545l0.0334-0.53454-0.80181 0.93544-0.0334-0.36749s-0.23386 0.43431-0.50113 0.56794c-0.26727 0.13364-0.3675 0.50113-0.23386 0.56795 0.13363 0.0668 0.10022 0.0668 0.10022 0.0668s-0.53453 0.20045-0.73499 0.13363c-0.20045-0.0668-0.53453-0.23386-0.53453-0.23386l0.20045 0.33409-1.0684 0.53216-0.40629 0.32228 1.5415-0.48695 0.26727 0.26727 0.40091-0.43431s0.90203-0.43431 0.70158-0.20045-0.82746 0.69753-0.82746 0.69753l1.9968-0.79776-0.23386 0.53454 1.1025-0.63476s-0.0668 0.20045 0.0668 0.23386l0.18375-0.13364s0.0167-0.20046 0.18374-0.53455c0.16705-0.33408 0.80181-0.73499 0.80181-0.73499l0.26727 0.30068 0.23386-0.73499 1.0691-0.86863s-0.0334 0.50113 0 0.3675 0.33409-0.73499 0.33409-0.73499l0.23386 0.16704 0.10022-0.70159c-0.0649-0.19487-0.21462-0.38974-0.31738-0.58461z" fill="#1a1a1a"/>
<path transform="scale(.26458)" d="m773.93 484.5c-3.7545 2.9365-7.1248 6.3283-10.029 10.092 0.0507 0.13697 0.10071 0.29712 0.15235 0.40039 0.37878 0.75765 2.7773 3.2832 2.7773 3.2832s-0.37891 2.7763-0.37891 3.6602 0.12696 2.0215 0.12696 2.0215 1.6401-0.37831 2.2715-0.63086c0.63133-0.25247 1e-3 0.75754-0.125 2.1465-0.12623 1.389-0.88464 1.6415-0.50586 2.5254 0.37883 0.88388 0.63086 1.5137 0.63086 1.5137s0.2528-2.6506 1.1367-3.4082c0.88392-0.7576 3.7879-1.6415 4.293-2.5254 0.50506-0.88392 6.6928-3.7888 6.9453-5.1777 0.25247-1.389 0.12552-4.1669-0.12695-5.0508s-4.166-6.4395-4.166-6.4395-1.5295-1.2588-3.002-2.4102z" fill="url(#h)"/>
<path d="m202.72 139.02s0.16705-0.60136 0.13364-0.80181c-0.0334-0.20045 0-0.86863 0-0.86863l0.10022-0.7684 5.4122-2.3386 2.5725-0.80181s0.73499 0.13363 0.90204 0.13363c0.16704 0 0.73499 0.46772 0.73499 0.46772l-0.66818 1.5368-1.2361 0.10023-0.46772 1.5034z" fill="#4d4d4d"/>
<path transform="scale(.26458)" d="m773.8 484.58c-2.3055 1.8179-4.461 3.8139-6.4551 5.957 0.12964 0.016 0.26903 0.0371 0.36914 0.0371 0.63133 0 2.1465-0.25195 2.1465-0.25195s-2.1472 0.50411-2.2734 1.2617c-0.11225 0.67369-0.12167 1.4496-0.12304 1.6348 0.0232-0.22738 0.17498-0.73504 1.0078-1.3828 1.1364-0.88388 1.8926-0.88281 1.8926-0.88281l-2.6504 2.7773 2.3984-1.1367s1.3896 1e-3 2.2734 0.25391c0.88388 0.25247-4.041 1.7676-4.041 1.7676l5.1777-1.1367s-3.5372 1.3882-3.916 2.0195l-0.37891 0.63086s2.1467-1.1348 2.9043-1.1348h1.1367s-4.1672 2.5254-3.6621 2.5254c0.50505 0 4.293-0.12695 4.293-0.12695l-3.0293 1.0098 3.0293-0.125-3.1562 0.88281s3.6624 0.12615 4.7988-0.37891c1.1364-0.50506 1.2617 0.25196 1.2617 0.25196s-4.4194 1.1381-5.0508 1.3906c-0.63137 0.25247 1.7695 1.0098 1.7695 1.0098h-3.1582s1.6413 0.37839 1.7676 1.0098l0.12695 0.63086-2.3984-0.5039 1.0098 1.2617s-0.79672-0.17535-1.3203-0.51953c0.21765 0.53131 0.43555 1.1504 0.43555 1.1504s-1.7668-0.3781-1.2617 0.12696c0.50506 0.50509 2.0195 0.88476 2.0195 0.88476l-3.0293 0.50391 2.5254 0.88476s-0.50658 0.25217-0.63281 1.3887l-0.0957 0.87109c0.0619-0.40798 0.28216-1.1583 1.1074-1.25 1.1364-0.12624 1.0098 0.63086 1.0098 0.63086s-1.136 0.63242-1.0098 1.6426c0.12624 1.0102 1.0098 2.9043 1.0098 2.9043s-0.63252-1.5164 0.50391-2.0215c1.1364-0.5051 3.2832-0.25195 3.2832-0.25195l-1.7676 3.1562 2.7773-1.3262-1.0098 1.4844 2.0215-1.1523 2.2715-2.0918-1.0723 2.8691 2.4297-2.3535-0.31445 2.7734 0.24414-0.11523 1.7363-3.1289 0.0703 2.2676 0.5664-0.26953 1.3926-6.1543s-1.2645-1.3888-1.7695-1.7676c-0.5051-0.37882-1.136-2.273-1.0098-3.2832 0.12623-1.0101 0.75772-4.1676 0.3789-5.1777-0.37878-1.0102-1.01-3.9144-2.1465-5.0508-1.1364-1.1364-3.031-4.0401-4.4199-5.3027-0.58606-0.53279-1.2876-1.0604-1.9942-1.5742zm-4.2891 24.543c-0.0233 0.15383-0.0293 0.26562-0.0293 0.26562zm0.0391-5.8106c-0.22419-0.54729-0.44726-1.0016-0.44726-0.61718 0 0.24698 0.19402 0.45072 0.44726 0.61718zm-2.086-10.094c-8e-3 0.0829-4e-3 0.13282-4e-3 0.13282s4e-3 -0.10975 4e-3 -0.13282z" fill="#ccc"/>
<path d="m220.16 129.5s0.13363 0.3675-0.0668 0.80181c-0.20045 0.43431-0.20045 1.5368-0.60136 1.8375-0.4009 0.30068-0.78796 1.008-0.78796 1.008" fill="none" stroke="#000" stroke-linecap="round" stroke-linejoin="round" stroke-width=".165"/>
<path d="m216.25 139.92c-1e-5 0.99636-0.83015 1.8041-1.8542 1.8041-0.79017 0-1.8542-0.8077-1.8542-1.8041-1e-5 -0.99637 0.93037-1.4366 1.8542-1.4366 1.1577 0.40091 1.8542 0.44023 1.8542 1.4366z" fill="#37abc8" opacity=".5"/>
<path d="m221.95 140.32c0 0.76572-0.54421 1.0691-1.1693 1.47-0.29102-0.33409-0.55124-0.58733-0.58465-1.186-0.0427-0.76453 0.49409-1.2528 1.186-1.4867 0.52487-0.20046 0.56794 0.43699 0.56794 1.2027z" fill="#37abc8" opacity=".5"/>
<path d="m216.25 139.92c-1e-5 0.99636-0.83015 1.8041-1.8542 1.8041-0.79017 0-1.8542-0.8077-1.8542-1.8041-1e-5 -0.99637 0.93037-1.4366 1.8542-1.4366 1.1577 0.40091 1.8542 0.44023 1.8542 1.4366z" fill="url(#f)" opacity=".5"/>
<path d="m214.52 139.22s-0.26727 0.53454-0.26727 0.80181 0.43431 0.96885 0.43431 0.96885 0.26727-0.70158 0.26727-0.93544-0.43431-0.83522-0.43431-0.83522z" stroke="#000" stroke-width=".26458px"/>
<path d="m221.95 140.32c0 0.76572-0.54421 1.0691-1.1693 1.47-0.29102-0.33409-0.55124-0.58733-0.58465-1.186-0.0427-0.76453 0.49409-1.2528 1.186-1.4867 0.52487-0.20046 0.56794 0.43699 0.56794 1.2027z" fill="url(#d)" opacity=".5"/>
<path d="m221 139.45s-0.20045 0.26727-0.10023 0.50113c0.10023 0.23386 0.30068 0.7684 0.30068 0.7684s0.26727-0.73499 0.20045-0.93544c-0.0668-0.20045-0.4009-0.33409-0.4009-0.33409z" stroke="#000" stroke-width=".26458px"/>
<path d="m217.09 145.1c-0.26727-0.0668-4.2763-1.6704-4.2763-1.6704l1.0691 0.80181-2.205-0.13363 1.5368 0.4009 0.60136 0.13364-0.93544 0.4009s1.1359-0.26727 1.5368-0.33408c0.40091-0.0668 2.6727 0.4009 2.6727 0.4009z" fill="#1a1a1a"/>
<path d="m219.26 145.33s-0.53454-0.36749-0.66817-0.43431c-0.13363-0.0668 0.46772 0.63476 0.63477 0.7684 0.16704 0.13363 0.70158 0.33408 0.90203 0.66817s0.50113 0.3675 0.50113 0.56795-0.13364 0.56795-0.13364 0.56795l1.0691-0.96885 0.63477-0.56795 0.10022-0.60136z"/>
<path d="m221.65 145.14s-0.25988-0.22422-0.54205-0.22694c-0.54419-5e-3 -0.90853 0.1525-0.90853 0.1525s-0.18042-0.10254-0.42209-0.12502c-0.24166-0.0224-0.46667 0.31801-0.46803 0.4591-1e-3 0.14107 0.29746 0.50678 0.49824 0.58935 0.17039 0.0975 0.22054 0.12306 0.22054 0.12306s-0.0193-0.0808 0.0823-0.18061c0.10174-0.0998 0.42423-0.0967 0.42423-0.0967s0.0391 0.12132-0.0415 0.12054-0.21657-0.0122-0.23769 0.0884c-0.0211 0.10059 0.0132 0.19162 0.0132 0.19162s0.21977 0.2037 0.38024 0.28587c0.16046 0.0821 0.33991 0.28547 0.44107 0.24613 0.10117-0.0393 0.40524-0.21781 0.48722-0.35813 0.082-0.1403 0.13799-0.20023 0.0984-0.28124-0.0395-0.081-0.20033-0.12792-0.20033-0.12792l-0.0144-0.0757s0.24186 2e-3 0.30195 0.0432c0.0601 0.0409 0.0742 0.14686 0.0742 0.14686l0.0141 0.10092s0.14201-0.0943 0.2545-0.26463c0.11756-0.17524 0.18413-0.28042 0.16572-0.46201-0.0183-0.18158-0.0984-0.40652-0.19746-0.42519-0.14085-0.0266-0.41901 0.0766-0.41901 0.0766z" fill="#ff8080" stroke="#f55" stroke-width=".14078"/>
<path d="m217.44 145.97a0.13455 0.12232 0 0 1 -0.13455 0.12231 0.13455 0.12232 0 0 1 -0.13454 -0.12231 0.13455 0.12232 0 0 1 0.13454 -0.12232 0.13455 0.12232 0 0 1 0.13455 0.12232z" opacity=".5" stroke="#000" stroke-linecap="round" stroke-width=".12082"/>
<path d="m218.03 146.1a0.13455 0.12232 0 0 1 -0.13455 0.12231 0.13455 0.12232 0 0 1 -0.13454 -0.12231 0.13455 0.12232 0 0 1 0.13454 -0.12232 0.13455 0.12232 0 0 1 0.13455 0.12232z" opacity=".5" stroke="#000" stroke-linecap="round" stroke-width=".12082"/>
<path d="m216.59 145.87a0.13455 0.12232 0 0 1 -0.13455 0.12231 0.13455 0.12232 0 0 1 -0.13454 -0.12231 0.13455 0.12232 0 0 1 0.13454 -0.12232 0.13455 0.12232 0 0 1 0.13455 0.12232z" opacity=".5" stroke="#000" stroke-linecap="round" stroke-width=".12082"/>
<path d="m215.65 145.87a0.13455 0.12232 0 0 1 -0.13455 0.12231 0.13455 0.12232 0 0 1 -0.13454 -0.12231 0.13455 0.12232 0 0 1 0.13454 -0.12232 0.13455 0.12232 0 0 1 0.13455 0.12232z" opacity=".5" stroke="#000" stroke-linecap="round" stroke-width=".12082"/>
<path d="m214.92 145.63a0.13455 0.12232 0 0 1 -0.13455 0.12231 0.13455 0.12232 0 0 1 -0.13454 -0.12231 0.13455 0.12232 0 0 1 0.13454 -0.12232 0.13455 0.12232 0 0 1 0.13455 0.12232z" opacity=".5" stroke="#000" stroke-linecap="round" stroke-width=".12082"/>
<path d="m216.32 145.33a0.13455 0.12232 0 0 1 -0.13455 0.12231 0.13455 0.12232 0 0 1 -0.13454 -0.12231 0.13455 0.12232 0 0 1 0.13454 -0.12232 0.13455 0.12232 0 0 1 0.13455 0.12232z" opacity=".5" stroke="#000" stroke-linecap="round" stroke-width=".12082"/>
<path d="m211.94 145.11a0.18895 0.1266 19.47 0 1 -0.22033 0.0564 0.18895 0.1266 19.47 0 1 -0.13594 -0.18232 0.18895 0.1266 19.47 0 1 0.22034 -0.0564 0.18895 0.1266 19.47 0 1 0.13594 0.18235z" fill="#1a1a1a" opacity=".5" stroke="#1a1a1a" stroke-linecap="round" stroke-width=".14566"/>
<path d="m218.59 146.87a0.13455 0.12232 0 0 1 -0.13455 0.12231 0.13455 0.12232 0 0 1 -0.13454 -0.12231 0.13455 0.12232 0 0 1 0.13454 -0.12232 0.13455 0.12232 0 0 1 0.13455 0.12232z" opacity=".5" stroke="#000" stroke-linecap="round" stroke-width=".12082"/>
<path d="m217.89 146.77a0.13455 0.12232 0 0 1 -0.13455 0.12231 0.13455 0.12232 0 0 1 -0.13454 -0.12231 0.13455 0.12232 0 0 1 0.13454 -0.12232 0.13455 0.12232 0 0 1 0.13455 0.12232z" opacity=".5" stroke="#000" stroke-linecap="round" stroke-width=".12082"/>
<path d="m217.22 146.77a0.13455 0.12232 0 0 1 -0.13455 0.12231 0.13455 0.12232 0 0 1 -0.13454 -0.12231 0.13455 0.12232 0 0 1 0.13454 -0.12232 0.13455 0.12232 0 0 1 0.13455 0.12232z" opacity=".5" stroke="#000" stroke-linecap="round" stroke-width=".12082"/>
<path d="m216.46 146.77a0.13455 0.12232 0 0 1 -0.13455 0.12231 0.13455 0.12232 0 0 1 -0.13454 -0.12231 0.13455 0.12232 0 0 1 0.13454 -0.12232 0.13455 0.12232 0 0 1 0.13455 0.12232z" opacity=".5" stroke="#000" stroke-linecap="round" stroke-width=".12082"/>
<path d="m215.65 146.6a0.13455 0.12232 0 0 1 -0.13455 0.12231 0.13455 0.12232 0 0 1 -0.13454 -0.12231 0.13455 0.12232 0 0 1 0.13454 -0.12232 0.13455 0.12232 0 0 1 0.13455 0.12232z" opacity=".5" stroke="#000" stroke-linecap="round" stroke-width=".12082"/>
<path d="m214.89 146.5a0.13455 0.12232 0 0 1 -0.13455 0.12231 0.13455 0.12232 0 0 1 -0.13454 -0.12231 0.13455 0.12232 0 0 1 0.13454 -0.12232 0.13455 0.12232 0 0 1 0.13455 0.12232z" opacity=".5" stroke="#000" stroke-linecap="round" stroke-width=".12082"/>
<path d="m206.2 137.45h0.60135s0.26727-0.10023 0.0334-0.26727c-0.23386-0.16704-0.43431-0.20045-0.43431-0.20045l0.86862 0.10022-0.26727-0.63476 0.46773 0.30068 0.0668-0.53454 0.36749 0.20045s0.0668-0.26727 0-0.50113l-0.0668-0.23386 0.56795 0.23386-0.10022-0.46772 0.4009 0.26727 0.0334-0.46772 0.33408 0.16704 0.0334-0.30068s0.20046 0.30068 0.26727 0.10023c0.0668-0.20045 0.33409-0.33409 0.33409-0.33409l0.0334 0.33409s0.33409-0.40091 0.46772-0.50113c0.13363-0.10023 0.20045 0.30068 0.20045 0.30068l0.3675-0.46773 0.10022 0.33409s0.20046-0.0334 0.30068-0.23386c0.10023-0.20045 0.13364-0.16704 0.13364-0.16704l0.16704 0.23386s0.10022-0.13364 0.26727-0.16705c0.16704-0.0334 0.4009-0.0334 0.4009-0.0334s-0.13363-0.10022-0.26726 0.13364c-0.13364 0.23386-0.13364 0.50113-0.13364 0.50113s-0.70158-0.0668-0.93544 0c-0.23387 0.0668-1.4032 0.60136-1.6704 0.7684s-1.7372 1.1359-2.0045 1.47c-0.26727 0.33409-0.63476 0.43432-0.7684 0.40091-0.13364-0.0334-0.16704-0.33409-0.16704-0.33409z" fill="#ccc"/>
<path d="m216.25 139.92c-1e-5 0.99636-0.83015 1.8041-1.8542 1.8041-0.79017 0-1.8542-0.8077-1.8542-1.8041-1e-5 -0.99637 0.93037-1.4366 1.8542-1.4366 1.1577 0.40091 1.8542 0.44023 1.8542 1.4366z" fill="url(#e)" opacity=".5"/>
<path d="m221.95 140.32c0 0.76572-0.54421 1.0691-1.1693 1.47-0.29102-0.33409-0.55124-0.58733-0.58465-1.186-0.0427-0.76453 0.49409-1.2528 1.186-1.4867 0.52487-0.20046 0.56794 0.43699 0.56794 1.2027z" fill="url(#c)" opacity=".5"/>
<path d="m216.25 140.09s0.0668-0.40091 0-0.53454c-0.0668-0.13364-0.16704-0.40091-0.53454-0.63477-0.36749-0.23386-1.1025-0.43431-1.3363-0.46772-0.23387-0.0334-1.0023 0.13364-1.2361 0.30068s-0.56794 0.7684-0.56794 0.7684 1.3698-0.30068 1.6704-0.10023c0.30068 0.20046 1.1693 0.73499 1.47 0.73499 0.30068 0 0.53454-0.0668 0.53454-0.0668z" fill="#fff" opacity=".3"/>
<path d="m220.26 140.82s0.46773-0.66818 0.70159-0.80181c0.23386-0.13364 0.63476-0.13364 0.7684-0.33409 0.13363-0.1532 0.17683-0.12903 0.17683-0.12903s-0.0425-0.28499-0.16502-0.40551c0 0-0.0741-0.10465-0.29849-0.0811-0.11812 0.0236-0.4016 0.14174-0.67327 0.31892-0.22443 0.17721-0.33073 0.34254-0.37798 0.4016-0.0472 0.0591-0.18899 0.44885-0.2008 0.55515-0.0118 0.10631 3e-3 0.3074 9e-3 0.36617 6e-3 0.0591 0.0266 0.16683 0.0266 0.16683z" fill="#fff" opacity=".3"/>
<path d="m220.14 140.91s0.12993-0.70871 0.28348-0.87407c0.15356-0.16537 1.2993-0.88588 1.3938-0.92132 0.0945-0.0354 0.31425-0.16297 0.37331-0.19841-0.15806 0.0481 0.0969-6.1e-4 0.39505-0.10281 0.18466-0.0633 0.44348-0.10032 0.52616-0.15942 0.0827-0.0591 0.21797-0.24173 0.21797-0.32441 0-0.0827-0.0124-0.11266-0.0124-0.11266s-0.0827 0.0827-0.21263 0.12993c-0.12993 0.0472-0.4016 0.0118-0.47247 0.0236-0.0709 0.0118-0.66146 0.18899-0.85044 0.24805-0.18899 0.0591-0.81502 0.34254-0.99219 0.44884-0.17718 0.10631-0.48428 0.43704-0.54334 0.51972-0.0591 0.0827-0.22442 0.46066-0.22442 0.56697 0 0.1063 0 0.38978 0.0118 0.46065 0.0118 0.0709 0.1063 0.2953 0.1063 0.2953z"/>
<path d="m216.37 139.95s-0.13363-0.33408-0.41761-0.55124c-0.28397-0.21716-0.95214-0.48443-1.3698-0.53454-0.41761-0.0501-0.94167-0.0187-1.4345 0.0835-0.45154 0.0904-0.44411 0.56491-0.63579 0.64068-0.17986 0.10528-0.3518 0.14443-0.3518 0.14443s-0.11064 0.0315-0.45102 0.0167c-0.3842-0.0167-0.56795-0.13364-0.56795-0.13364s-0.24735-0.1078-0.36732-0.23756c-0.10224-0.0943-0.1505-0.28027-0.1505-0.28027s0.25056 0.13363 0.4009 0.15034c0.15034 0.0167 0.32885-0.0501 0.59444-0.12973 1.0129-0.95992 1.1378-0.80639 1.1378-0.80639s0.51226-0.0319 0.79623-0.0653c0.28398-0.0334 0.74561 0.0827 0.92936 0.11608 0.18375 0.0334 0.95215 0.26727 1.019 0.31738 0.0668 0.0501 0.58465 0.35079 0.75169 0.56795 0.16705 0.21716 0.11693 0.70158 0.11693 0.70158z"/>
<path d="m215.42 137.68s0.26726-1.0691-0.33409-2.205c-0.60136-1.1359-1.47-1.6036-1.8041-2.8063s-0.46772-2.0045-0.46772-2.0045" fill="none" stroke="#fff" stroke-linecap="round" stroke-linejoin="round" stroke-width=".065"/>
<path d="m214.68 137.55c-0.66817-1.0023-0.86862-1.1359-1.6704-1.4032s-1.5368-0.26727-1.5368-0.26727" fill="none" stroke="#fff" stroke-linecap="round" stroke-linejoin="round" stroke-width=".065"/>
<path d="m219.76 137.88s0.40091-1.4032 0.80181-1.9377c0.40091-0.53454 1.2027-1.5368 1.9377-1.8709s2.7395-0.66817 2.7395-0.66817" fill="none" stroke="#fff" stroke-linecap="round" stroke-linejoin="round" stroke-width=".065"/>
<path d="m220.9 137.55s1.0023-0.73499 1.4032-0.86863c0.40091-0.13363 2.0045-0.33409 2.5391-0.0668 0.53455 0.26727 1.0691 0.33409 1.0691 0.33409" fill="none" stroke="#fff" stroke-linecap="round" stroke-linejoin="round" stroke-width=".065"/>
<path d="m222.03 137.75 0.8018-0.20045s0.33409 0 0.66818 0.13363l0.33408 0.13364" fill="none" stroke="#fff" stroke-linecap="round" stroke-linejoin="round" stroke-width=".065"/>
<path d="m220.63 134.27s1.3364-2.0713 1.6704-2.4722c0.33409-0.4009 0.93545-0.53454 0.93545-0.53454" fill="none" stroke="#fff" stroke-linecap="round" stroke-linejoin="round" stroke-width=".065"/>
<path d="m212.95 137.62s-0.20045 0.40091-0.66817 0c-0.46772-0.4009-1.2695-0.60135-1.2695-0.60135" fill="none" stroke="#fff" stroke-linecap="round" stroke-linejoin="round" stroke-width=".065"/>
<path d="m221.43 147.5s0.66817 0.53453 1.0691 1.3363c0.4009 0.80181 0.60135 2.1382 0.53454 2.4054" fill="none" stroke="#fff" stroke-linecap="round" stroke-linejoin="round" stroke-width=".065"/>
<path d="m221.7 146.97s0.80181 0.13363 1.1359 1.0023c0.33409 0.86862-0.20045 2.0045-0.20045 2.0045" fill="none" stroke="#fff" stroke-linecap="round" stroke-linejoin="round" stroke-width=".065"/>
<path d="m222.3 146.3s0.93545 0.40091 1.1359 0.80181c0.20045 0.40091 0.20045 0.73499 0.20045 0.73499" fill="none" stroke="#fff" stroke-linecap="round" stroke-linejoin="round" stroke-width=".065"/>
<path d="m222.23 145.9s0.0668-0.13364 0.73499-0.0668c0.66817 0.0668 1.1359 0.46772 1.1359 0.46772" fill="none" stroke="#fff" stroke-linecap="round" stroke-linejoin="round" stroke-width=".065"/>
<path d="m222.37 145.37s0.86863-0.0668 1.8041 0.13364c0.93545 0.20045 2.1382 0.46772 2.1382 0.46772" fill="none" stroke="#fff" stroke-linecap="round" stroke-linejoin="round" stroke-width=".065"/>
<path d="m221.77 147.24s1.0023 1.0023 1.2695 1.4032c0.26727 0.40091 0.53454 1.8709 0.53454 2.205 0 0.33408-0.13364 1.2027-0.13364 1.2027" fill="none" stroke="#fff" stroke-linecap="round" stroke-linejoin="round" stroke-width=".065"/>
<path d="m221.23 148.17s0.33408 0.33409 0.33408 0.73499c0 0.40091-0.0668 0.73499-0.0668 0.73499" fill="none" stroke="#fff" stroke-linecap="round" stroke-linejoin="round" stroke-width=".065"/>
<path d="m216.69 149.84c-0.0668 0.53454-0.40091 1.1359-0.40091 1.1359" fill="none" stroke="#fff" stroke-linecap="round" stroke-linejoin="round" stroke-width=".065"/>
<path d="m217.22 149.58s-0.0668 0.46773 0.13363 0.735c0.20045 0.26726 0.53454 0.46772 0.53454 0.46772" fill="none" stroke="#fff" stroke-linecap="round" stroke-linejoin="round" stroke-width=".065"/>
<path d="m218.69 149.51s0.0668 0 0.0668 0.53454c0 0.53453-0.33408 0.80181-0.33408 0.80181" fill="none" stroke="#fff" stroke-linecap="round" stroke-linejoin="round" stroke-width=".065"/>
<path d="m219.43 149.38s-0.0668 0.40091 0.13363 0.66818c0.20045 0.26727 0.60136 0.4009 0.60136 0.4009" fill="none" stroke="#fff" stroke-linecap="round" stroke-linejoin="round" stroke-width=".065"/>
<path d="m217.67 147.65s-0.99219-0.0945-1.7954 0.66146c-0.8032 0.75595-2.4568 3.449-2.4568 3.449" fill="none" stroke="#fff" stroke-linecap="round" stroke-linejoin="round" stroke-width=".065"/>
<path d="m215.97 147.6s-2.0316 1.0867-2.6931 1.5592-2.2678 2.8821-2.2678 2.8821" fill="none" stroke="#fff" stroke-linecap="round" stroke-linejoin="round" stroke-width=".065"/>
<path d="m216.3 147.65s-2.4096 1.5592-2.7876 2.0789c-0.37798 0.51972-1.1339 1.8899-1.1339 1.8899" fill="none" stroke="#fff" stroke-linecap="round" stroke-linejoin="round" stroke-width=".065"/>
<path d="m217.71 146.04s-3.9688-0.14174-6.5201 0.47247-5.9059 1.9371-7.0398 2.0789c-1.1339 0.14174-2.304 0.27775-2.304 0.27775" fill="none" stroke="#fff" stroke-linecap="round" stroke-linejoin="round" stroke-width=".065"/>
<path d="m214.78 146.47s-3.1183 0.47247-5.7169 1.5119c-2.5986 1.0394-3.6853 1.5592-4.583 2.1261-0.8977 0.56697-0.96394 0.6676-0.96394 0.6676" fill="none" stroke="#fff" stroke-linecap="round" stroke-linejoin="round" stroke-width=".065"/>
<path d="m215.64 145.8s-6.2366 2.6458-7.276 3.3545c-1.0394 0.70871-3.0711 2.2206-3.0711 2.2206" fill="none" stroke="#fff" stroke-linecap="round" stroke-linejoin="round" stroke-width=".065"/>
<path d="m215.59 146.61s-5.3389 1.6536-6.1421 2.2206c-0.8032 0.56697-4.4054 3.2471-4.4054 3.2471" fill="none" stroke="#fff" stroke-linecap="round" stroke-linejoin="round" stroke-width=".065"/>
<path d="m216.44 146.8s-3.3073 1.1812-4.394 1.5119-3.827 1.7481-3.827 1.7481" fill="none" stroke="#fff" stroke-linecap="round" stroke-linejoin="round" stroke-width=".065"/>
<path d="m217.15 146.75s-4.2995 1.2757-5.3389 1.8899c-1.0394 0.61421-5.9711 3.9658-5.9711 3.9658" fill="none" stroke="#fff" stroke-linecap="round" stroke-linejoin="round" stroke-width=".065"/>
<path d="m216.39 145.9s-7.4178 3.827-7.7958 4.1577c-0.37798 0.33073-2.2706 2.8815-2.2706 2.8815" fill="none" stroke="#fff" stroke-linecap="round" stroke-linejoin="round" stroke-width=".065"/>
<path d="m218.56 146.89s-1.5592 0.37798-1.8426 0.37798c-0.28348 0-4.205 1.4174-4.6302 1.7954-0.42523 0.37797-3.3545 3.7798-3.3545 3.7798" fill="none" stroke="#fff" stroke-linecap="round" stroke-linejoin="round" stroke-width=".065"/>
<path d="m207.67 134.09s-0.18899-0.3071-0.37798-0.4016-0.28348-0.0709-0.3071-0.23623c-0.0236-0.16537 0.0472-1.2993 0.0236-1.7481s-0.16536-1.1812-0.61421-1.7718c-0.44885-0.59058-1.2048-1.5355-1.3702-1.63-0.16537-0.0945-0.30711-0.18899-0.30711-0.18899" fill="none" stroke="#000" stroke-linecap="round" stroke-linejoin="round" stroke-width=".165"/>
<path d="m203.8 135.88s-0.56696-0.47247-0.56696-0.66146 0.14174-0.33073 0.0945-0.47247c-0.0472-0.14174-0.25985-0.33073-0.25985-0.44885 0-0.11811 0.0709-0.63783 0.14174-0.73232 0.0709-0.0945 0.25985-0.30711 0.25985-0.30711s-0.37798 0.14174-0.51972 0.0709c-0.14174-0.0709-0.2126-0.16538-0.2126-0.35436 0-0.18899 0.14174-0.8032 0.11811-0.96857-0.0236-0.16536-0.25986-0.51971-0.42522-0.66146-0.16537-0.14174-0.33073-0.40159-0.33073-0.51971v-0.0709" fill="none" stroke="#000" stroke-linecap="round" stroke-linejoin="round" stroke-width=".165"/>
</g>
</g>
</svg>
