<?xml version="1.0" encoding="utf-8"?>
<svg width="117.21" height="115.78" version="1.1" viewBox="0 0 31.011706 30.633729" xmlns="http://www.w3.org/2000/svg">
  <defs>
    <radialGradient id="b" cx="287.97" cy="83.722" r="1.603" gradientTransform="matrix(1 0 0 .84891 .14807 11.506)" gradientUnits="userSpaceOnUse">
      <stop stop-color="#1a1a1a" stop-opacity="0" offset="0"/>
      <stop stop-color="#1a1a1a" offset="1"/>
    </radialGradient>
    <radialGradient id="a" cx="279.06" cy="92.786" r="15.506" gradientTransform="matrix(1.4024 -.50486 .49345 1.3707 -158.07 106.38)" gradientUnits="userSpaceOnUse">
      <stop stop-color="#5fbcd3" offset="0"/>
      <stop stop-color="#5fbcd3" stop-opacity="0" offset="1"/>
    </radialGradient>
  </defs>
  <g transform="translate(-259.28 -68.744)">
    <path d="m290.2 84.063c0 8.4132-6.9047 15.234-15.422 15.234-8.5176 2.8e-4 -15.423-6.8196-15.423-15.233-5.6e-4 -8.4132 6.9037-15.234 15.421-15.235 8.5176-8.3e-4 15.423 6.8186 15.424 15.232-1e-3 -0.53617-8e-3 0.42347 0 2e-3z" fill="#d5f6ff"/>
    <path d="m290.2 84.061c0 8.4132-6.9047 15.234-15.422 15.234-8.5176 2.8e-4 -15.423-6.8196-15.423-15.233-5.6e-4 -8.4132 6.9037-15.234 15.421-15.235 8.5176-8.3e-4 15.423 6.8186 15.424 15.232-1e-3 -0.53616-8e-3 0.42347 0 2e-3z" fill="url(#a)" stroke="#000" stroke-linecap="round" stroke-linejoin="bevel" stroke-width=".16601"/>
    <path transform="scale(.26458)" d="m1020.9 273.3c-3.571-0.0525-10.268 0.44559-14.732 1.4277-2.0622 0.30934-6.3272 1.8526-9.6894 3.1406-10.04 10.344-16.222 24.371-16.221 39.832 2e-3 31.798 26.1 57.575 58.293 57.574 10.877-3.6e-4 21.052-2.9508 29.766-8.0742 0.086-1.2462 0.1462-2.4673 0.084-3.2754-0.1784-2.3214-1.9659-11.966-3.3945-15.895-1.4286-3.9286-5.1777-10.355-5.1777-10.355s3.7496-1.2514 5.8925-3.0371c2.1428-1.7857 4.8223-2.5 4.8223-2.5s1.0705-1.7849 1.4277-2.6777 0.7149-7.678-0.5351-9.2852c-1.25-1.6072-3.5718-4.6437-4.7324-6.0723-0.3572-1.4286-2.4109-6.4288-3.125-7.8574-0.7144-1.4286-3.7505-10.268-6.3399-13.125-2.1429-2.8571-7.5886-8.2143-9.9101-10-3.3928-2.4107-8.7495-5.5363-13.035-6.9648-3.75-1.4286-7.3212-2.7662-13.393-2.8555z" fill="#e6e6e6" stroke="#000" stroke-linecap="round" stroke-linejoin="bevel" stroke-width=".62746"/>
    <g fill="none" stroke-linecap="round" stroke-linejoin="round">
      <path d="m279.06 87.265c-0.80319 0.28348-1.2048 0.49609-1.4174 0.75596-0.21262 0.25986-0.3071 0.54334-0.3071 0.54334" stroke="#808080" stroke-width=".165"/>
      <path d="m273.14 86.911 0.33073-0.18899-0.0709 0.28348 0.80319-0.42522v0.18899l0.47247-0.4016s0.14174 0.23623 0.14174 0.11812c0-0.11812 0.63783-0.44884 0.63783-0.44884" stroke="#808080" stroke-width=".065"/>
      <path d="m262.91 86.769c-0.0236 0.44884-0.30711 0.96856-0.30711 0.96856s0.56696-0.42522 0.92132-0.47247c0.35435-0.04725 0.75595 0.04725 0.75595 0.04725l-0.77958 0.94494 0.30711-0.16536-0.23624 0.51972 0.61421-0.33073 0.63784-0.25986-0.16536 0.42522 0.51971-0.33073" stroke="#999" stroke-width=".065"/>
      <path d="m267.75 91.187s0 0.68508-0.21262 0.8032c-0.21261 0.11812 0.37799-0.23624 0.63784-0.3071 0.25987-0.07087 0.21261 0.28348 0 0.47247-0.2126 0.18899 0.18899 0.04725 0.42523-0.14174 0.23622-0.18899 0 0.04725 0.14174 0.3071 0.14174 0.25986-0.16536 0.33073 0.11811 0.02363 0.28348-0.30711 0.0709-0.33073 0.23625 0.07087 0.16536 0.4016 0.0472 0.0945 0.37795-0.23623 0.33073-0.33073 0.30713-0.33073 0.30713-0.33073" stroke="#999" stroke-width=".065"/>
      <path d="m278.36 91.943c-0.23625 0.75595-0.23625 0.42522-0.23625 0.82682 0 0.4016-0.0236 0.68508-0.0236 0.68508s0.0473-0.21261-0.44884-0.56696c-0.49609-0.35435-0.33073-0.56696-0.33073-0.56696s-0.16536 0.35435-0.14173 0.61421c0.0235 0.25986-0.40161-0.35435-0.40161-0.35435l-0.14182 0.35435s-0.16537-0.59059-0.16537-0.49609c0 0.0945-0.21261 0.37798-0.21261 0.37798s0.25987-0.04725-0.0236-0.28348c-0.28348-0.23624-0.23622 0.14174-0.23622 0.14174l-0.44884-0.66146" stroke="#999" stroke-width=".065"/>
      <path d="m260.66 82.544c-0.11473 0.6317 0.01 0.39421-0.14138 0.68259-0.15108 0.28838-0.24077 0.50082-0.24077 0.50082s0.046-0.17046 0.53558-0.23828c0.48952-0.06783 0.45077-0.28271 0.45077-0.28271s-0.0146 0.31665-0.12928 0.49436c-0.11463 0.17776 0.42168-0.10338 0.42168-0.10338l-0.0315 0.3078s0.34091-0.36188 0.30536-0.29402c-0.0356 0.06786 0.0105 0.3514 0.0105 0.3514s-0.16884-0.13169 0.12358-0.19468c0.29243-0.06299 0.1163 0.19064 0.1163 0.19064l0.57113-0.30613" stroke="#999" stroke-width=".052692"/>
      <path d="m274.24 95.68c-0.0938 0.32988-0.0174 0.77509-0.0174 0.77509s-0.30435-0.44697-0.54852-0.56857c-0.24416-0.1216-0.55744-0.15252-0.55744-0.15252l0.32954 0.87468-0.1809-0.19521 0.0423 0.43354-0.36179-0.39042-0.39634-0.34508 0.0144 0.34782-0.29355-0.36709" stroke="#999" stroke-width=".049596"/>
    </g>
    <path transform="scale(.26458)" d="m1020.9 273.3c-3.571-0.0525-10.268 0.44755-14.732 1.4297-2.0614 0.3092-6.3242 1.8511-9.6856 3.1387-6.6684 6.8698-11.631 15.362-14.211 24.826 0.45002 0.13991 0.86719 0.30664 0.86719 0.30664s-0.50059 0.0178-0.97461 0.0684c-0.0646 0.24374-0.12407 0.48938-0.18555 0.73437l1.4121 0.39648s-1.6411 1.1367-1.3887 1.1367c0.25255 0 4.041-0.69531 4.041-0.69531l-1.5156 1.2637 2.3359-0.44336-0.44141 0.63282 3.0293-0.0645-0.69336 1.0098h2.9043l-1.6426 0.82226s0.75814-0.12635 1.8945-0.3789c1.1364-0.25252 1.8301 0.25195 1.8301 0.25195l-0.69336 0.75781 2.9668 0.37891-1.8301 0.75781 2.6504-0.18945-1.1367 0.50391 3.0938 0.3789 1.4531-0.0625-3.2832 1.4531 5.1778-0.82227v0.37891l1.3886 0.44336-1.5781 0.5039 4.293 0.12696-0.8848 1.0098 1.5156-0.56836s-0.5688 1.1367-0.3164 1.1367c0.2525 0 1.7051 0.25195 1.7051 0.25195s-0.4424 1.3254 0.252 1.0098c0.6945-0.31567 2.5262-0.31445 2.8418-0.31445 0.3157 0-1.4512 0.82031-1.4512 0.82031s1.577-0.31573 2.082-0.18945c0.5052 0.12626 1.4526-0.18884 1.7051-0.25196 0.2525-0.0631 1.7046-0.44336 2.5254-0.44336 0.8207 0 1.4512 0.12696 1.4512 0.12696l-1.7676-1.5781s2.2104 1.0724 2.6523 1.4512c0.442 0.37875 1.0742 0.31641 1.0742 0.31641l-0.2539-0.31641-0.125-0.75586s0.8198 0.44088 1.0723 0.88282 0.064 1.5781 0.064 1.5781 0.4415-0.504 1.0097-0.88281c0.5682-0.37882 0.8203 0.0625 0.8203 0.0625l-0.3789 1.1992 0.7578-0.88281s0.5054-0.37951 0.7579-0.12696c0.2525 0.25254-0.127 1.0098-0.127 1.0098l1.1367-0.94727-0.3164 0.69531 0.9473-0.18945 1.0117-0.69531-0.3164 0.31641s0.4409 0.0632 0.8828 0.3789c0.442 0.31567 1.2644-0.31519 1.7695-0.63086s1.0723-0.50586 1.0723-0.50586v0.69532l-0.7578 1.1992 1.5156-0.56836s1.0106 0.25254 1.7051 0.18946c0.6945-0.0631 1.5156 0 1.5156 0l-1.2637 1.1367 2.209-1.2012-1.1347 1.4531 1.6406-1.2637 0.4414 1.3906 1.7676-1.1367-1.0098 1.8945s1.2637-0.88515 1.2637 0.125 1.2617-0.88282 1.2617-0.88282l-0.6309 1.2617 2.1465-0.3789-0.2519 1.1367 1.1367-0.50585s0.2514 0.63174 0.5039 1.5156c0.2525 0.88389 0.7578-1.2617 0.7578-1.2617l2.0195 1.6406-0.8828-1.5156 1.0098-0.3789 0.5059 1.3906 1.8925-1.6426-0.3769 1.6426 1.2617-1.1367 2.1465 0.125-1.8946 0.63281 4.42 0.88282 1.5156-0.75782 0.6309 1.1367 0.7578-1.1367 1.5156 1.8945v-1.2617l1.0098-1.0117-0.3789 1.3887s1.0112-0.37773 1.2636-0.88281c0.2526-0.50507-0.1269-1.8945-0.1269-1.8945l1.3886 1.7676 2.2735 0.25391 2.0195-2.5254 0.8848-4.4199s1.2758 0.26775 2.0429 0.3457c-0.1237-0.15508-0.3197-0.41241-0.4257-0.54297-0.3572-1.4286-2.4109-6.4288-3.125-7.8574-0.7144-1.4286-3.7505-10.268-6.3399-13.125-2.1429-2.8571-7.5886-8.2143-9.9101-10-3.3928-2.4107-8.7514-5.5363-13.037-6.9648-3.75-1.4286-7.3212-2.7681-13.393-2.8574z" fill="#0a0a0a" stroke="#000" stroke-linecap="round" stroke-linejoin="bevel" stroke-width=".62746"/>
    <g stroke="#501616">
      <path transform="scale(.26458)" d="m1066 314.55s-0.4748 0.66239-0.832 2.2695c-0.3571 1.6072-1.2703 4.0745-2.3418 4.4316-1.0714 0.35717-3.9492 0.97852-3.9492 0.97852s-1.0623 1.461-2.7227 1.9336c-1.308 0.37228-1.6914-0.8418-1.6914-0.8418l-1.8164 0.96485 0.1582-0.88086-1.4589 1.1348-0.3477-1.2812-0.6719 1.3848-0.8926-1.4277-1.4179 1.4785-1.7871-0.041 1.5976-1.0801-2.5625 1.1328-1.0097-0.0625 0.8925-1.0703-2.498 1.0703-0.3574-0.53516-1.6075 1.6074s0.8923-0.53711 1.7852-0.53711 4.2868 0.17999 5.1797 0.53711c0.8928 0.35713 1.7851 0.89258 3.0351 0.89258h4.6426l-1.8008 0.89844 1.5957-0.0801-0.2773 0.58399 1.1348-0.17969-1.3672 1.0976 3.0058-1.0391-2.0625 1.291-0.8457 0.57617s0.9294 0.20823 1.8379 0.28125c1.0034 0.21509 6.1 0.32061 7.7071 0.67773 1.6072 0.35713 6.104 0.69141 6.8183 0.69141s5.3372 0.97902 7.334 1.5039c1.4285 0.71427 2.12 1.1222 3.1914 1.3008 1.0714 0.17858 2.0177-0.018 3.0137 0.10547 3.3263 0.4125 6.857 1.2397 9.1523 1.7266 0.8801-2.5875 1.5788-5.2552 2.0821-7.9922-9.2376-4.8933-29.846-13.502-29.846-13.502z" fill="#782121" stroke-linecap="round" stroke-linejoin="round" stroke-width=".6274"/>
      <path d="m289.65 88.163c-2.9632-1.1152-1.4104-0.73934-4.4412-1.3702-1.5119-0.30711-2.2442-0.54334-3.3782-0.59059-1.1339-0.04725-2.6872 0.21261-2.6872 0.21261" fill="none" stroke-linejoin="round" stroke-width=".165"/>
      <path d="m282.23 85.045s1.7245 0.87407 2.008 0.82682c0.28347-0.04725 0.33073-0.0945 0.28347-0.23624-0.0472-0.14174-2.2915-0.59059-2.2915-0.59059z" fill="#501616" stroke-width=".165"/>
    </g>
    <path d="m280.65 89.25s-0.5079 0.14174-0.87406 0.44885c-0.30711 0.21261-0.68509 0.56696-0.96856 0.61421" fill="none" stroke="#000" stroke-linecap="round" stroke-linejoin="round" stroke-width=".165"/>
    <g transform="translate(-17.098 -.54454)">
      <path d="m287.23 83.88c0.41761 0.13364 1.3698 0.3675 1.8208 0.0167 0.45101-0.35079 0.73499-0.68488 0.73499-0.68488s0.0835 0.10023 0.20044 0.05011c0.11695-0.05011 0.13364-0.18375 0.13364-0.18375s0.0167-0.08352-0.16703-0.21716c-0.18375-0.13363 0-0.25057-0.51784-0.83522-0.51784-0.58465-0.53454-0.65147-0.7684-0.7517-0.23387-0.10023-0.73499-0.18375-1.1025-0.18375-0.36748 0-1.019-0.03341-1.0524 0.03341-0.0334 0.06682 0.0167 0.20045-0.0334 0.31738s-0.20044 0.31738-0.25056 0.63476c-0.0501 0.31738 0.0668 0.81851 0.30068 1.1025 0.23386 0.28398 0.70157 0.70158 0.70157 0.70158z" fill="#333"/>
      <path d="m287.03 83.462s0.21717 0.21715 0.41762 0.28397c0.20044 0.06682 0.73498 0.28397 1.1359 0.15034 0.40092-0.13363 0.63479-0.25056 0.81851-0.46772 0.18376-0.21716 0.3007-0.31738 0.3174-0.45102 0.0167-0.13363-0.45101-1.3029-1.019-1.5535-0.56795-0.25057-1.2695-0.21716-1.5535-0.18375-0.28397 0.03341-0.3842 0.08352-0.48442 0.25057-0.10023 0.16704-0.18376 0.70158-0.13364 1.0357 0.0501 0.33409 0.50112 0.93544 0.50112 0.93544z"/>
      <path d="m289.21 82.298s-0.34255-0.75595-1.1103-0.82092c-0.76774-0.06497-0.90358 0.02363-0.99809 0.04725-0.0945 0.02363-0.3071 0.40751-0.3071 0.51381 0 0.10631 0.15356 0.29529 0.2953 0.31892 0.14174 0.02363 0.46657 0.03544 0.70279-0.02363 0.23624-0.05906 0.77367-0.04134 0.92723 0 0.15354 0.04134 0.49019-0.03544 0.49019-0.03544z" fill="#999" opacity=".5"/>
      <path d="m287.03 83.462s0.21717 0.21715 0.41762 0.28397c0.20044 0.06682 0.73498 0.28397 1.1359 0.15034 0.40092-0.13363 0.63479-0.25056 0.81851-0.46772 0.18376-0.21716 0.3007-0.31738 0.3174-0.45102 0.0167-0.13363-0.45101-1.3029-1.019-1.5535-0.56795-0.25057-1.2695-0.21716-1.5535-0.18375-0.28397 0.03341-0.3842 0.08352-0.48442 0.25057-0.10023 0.16704-0.18376 0.70158-0.13364 1.0357 0.0501 0.33409 0.50112 0.93544 0.50112 0.93544z" fill="url(#b)" opacity=".45"/>
    </g>
  </g>
</svg>