<?xml version="1.0" encoding="UTF-8"?>
<svg width="117.21" height="115.8" version="1.1" viewBox="0 0 31.01169 30.63793" xmlns="http://www.w3.org/2000/svg" xmlns:cc="http://creativecommons.org/ns#" xmlns:dc="http://purl.org/dc/elements/1.1/" xmlns:rdf="http://www.w3.org/1999/02/22-rdf-syntax-ns#" xmlns:xlink="http://www.w3.org/1999/xlink">
<defs>
<linearGradient id="a">
<stop stop-color="#fff" offset="0"/>
<stop stop-color="#fff" stop-opacity="0" offset="1"/>
</linearGradient>
<linearGradient id="b">
<stop stop-color="#fc0" offset="0"/>
<stop stop-color="#fc0" stop-opacity="0" offset="1"/>
</linearGradient>
<radialGradient id="e" cx="235.5" cy="91.259" r="15.506" gradientTransform="matrix(1.2449 -.54315 .57876 1.3266 -171.48 157.77)" gradientUnits="userSpaceOnUse">
<stop stop-color="#0b1728" offset="0"/>
<stop stop-color="#0b1728" stop-opacity="0" offset="1"/>
</radialGradient>
<radialGradient id="d" cx="170.73" cy="140.4" r="2.193" gradientTransform="matrix(1 0 0 .84086 0 22.343)" gradientUnits="userSpaceOnUse" xlink:href="#b"/>
<radialGradient id="c" cx="177.98" cy="140.72" r="1.7255" gradientTransform="matrix(1 0 0 .80867 0 26.925)" gradientUnits="userSpaceOnUse" xlink:href="#b"/>
<linearGradient id="g" x1="169.85" x2="171.47" y1="140.4" y2="140.89" gradientUnits="userSpaceOnUse" xlink:href="#a"/>
<linearGradient id="f" x1="169.85" x2="171.47" y1="140.4" y2="140.89" gradientTransform="matrix(.79956 -.24693 .24693 .79956 6.4538 70.412)" gradientUnits="userSpaceOnUse" xlink:href="#a"/>
</defs>
<metadata>
<rdf:RDF>
<cc:Work rdf:about="">
<dc:format>image/svg+xml</dc:format>
<dc:type rdf:resource="http://purl.org/dc/dcmitype/StillImage"/>
<dc:title/>
</cc:Work>
</rdf:RDF>
</metadata>
<g transform="translate(-5.5988 -4.9151)">
<g transform="translate(-150.21 -119.2)">
<g>
<path d="m186.73 139.44c0 8.4132-6.9047 15.234-15.422 15.234-8.5176 2.8e-4 -15.423-6.8196-15.423-15.233-5.6e-4 -8.4132 6.9037-15.234 15.421-15.235 8.5176-8.3e-4 15.423 6.8186 15.424 15.232-1e-3 -0.53617-8e-3 0.42347 0 2e-3z" fill="#162d50"/>
<path d="m186.73 139.43c0 8.4132-6.9047 15.234-15.422 15.234-8.5176 2.8e-4 -15.423-6.8196-15.423-15.233s6.9037-15.234 15.421-15.235c8.5176-8.3e-4 15.423 6.8186 15.424 15.232-1e-3 -0.53616-8e-3 0.42347 0 2e-3z" fill="url(#e)" stroke="#000" stroke-linecap="round" stroke-linejoin="bevel" stroke-width=".166"/>
</g>
<path transform="scale(.26458)" d="m625.79 492.22 0.75782 1.0117s-1.3884-0.50586-2.7774-0.50586-8.0824 1.5151-9.2188 1.7676c-1.1364 0.25255-3.4082 1.6406-3.4082 1.6406s0.50551 0.50514 1.5156 0.37891c1.0102-0.12628 4.0396 0.63301 5.9336 1.3906 1.8941 0.75757 3.9141 0.25195 3.9141 0.25195s-3.913 0.75663-4.7969 1.2617c-0.88388 0.50506-1.7676 1.8945-1.7676 1.8945s2.1462-0.25195 3.5352-0.25195h3.4082s-1.6414 0.25208-2.1465 0.63086c-0.50506 0.37882 0.75743 1.1362 1.7676 1.7676 1.0102 0.63133 2.5254 1.6426 2.5254 1.6426s-1.8941 1.0094-2.9043 2.0195c-1.0102 1.0102-4.418 5.0508-4.418 5.0508s1.0094-0.75781 2.0195-0.75781c1.0102 0 2.6523-1.3887 2.6523-1.3887s-3.6616 3.2823-4.293 4.5449c-0.63133 1.2627-4.6719 5.5566-4.6719 5.5566s-4.8e-4 0.12695 0.63086 0.12695c0.63133 0 3.5352-1.3906 3.5352-1.3906s-2.7773 4.7992-2.7773 5.9355c0 1.1364 0.63086 4.041 0.63086 4.041s0.37962-1.6423 0.50586-3.0312c0.12627-1.3889 1.3887-1.2617 1.3887-1.2617s0.1258 2.5244 0.63086 3.7871c0.50506 1.2627 1.2617 1.1367 1.2617 1.1367s-0.50344 0.37967-1.1348 0.88476c-0.63133 0.50506-3.7891 1.0098-3.7891 1.0098s0.8837 0.12512 1.7676 0.5039c0.88388 0.37886 1.2637 0.63282 1.2637 0.63282s0.884-0.38006 0.3789 0.125c-0.50505 0.50513-2.5254 0.63086-2.5254 0.63086l-2.5254-1.0098-3.0312 1.0098-5.0508 1.5156s2.0213-0.50442 3.7891-0.25195c1.7678 0.25255 2.7774 1.7676 2.7774 1.7676l-3.7891-0.25196s-5.3024 1.5156-3.7871 1.5156c1.5152 0 3.0293 0.5039 3.0293 0.5039s-3.2828 2.525-4.293 3.5352c-1.0102 1.0102-4.7969 1.5156-4.7969 1.5156s1.0088 0.25338 2.2715 0.50586c1.2627 0.25254 4.293-1.0098 4.293-1.0098s-4.2926 3.2817-5.3027 4.7969c-0.72898 1.0935-2.736 2.9616-4.0371 4.1445 9.3266 19.528 29.433 33.048 52.742 33.047 14.554-4.8e-4 27.852-5.2821 38.066-13.994-0.28842-0.38612-0.52929-0.82511-0.52929-1.2266 0-1.0102-0.88362-2.6519-1.3887-3.2832-0.37613-0.47017-0.82014-0.17021-1.0234 0.0137l1.6543-1.6543h-0.50586c-0.50509 0-1.1363-2.021-2.1465-2.6523-0.46401-0.28999-0.9171-0.40889-1.2832-0.46485 0.15189-0.031 0.32303-0.0785 0.52734-0.16601 0.88396-0.37883 1.1348-1.1367 1.1348-1.1367s-0.88231-0.25208-1.5137-0.63086c-0.63133-0.37882-1.0105-1.894-1.1367-2.5254-0.12627-0.63133-0.88476-1.1367-0.88476-1.1367l-0.75781-1.7676s0.50606 7.6e-4 1.2637 0.50586c0.75757 0.50506 0.63086 1.7676 0.63086 1.7676s1.0112-2.0217 1.2637-2.7793c0.25255-0.75764 0.37695-2.6504 0.37695-2.6504s0.12644-1e-3 0.37891 0.88281c0.25247 0.88388 0 1.7676 0 1.7676s1.1374-1.6404 1.2637-3.0293c0.12628-1.389 1.3887-3.4102 1.3887-3.4102l1.2637 2.9043s2.1453-8.0804 2.6504-9.2168c0.50513-1.1364-0.125-4.168-0.125-4.168l1.8926 4.5469s5.2e-4 -2.7784-0.25195-4.4199c-0.25255-1.6415 0.63229-6.0615 0.88477-7.3242 0.25254-1.2627-0.50586-4.166-0.50586-4.166l2.9043 2.3984s-0.88424-2.2717-1.1367-3.0293c-0.25251-0.75761-0.75729-2.2736-1.0098-3.0312-0.25255-0.75761 5.1e-4 -1.3896-0.63086-2.2734-0.63133-0.88388-0.7579-1.6408-1.1367-2.3984-0.37878-0.7576-1.1367-1.3887-1.1367-1.3887s-5.2e-4 -0.8837 0.25196-1.7676c0.25254-0.88388 1.3889-1.6415 2.1465-2.5254s1.5156-3.0312 1.5156-3.0312l-2.3984 1.1367 2.3984-2.5254s0.63158-1.6421 0.75782-2.2734c0.12623-0.63137 0.75781-1.2617 0.75781-1.2617l-0.88477-0.3789 1.2637-1.5156-1.3887 0.63086s0.50463-0.75734 0.63086-1.3887c0.12635-0.63137 0.88397-1.3887 0.37891-1.3887-0.5051 0-1.2637 0.63086-1.2637 0.63086s0.2539-0.88234 0.2539-1.5137c0-0.63134-0.12695-1.7695-0.12695-1.7695s-1.2625 0.25296-1.7676 1.5156c-0.50509 1.2627-2.9043 2.6523-2.9043 2.6523s0.25247-1.8935 0-2.7773c-0.25255-0.88388-0.75782-1.5156-0.75782-1.5156l-1.1367-1.0098v0.75586c0 0.75764-2.0192 2.5272-3.4082 4.2949-1.3889 1.7678-4.5469 3.1562-4.5469 3.1562s-2.9032-2.021-3.7871-2.2734c-0.88388-0.25254-8.839-2.021-10.48-2.2734-1.6415-0.25255-12.754-2.1465-14.143-2.1465-1.3889 0-6.9456-0.25247-8.082 0-1.1365 0.25259-1.3887 0.50586-1.3887 0.50586s-2.2725-1.2633-3.9141-2.2734c-1.6415-1.0102-3.9141-2.0195-3.9141-2.0195l0.63086 1.3887s-2.145-1.0093-4.0391-1.6406c-1.894-0.63137-2.7793-0.63281-2.7793-0.63281z" fill="#402610" stroke="#000" stroke-linecap="round" stroke-linejoin="bevel" stroke-width=".6274"/>
<path d="m173.96 141.17s-0.37798-0.66146-0.85045-1.0394c-0.47247-0.37797-0.37797 0.75595-0.37797 0.75595s0.47247 0.18899 0.0945 0.66146c-0.37798 0.47247-2.1734 1.5119-2.9293 1.4174-0.75595-0.0945-1.7954-0.0945-1.7954-0.0945l1.4174-0.56696s-0.75595-0.66146-1.6064-0.28349c-0.85045 0.37798-1.5119 0.75595-1.5119 1.2284 0 0.47248-1.4127 1.0222-1.4127 1.0222l-1.8946 0.20618s-0.66145-0.94494-1.6064 0c-0.94494 0.94494-2.4568 1.3229-2.4568 1.3229s1.7009 0.0945 2.7403-0.37797c1.0394-0.47247 0.18898 0.56696 0.18898 0.56696l1.6064-0.56696-1.1339 1.1339 1.9844-0.94494-0.56696 1.0394 1.8794-0.63853 0.97262-0.37224 0.18898 0.81605 0.81704-0.0716-0.2052 0.64901s0.62805 0.31689 1.1005-0.25008c-0.86388 0.50212-0.16803 0.90679-0.21765 1.6627-0.0529 0.80562-0.56696 2.6458-0.56696 2.6458s0.47246-0.94494 0.75595-1.3229c0.28348-0.37797 0.66146-2.0789 0.66146-2.0789s2.4568-0.66146 2.8348-1.0394c0.37797-0.37797 0.75595-0.66146 0.66146-1.2284-0.0945-0.56697 0.47247-1.2284 0.47247-1.2284l0.94494 0.94495 0.66145-0.85045 0.37798 0.75595s-0.0945 0.28348 0 0.75595c0.0945 0.47248 1.0394 0.85045 1.0394 0.85045s1.3229 0.56696 1.7009 0.28348 1.3229 0.18899 1.3229 0.18899l-0.37798-1.4174 0.85045 0.37798 0.47246-1.0394h0.51112l0.15034-0.85045h0.66146s-0.47247-1.7009-0.94494-1.7954c-0.47247-0.0945-1.1339-0.56697-1.5119-0.37798-0.37798 0.18899-1.1339 0.66146-1.1339 0.66146s0.75595 0.66146 1.3229 0.28348c0.56696-0.37797 0.56696-0.0945 0.56696-0.0945s-0.28348 1.2284-0.66146 1.0394c-0.37798-0.18898-1.7009-0.66146-1.7009-0.66146s-1.2284-0.94493-1.3229-1.3229c-0.0945-0.37798-0.18899-1.6064-0.18899-1.6064s-0.18898-0.66146-0.56696-0.0945c-0.37798 0.56697-0.85045 1.3229-0.85045 1.3229z" fill="#d2b79a"/>
<path d="m167.44 136.45s-0.47247-0.75595-1.0394-0.75595c-0.56697 0-2.4568 1.5119-2.4568 1.5119l0.56696-1.5119s0.66146-1.2284 1.1339-1.2284 1.1339 0.56696 1.4174 0.94494c0.28349 0.37798 0.37798 1.0394 0.37798 1.0394z" fill="#d2b79a"/>
<path d="m180.77 137.58s0.0945-0.28348 0.56696-0.0945c0.47247 0.18899 1.0394 1.1339 1.0394 1.1339s-0.0945-1.2284-0.47247-1.6064c-0.37798-0.37798-1.1339 0.56696-1.1339 0.56696z" fill="#d2b79a"/>
<path d="m165.81 130.43-0.078 0.1263s-0.35374-0.10745-0.71945-0.10745c-0.36573 0-2.0926 0.39848-2.3918 0.4639-0.29921 0.0654-0.77334 0.34833-0.77334 0.34833s0.2394 0.0955 0.50537 0.0627c0.26598-0.0327 1.0754 0.22307 1.5741 0.41937 0.18331 7e-3 0.78841 0.10071 0.78841 0.10071s-1.0126 0.22558-1.2453 0.35646c-0.23271 0.13086-0.34727 0.35506-0.34727 0.35506s0.70152-0.0741 1.0666-0.0534l0.62571 0.0354s-0.37312 0.1657-0.51202 0.25205c-0.0621 0.0686 0.35888 0.31803 0.60713 0.458 0.26598 0.16358 0.48776 0.31931 0.48776 0.31931s7e-3 0.13593 6e-3 0.13693c0.46193 0.30783 2.3824 1.5479 2.4655 1.9568 0.094 0.4627 1.205 2.024 1.5456 2.5103 0.37615 0.46271 2.633 1.8507 2.633 1.8507s-0.75235-1.6655-0.75235-2.3133 0.0941-1.1108 0.0941-1.1108l1.8806 1.8512 0.28231-1.5734 0.56414 2.4059 1.2224-2.128 0.18822 1.3877 2.1624-1.6655s0.28209 0.92518 0 1.6655c-0.2821 0.74031-0.65824 1.8512-0.65824 1.8512s2.4506-1.8768 3.098-2.5049c0.59679-0.75697 0.96137-1.1909 1.8306-1.8023 0.01-0.0628 0.0226-0.12928 0.0426-0.19839 0.0665-0.22901 0.36568-0.42533 0.56516-0.65436 0.19947-0.22902 0.31637-0.62006 0.31637-0.62006l-0.48974 0.1528 0.57833-0.74295s0.16039-0.36053 0.19362-0.52411c0.0332-0.1636 0.19953-0.32692 0.19953-0.32692l-0.19161-0.11582 0.29138-0.37501-0.31838 0.12212s0.0856-0.15488 0.11885-0.31847c0.0332-0.16359 0.23275-0.37163 0.14695-0.37163-0.13299 0-0.35044 0.12212-0.35044 0.12212s0.0374-0.17547 0.0374-0.33906-0.0334-0.45849-0.0334-0.45849-0.24382 0.10684-0.37681 0.43404c-0.13298 0.32719-0.79422 0.65773-0.79422 0.65773s7e-3 -0.50243-0.0591-0.73146c-0.0665-0.22902-0.1818-0.41043-0.1818-0.41043l-0.17528-0.15534-0.2008 0.37303c-0.0931 0.17286-0.38991 0.45401-0.80877 0.92977-0.3657 0.45805-1.1794 0.76469-1.1794 0.76469s-0.79985-0.52958-1.0326-0.595c-0.20278-0.057-1.7858-0.40997-2.4843-0.54368l-1.3751 1.7544-1.3124-2.2035c-0.62048-0.0948-1.1808-0.17613-1.3232-0.17613-0.36571 0-1.8288-0.0654-2.128 0-0.29925 0.0654-0.36563 0.13108-0.36563 0.13108s-0.59835-0.32732-1.0306-0.58908c-0.4322-0.26174-0.85929-0.46422-0.85929-0.46422l7e-3 0.22989s-0.54114-0.19065-1.0398-0.35423c-0.49869-0.16361-0.59594-0.15805-0.59594-0.15805z" fill="#191208"/>
<path d="m169.14 132.2-0.66146 0.85045 0.75596 0.94494 0.56696-0.66146 0.47247 1.2284 0.56696-1.1339 0.75596 1.0394 0.37797-1.0394-0.85044-1.3229-0.56697 1.0394-0.47247-0.37797-0.28348 0.28348z" fill="#d2b79a"/>
<path d="m178.4 133.33 0.18899 0.66146-0.56697 1.0394-0.94494 0.56697 0.37798-1.1339z" fill="#d2b79a"/>
<path d="m170.28 135.6 0.18899 1.1339 1.0394 1.2284 0.85045 1.1339-1.8899-1.5119-0.66146-1.0394z" fill="#d2b79a"/>
<path d="m177.08 139.1 1.8899-1.4174 0.47247-0.56697-0.56696-1.1339-0.18899 1.3229-1.0394 1.0394z" fill="#d2b79a"/>
<path d="m173.51 143.44s-0.14174 0.0945-0.14174 0.28349c0 0.18898 0.11812 0.51971 0.11812 0.51971l0.3071-0.37797s-0.11811 0.0945-0.0472 0.25986c0.0709 0.16536 0.18898 0.33073 0.18898 0.33073s0.16537-0.18899 0.21262-0.37798c0.0472-0.18899 0.11811 0 0.11811 0.18899s-0.0945 0.23623-0.0945 0.23623 0.4016-0.23623 0.47247-0.37797c0.0709-0.14175 0.18899-0.51972 0.18899-0.51972l0.56696 1.0867s-0.61421 1.5355-0.8032 1.8663c-0.18898 0.33072-0.8032 1.2993-0.8032 1.2993s-0.63783-1.2993-0.77957-1.7245c-0.14174-0.42522-0.51972-1.7009-0.51972-1.7009z"/>
<path d="m168.21 151.38s0.90204-0.63476 0.96886-1.0023c0.0668-0.36749 0.23386-0.96885 0.23386-0.96885s0.80181 0.7684 0.70158 1.0023 0.70158-0.50113 0.7684-0.93544c0.0668-0.43431 0.0668-0.83522 0.0668-0.83522s0.93544 0.66818 0.90203 0.93544c-0.0334 0.26727 1.0357-0.83521 1.0691-1.2695 0.0334-0.43432-0.0334-0.53455-0.0334-0.53455l0.90204 1.2361 0.96885-1.4032s-0.16704 0.56795 0 0.86863 1.4366 1.1359 1.4366 1.1359-0.26727-0.20045-0.0334-0.56794c0.23387-0.3675 0.63477-0.50113 0.63477-0.50113s0.70158 0.46772 0.73499 0.66817c0.0334 0.20045-0.20045 0.4009-0.20045 0.4009s0.70158-0.30067 0.83522-0.60135c0.13363-0.30068 0.16704-0.70158 0.16704-0.70158s0.30068 0.53453 0.46772 0.60135l0.16704 0.0668s0.30068-0.23386 0.43432-0.40091c0.13363-0.16704 0.36749 0.43432 0.36749 0.43432l0.26727-0.33409s0.40091 0.33409 0.40091 0.50113-0.0334 0.46772 0.0334 0.60136c0.0668 0.13363 0.53454 1.1693 0.53454 1.1693s-0.7684-0.16704-1.1025-0.56795c-0.33409-0.4009-0.43432-0.86862-0.43432-0.86862s-0.33408 0.36749-0.30067 0.73499c0.0334 0.36749 0.70158 1.6036 0.70158 1.6036s-1.0023 0.26726-1.47-0.20046c-0.46773-0.46772-1.3029-1.0691-1.3029-1.0691l0.16705 2.6059s-2.5057-1.6036-2.6727-1.9711c-0.16705-0.36749-0.20046-0.43431-0.20046-0.43431l0.0668 2.4054-1.5368-1.3363s-0.0668 1.1693-0.70158 1.47c-0.63477 0.30068-1.637 0.80181-1.637 0.80181s0.66818-1.1693 0.60136-1.4032c-0.0668-0.23386-0.33409 0-0.33409 0s-0.0334 0.63477-0.73499 1.0691c-0.70158 0.43431-1.5702 0.53454-1.5702 0.53454s-0.66818-0.93545-0.66818-1.3029 0.16704-0.63477 0.16704-0.63477-0.58204 0.65773-0.66818 1.0023l-0.10022 0.4009s-0.50113-0.56795-0.43431-0.83522c0.0668-0.26727 0.26727-0.56795 0.26727-0.56795l0.83522-0.56794z" fill="#d2b79a"/>
<path d="m169.2 147.61s0.0668 0.56795-0.0501 0.80181l-0.11693 0.23386-1.0691 2.4722s-0.13363 0.7517-0.4009 0.91874c-0.26727 0.16705-0.56795 0.33409-0.56795 0.33409s0.20045-0.4009 0.15034-0.60136c-0.0501-0.20045-0.25057-0.43431-0.16705-0.50113 0.0835-0.0668 0.0668-0.33408 0.0668-0.33408s-0.36749 0.4009-0.25057 0.7851c-0.0501 0.41761-0.15033 0.81851-0.31738 1.0023-0.16704 0.18375-0.86862 0.86863-0.86862 0.86863" fill="none" stroke="#000" stroke-width=".165"/>
<path d="m163.45 140.86s-0.15034 0.26727-0.18375 0.41761c-0.0334 0.15033-0.0334 0.95214-0.0334 0.95214s0.55124-0.48442 0.7517-0.50113c0.20045-0.0167 0.30067-0.0167 0.30067-0.0167l-1.019 1.3029 0.7684-0.20046-0.23386 0.68488 0.60135 0.0334-0.15033 0.83522s0.66817-0.26727 0.75169-0.16705l0.0835 0.10023-0.55124 0.46772s0.48443 0.11693 0.7684 0.0167 0.4009-0.15034 0.4009-0.15034l-0.48442 0.45102 0.81851-0.0334s-0.25056 0.48442-0.16704 0.61806c0.0835 0.13363 0.0167 0.26727 0.0167 0.26727s0.23387-0.0668 0.45102-0.13364c0.21716-0.0668 0.53454-0.21715 0.53454-0.21715s-0.18375 0.25056-0.15034 0.4009c0.0334 0.15034 0.13364 0.60136 0.13364 0.60136s0.35079 0.0501 0.53453-0.0835c0.18375-0.13364 0.38421-0.11693 0.38421-0.11693s-0.15034 0.0501-0.23387 0.18374c-0.0835 0.13364-0.0334 0.56795-0.0334 0.56795s0.31739-0.0501 0.53454-0.0501c0.21716 0 0.33409-0.13364 0.33409-0.13364s-0.20045 0.21716-0.20045 0.30068c0 0.0835 0.11693 0.46772 0.11693 0.46772s0.30068 0.0167 0.51783-0.0668c0.21716-0.0835 0.30068-0.26726 0.30068-0.26726l-0.0167 0.33408s0.41761 0 0.53454-0.11693 0.30068-0.26727 0.30068-0.26727l-0.16705 0.35079s0.33409 0.0668 0.43431-0.0501c0.10023-0.11693 0.28398-0.23386 0.28398-0.23386l-0.26727 0.30068s0.20045-0.0501 0.3842-0.11693c0.18375-0.0668 0.90204-0.43432 0.90204-0.43432s-0.31739 0.13364-0.30068 0.26728c0.0167 0.13363 0.0501 0.61805 0.0501 0.55124 0-0.0668 0.0501-0.30068 0.26727-0.43432 0.21716-0.13363 0.73499-0.46772 0.85192-0.63476s0.4009-0.4009 0.51783-0.45102c0.11694-0.0501 0.28398-0.13363 0.28398-0.13363l1.4199-0.13364s0.16704 0.0167 0.25056 0.0835c0.0835 0.0668 0.28398 0.50113 0.28398 0.50113s0.0835-0.18374 0.0668-0.35079c-0.0167-0.16704-0.0501-0.20045-0.0501-0.20045s0.15034 0.40091 0.28397 0.46772c0.13364 0.0668 0.45102 0 0.45102 0s-0.20045 0-0.21715-0.0835 0-0.16704 0-0.16704 0.25056 0.23386 0.45101 0.31738c0.20046 0.0835 1.1025 0.53454 1.4199 0.51784 0.31739-0.0167 0.20046-0.0334 0.20046-0.0334s-0.15034-0.0501-0.21716-0.20046c-0.0668-0.15034 0-0.21715 0-0.21715s0.10023 0.21715 0.35079 0.31738 0.60136 0.41761 1.0023 0.3675c0.40091-0.0501 0.68488-0.0668 0.68488-0.0668l-0.0835-0.45102" fill="none" stroke="#000" stroke-width=".165"/>
<path d="m169.93 138.43-0.73757-0.21261s-0.28348-0.0472-0.61421 0-0.82683 0.3071-0.82683 0.3071l-0.21261 0.18899s0.56697-0.21261 0.73233-0.21261c0.16537 0 0.8977 0.0472 1.1103 0.0472s1.2866 0.39467 1.2866 0.39467z" stroke="#000" stroke-width=".26458px"/>
<path d="m178.1 139.59s0.66146-0.25986 0.8977-0.25986c0.23623 0 0.49609 0.0236 0.66145 0.0709 0.16537 0.0472 0.35436 0.14174 0.35436 0.14174s-0.18899-0.23623-0.4016-0.35435-0.75595-0.21261-0.75595-0.21261z" stroke="#000" stroke-width=".26458px"/>
<path d="m176.18 141.08s-0.0709 0.11812-0.0472 0.35435c0.0236 0.23624 0 0.4961 0.16537 0.61422 0.16536 0.11811 0.75595 0.35435 0.75595 0.35435" fill="none" stroke="#000" stroke-linecap="round" stroke-width=".065"/>
<path d="m172.88 140.91s-0.0709 0.77957-0.23624 0.89769c-0.16536 0.11812-0.66146 0.37798-0.66146 0.37798" fill="none" stroke="#000" stroke-linecap="round" stroke-width=".065"/>
<path d="m168.72 138.55s-0.25986 0.47247-0.16537 1.252c0.0945 0.77958 0.4961 1.8899 1.1576 2.1734 0.66146 0.28348 1.3229 0.40159 1.9844 0.0236 0.66146-0.37797 0.82682-0.44884 1.0631-0.77957 0.23623-0.33073 0.14174-0.4961 0.14174-0.4961s-0.35435-0.77957-0.56696-0.99218c-0.21262-0.21261-0.37798-0.42523-0.51972-0.47247-0.14174-0.0473-0.66146-0.21261-0.87407-0.25986-0.21261-0.0473-0.87407-0.30711-1.1339-0.35435-0.25986-0.0472-1.0867-0.0945-1.0867-0.0945z" fill="#f60" stroke="#000" stroke-width=".26458px"/>
<path d="m168.72 138.55s-0.12402 0.51972-0.0295 1.2993c0.0945 0.77958 0.49019 1.7658 1.1516 2.0493 0.66146 0.28348 1.128 0.37206 1.7895-6e-3 0.66146-0.37797 0.75004-0.40159 0.96266-0.67326 0.23623-0.33073 0.21175-0.41156 0.21175-0.41156s-0.36533-0.79324-0.57794-1.0058c-0.21262-0.21261-0.37207-0.40161-0.51381-0.44885-0.14174-0.0473-0.56106-0.2067-0.77367-0.25395-0.21261-0.0473-0.91541-0.27758-1.1753-0.32482-0.25986-0.0472-1.0453-0.22443-1.0453-0.22443z" fill="url(#d)"/>
<path d="m176.26 140.99s0.0709 0.47247 0.23623 0.63783c0.16537 0.16537 0.51972 0.4961 0.94495 0.4961 0.42522 0 1.1339-0.25986 1.3465-0.44885 0.21262-0.18899 0.70871-0.75595 0.82683-1.2757s0.0945-0.96856 0.0945-0.96856-0.59059-0.11812-0.75595-0.0945c-0.16537 0.0236-0.73233 0.18899-0.73233 0.18899l-1.2757 0.82682z" fill="#f60" stroke="#000" stroke-width=".26458px"/>
<path d="m176.36 141.05s-0.0295 0.40751 0.13583 0.57287c0.16537 0.16537 0.49019 0.37208 0.91542 0.37208 0.42522 0 1.0808-0.24215 1.2934-0.43114 0.21262-0.18899 0.68281-0.73316 0.80094-1.2529 0.11812-0.51972 0.20308-0.88504 0.20308-0.88504s-0.59059-0.11812-0.75596-0.0945c-0.16536 0.0236-0.73232 0.18899-0.73232 0.18899l-1.1457 0.91541z" fill="url(#c)"/>
<path d="m171.62 139.31s0.23624 0.25986 0.28348 0.49609c0.0473 0.23624 0.0473 0.66146-0.0945 0.85045-0.14174 0.18899-0.59059 0.63783-0.77958 0.66146-0.18899 0.0236-0.96856-0.28348-1.1812-0.94494s-0.11812-0.73233 0-0.94494c0.11811-0.21261 0.33073-0.51972 0.51972-0.51972 0.18898 0 1.252 0.4016 1.252 0.4016z" stroke="#000" stroke-width=".26458px"/>
<path d="m172.43 142.83s0.23623-0.44885 0.35435-0.8032 0.23624-0.87407 0.14175-1.252c-0.0945-0.37798-0.68509-1.2757-0.99219-1.441-0.30711-0.16536-0.85045-0.21261-1.2048-0.42522s-1.4883-1.2048-1.63-1.3465-0.82683-1.3465-1.1812-1.5828c-0.35435-0.23623-0.87407-0.49609-0.87407-0.49609" fill="none" stroke="#000" stroke-linecap="round" stroke-width=".165"/>
<path d="m177.11 140.28s-0.11812 0.33073-0.0709 0.47247c0.0472 0.14174 0.23623 0.44885 0.61421 0.44885 0.37797 0 0.77957-0.0473 1.0867-0.47247 0.3071-0.42522 0.42522-0.85045 0.37797-1.0158-0.0472-0.16537-0.23623-0.37798-0.23623-0.37798s-0.77958 0.25986-0.99219 0.4016-0.77957 0.54334-0.77957 0.54334z" stroke="#000" stroke-width=".26458px"/>
<path d="m165.97 137.28s-0.33408 0.13363-0.73499 0.13363c-0.4009 0-1.4032 0.46772-1.4032 0.46772" fill="none" stroke="#000" stroke-linecap="round" stroke-width=".065"/>
<path d="m165.31 138.55c-0.33409 0.26727-0.80181 0.80181-0.80181 0.80181s-0.13363 0.26727-0.13363 0.60135v0.33409" fill="none" stroke="#000" stroke-linecap="round" stroke-width=".065"/>
<path d="m166.51 139.55c-0.66817 0.0668-1.5368 0.53454-1.5368 0.53454" fill="none" stroke="#000" stroke-linecap="round" stroke-width=".065"/>
<path d="m180.74 140.76c0.53454 0.26727 0.93545 0.80181 0.93545 0.80181" fill="none" stroke="#000" stroke-linecap="round" stroke-width=".065"/>
<path d="m181.34 139.55l0.53454 0.53454c0.26727 0.26727 0.26727 0.93544 0.26727 0.93544" fill="none" stroke="#000" stroke-linecap="round" stroke-width=".065"/>
<path d="m180.21 135.61c0.73499-0.46772 1.1359-0.93544 1.6704-1.47s1.0691-0.46772 1.0691-0.46772" fill="none" stroke="#000" stroke-linecap="round" stroke-width=".065"/>
<path d="m181.14 136.08s0.73499-0.46772 0.93544-0.73499 0.33409-0.46772 0.33409-0.46772" fill="none" stroke="#000" stroke-linecap="round" stroke-width=".065"/>
<path d="m179.34 134.48s0.13363-0.40091 0.73499-0.80181c0.60136-0.40091 1.2695-0.60136 1.2695-0.60136" fill="none" stroke="#000" stroke-linecap="round" stroke-width=".065"/>
<path d="m170.95 132.42c-0.80181-0.33409-1.6285-0.81746-1.6285-0.81746" fill="none" stroke="#000" stroke-linecap="round" stroke-linejoin="bevel" stroke-width=".165"/>
<path d="m178.24 133.93 1.2891-0.79034" fill="none" stroke="#000" stroke-linecap="round" stroke-width=".165"/>
<path d="m168.25 134.68c-0.20045-0.53454 0.46773-0.46772-0.66817-1.1359-1.1359-0.66817-1.6036-0.93544-1.6036-0.93544" fill="none" stroke="#000" stroke-linecap="round" stroke-width=".065"/>
<path d="m169.05 133.07c-1.6036-0.93544-3.0068-1.5368-3.0068-1.5368" fill="none" stroke="#000" stroke-linecap="round" stroke-width=".065"/>
<path d="m171.85 144.16c-0.4009 0.4009-1.7372 1.9377-1.7372 1.9377" fill="none" stroke="#000" stroke-linecap="round" stroke-width=".065"/>
<path d="m176.06 144.16s0 0.60135 0.4009 1.0023c0.40091 0.4009 0.66817 0.86862 0.66817 0.86862" fill="none" stroke="#000" stroke-linecap="round" stroke-width=".065"/>
<path d="m177.93 144.3 0.46773 0.93544" fill="none" stroke="#000" stroke-linecap="round" stroke-width=".065"/>
<path d="m179.74 143.43 0.33409 0.53455" fill="none" stroke="#000" stroke-linecap="round" stroke-width=".065"/>
<path d="m169.45 144.43-0.66818 0.8018" fill="none" stroke="#000" stroke-linecap="round" stroke-width=".065"/>
<path d="m167.18 143.36-0.53454 0.53454" fill="none" stroke="#000" stroke-linecap="round" stroke-width=".065"/>
<path d="m172.19 138.02-0.60136-0.86863-0.13363-0.46772" fill="none" stroke="#000" stroke-linecap="round" stroke-width=".065"/>
<path d="m176.2 138.42 1.1359-0.73499 0.33409-0.4009" fill="none" stroke="#000" stroke-linecap="round" stroke-width=".065"/>
<path d="m175.81 142.97s-0.16536-0.61421-0.0945-0.85044c0.0709-0.23624 0.0945-0.82683 0.42522-1.1103 0.33073-0.28348 1.252-1.0631 1.819-1.441 0.56697-0.37798 1.9135-1.3229 2.2442-1.6536s0.56696-0.7087 0.56696-0.7087" fill="none" stroke="#000" stroke-linecap="round" stroke-width=".165"/>
<path d="m160.64 149.21 1.0394-0.47247 1.5119-1.1339-1.6952 0.66719z" fill="#d2b79a"/>
<path d="m160.03 147.84s0 0.33409 0.26727 0.66818c0.26727 0.33408 1.3363-0.40091 1.3363-0.40091l0.66818-0.86862" fill="none" stroke="#000" stroke-linecap="round" stroke-width=".065"/>
<path d="m161.7 148.91v0.53454s0.0668 0.26727 0.46772 0.53454c0.40091 0.26727 1.0691 0.0668 1.47-0.33409 0.40091-0.4009 1.1359-1.3363 1.1359-1.3363" fill="none" stroke="#000" stroke-linecap="round" stroke-width=".065"/>
<path d="m164.57 150.65s0.33409 0.13364 0.80181-0.33408c0.46772-0.46773 1.1359-1.6704 1.1359-1.6704" fill="none" stroke="#000" stroke-linecap="round" stroke-width=".065"/>
<path d="m159.16 144.83s0 0.0668 0.46772 0.4009c0.46772 0.33409 1.8709-1.3363 1.8709-1.3363" fill="none" stroke="#000" stroke-linecap="round" stroke-width=".065"/>
<path d="m179.4 149.18c0.13363 0.26727 1.0691 1.47 1.0691 1.47" fill="none" stroke="#000" stroke-linecap="round" stroke-width=".065"/>
<path d="m178.47 149.71c0.13364 0.86862 0.80181 1.9377 0.80181 1.9377" fill="none" stroke="#000" stroke-linecap="round" stroke-width=".065"/>
<path d="m176.87 150.18 0.66817 1.8709" fill="none" stroke="#000" stroke-linecap="round" stroke-width=".065"/>
<path d="m169.52 151.71c-0.0668 0.53454-0.0668 1.1359-0.0668 1.4032" fill="none" stroke="#000" stroke-linecap="round" stroke-width=".065"/>
<path d="m168.25 152.65s0.13364 0.4009 0.33409 0.73499c0.20045 0.33408 0.66818 0.53453 0.66818 0.53453" fill="none" stroke="#000" stroke-linecap="round" stroke-width=".065"/>
<path d="m171.25 150.18c-0.13364 0.46772-0.20046 1.1359-0.20046 1.4032" fill="none" stroke="#000" stroke-linecap="round" stroke-width=".065"/>
<path d="m173.59 149.71c-0.26727 1.1359-0.60135 1.6036-0.60135 1.6036" fill="none" stroke="#000" stroke-linecap="round" stroke-width=".065"/>
<path d="m175.06 149.78c-0.0668 0.86862 0.26727 1.8709 0.26727 1.8709" fill="none" stroke="#000" stroke-linecap="round" stroke-width=".065"/>
<path d="m170.7 139.52a0.37798 0.37798 0 0 1 -0.37797 0.37798 0.37798 0.37798 0 0 1 -0.37798 -0.37798 0.37798 0.37798 0 0 1 0.37798 -0.37798 0.37798 0.37798 0 0 1 0.37797 0.37798z" fill="#fff" opacity=".8"/>
<path d="m178.85 139.66c0 0.15615-0.10576 0.28273-0.23623 0.28273s-0.23624-0.12658-0.23624-0.28273c0.21433-0.22631 0.32282-0.16692 0.47247 0z" fill="#fff" opacity=".8"/>
<path d="m170.05 140.66s0.13364-0.26726 0.26727-0.26726c0.13364 0 0.23386 0.36749 0.50113 0.46772 0.26727 0.10022 0.96885-0.0668 0.96885-0.0668s-0.4009 0.4009-0.53453 0.46772c-0.13364 0.0668-0.56795 0-0.73499-0.10022-0.16705-0.10023-0.46773-0.50114-0.46773-0.50114z" fill="url(#g)" opacity=".3"/>
<path d="m177.15 140.88s0.0409-0.24668 0.14771-0.27968c0.10685-0.033 0.27773 0.23608 0.51617 0.25022 0.23846 0.0142 0.75816-0.29266 0.75816-0.29266s-0.22154 0.41955-0.31189 0.50597c-0.0904 0.0864-0.45411 0.14024-0.61242 0.10133-0.15832-0.0389-0.49773-0.2852-0.49773-0.2852z" fill="url(#f)" opacity=".3"/>
<path d="m163.47 150.04 1.9043-1.1025-1.1025 2.0379s0.33409 0.56795 1.1693-0.0334c0.83522-0.60136 0.93545-0.63476 0.93545-0.63476s-0.80181 1.4032-1.2361 1.5368c-0.43432 0.13363-1.5702 0.4343-1.5702 0.4343s-0.13364-0.66817-0.23384-1.0357c-0.10023-0.3675 0.13363-1.2027 0.13363-1.2027z" fill="#d2b79a"/>
<path d="m159.33 146.99 0.59986-0.10859 0.93098-0.38917-0.96477 0.1236z" fill="#d2b79a"/>
</g>
</g>
</svg>
