<?xml version="1.0" encoding="UTF-8"?>
<svg width="117.21" height="115.8" version="1.1" viewBox="0 0 31.011805 30.637637" xmlns="http://www.w3.org/2000/svg" xmlns:cc="http://creativecommons.org/ns#" xmlns:dc="http://purl.org/dc/elements/1.1/" xmlns:rdf="http://www.w3.org/1999/02/22-rdf-syntax-ns#" xmlns:xlink="http://www.w3.org/1999/xlink">
<defs>
<radialGradient id="b" cx="235.5" cy="91.259" r="15.506" gradientTransform="matrix(1.2449 -.54315 .57876 1.3266 -109.87 100.51)" gradientUnits="userSpaceOnUse">
<stop stop-color="#0b1728" offset="0"/>
<stop stop-color="#0b1728" stop-opacity="0" offset="1"/>
</radialGradient>
<linearGradient id="d" x1="224.38" x2="228.62" y1="81.869" y2="77.238" gradientUnits="userSpaceOnUse">
<stop offset="0"/>
<stop stop-opacity="0" offset="1"/>
</linearGradient>
<linearGradient id="c" x1="236.21" x2="234.75" y1="76.03" y2="71.872" gradientUnits="userSpaceOnUse">
<stop offset="0"/>
<stop stop-opacity="0" offset="1"/>
</linearGradient>
<radialGradient id="a" cx="235.64" cy="81.015" r="2.0296" gradientTransform="matrix(.42706 .0058621 -.0024202 .17632 135.12 65.387)" gradientUnits="userSpaceOnUse">
<stop stop-color="#cbbaa0" offset="0"/>
<stop stop-color="#cbbaa0" stop-opacity="0" offset="1"/>
</radialGradient>
</defs>
<metadata>
<rdf:RDF>
<cc:Work rdf:about="">
<dc:format>image/svg+xml</dc:format>
<dc:type rdf:resource="http://purl.org/dc/dcmitype/StillImage"/>
<dc:title/>
</cc:Work>
</rdf:RDF>
</metadata>
<g transform="translate(-217.41 -66.854)">
<path d="m248.34 82.173c0 8.4132-6.9047 15.234-15.422 15.234-8.5176 2.8e-4 -15.423-6.8196-15.423-15.233-5.6e-4 -8.4132 6.9037-15.234 15.421-15.235 8.5176-8.3e-4 15.423 6.8186 15.424 15.232-1e-3 -0.53617-8e-3 0.42347 0 2e-3z" fill="#162d50"/>
<path d="m248.34 82.171c0 8.4132-6.9047 15.234-15.422 15.234-8.5176 2.8e-4 -15.423-6.8196-15.423-15.233-5.6e-4 -8.4132 6.9037-15.234 15.421-15.235 8.5176-8.3e-4 15.423 6.8186 15.424 15.232-1e-3 -0.53616-8e-3 0.42347 0 2e-3z" fill="url(#b)" stroke="#000" stroke-linecap="round" stroke-linejoin="bevel" stroke-width=".166"/>
<path transform="scale(.26458)" d="m828.21 284.8c-3.9418 7.759-6.1744 16.513-6.1738 25.785 2e-3 31.798 26.1 57.573 58.293 57.572 31.714-1e-3 57.493-25.023 58.252-56.168-0.62941 1.5528-1.3162 3.1488-1.9746 4.7949-1.4286 3.5714-5 10-7.5 12.857-2.5 2.8571-10.715 10.179-12.857 11.965-2.1428 1.7857-12.321 4.8209-16.785 5.5352-4.4643 0.71429-40.357-13.928-47.143-15.178-6.7857-1.25-23.393-10.179-25-11.965-1.6072-1.7857-2.5006-4.8223-3.2148-13.572-0.42305-5.1823 2.0285-14.687 4.1035-21.627z" fill="#856b48" stroke="#000" stroke-linecap="round" stroke-linejoin="bevel" stroke-width=".6274"/>
<path transform="scale(.26458)" d="m881.07 286.21c-2.2684-0.0502-5.7165 0.35212-7.8594 0.7539-2.8571 0.53571-7.5005 1.9646-9.4648 2.8574-1.9643 0.89286-11.429 7.6774-13.572 9.8203-2.1429 2.1429-5.5354 8.5711-5.8926 9.6426-0.35713 1.0714-1.9637 6.0714-3.0352 7.5-1.0715 1.4286-3.3937 2.5014-4.8223 3.0371-1.4286 0.53572-6.0698 3.2129-7.8555 4.4629-1.7554 1.2288-2.8174 2.6309-3.7012 4.0352 7.5737 23.117 29.533 39.839 55.459 39.838 13.921-4.5e-4 26.697-4.828 36.721-12.871-0.59035-0.53649-1.1741-0.97998-1.6934-1.1797-2.3214-0.89286-7.1437-3.9297-8.5723-5.1797-1.4286-1.25-5.8923-3.3923-8.0352-4.2852-2.1429-0.89286-8.3923-2.8566-9.2852-4.2852-0.89287-1.4286-0.71392-3.3937-0.53515-4.8223 0.17858-1.4286 3.75-3.5706 5-3.9277 1.25-0.35714 6.2486 0.17774 8.2129 0.17774 1.9643 0 9.2854-1.0706 10.893-1.4277 1.6071-0.35715 5.3583-2.6788 6.4297-4.1074 1.0714-1.4286 2.4993-3.2137 2.6777-4.2852 0.17854-1.0714-0.71289-0.71484-0.71289-0.71484s0.17747-5.6e-4 1.0703-0.71484c0.89269-0.71429 0.35808-2.3203 0.17969-3.5703-0.17859-1.25 1.0706-2.6783 1.4277-3.3926 0.35717-0.71428-0.35797-2.1442-1.0723-3.0371-0.7143-0.89286-1.0706-3.5703-1.4277-4.8203-0.35716-1.25-2.8574-2.144-4.1074-2.6797-1.25-0.53573-2.8574-1.9646-4.1074-2.8574-1.25-0.89286-2.5-5.1777-2.5-5.1777s0.35772-0.89285-0.53516 0c-0.89302 0.89286-1.0723 4.2849 0.17774 6.4277 1.25 2.1429 0.71484 1.9648 0.71484 1.9648s0.17888-0.17829-2.1426-0.89258c-2.3214-0.71428-1.7852-1.786-3.0352-2.8574-1.25-1.0714-6.9648-5.8923-9.4648-8.0352-2.5-2.1429-3.2154-1.6074-5.1797-2.8574-1.9643-1.25-6.9632-1.7866-8.5703-2.3223-0.40178-0.13393-1.0271-0.20005-1.7832-0.21679z" fill="#70593a" stroke="#000" stroke-linecap="round" stroke-linejoin="bevel" stroke-width=".6274"/>
<path d="m233.21 75.848s1.6474 0.1026 2.3624 0.33073c0.54789 0.19472 1.1339 0.75595 1.1339 0.75595l0.18899-1.7481-0.18899-2.2206-0.56696-1.3702-1.3702 0.47247z" fill="#70593a"/>
<path d="m233.13 75.787c-0.59684-0.01321-1.5041 0.09265-2.0679 0.19836-0.75172 0.14095-1.9735 0.5169-2.4903 0.75181-0.41956 0.19071-2.126 1.3948-3.0602 2.146 0.16005 0.06328 0.33522 0.13376 0.45067 0.17575 0.7309 0.26578 1.3289 1.3952 1.9934 2.259 0.66445 0.86378 0.92983 1.5287 1.0627 1.13 0.1329-0.39867 2.1266-0.99683 1.5951-1.2626-0.53157-0.26578-0.33249-0.93013-0.33249-0.93013s0.39894 0.26578 0.99694 0c0.598-0.26578 0.93012 0.06629 0.93012 0.06629s-0.19929-0.46532-0.46506-0.79755c-0.12247-0.15308-0.30055-0.14852-0.45787-0.10175 0.31918-0.1501 0.78903-0.33817 1.1223-0.29651 0.53156 0.06644 1.0632-0.0668 1.0632-0.0668l-0.33249-0.06629c-0.33223-0.06644-0.79755-0.59816-0.79755-0.59816s1.6616 0.33228 2.2596 0.19939c0.59801-0.13289 1.3954 0.53146 1.9934 0.93013 0.59801 0.39867 1.0632 0.99694 1.5283 1.6614 0.46512 0.66445 0.93018 0.86384 0.46506 0.86384s-0.93059 0.53125-1.3957 0.79704c-0.46511 0.26578-1.5282 0.53151-1.794 0.46506-0.26579-0.06644-1.1959 4.61e-4 -1.5946-0.19887-0.39869-0.19934-0.46507-0.46558-0.46507-0.46558l0.13311 0.73126s-0.46548-0.19939-0.73127-0.19939c-0.26577 0-0.92987 0.46522-1.2621 0.39877-0.33223-0.06644-0.66445-0.53187-0.66445-0.53187s-0.0666 0.53166 0.0663 1.0632c0.13288 0.53156 0.79734 0.66445 1.3289 0.66445s0.86374 0.6644 1.1295 1.1295c0.26579 0.46511 0.7973 0.46542 0.46507 0.53187-0.33221 0.06644-1.1959 0.79693-1.1295 1.0627 0.0665 0.26578-0.33212 0.7311-0.93012 0.79755-0.59802 0.06644-1.0632 0.73074-1.0632 0.73074s1.0633 2.58e-4 0.79754 0.33248c-0.26578 0.33222-0.86415 0.33202-1.3957 0.53136-0.53157 0.19933-1.2621 0.99693-1.2621 0.99693l1.2621 0.06629s-0.93033 1.1293-1.0632 1.6609c-0.13288 0.53156 0.59817 2.2595 0.59817 2.2595s-0.0666-0.59842 0.0663-0.93064c0.13288-0.33222 0.66445-0.73074 0.66445-0.73074s-0.19917 0.79724-0.0663 1.5946c0.0767 0.46016 0.60257 1.5692 1.0468 2.4564 0.52826 0.05435 1.0635 0.08532 1.6064 0.0853 3.6627-1.18e-4 7.0242-1.2703 9.6615-3.3865-0.15531-0.14116-0.30893-0.25784-0.44554-0.31039-0.61078-0.23492-1.8796-1.0339-2.2554-1.3628-0.37587-0.32888-1.5503-0.89254-2.1141-1.1275-0.56381-0.23492-2.2081-0.75159-2.443-1.1275-0.23492-0.37587-0.18785-0.89291-0.14081-1.2688 0.0469-0.37587 0.98665-0.93946 1.3156-1.0334 0.32888-0.09396 1.644 0.04676 2.1609 0.04676 0.51682 0 2.4431-0.28169 2.8659-0.37565 0.42285-0.09397 1.4098-0.70483 1.6917-1.0807 0.28189-0.37587 0.6576-0.84556 0.70454-1.1275 6e-3 -0.03524 8e-3 -0.06448 6e-3 -0.0889-0.0319-0.04268-0.0606-0.08186-0.077-0.10894-0.0539-0.01445-0.11614 0.0097-0.11614 0.0097s0.0337-0.01553 0.0971-0.0555c2e-4 -4.29e-4 -1e-3 -0.0028-1e-3 -0.0031 0.03-0.03 0.15934-0.12147 0.25797-0.21223 0.1279-0.21153 0.0158-0.56974-0.0252-0.85664-0.0155-0.10833 0.0118-0.22133 0.056-0.33145 1e-3 -0.0056 6.2e-4 -0.01436 2e-3 -0.01953 0.0416-0.1495 0.29908-0.54831 0.29908-0.54831s-0.44856 0.34894-0.55653 0.39877c-0.10798 0.04983-0.34878 0.13276-0.46506 0.16598-0.11628 0.03323-0.20755-0.01682-0.31553-0.02518-0.10798-0.0083-0.38233-0.12436-0.38233-0.12436s0.12481 0.09131 0.23279 0.15776c0.10797 0.06644 0.17427 0.01662 0.42343 0.04985 0.24919 0.03321-1e-4 0.17456 0.26569 0.24101 0.26577 0.06644-0.19918 0.73095-0.73074 0.86384-0.53156 0.13289-1.5285 0.06619-2.1265 0.33197-0.598 0.26578-2.3251 0.53171-2.8567 0.59816-0.53156 0.06644-1.196-0.133-0.66445-0.39878 0.53157-0.26578 0.79704-0.66445 0.79704-0.66445l-1.1958 0.19939s1.0631-0.53161 1.3289-0.86384c0.26578-0.33223 0.93008-0.46507 1.3952-0.46507 0.4651 0 0.59791-0.73074 0.93012-0.73074 0.33223 0 0.93183 0.53077 1.1198 0.4368 0.18795-0.09397 0.1643-0.23499-0.0236-0.42293-0.18794-0.18794-0.16428-0.25848-0.30525-0.09404-0.14095 0.16444-0.49322-0.65777-0.56373-0.82222-0.0705-0.16444 0.28168-0.46969 0.37565-0.63413 0.0939-0.16444-0.18774-0.35274-0.2112-0.4702-0.0235-0.11746 0.14114-0.23484 0.11767-0.39929-9.7e-4 -0.0068-0.016-0.03896-0.0211-0.05344-0.0684-0.03568-0.20436-0.09169-0.49589-0.1814-0.6108-0.18793-0.46969-0.46991-0.79858-0.75181-0.32888-0.2819-1.8325-1.5503-2.4903-2.1141-0.65778-0.5638-0.846-0.42292-1.3628-0.75181-0.51682-0.32888-1.8321-0.47006-2.2549-0.61101-0.10571-0.03525-0.27023-0.05263-0.46917-0.05704z" fill="#453623"/>
<path d="m237 77.012s0.20045-0.46772 0.20045-0.96885c0-0.50113-0.10023-2.1382-0.16704-2.6059-0.0668-0.46772-0.16705-1.2361-0.43431-1.6036-0.26728-0.3675-0.56795-0.7684-0.56795-0.7684s-0.46773 0.33409-0.7684 0.53454c-0.30068 0.20045-1.0357 0.70158-1.2027 0.90203-0.16705 0.20045-0.93545 1.1359-1.1359 1.5034s-0.56795 0.93544-0.66817 1.2361c-0.10023 0.30068-0.13364 0.66817-0.13364 0.66817s0.20045 0.33409 0.63476 0.46772c0.43432 0.13364 1.2361 0.06682 1.47 0.23386s0.66817 0.26727 0.80181 0.23386c0.13363-0.03341 0.0334-0.46772-0.0334-0.86862-0.0668-0.4009-0.0668-1.1359-0.0334-1.5034 0.0334-0.3675 0.23386-1.3363 0.36749-1.6704 0.13364-0.33409 0.10023-0.80181 0.3675-0.93544s0.3675-0.16704 0.50113 0.10023c0.13363 0.26727 0.30068 0.86862 0.43431 1.1359 0.13364 0.26727 0.26727 1.1025 0.23386 1.4366-0.0334 0.33409 0.0668 0.83522-0.10022 1.0691-0.16704 0.23386-0.33409 0.60136-0.33409 0.60136" fill="#70593a" stroke="#000" stroke-linecap="round" stroke-linejoin="round" stroke-width=".165"/>
<path d="m233.86 75.81c0.40091-0.63476 0.56795-0.83522 0.56795-1.1693 0-0.33409-0.0334-0.93544 0.20045-1.47 0.23386-0.53454 0.46772-1.0357 0.46772-1.0357" fill="none" stroke="#000" stroke-linecap="round" stroke-linejoin="round" stroke-width=".119"/>
<g fill="#70593a">
<path d="m235.05 76.936c0-0.10022-0.0717-0.34066-0.0717-0.34066l-2.2885-0.93544s0.13161 0.62463 0.0346 0.74764c-0.097 0.0285 0.65552 0.4441 0.65552 0.4441z"/>
<path d="m236.19 76.606s0.29662-0.21108 0.38015-0.36141c0.0835-0.15034 0.25056-0.30068 0.25056-0.30068l0.15034 0.73499-0.0432 0.39972z"/>
</g>
<path d="m243.91 84.906s-6e-3 0.0747-0.49012 0.22504c-0.48442 0.15034-1.1025 0.18375-1.2361 0.18375-0.13363 0-0.70158 0.60136-0.90203 0.55124-0.20045-0.05012-0.98556-0.26727-1.2528-0.20045-0.26727 0.06682-3.5246 0.46772-3.5246 0.46772" fill="none" stroke="#000" stroke-linecap="round" stroke-linejoin="round" stroke-width=".165"/>
<path d="m243.93 83.377c-0.4009 0.16704-0.66817 0.30068-1.1693 0.03341-0.50113-0.26727-0.3842-0.4009-0.7684-0.30068s-0.60136 0.28397-0.60136 0.28397" fill="none" stroke="#000" stroke-linecap="round" stroke-linejoin="round" stroke-width=".119"/>
<path d="m240.79 81.807c0.16705-0.35079 0.40091-0.56795 0.30069-0.78511-0.10023-0.21715-0.20046-0.4009-0.20046-0.4009" fill="none" stroke="#000" stroke-linecap="round" stroke-linejoin="round" stroke-width=".119"/>
<path d="m242.88 82.809s0.20045-0.35079 0.10023-0.53454c-0.10023-0.18375-0.20046-0.56795-0.46773-0.61806-0.26727-0.05011-0.43431-0.15034-0.58465 0.10022-0.15034 0.25057-0.18375 0.43431-0.18375 0.43431s0.25057-0.4009 0.31739-0.4009c0.0668 0 0.18374 0.15034 0.0501 0.30068-0.13363 0.15034-0.0501 0.23386 0.0334 0.33409 0.0835 0.10022-0.10023-0.15034 0.0334-0.28397 0.13363-0.13364 0.31738 0 0.36749 0.20045 0.0501 0.20045 0.33409 0.46772 0.33409 0.46772z" stroke="#000" stroke-linecap="round" stroke-linejoin="round" stroke-width=".119"/>
<path d="m243.67 82.775c-0.0668-0.23386 0.11693-0.55124 0.0334-0.75169-0.0835-0.20045-0.4009-0.30068-0.43431-0.55124-0.0334-0.25057 0.0668-0.51783 0.0668-0.51783s-0.18375 0.05011-0.21716 0.16704c-0.0334 0.11693-0.10023 0.28397-0.0334 0.4009 0.0668 0.11693 0.33409 0.30068 0.3842 0.46772 0.0501 0.16704 0.0334 0.45102 0.0501 0.56795s0.15034 0.21716 0.15034 0.21716z" stroke="#000" stroke-linecap="round" stroke-linejoin="round" stroke-width=".119"/>
<path d="m232.79 81.957s0.0835-0.33409 0.60136-0.58465c0.51784-0.25056 1.3196-0.48442 1.5869-0.66817s0.81852-0.08352 1.0691-0.18375c0.25057-0.10023 0.80181-0.25057 0.80181-0.31738 0-0.06682-0.0835 0.20045-0.18375 0.31738-0.10022 0.11693-0.26727 0.16704-0.26727 0.16704s0.0668 0.15034 0.0835 0.31738c0.0167 0.16704 0 0.68488-0.0501 0.75169-0.0501 0.06682-0.51783 0.23386-1.0023 0.21716-0.48442-0.01669-1.0023-0.08352-1.2027-0.20045-0.20045-0.11693-0.31738-0.15034-0.50113-0.08352-0.18375 0.06682-0.93545 0.26727-0.93545 0.26727z" stroke="#000" stroke-linecap="round" stroke-linejoin="round" stroke-width=".165"/>
<path d="m239.61 84.396s-0.33409-0.20045-1.3029 0.50113c-0.96886 0.70158-2.4388 2.5725-2.4388 2.5725" fill="none" stroke="#000" stroke-width=".1"/>
<path d="m237.7 84.496s-1.3364-0.20045-2.2384 0.50113c-0.90204 0.70158-3.274 3.5747-3.274 3.5747" fill="none" stroke="#000" stroke-width=".1"/>
<path d="m238 83.394s-0.16704-0.20045-1.4366 0.16704c-1.2695 0.3675-3.4745 1.2361-4.5102 2.0379-1.0357 0.80181-1.9711 1.3698-1.9711 1.3698" fill="none" stroke="#000" stroke-width=".1"/>
<path d="m230.02 80.22s0.40091-1.637 0.30068-2.2384c-0.10023-0.60136-0.26727-0.60136-0.33409-0.73499-0.0668-0.13364-3.4077-3.107-3.6081-3.4745-0.20046-0.3675-0.96886-0.50113-0.96886-0.50113s-1.0357 1.2695-1.2361 1.7707c-0.20045 0.50113-0.56795 2.205-0.60135 2.9734s-0.13364 2.2718-0.20046 2.8063c-0.0668 0.53454 0.20046 1.4366 0.46772 1.8041 0.26727 0.3675 0.63477 1.0023 1.3698 1.3029 0.73499 0.30068 1.3029 0.46772 1.3029 0.46772" fill="#70593a" stroke="#000" stroke-linecap="round" stroke-linejoin="round" stroke-width=".165"/>
<path d="m228.16 82.777s1.0867-0.99219 1.3702-1.4647c0.28348-0.47247 0.51971-0.7087 0.51971-1.1812 0-0.47247-0.89769-1.4174-0.89769-1.4174l-1.0394 0.94494z" fill="#70593a"/>
<path d="m225.84 83.561s-0.26742-0.01679-0.41784-0.11763c-0.15042-0.10082-0.48469-0.21845-0.60168-0.35288-0.117-0.13443-0.65183-1.1931-0.71868-1.3107-0.0668-0.11763-0.20056-0.78979-0.20056-0.857 0-0.06722 0.20056-1.4451 0.20056-1.4451l0.234-1.4451s0.10031-0.25206 0.1337-0.36969c0.0334-0.11763 0.70195-1.5796 0.70195-1.5796l0.71868-1.2939s0.23398 0.50412 0.28413 0.63855c0.0502 0.13443 0.35097 0.67216 0.5014 0.89061 0.15042 0.21845 0.78554 0.90742 0.85239 1.0082 0.0668 0.10082 0.25069 0.4201 0.28412 0.53773 0.0334 0.11763 0.13371 1.5124 0.13371 1.5124l0.11699-0.58814s0.0334 0.25206 0.0836 0.33608c0.0502 0.08402 0.86908 1.4619 0.86908 1.4619s0.20056 0.38649 0.21728 0.48732c0.0167 0.10082-0.0502 0.4033-0.0502 0.4033s-1.3119 0.24957-1.8792 0.58227c-0.56729 0.3327-0.52 0.95058-0.75636 1.2358-0.23637 0.28518-0.70711 0.26568-0.70711 0.26568z" fill="url(#d)"/>
<path d="m225.81 83.561s-0.70158-0.10022-1.1025-0.63476c-0.4009-0.53454-0.80181-1.5702-0.80181-1.9377 0-0.3675 0.3675-2.6393 0.43432-2.9734 0.0668-0.33409 0.50112-1.2027 0.73499-1.7038 0.23386-0.50113 0.8018-1.5034 0.8018-1.5034s0.50114 1.1693 0.90204 1.6704c0.4009 0.50113 1.0023 1.0357 1.0691 1.5034 0.0668 0.46772 0.10022 1.4032 0.10022 1.4032l0.20046-0.96885s-0.13364 0.50113 0.0668 0.83522c0.20045 0.33409 0.23386 0.3675 0.20045 0.33409-0.0334-0.03341 0.80181 1.2027 0.80181 1.5702 0 0.3675-0.0668 0.26727-0.0668 0.26727" fill="none" stroke="#000" stroke-linecap="round" stroke-linejoin="round" stroke-width=".119"/>
<path d="m228.11 84.062s0-0.43431 0.23386-0.50113c0.23386-0.06682 0.90203-0.30068 1.0691-0.06682 0.16704 0.23386 0.33408-0.10023 0.13363-0.20045-0.20045-0.10023-0.26727-0.13363-0.26727-0.30068 0-0.16704-0.36749-0.16704-0.56794-0.10023-0.20046 0.06682-0.3675 0.13364-0.60136 0.43431-0.23386 0.30068-0.3675 0.46772-0.30068 0.60136 0.0668 0.13364 0.30068 0.13364 0.30068 0.13364z" stroke="#000" stroke-linecap="round" stroke-linejoin="round" stroke-width=".119"/>
<g transform="translate(-20.005 -.58796)" fill="none" stroke="#000">
<g fill="none" stroke="#000">
<g transform="rotate(-3.0016 250.25 109.76)">
<g fill="none" stroke="#000" stroke-linecap="round" stroke-linejoin="round">
<path d="m257.41 92.976c-0.20353 0.40074-0.2172 0.9926-0.2172 0.9926s-0.27912-0.65142-0.56263-0.8692c-0.28349-0.21778-0.67868-0.33629-0.67868-0.33629l0.20402 1.2079-0.18361-0.29656-0.0546 0.56827-0.36722-0.59311-0.42307-0.54349-0.0689 0.45101-0.28533-0.54595" stroke-width=".065"/>
<path d="m248.46 93.573s-0.45856 0.50898-0.37965 0.73906c0.0789 0.23006-0.12271-0.42852-0.26833-0.6551-0.14563-0.2266-0.34771 0.06831-0.31624 0.35102 0.0315 0.28271-0.17204-0.09139-0.22106-0.38993-0.049-0.29852-0.0316 0.03511-0.31086 0.13329-0.27924 0.09819-0.0985 0.3564-0.10357-0.0615-5e-3 -0.41791 0.1687-0.29317-0.22296-0.10548-0.39166 0.18769-0.0983 0.03862-0.12268-0.42849-0.0243-0.46709-7e-3 -0.45129-7e-3 -0.45129" stroke-width=".065"/>
<path d="m241.88 86.634c-0.33047 0.71977-0.1091 0.47406-0.37791 0.77242-0.26881 0.29837-0.44102 0.52478-0.44102 0.52478s0.10717-0.18962 0.71296-0.1208c0.60576 0.06879 0.62521-0.19986 0.62521-0.19986s-0.11433 0.37395-0.30582 0.5512c-0.19139 0.17734 0.53556 0.0055 0.53556 0.0055l-0.13181 0.35819s0.51817-0.32809 0.45492-0.25789c-0.0633 0.07021-0.095 0.42313-0.095 0.42313s-0.16144-0.20905 0.20728-0.19482c0.36874 0.01423 0.0806 0.26342 0.0806 0.26342l0.77621-0.19101" stroke-width=".065"/>
<path d="m253.73 96.238c-0.17391 0.29559-0.21224 0.74568-0.21224 0.74568s-0.18184-0.50927-0.38747-0.6885c-0.20561-0.17923-0.50098-0.28813-0.50098-0.28813l0.0984 0.92952-0.12585-0.23452-0.0684 0.43021-0.25168-0.46902-0.29654-0.43386-0.0738 0.34021-0.19153-0.42924" stroke-width=".049596"/>
<path d="m248.79 88.261s-0.44265 0.33992-0.41346 0.5359c0.0293 0.19595-0.0349-0.36144-0.11808-0.56449-0.0831-0.20307-0.28866 0.0033-0.30527 0.23443-0.0166 0.23114-0.12431-0.09866-0.11945-0.34507 5e-3 -0.2464-0.0305 0.02345-0.26874 0.0608-0.23822 0.03742-0.13163 0.27094-0.0739-0.06459 0.0578-0.33553 0.17852-0.20991-0.163-0.11748-0.34153 0.09242-0.0844 0.01639-0.0348-0.36143 0.0496-0.37778 0.0611-0.36257 0.0611-0.36257" stroke-width=".052952"/>
</g>
</g>
</g>
</g>
<path d="m235.05 76.08s0.2008 0.04725 0.34254 0.1063c0.14174 0.05906 0.61421 0.24805 0.70871 0.33073 0.0945 0.08268 0.14174 0.05906 0.14174 0.05906s0.2008-0.34254 0.28348-0.47247c0.0827-0.12993 0.35435-0.67327 0.35435-0.67327l-0.0118-1.0749s-0.0709-0.73233-0.15356-0.92132c-0.0827-0.18899-0.23623-0.83864-0.33072-0.99219-0.0945-0.15355-0.17718-0.50791-0.27168-0.57878-0.0945-0.07087-0.16536-0.11812-0.23623-0.07087-0.0709 0.04725-0.34254 0.10631-0.34254 0.2008 0 0.09449-0.10631 0.51972-0.12993 0.6024-0.0236 0.08268-0.29529 1.0867-0.31892 1.2048-0.0236 0.11812-0.0945 0.48428-0.1063 0.67327-0.0118 0.18899 0 0.64965 0 0.87407 0 0.22442 0.0709 0.73233 0.0709 0.73233z" fill="url(#c)"/>
<path d="m232.79 81.957s0.0835-0.33409 0.60136-0.58465c0.51784-0.25056 1.3196-0.48442 1.5869-0.66817s0.81852-0.08352 1.0691-0.18375c0.25057-0.10023 0.80181-0.25057 0.80181-0.31738 0-0.06682-0.0835 0.20045-0.18375 0.31738-0.10022 0.11693-0.26727 0.16704-0.26727 0.16704s0.0668 0.15034 0.0835 0.31738c0.0167 0.16704 0 0.68488-0.0501 0.75169-0.0501 0.06682-0.51783 0.23386-1.0023 0.21716-0.48442-0.01669-1.0023-0.08352-1.2027-0.20045-0.20045-0.11693-0.31738-0.15034-0.50113-0.08352-0.18375 0.06682-0.93545 0.26727-0.93545 0.26727z" fill="url(#a)"/>
</g>
</svg>
