<?xml version="1.0" encoding="UTF-8"?>
<svg width="117.21" height="115.78" version="1.1" viewBox="0 0 31.011706 30.633729" xmlns="http://www.w3.org/2000/svg" xmlns:cc="http://creativecommons.org/ns#" xmlns:dc="http://purl.org/dc/elements/1.1/" xmlns:rdf="http://www.w3.org/1999/02/22-rdf-syntax-ns#" xmlns:xlink="http://www.w3.org/1999/xlink">
<defs>
<radialGradient id="b" cx="276.67" cy="94.966" r="15.506" gradientTransform="matrix(1.2319 -.39108 .40387 1.2721 -102.5 82.222)" gradientUnits="userSpaceOnUse">
<stop stop-color="#59f" offset="0"/>
<stop stop-color="#59f" stop-opacity="0" offset="1"/>
</radialGradient>
<linearGradient id="c" x1="198.91" x2="196.31" y1="79.549" y2="79.242" gradientUnits="userSpaceOnUse">
<stop stop-color="#502d16" offset="0"/>
<stop stop-color="#502d16" stop-opacity="0" offset="1"/>
</linearGradient>
<radialGradient id="a" cx="192.7" cy="76.942" r="1.4714" gradientTransform="matrix(-.11207 -.34384 .94455 -.30788 141.63 167.29)" gradientUnits="userSpaceOnUse">
<stop stop-color="#fff" offset="0"/>
<stop stop-color="#fff" stop-opacity="0" offset="1"/>
</radialGradient>
</defs>
<metadata>
<rdf:RDF>
<cc:Work rdf:about="">
<dc:format>image/svg+xml</dc:format>
<dc:type rdf:resource="http://purl.org/dc/dcmitype/StillImage"/>
<dc:title/>
</cc:Work>
</rdf:RDF>
</metadata>
<g transform="translate(-40.495 -71.844)">
<g transform="translate(-135.24 5.8799)">
<g transform="translate(-83.542 -2.7801)">
<g>
<path d="m290.2 84.063c0 8.4132-6.9047 15.234-15.422 15.234-8.5176 2.8e-4 -15.423-6.8196-15.423-15.233-5.6e-4 -8.4132 6.9037-15.234 15.421-15.235 8.5176-8.3e-4 15.423 6.8186 15.424 15.232-1e-3 -0.53617-8e-3 0.42347 0 2e-3z" fill="#0055d4"/>
<path d="m290.2 84.061c0 8.4132-6.9047 15.234-15.422 15.234-8.5176 2.8e-4 -15.423-6.8196-15.423-15.233-5.6e-4 -8.4132 6.9037-15.234 15.421-15.235 8.5176-8.3e-4 15.423 6.8186 15.424 15.232-1e-3 -0.53616-8e-3 0.42347 0 2e-3z" fill="url(#b)" stroke="#000" stroke-linecap="round" stroke-linejoin="bevel" stroke-width=".16601"/>
</g>
</g>
<path transform="scale(.26458)" d="m732.14 285.18c-1.4286 0-3.5709 0.17999-5.5352 0.53711-1.9643 0.35715-2.8574 1.0703-2.8574 1.0703s-0.5349-0.35743-1.4277-0.35743c-0.89288 0-5.1786 2.1434-7.5 3.2148-2.3214 1.0714-8.5728 5.5352-10.537 6.7852-1.9643 1.25-5.5354 4.2857-7.1426 6.25-1.6072 1.9643-4.2849 5.894-6.4277 5.1797-2.1428-0.71429-13.571-8.214-17.143-9.6426-1.7297-0.69186-5.2152-0.4579-8.3535-0.0371-0.46811 2.9394-0.71505 5.9502-0.71484 9.0195 2e-3 24.88 15.98 46.072 38.354 54.115 2.5752-0.51428 4.8257-2.1007 4.5762-1.6699-0.35186 0.60743-0.94605 1.6844-1.4199 2.6953 5.3161 1.5763 10.947 2.4338 16.783 2.4336 4.0534-1.3e-4 8.0079-0.41145 11.828-1.1894 1.3774-1.6586 3.2502-3.7892 4.125-4.1172 1.4286-0.53571 5.5368-5.7148 6.4297-6.9648 0.89287-1.25 3.9273-5 6.9629-6.25 2.1428-1.4286 1.9651-3.5709 1.0723-4.2852-0.89287-0.71429-1.0723-2.1426-2.3223-2.1426-1.25 0-2.5003-1.2508-4.1074-2.3223-1.6071-1.0714-6.0698-4.2854-7.8555-4.6426-1.7857-0.35715-4.1524-0.80469-4.1524-0.80469s5.7595-1.5167 6.6524-1.6953c0.89284-0.17857 7.1417-4.2866 8.5703-4.8223 1.4286-0.53573 8.9283-8.7489 9.6426-9.8203 0.46903-0.70371 0.3944-1.0029 0.29101-1.1387l0.95899 0.95899v-0.89258c0-0.89286-0.17829-6.0714-0.89258-8.75-0.71429-2.6786-3.2146-8.5714-4.1074-10-0.89288-1.4286-2.8571-3.036-5-4.1074-2.1428-1.0714-8.572-3.0354-9.4648-3.3926-0.89287-0.35714-2.1426-1.4291-3.3926-1.9648-1.25-0.53572-4.464-1.25-5.8926-1.25z" fill="#fff6d5" stroke="#000" stroke-linecap="round" stroke-linejoin="bevel" stroke-width=".62746"/>
<path transform="scale(.26458)" d="m732.01 285.37c-1.4205 0-3.5508 0.17809-5.5039 0.5332-1.9532 0.35513-2.8418 1.0644-2.8418 1.0644s-0.53215-0.35546-1.4199-0.35546c-0.88785 0-5.1488 2.1319-7.457 3.1973-2.3083 1.0654-8.5234 5.5032-10.477 6.7461-1.9532 1.2429-5.5055 4.2617-7.1035 6.2148-1.5981 1.9532-4.2598 5.8606-6.3906 5.1504-0.54074-0.18025-1.6853-0.80219-3.1367-1.6426-2.8109-1.623-6.8379-4.1131-10.047-5.9473-0.012-7e-3 -0.0213-0.0108-0.0332-0.0176-1.5827-0.90051-2.947-1.628-3.8281-1.9805-1.7689-0.70756-5.3884-0.4445-8.5762-4e-3 -0.453 2.8925-0.69355 5.8532-0.69336 8.8711 8.4e-4 10.495 3.0428 20.074 8.0097 28.546 0.90421-0.83026 1.9106-1.5275 3.0333-1.9018l3.1973-1.0645v2.4863l-3.8708 4.1954c0.11003 0.1589 0.28164 0.38193 0.39322 0.53969 1.0372-0.39962 2.2135-0.84649 3.8311-1.5398 2.4859-1.0654 7.457 7.8125 7.457 7.8125s-1.065-1.7758 0.35547-4.2617c1.4205-2.4859 1.4219-4.9727 1.4219-4.9727s4.2617 7.1052 4.2617 8.8809v6.0352s2.4847-3.1954 2.8398-5.3262c0.35528-2.1307 1.0645-7.459 1.0645-7.459s-3.9058-5.681-1.4199-4.9707c2.4859 0.71023 7.1035 2.8398 7.1035 2.8398s-1.4213-1.4184-2.8418-3.9043c-1.4205-2.4858-2.4863-4.2637-2.4863-4.2637l3.1973 2.1328s-2.1312-2.1326-0.35547-3.9082c1.7756-1.7756 4.2631-1.0632 5.6836-1.7734 1.4205-0.71025 13.849-7.1032 15.625-6.748 1.7756 0.35512 11.008-0.35501 13.139-3.9062 2.1307-3.5512 13.139-3.5508 13.139-3.5508s8.169 3.1955 9.2344 1.4199c1.0654-1.7756 1.4199-7.8125 1.4199-7.8125l0.87109-1.4688c-1.0389-2.7986-2.5314-6.195-3.1797-7.2324-0.88785-1.4205-2.8399-3.0186-4.9707-4.084-2.1307-1.0654-8.5243-3.0179-9.4121-3.373-0.88785-0.35512-2.1302-1.4224-3.373-1.9551-1.2429-0.5327-4.4389-1.2422-5.8594-1.2422z" fill="#d0c187"/>
<path d="m194.4 87.923c-0.15938 0.06337-2.4946 0.99294-2.766 1.1726-0.28067 0.1858-2.7131 1.1149-2.8535 1.3936-0.33915 0.29032-1.9652 1.7188-2.1991 2.0439-0.23389 0.32516-0.79526 1.254-0.98237 1.4398-0.18712 0.1858-0.56128 0.37139-0.56128 0.37139s1.8714-0.18588 2.9006-0.74329c1.0291-0.55742 1.9647-0.83576 1.9647-0.83576l-1.1226-0.3719 0.65491-0.37139h-1.5907s0.65484-1.0221 1.2162-0.92924c0.56135 0.09289 1.0294 0.09297 1.0294 0.09297s-0.0936-0.65003 0.46766-0.92873c0.56135-0.27871 1.4035 0.37139 1.4035 0.37139s-0.0936-0.46473 0.6549-0.27893c0.74849 0.1858 1.4035 0.09298 1.4035 0.09298l0.65491 0.3719h0.74803l0.65492 0.18544-3.4613 1.7655s1.403-0.46458 2.1515-0.74329c0.74848-0.27871 1.8716-0.55734 1.8716-0.55734l-1.5907 1.5791s1.3098-0.64996 1.9647-0.83576c0.55825-0.15838 0.89609-0.05215 0.98851-0.01575 0.27342-0.24276 0.57749-0.46358 0.8826-0.58833 0.27309-0.18078 0.40017-0.40512 0.43388-0.60967-0.0333-0.19899-0.1351-0.42051-0.25224-0.60764-0.0485-0.06028-0.0904-0.12501-0.13201-0.18849-0.0894-0.11311-0.17593-0.19578-0.23689-0.21999-0.0455-0.01806-0.0982-0.0327-0.15043-0.04725-0.0808-0.0017-0.16174-0.02272-0.24406-0.05792-0.12022-0.02257-0.21336-0.03404-0.21336-0.03404s-1.0294-0.69698-1.3569-0.92924c-0.32746-0.23226-0.88868-0.6501-1.1226-0.69655-0.12023-0.02388-0.40542-0.10721-0.66208-0.18442-0.22837-0.04363-0.51235-0.09899-0.54797-0.10568z" fill="#d0c187"/>
<path d="m182.85 81.454s-0.23624 0.75595-0.8032 0.89769c-0.56697 0.14174-1.4647 2.6458-1.7481 3.1656-0.28348 0.51972-0.37798 2.7876-0.7087 3.26-0.33073 0.47247-1.0867 1.0394-1.0867 1.0394" fill="none" stroke="#000" stroke-linecap="round" stroke-linejoin="round" stroke-width=".065"/>
<path d="m182.56 82.021s-0.8977 3.1656-1.2757 3.638c-0.37798 0.47247-0.61421 1.3229-0.61421 2.1734 0 0.85045 0.0945 2.3151 0.37797 2.8821 0.28348 0.56696 1.0867 1.8899 1.0867 1.8899" fill="none" stroke="#000" stroke-linecap="round" stroke-linejoin="round" stroke-width=".065"/>
<path d="m183.03 93.502s0.37797-1.0394 0.0945-1.9844c-0.28348-0.94494-0.66146-1.3229-0.94494-2.0789-0.28348-0.75595-0.0472-2.3151-0.0472-2.3151" fill="none" stroke="#000" stroke-linecap="round" stroke-linejoin="round" stroke-width=".065"/>
<path d="m191.46 75.845s-0.43907 0.12791-0.72255 0.50588c-0.28348 0.37798-0.7087 1.3229-0.7087 1.7954 0 0.47247 0.14174 1.7009 0.47247 2.1734 0.33073 0.47247 0.47247 1.1812 2.3624 1.2284 1.8899 0.04725 2.9766-1.1812 3.2128-1.8426 0.23624-0.66146 0.56697-2.2206 0.33073-2.7403-0.23623-0.51972-0.46674-0.7946-0.46674-0.7946" fill="none" stroke="#000" stroke-linecap="round" stroke-linejoin="round" stroke-width=".165"/>
<path d="m190.07 78.17s0.14175 1.0158 0.56697 1.5355c0.42522 0.51972 0.99219 0.8032 0.99219 0.8032" fill="none" stroke="#000" stroke-linecap="round" stroke-linejoin="round" stroke-width=".065"/>
<path d="m195.7 79.422s-0.51972-0.99219-1.1812-1.5592c-0.66145-0.56696-1.4174-0.85045-1.8426-0.85045s-2.1734 0.51972-2.1734 0.51972 1.0394 1.7009 1.3702 1.8899c0.33073 0.18899 1.1812 0.37798 1.9844 0.23623 0.80319-0.14174 1.2757 0 1.5592 0.04725s0.28348-0.28348 0.28348-0.28348z" fill="#0e0e0e" stroke="#0e0e0e" stroke-linecap="square" stroke-linejoin="round" stroke-width=".165"/>
<path d="m196.36 76.446s0.99218 0.8032 1.0394 1.2757c0.0473 0.47247 0.0945 0.99219 0.0945 0.99219" fill="none" stroke="#000" stroke-linecap="round" stroke-linejoin="round" stroke-width=".065"/>
<path d="m199.38 78.477s-0.0945 0.23623-0.14174 0.42522c-0.0472 0.18899 0.28348 0.75595 0.28348 0.75595s0.37797-0.09449 0.28348-0.47247c-0.0945-0.37798-0.42522-0.7087-0.42522-0.7087z" stroke="#000" stroke-width=".26458px"/>
<path transform="scale(.26458)" d="m666.36 292.74c-1.2126 4.6259-1.8597 9.4761-1.8594 14.477 5.7e-4 8.6976 1.9648 16.938 5.4609 24.33 0.73416-0.3682 1.4767-0.76492 2.1777-1.1934 3.2143-1.9643 7.3212-7.3212 8.3926-9.6426 1.0714-2.3214 3.9294-6.0723 4.8223-7.3223 0.89288-1.25 1.786-2.3217 2.8574-2.8574 1.0714-0.53573 2.1415-2.3217 3.2129-2.8574 1.0715-0.53571 2.6802-0.53403 2.1445-1.6055s-5.3583-7.1445-11.43-9.6445-12.858-2.8569-14.465-3.3926c-0.25931-0.0864-0.74504-0.18644-1.3144-0.29102z" fill="#d0c187" stroke="#000" stroke-width=".62362"/>
<path d="m182.85 85.092s-0.0472 1.5592 0.8032 2.3624c0.85044 0.8032 2.3151 1.9371 2.3151 1.9371" fill="none" stroke="#000" stroke-linecap="round" stroke-linejoin="round" stroke-width=".065"/>
<path d="m183.98 80.887 0.33073 0.51972-0.37798 0.61421-0.56696 0.47247-0.18899-0.28348 0.22443-0.64965z" fill="#502d16" stroke="#44210e" stroke-linecap="square" stroke-width=".165"/>
<path d="m183.55 83.155z" fill="none" stroke="#000" stroke-width=".26458px"/>
<path d="m184.45 82.966-0.70871 0.47247-0.23623-0.23624 0.0472-0.47247 0.47246-0.42522z" fill="#502d16" stroke="#44210e" stroke-linecap="square" stroke-width=".165"/>
<path d="m183.68 84.229 0.4009 0.83522 0.60136 0.33409 0.7684 0.03341 0.60136-1.0023-0.60136-0.70158-0.40091 0.06682-0.10022-0.3675-0.96885 0.20045z" fill="#502d16" stroke="#44210e" stroke-linecap="square" stroke-width=".165"/>
<path d="m186.35 84.596-0.43432 0.7684 0.70158 0.56795 0.93545-0.30068 0.46772-0.4009-0.7684-0.63476z" fill="#502d16" stroke="#44210e" stroke-linecap="square" stroke-width=".165"/>
<path d="m188.99 85.031-0.70158 0.3675 0.43431 0.33409 0.46772-0.23386 0.13364-0.46772z" fill="#502d16" stroke="#44210e" stroke-linecap="square" stroke-width=".065"/>
<path d="m187.72 85.866 0.3675-0.20045 0.36749 0.16704-0.23386 0.23386z" fill="#502d16" stroke="#44210e" stroke-linecap="square" stroke-width=".065"/>
<path d="m186.42 84.296 0.80181-0.03341 0.56795-0.66817-0.73499-0.3675-0.50113 0.30068z" fill="#502d16" stroke="#44210e" stroke-linecap="square" stroke-width=".165"/>
<path d="m188.59 83.661-0.63477 0.06682-0.33409 0.73499 0.53454 0.56795 0.735-0.30068 0.20045-0.46772z" fill="#502d16" stroke="#44210e" stroke-linecap="square" stroke-width=".165"/>
<path d="m185.85 83.694 0.86863-0.56795-0.36749-0.46772-0.60136-0.10023-0.53454 0.63476z" fill="#502d16" stroke="#44210e" stroke-linecap="square" stroke-width=".165"/>
<path d="m184.72 82.859 0.60136-0.16704 0.30067-0.46772-0.16704-1.0023-0.3675-0.16704-0.50113 0.3675-0.26727 0.83522z" fill="#502d16" stroke="#44210e" stroke-linecap="square" stroke-width=".165"/>
<path d="m184.2 80.53 0.2477 0.59157 0.70158-0.3675 0.7684-1.1025 0.0591-0.83522-0.9692 0.78258z" fill="#502d16" stroke="#44210e" stroke-linecap="square" stroke-width=".165"/>
<path d="m187.19 79.886-0.33409 0.30068-0.30067-0.06682 0.13363 0.16704-0.96885 0.7684-0.26727-0.26727 0.66817-1.0357 0.83522-0.23386z" fill="#502d16" stroke="#44210e" stroke-linecap="square" stroke-width=".165"/>
<path d="m186.85 82.492 1.1359-1.0357 0.50113 0.33409-0.80181 1.4032-0.73499-0.23386z" fill="#502d16" stroke="#44210e" stroke-linecap="square" stroke-width=".165"/>
<path d="m188.96 82.124-0.83521 0.80181-0.0668 0.50113 0.60135-0.06682z" fill="#502d16" stroke="#44210e" stroke-linecap="square" stroke-width=".165"/>
<path d="m189.9 82.191-0.80181 0.90204 0.13364 0.83522 0.33408-0.26727 0.23386 0.06682 0.66818-0.60136z" fill="#502d16" stroke="#44210e" stroke-linecap="square" stroke-width=".165"/>
<path d="m186.19 82.191 0.56795-0.10022-0.0334-0.20045 0.23386 0.20045 0.63477-0.73499-0.16705-0.83522h-0.60135l-0.90204 0.80181v0.53454h0.20045z" fill="#502d16" stroke="#44210e" stroke-linecap="square" stroke-width=".165"/>
<path d="m189.79 79.552-0.23386-0.26727-0.7684 0.16704-0.0668 0.26727-0.20045-0.10023-0.53454 0.26727-0.0334 0.43431 0.96885 0.10023 0.50113-0.23386z" fill="#502d16" stroke="#44210e" stroke-linecap="square" stroke-width=".165"/>
<path d="m187.56 79.217 0.26727 0.20045 1.47-0.56795 0.20045-0.96885-0.70158 0.10023s-0.40091 0.23386-0.56795 0.3675-0.66817 0.86863-0.66817 0.86863z" fill="#502d16" stroke="#44210e" stroke-linecap="square" stroke-width=".165"/>
<path d="m188.76 81.222s0.43431-0.10023 0.53454-0.23386c0.10022-0.13364 0.23386-0.30068 0.23386-0.30068l0.56795-0.3675s0.26727 0.70158 0.43431 0.73499l0.16705 0.03341-0.53455 0.46772-0.56794 0.10023z" fill="#502d16" stroke="#44210e" stroke-linecap="square" stroke-linejoin="round" stroke-width=".165"/>
<path d="m191.23 81.723-0.56794 0.60136 0.30067 1.0023 0.30068 0.43431s0.33409-0.16704 0.33409-0.4009c0-0.23386 0.13363-0.23386 0.13363-0.23386l0.60136 0.20045-0.33409-0.3675s0.23386 0.13364 0.40091 0c0.16704-0.13364 0.23386-0.26727 0.23386-0.26727h-0.40091l-0.0668-0.16704 0.46772-0.10022 0.23386-0.50113s-0.66818-0.23386-0.86863-0.26727c-0.20045-0.03341-0.7684 0.06682-0.7684 0.06682z" fill="#502d16" stroke="#44210e" stroke-width=".165"/>
<path d="m193.17 81.89 0.33408 0.30068 0.80181-0.43431z" fill="#502d16" stroke="#44210e" stroke-linecap="square" stroke-linejoin="round" stroke-width=".065"/>
<path d="m194.54 81.623 0.63477-0.13364-0.26727 0.23386z" fill="#502d16" stroke="#44210e" stroke-linecap="square" stroke-linejoin="round" stroke-width=".065"/>
<path d="m186.33 78.569-0.0766 0.4478 0.90203 0.10023 1.47-1.5368-1.1025 0.16704z" fill="#502d16" stroke="#44210e" stroke-linecap="square" stroke-width=".165"/>
<path d="m188.83 77.113h0.4009l0.66818-0.3675 0.23386-0.33409-0.9098 0.31452z" fill="#502d16" stroke="#44210e" stroke-linecap="square" stroke-width=".165"/>
<path d="m196.78 79.719-0.30068 0.4009-0.13364 0.33409-0.30067 0.03341-0.13364 0.43431 0.3675 0.10023 0.56794-0.63477-0.0334 0.63477 1.2027-0.06682s0.56795-0.30068 0.7684-1.0023c0.20045-0.70158-0.20045-2.4054-0.20045-2.4054l-0.3675-0.3675s-0.3675 0.63476-0.4009 0.80181c-0.0334 0.16704-0.80181 0.60136-0.80181 0.60136l0.0668 0.7684-0.46772 0.13364z" fill="url(#c)"/>
<path d="m195.53 79.068s-0.62498-1.7886-1.2263-2.1895c-0.60135-0.4009-1.5368-0.46772-1.5368-0.46772" fill="none" stroke="#000" stroke-linecap="round" stroke-linejoin="round" stroke-width=".065"/>
<path d="m195.51 80.131s-0.66818-0.33409-1.2027-0.4009c-0.53454-0.06682-1.5368 0-1.5368 0" fill="none" stroke="#000" stroke-linecap="round" stroke-linejoin="round" stroke-width=".065"/>
<path d="m201.05 83.364s0.0611-0.77577-0.12791-1.2482c-0.18898-0.47247-0.18898-0.66146-0.18898-0.66146" fill="none" stroke="#000" stroke-linecap="round" stroke-linejoin="round" stroke-width=".165"/>
<path d="m196.88 83.795s0.80034 0.72946 1.7453 0.77671 1.193 0.02362 1.193 0.02362l1.0867-1.193-0.35436 0.12993-1.1457-0.25986s-0.36616-0.02362-0.75595 0.03543c-0.22158 0.03357-3.0474 0.83864-3.3073 0.95675s-1.9758 0.92229-2.6576 1.2284c-0.47717 0.21425-1.0158 0.51972-1.2757 0.59059s-0.64965 0.02362-0.64965 0.02362l-0.61421 0.54334-0.0945 0.14174-0.42522 0.04725-0.18899 0.21261s0.0236 0.16536-0.14174 0.11812c-0.16536-0.04725-0.49609-0.02362-0.49609-0.02362l-0.23624 0.16536s-0.0709 0.21261 0.0472 0.25986c0.11812 0.04725 0.3071 0.21261 0.56696 0.09449 0.25986-0.11812 0.47247-0.23624 0.47247-0.23624s0.16537 0.14174 0.25986 0.14174c0.0945 0 0.56697-0.44885 0.56697-0.44885s0.37797 0.11812 0.54334 0.11812c0.16536 0 0.44884-0.02362 0.66145-0.18899 0.21262-0.16536 0.4016-0.49609 0.4016-0.49609s0.42522 0.21262 1.2993-0.21261c0.66146-0.37798 0.92132-0.89769 0.92132-0.89769l0.28349 0.25986s0.87407 0 1.063-0.11812c0.18899-0.11812 0.51972-0.4016 0.8032-0.44885 0.28349-0.04725 0.8032-0.14174 0.8977-0.28348s0.14174-0.54334 0.14174-0.54334 0.4016 0.16536 0.7087 0.21261c0.30711 0.04725 1.5237 0.04724 1.5237 0.04724" fill="#d0c187" stroke="#d7c171" stroke-linecap="round" stroke-linejoin="round" stroke-width=".165"/>
<path d="m197.45 84.241s0.18899 0.61421-0.33073 0.75595c-0.51972 0.14174-1.0867 0.28348-1.3702 0.51972-0.28347 0.23624-1.1812 0.23624-1.1812 0.23624l-0.6197-0.80034" fill="none" stroke="#d7c171" stroke-linecap="round" stroke-linejoin="round" stroke-width=".165"/>
<path d="m194.33 85.47s-0.42522 0.7087-1.1339 0.99219c-0.70871 0.28348-1.1812 0.14174-1.1812 0.14174l-0.27167-0.63783" fill="none" stroke="#d7c171" stroke-linecap="round" stroke-linejoin="round" stroke-width=".165"/>
<path d="m192.06 86.604s-0.14174 0.42522-0.56696 0.61421c-0.42523 0.18899-0.99219-0.04725-0.99219-0.04725l-0.37798-0.51972 0.70871-0.51972" fill="none" stroke="#d7c171" stroke-linecap="round" stroke-linejoin="round" stroke-width=".165"/>
<path d="m190.12 86.793h-0.47247l-0.28348 0.33073 0.37797 0.33073s0.14175 0.18899 0.42523 0c0.28348-0.18899 0.33073-0.28348 0.33073-0.28348z" fill="none" stroke="#d7c171" stroke-linecap="round" stroke-linejoin="round" stroke-width=".165"/>
<path d="m189.6 87.454s-0.37797 0.33073-0.75595 0.18899c-0.37798-0.14174-0.33073-0.37798-0.14174-0.47247 0.18899-0.09449 0.66146 0 0.66146 0z" fill="none" stroke="#d7c171" stroke-linecap="round" stroke-linejoin="round" stroke-width=".165"/>
<path d="m188.33 86.651-0.23623-0.28348-0.56696-0.0945 0.37797 0.51972z" fill="#502d16" stroke="#44210e" stroke-linecap="square" stroke-width=".065"/>
<path d="m191.96 87.312s0.23624 0.47247 0.56697 0.33073c0.33073-0.14174 0.75595-0.23623 0.75595-0.42522v-0.28348s-0.0472 0.23624 0.28348 0.14174c0.33073-0.0945 0.85045-0.56696 0.85045-0.56696l0.61421-0.09449s-0.47247-0.28348-0.75595-0.28348-0.99219 0.8032-0.99219 0.8032-0.28348-0.18899-0.7087-0.09449c-0.42523 0.09449-0.61422 0.47247-0.61422 0.47247z" fill="#d0c187" stroke="#d7c171" stroke-linecap="round" stroke-linejoin="round" stroke-width=".065"/>
<path d="m191.99 88.777s2.6222-1.6064 3.1419-1.7954c0.51971-0.18899 1.7009-1.4647 1.7009-1.4647" fill="none" stroke="#000" stroke-linecap="round" stroke-linejoin="round" stroke-width=".065"/>
<path d="m195.74 87.194s0.80321-0.73233 1.5119-1.1103c0.70871-0.37798 1.5119-0.61421 1.5119-0.61421" fill="none" stroke="#000" stroke-linecap="round" stroke-linejoin="round" stroke-width=".065"/>
<g transform="rotate(-2.5712 190.85 88.517)" fill="#d0c187" stroke="#d7c171" stroke-linecap="square" stroke-linejoin="round" stroke-width=".065">
<path d="m189.93 87.761s-0.0945 0.37798 0.23624 0.42523c0.33073 0.04725 0.8032-0.0945 0.8032-0.0945l0.14174-0.28348s0.0472-0.18899-0.28348-0.18899c-0.33073 0-0.8977 0.14174-0.8977 0.14174z"/>
<path d="m192.06 87.95s-0.14174-0.14174-0.47247-0.18899c-0.33073-0.04725-0.37798 0.37798-0.37798 0.37798l0.23624 0.23624z"/>
<path d="m190.31 88.612s-0.0473-0.18899-0.33073-0.18899c-0.28348 0-0.42522 0.28348-0.42522 0.28348s0.0472 0.09449 0.28348 0.14174c0.23623 0.04725 0.47247-0.23624 0.47247-0.23624z"/>
<path d="m189.51 88.234s-0.0473-0.14174-0.33073-0.18899c-0.28348-0.04725-0.56696 0.09449-0.56696 0.09449s0.0945 0.37798 0.42522 0.37798c0.33073 0 0.47247-0.28348 0.47247-0.28348z"/>
<path d="m188.75 88.801 0.47247 0.23624s0.0472 0.18899-0.18899 0.28348c-0.23624 0.09449-0.75595-0.18899-0.75595-0.18899z"/>
<path d="m187.57 88.328-0.0472 0.47247 0.6142 0.14174 0.0472-0.37798z"/>
<path d="m187.29 88.187-0.28348-0.37798-0.51972 0.23624s-0.0473 0.23624 0.28348 0.37798c0.33073 0.14174 0.51972-0.23623 0.51972-0.23623z"/>
<path d="m188.28 87.998-0.37798-0.09449-0.0472 0.28348 0.28348 0.04725z"/>
</g>
<path d="m183.7 85.659s0.66145 1.5592 1.1339 1.7954l0.47247 0.23624" fill="none" stroke="#000" stroke-linecap="round" stroke-linejoin="round" stroke-width=".065"/>
<path d="m184.17 90.1c0.14175 1.0394-0.23623 1.0394 0.28349 1.4174s0.37797 1.0394 0.37797 1.0394" fill="none" stroke="#000" stroke-linecap="round" stroke-linejoin="round" stroke-width=".065"/>
<path d="m185.64 95.485s0.47381 0.29376 1.5262-0.37442c1.1899-0.75551 4.009-2.1047 4.009-2.1047" fill="none" stroke="#000" stroke-linecap="round" stroke-linejoin="round" stroke-width=".165"/>
<path d="m188.38 94.436s-1.2287 0.68439-1.496 1.2189c-0.0501 0.08352-0.0835 0.20045-0.0835 0.20045" fill="none" stroke="#000" stroke-linecap="round" stroke-linejoin="round" stroke-width=".165"/>
<g stroke="#44210e" stroke-linecap="square" stroke-linejoin="round" stroke-width=".165">
<path d="m192.12 89.714s-0.28499 0.52864-0.45203 0.395c-0.16705-0.13363-0.71543-0.77245-0.71543-0.77245s1.1798-0.55909 1.3215-0.60634c0.14174-0.04725 1.9135-0.75595 2.0789-0.8032 0.16537-0.04725 0.59059 0 0.75595 0.04725 0.16537 0.04725 0.75596 0.16536 0.85045 0.23624 0.0945 0.07087 1.2284 0.77958 1.3702 0.89769 0.14175 0.11812 1.0535 0.74617 1.1716 0.74617s0.2694 0.03341 0.36389 0.08066c0.0945 0.04725 0.5727 0.5295 0.59633 0.67124 0.0236 0.14174 0.0415 0.46555-6e-3 0.60729-0.0472 0.14174-0.81 0.72684-0.9045 0.70322-0.0945-0.02362-0.56016-0.13912-0.56016-0.25724 0-0.11812-0.0472-0.54334-0.0472-0.54334s-0.54335 0.09449-0.66146 0c-0.11812-0.09449-0.44885-0.56696-0.44885-0.56696s-0.54334 0.11812-0.66146 0.07087c-0.11812-0.04725-0.75595-0.87407-0.75595-0.87407s-0.68508 0.75595-0.8032 0.63784c-0.11812-0.11812-0.47247-0.51972-0.47247-0.51972s-0.16536 0.04725-0.25986-0.04725c-0.0945-0.09449-0.14174-0.14174-0.14174-0.14174s-0.54334 0.56696-0.68508 0.61421c-0.14174 0.04725-0.4016-0.3071-0.54334-0.42522-0.17127-0.15946-0.36669-0.17966-0.36669-0.17966z" fill="#502d16"/>
<path d="m198.45 91.892s-0.40175-0.0799-0.46857-0.24698c-0.0668-0.16704 0-0.60136 0-0.60136s0.43431-0.4009 0.46772-0.66818c0.0334-0.26727 0.0334-0.46569 0.0334-0.46569" fill="none"/>
<path d="m197.91 91.105s-0.66041 0.17277-0.76064-0.06108c-0.10022-0.23386-0.33408-0.56795-0.33408-0.56795l0.45794-1.3245" fill="none"/>
<path d="m196.79 90.502s-0.74883 0.34185-0.91588-0.09247c-0.16704-0.43431-0.53454-0.73499-0.70158-0.63476s0.33409 0.03341 0.33409-0.20045c0-0.23386 0.25545-1.3873 0.25545-1.3873" fill="none"/>
<path d="m195.27 89.812s-0.39685 0.43026-0.5973 0.49708c-0.20045 0.06682-0.33409-0.43431-0.66818-0.43431-0.33408 0-0.71829-1.5201-0.71829-1.5201" fill="none"/>
<path d="m193.72 89.71s-0.65433 0.69956-0.78796 0.56592c-0.13364-0.13364-0.56795-0.60136-0.70159-0.56795-0.13363 0.03341-0.19627-0.83104-0.19627-0.83104" fill="none"/>
</g>
<path d="m192.17 93.049c0.56794-0.10023 0.83521-0.53454 1.7707-0.70158 0.93544-0.16704 1.9711-0.73499 1.9711-0.73499" fill="none" stroke="#000" stroke-linecap="round" stroke-linejoin="round" stroke-width=".065"/>
<path d="m194.67 93.516s0.0334-0.26727 0.70158-0.50113 2.1382-0.86863 2.1382-0.86863" fill="none" stroke="#000" stroke-linecap="round" stroke-linejoin="round" stroke-width=".065"/>
<path d="m186.22 93.06c0.73499-0.30068 1.4072-1.0809 2.5431-1.2479" fill="none" stroke="#000" stroke-linecap="round" stroke-linejoin="round" stroke-width=".065"/>
<path d="m187.54 91.535s0.0675-0.35771 1.2034-0.42453c1.1359-0.06682 2.1382 0.20856 2.1382 0.20856" fill="none" stroke="#000" stroke-linecap="round" stroke-linejoin="round" stroke-width=".065"/>
<path d="m185.69 93.85s0.70158 0.20045 1.637-0.50113c0.93544-0.70158 2.205-1.0023 2.4388-1.0023h0.23386" fill="none" stroke="#000" stroke-linecap="round" stroke-linejoin="round" stroke-width=".065"/>
<g transform="matrix(.9635 .022509 -.022509 .9635 9.4562 -1.1426)">
<g transform="translate(-.14589 .052445)" fill="#502d16" stroke="#44210e">
<path d="m189.59 96.504 0.51598-0.41843 1.0362-0.01469-0.54817 0.49151z" stroke-linecap="square" stroke-linejoin="round" stroke-width=".2"/>
<path d="m188.61 96.409 0.48184 0.09551 0.60486-0.54172s-0.39584-0.05224-0.60988-0.04183c-0.21402 0.01042-0.47682 0.48804-0.47682 0.48804z" stroke-linecap="square" stroke-linejoin="round" stroke-width=".065"/>
<path d="m192.48 96.47s0.93707-0.58195 0.79439-0.575c-0.14269 0.0069-1.3216 0.02858-1.3216 0.02858l-0.57689 0.63593z" stroke-linecap="square" stroke-linejoin="round" stroke-width=".2"/>
<path d="m192.99 95.158-0.58905 0.38623 1.0092 0.1654 0.37328-0.41148z" stroke-linecap="square" stroke-linejoin="round" stroke-width=".165"/>
<path d="m193.81 94.474-0.55164 0.42017 0.71863 0.07229 0.55511-0.34882z" stroke-linecap="square" stroke-linejoin="round" stroke-width=".165"/>
<path d="m191.38 95.809c0.0626-0.18183 0.58557-0.45757 0.58557-0.45757l-0.68817-0.18103-0.86226 0.64982z" stroke-linecap="square" stroke-linejoin="round" stroke-width=".165"/>
<path d="m191.54 94.835 0.61683 0.1845 0.47335-0.55938z" stroke-linecap="square" stroke-linejoin="round" stroke-width=".165"/>
<path d="m194.48 94.299 0.47414 0.19145 0.5177-0.38276z" stroke-width=".065"/>
</g>
</g>
<path d="m176.37 77.477c-0.29325 1.1409-0.45675 2.3337-0.47623 3.5615 0.37502 0.03346 0.71748 0.05475 0.81019 0.02791 0.23074-0.06682 1.2528-0.36742 1.2528-0.36742s0.65884-0.56782 0.95551-0.83509c0.29667-0.26727 0.72545-0.70179 0.98915-0.80202 0.26371-0.10023 1.2364-0.21756 1.2364-0.21756s-0.5167-0.29192-0.93663-0.48989c-0.27087-0.10292-0.54295-0.19207-0.81274-0.26717-0.52777-0.10968-1.7137-0.36711-1.9921-0.39533-0.0878-0.0089-0.22575-0.03727-0.38597-0.07338-0.14968-0.02543-0.27782-0.04993-0.35181-0.07493-0.0414-0.014-0.11283-0.02981-0.18662-0.04599-0.0342-0.0075-0.068-0.01391-0.10197-0.02067z" fill="#502d16"/>
<path d="m181.46 79.031s-1.1331 0.12945-1.5217 0.35612c-0.38857 0.22667-1.457 1.2301-1.457 1.2301s1.4569 0.19436 1.716 0.29151c0.25904 0.09715 0.48585-0.22639 0.48585-0.22639s-0.22668 0.32362 0 0.5179c0.22666 0.19429 0.45329 0.29151 0.45329 0.29151v-0.26296c0.023 0.1635 0.0881 0.32906 0.25894 0.36013 0.29661 0.05393 0.6702 0.31465 0.79871 0.40631 0.0398-0.03424 0.23951-0.21013 0.27942-0.25078 0.11006-0.15261 0.28327-0.33538 0.47606-0.43424 0.25905-0.09714 0.3795-0.12532 0.3795-0.12532l0.13868-0.10344c-0.0113-0.01903-0.0923-0.20043-0.10932-0.22581-0.0754-0.09083-0.48295-0.57888-0.90708-1.0283-0.26616-0.25398-0.57461-0.5162-0.91659-0.75482 6e-3 0.0025-0.0746-0.04157-0.0746-0.04157z" fill="#502d16"/>
<path d="m178.39 81.036c-0.0635 5.62e-4 -0.12223 0.0044-0.17423 0.01238-0.416 0.064-1.472 0.32025-1.472 0.32025s0.44795 2.24 0.44795 2.56c0 0.32-0.096 0.89595-0.096 1.088 0 0.192 0.44809 0.79983 0.3841 1.2478-0.064 0.448-0.34861 1.0118-0.34861 1.0118s0.13423 0.44628 0.23292 0.31348c0.17281-0.08772 0.35429-0.19072 0.60175-0.3623 0.16931-0.08577 0.33409-0.2343 0.57656-0.48316 0.26229-0.25998 0.83712-0.88242 1.0816-1.2797 0.063-0.10246 0.27184-0.44059 0.42172-0.68554 0.15699-0.32678 0.42229-0.7258 0.68257-1.0949 0.25665-0.40188 0.36942-0.58026 0.44169-0.64048 0.0221-0.01839 0.19494-0.2923 0.22194-0.31642 0.16051-0.20914 0.25035-0.33039 0.43502-0.4758l-0.66706-0.24278s-0.12808 0.31973-0.28808 0.22373c-0.16001-0.096 1.3e-4 -0.25592-0.15988-0.35193-0.15999-0.096-0.28821-0.38398-0.76819-0.54398-0.42001-0.14-1.1092-0.30439-1.5537-0.30045z" fill="#502d16"/>
<path d="m175.89 81.373c8e-3 1.911 0.37107 3.7363 1.0202 5.4193 0.17609-0.71177-0.16774-1.647-0.06-2.0299 0.12769-0.4539-0.47932-3.3719-0.47932-3.3719z" fill="#502d16"/>
<path d="m183.15 80.533s-0.68508 0.25986-0.82682 0.42522c-0.14174 0.16536-0.4016 0.61421-0.63783 0.75595-0.23624 0.14174-0.4961 0.21261-0.66146 0.47247-0.16536 0.25986-0.89769 1.0867-1.2993 1.9135-0.40161 0.82682-1.1339 2.008-1.63 2.2679-0.49609 0.25986-1.1401 0.67718-1.1401 0.67718" fill="none" stroke="#000" stroke-linecap="round" stroke-linejoin="round" stroke-width=".1"/>
<path d="m184.53 94.965s1.2434-1.1795 1.5269-1.7465c0.28348-0.56696 2.1261-2.4568 3.0238-2.9766 0.89769-0.51972 4.2995-2.0316 4.8192-2.2206 0.51972-0.18899 0.93313-0.27167 0.93313-0.27167" fill="none" stroke="#000" stroke-width=".165"/>
<path d="m190.31 86.037s0.7087 0.14174 1.1339 0c0.42522-0.14174 3.1183-1.4647 3.827-1.7481 0.7087-0.28348 1.4174-0.47247 1.7481-0.56696 0.33073-0.0945 1.4647-0.47247 2.0789-0.47247 0.6142 0 1.4646 0.28348 1.4646 0.28348l0.48428-0.27167" fill="none" stroke="#000" stroke-linecap="round" stroke-linejoin="round" stroke-width=".165"/>
<path d="m191.09 78.359s0.0473-0.35435 0.11812-0.51972c0.0709-0.16536 0.23624-0.54334 0.44885-0.61421 0.21261-0.07087 0.77957-0.23623 0.92132-0.23623 0.14174 0 0.87407 0.18899 1.0158 0.25986 0.14174 0.07087 0.63783 0.37798 0.75595 0.54334 0.11812 0.16536 0.33073 0.75595 0.25986 0.92132-0.0709 0.16536-0.11812 0.56696-0.28349 0.70871-0.16536 0.14174-0.68508 0.25986-0.80319 0.25986-0.11812 0-0.87407 0-1.0867-0.09449-0.21261-0.0945-0.54334-0.23624-0.75595-0.42522-0.21261-0.18899-0.59059-0.8032-0.59059-0.8032z" stroke="#000" stroke-width=".165"/>
<path d="m191.37 78.288s0.37797-0.44885 0.77957-0.56696c0.4016-0.11812 1.2048-0.09449 1.5119 0.07087 0.3071 0.16536 0.73233 0.49609 0.63783 0.30711-0.0945-0.18899-0.35435-0.54334-0.59059-0.70871-0.23623-0.16536-0.87407-0.37797-1.1103-0.37797-0.23624 0-0.8032 0.11812-0.96857 0.3071-0.16536 0.18899-0.2126 0.35435-0.23623 0.49609-0.0236 0.14174-0.0236 0.47247-0.0236 0.47247z" fill="url(#a)" opacity=".5"/>
</g>
</g>
</svg>
