<?xml version="1.0" encoding="UTF-8"?>
<svg width="237.32" height="240.96" version="1.1" viewBox="0 0 62.790371 63.752986" xmlns="http://www.w3.org/2000/svg">
<defs>
<linearGradient id="b">
<stop stop-color="#fff" offset="0"/>
<stop stop-color="#fff" stop-opacity="0" offset="1"/>
</linearGradient>
<linearGradient id="a">
<stop stop-color="#63301b" offset="0"/>
<stop stop-color="#63301b" stop-opacity="0" offset="1"/>
</linearGradient>
<linearGradient id="q" x1="63.729" x2="61.365" y1="102.2" y2="104.08" gradientTransform="translate(-1.3229 -7.1815)" gradientUnits="userSpaceOnUse">
<stop offset="0"/>
<stop stop-color="#4d4d4d" stop-opacity="0" offset="1"/>
</linearGradient>
<linearGradient id="p" x1="53.222" x2="56.499" y1="89.34" y2="94.368" gradientTransform="translate(-1.3229 -7.1815)" gradientUnits="userSpaceOnUse">
<stop stop-color="#f9a275" offset="0"/>
<stop stop-color="#f9a275" stop-opacity="0" offset="1"/>
</linearGradient>
<linearGradient id="o" x1="71.028" x2="71.039" y1="106.5" y2="109.2" gradientTransform="translate(-1.3229 -7.1815)" gradientUnits="userSpaceOnUse">
<stop offset="0"/>
<stop stop-opacity="0" offset="1"/>
</linearGradient>
<radialGradient id="e" cx="71.415" cy="103.89" r="2.6597" gradientTransform="matrix(.50881 -.20478 .19463 .4836 13.569 61.453)" gradientUnits="userSpaceOnUse">
<stop stop-color="#f55" offset="0"/>
<stop stop-color="#f55" stop-opacity="0" offset="1"/>
</radialGradient>
<radialGradient id="d" cx="63.795" cy="98.128" r="2.6583" gradientTransform="matrix(1 0 0 .73544 -1.3229 18.779)" gradientUnits="userSpaceOnUse" xlinkHref="#a"/>
<radialGradient id="c" cx="72.132" cy="96.781" r="1.833" gradientTransform="matrix(1 0 0 .91858 -1.3229 .69852)" gradientUnits="userSpaceOnUse" xlinkHref="#a"/>
<linearGradient id="n" x1="63.711" x2="63.648" y1="99.967" y2="97.896" gradientTransform="translate(-1.3229 -7.1815)" gradientUnits="userSpaceOnUse" xlinkHref="#a"/>
<linearGradient id="m" x1="72.272" x2="72.163" y1="98.32" y2="96.483" gradientTransform="translate(-1.3229 -7.1815)" gradientUnits="userSpaceOnUse" xlinkHref="#a"/>
<linearGradient id="l" x1="70.025" x2="64.813" y1="101.17" y2="83.126" gradientTransform="translate(-1.3229 -7.1815)" gradientUnits="userSpaceOnUse">
<stop stop-color="#9b4e14" offset="0"/>
<stop stop-color="#9b4e14" stop-opacity="0" offset="1"/>
</linearGradient>
<linearGradient id="k" x1="194.11" x2="225.52" y1="370.46" y2="418.19" gradientTransform="matrix(.26458 0 0 .26458 -1.3229 -7.1815)" gradientUnits="userSpaceOnUse">
<stop stop-color="#9b4e14" offset="0"/>
<stop stop-color="#9b4e14" stop-opacity="0" offset="1"/>
</linearGradient>
<linearGradient id="j" x1="276.53" x2="280.67" y1="327.12" y2="348.08" gradientTransform="matrix(.26458 0 0 .26458 -1.3229 -7.1815)" gradientUnits="userSpaceOnUse">
<stop stop-color="#f9a57a" offset="0"/>
<stop stop-color="#f9a57a" stop-opacity="0" offset="1"/>
</linearGradient>
<linearGradient id="i" x1="315.48" x2="233.79" y1="458.66" y2="394.26" gradientTransform="matrix(.26458 0 0 .26458 -1.3229 -7.1815)" gradientUnits="userSpaceOnUse">
<stop stop-color="#fff" offset="0"/>
<stop stop-color="#fff" stop-opacity="0" offset="1"/>
</linearGradient>
<radialGradient id="h" cx="64.161" cy="97.553" r="1.2284" gradientTransform="matrix(.98823 -.15297 .063165 .40807 -6.9659 60.189)" gradientUnits="userSpaceOnUse" xlinkHref="#b"/>
<radialGradient id="g" cx="64.161" cy="97.553" r="1.2284" gradientTransform="matrix(.9826 -.13928 .098141 .38923 -1.4647 59.805)" gradientUnits="userSpaceOnUse" xlinkHref="#b"/>
<radialGradient id="f" cx="67.034" cy="108.66" r="15.506" gradientTransform="matrix(1.1396 -.41573 .50381 1.381 -65.426 -20.828)" gradientUnits="userSpaceOnUse">
<stop stop-color="#fb5500" offset="0"/>
<stop stop-color="#fb5500" stop-opacity="0" offset="1"/>
</radialGradient>
</defs>
<!-- <metadata>
<rdf:RDF>
<cc:Work rdf:about="">
<dc:format>image/svg+xml</dc:format>
<dc:type rdf:resource="http://purl.org/dc/dcmitype/StillImage"/>
<dc:title/>
</cc:Work>
</rdf:RDF>
</metadata> -->
<g transform="translate(-31.272 -71.799)">
<path d="m63.373 84.803c-10.402 0.06462-18.789 8.5382-18.746 18.94 0.04275 10.403 8.4991 18.807 18.902 18.785 10.403-0.0214 18.824-8.4604 18.824-18.863h-1.8547c-2.64e-4 9.3795-7.5936 16.988-16.973 17.008-9.3795 0.0194-17.004-7.558-17.043-16.937-0.03894-9.3796 7.5228-17.02 16.902-17.079 9.3795-0.05817 17.036 7.4879 17.113 16.867l1.8547-0.015c-0.085889-10.402-8.5768-18.771-18.979-18.707z" fill="#fff" stroke="#fff" stroke-linecap="round" stroke-linejoin="bevel" stroke-width=".32911"/>
</g>
<g transform="translate(-31.272 -60.549)" fill="#fff" stroke="#fff" stroke-linecap="round" stroke-linejoin="bevel" stroke-width=".165">
<g transform="translate(-1.3229 -7.1815)">
<path transform="rotate(-41.138 49.798 84.887)" d="m52.875 87.184-2.2328 0.06069-2.2328 0.06069 1.0638-1.964 1.0638-1.964 1.169 1.9033z"/>
<path transform="rotate(138.86 59.546 105.11)" d="m52.875 87.184-2.2328 0.06069-2.2328 0.06069 1.0638-1.964 1.0638-1.964 1.169 1.9033z"/>
<g transform="matrix(-1 0 0 1 154.13 8.4939)">
<path transform="rotate(-41.138 50.651 48.41)" d="m52.875 87.184-2.2328 0.06069-2.2328 0.06069 1.0638-1.964 1.0638-1.964 1.169 1.9033z"/>
<path transform="rotate(138.86 73.21 105.39)" d="m52.875 87.184-2.2328 0.06069-2.2328 0.06069 1.0638-1.964 1.0638-1.964 1.169 1.9033z"/>
</g>
</g>
<g transform="translate(-1.3229 -7.1815)">
<g transform="translate(.13363 -.033409)">
<path transform="matrix(.98463 .068484 -.02946 2.2889 17.404 -122.29)" d="m52.875 87.184-2.2328 0.06069-2.2328 0.06069 1.0638-1.964 1.0638-1.964 1.169 1.9033z"/>
<path transform="matrix(.98463 -.068484 -.02946 -2.2889 17.373 321.4)" d="m52.875 87.184-2.2328 0.06069-2.2328 0.06069 1.0638-1.964 1.0638-1.964 1.169 1.9033z"/>
</g>
<path transform="matrix(.068484 -.98463 2.2889 .02946 -157.02 146.85)" d="m52.875 87.184-2.2328 0.06069-2.2328 0.06069 1.0638-1.964 1.0638-1.964 1.169 1.9033z"/>
<path transform="matrix(-.068484 -.98463 -2.2889 .02946 286.64 146.9)" d="m52.875 87.184-2.2328 0.06069-2.2328 0.06069 1.0638-1.964 1.0638-1.964 1.169 1.9033z"/>
</g>
</g>
<g transform="translate(-31.272 -60.549)">
<path d="m79.063 92.489c0 8.4132-6.9047 15.234-15.422 15.234-8.5176 2.8e-4 -15.423-6.8196-15.423-15.233-5.6e-4 -8.4132 6.9037-15.234 15.421-15.235 8.5176-8.3e-4 15.423 6.8186 15.424 15.232-1e-3 -0.53617-8e-3 0.42347 0 2e-3z" fill="#fb7900"/>
<path d="m79.063 92.487c3e-6 8.4132-6.9047 15.234-15.422 15.234s-15.423-6.8196-15.423-15.233c-5.6e-4 -8.4132 6.9037-15.234 15.421-15.235s15.423 6.8186 15.424 15.232c-0.0014-0.53616-0.0083 0.42347 0 2e-3z" fill="url(#f)" stroke="#000" stroke-linecap="round" stroke-linejoin="bevel" stroke-width=".16601"/>
</g>
<g transform="translate(-31.272 -60.549)">
<path d="m56.162 87.003c-0.52305 0.0084-0.9404 0.03377-1.1576 0.06718-0.86863 0.13363-2.3387 1.5363-2.8732 2.2045-0.53454 0.66818-1.0026 2.5394-1.4035 3.4081-0.4009 0.86863-0.73463 2.138-1.2692 2.7394-0.27561 0.31006-0.58335 0.49279-0.8201 0.59996 1.6138 6.7091 7.7156 11.701 15.002 11.701 1.0892-3e-5 2.1517-0.11288 3.1771-0.32504-0.12156-0.27101-0.60308-1.3537-0.7214-1.8862-0.13364-0.60136 0.40101-1.4697 0.40101-1.4697s0.06687-1.1363 0.2005-2.0717c0.13364-0.93543 0.13343-3.6749-0.13384-7.1494-0.26727-3.4745-4.2094-6.5479-5.4121-7.2161-0.90204-0.50113-3.4202-0.62657-4.9894-0.60151z" fill="#e0b888" stroke="#000" stroke-linecap="round" stroke-linejoin="bevel" stroke-width=".16601"/>
<path d="m53.868 88.473-1.804 0.93534-0.8015 1.8707s-0.60141 1.8044-0.86868 2.7399c-0.26727 0.93545-1.203 1.804-1.203 1.804l-0.55811 0.17415c0.87949 3.6838 3.1111 6.8496 6.151 8.9602 0.02455-0.44516 0.05519-0.97226 0.08682-1.3834 0.06682-0.86863 1.2697-1.8712 1.2697-1.8712s0.86863-0.4007 1.3364-1.2025c0.46772-0.80181 1.2025-0.2005 1.2025-0.2005l2.4055 0.26716-0.66818-3.9424z" fill="url(#k)"/>
<path d="m71.342 79.289c-0.41199 0.14128-0.91279 0.33674-1.3038 0.56482-0.80181 0.46772-1.8711 1.4703-2.1384 1.8712l-0.26717 0.40049s-0.66818-0.53438-1.3364-0.73484c-0.66817-0.20045-2.6058-0.06661-3.8086 0.13384-1.2027 0.20045-3.0066 0.46757-3.8752 0.73484-0.86863 0.26727-1.804 0.93534-1.804 0.93534l-1.804-1.6035s-0.6301-0.57628-1.1922-0.84698c-1.17 0.95652-2.1927 2.0816-3.0344 3.3357l0.35088 3.8587s-0.06661 0.20061 0.13384 0.60152c0.20045 0.4009 0.80176 0.86863 1.1358 1.3364 0.33409 0.46772 0.93534 1.1358 0.93534 1.1358s0.9354 1.0025 1.1358 1.6707c0.20045 0.66818 0.13354 1.0692 0.26717 1.7374 0.13364 0.66817 0.53459 1.4698 0.86868 1.8707 0.33409 0.40091 0.7352 0.93529 1.4702 1.403 0.73499 0.46772 1.8039 1.0026 2.0712 1.203 0.26727 0.20045 1.1357 1.0019 1.403 1.2692 0.26727 0.26727 0.80181 1.203 1.3364 1.6707 0.53454 0.46773 1.6706 1.3362 2.8065 1.6035s2.205 0.53433 2.8732 0.53433 1.9377-0.33378 2.4722-0.8015c0.53454-0.46772 1.2692-1.2695 1.4697-1.804 0.20045-0.53454 0.53485-1.2697 0.53485-1.2697s-1.54e-4 -0.26722 0.73484-0.46767c0.73499-0.20045 1.4699-0.60146 1.804-1.0692 0.33409-0.46772 0.60151-1.537 0.60151-1.9379 0-0.40091-0.3343-1.2692-0.80202-1.9374-0.46772-0.66817-2.0045-2.6727-2.0045-2.6727s-0.2004-0.06692 0.2005-0.40101c0.4009-0.33409 0.93576-0.86848 1.203-1.403 0.26727-0.53454 0.20014-1.604 0.13332-2.0717-0.06682-0.46772-0.46767-0.8015-0.46767-0.8015s0.13395-0.13394 0.53485-0.53485c0.4009-0.4009 0.46767-0.80161 0.46767-1.2025 0-0.4009-0.40116-1.2026-0.33435-1.6035 0.06682-0.40091 0.26758-1.136 0.53485-1.7374 0.04899-0.11022 0.07055-0.23425 0.0739-0.36277-0.99554-1.0164-2.1328-1.8954-3.3807-2.6076z" fill="#e0b888" stroke="#000" stroke-linecap="round" stroke-linejoin="bevel" stroke-width=".16601"/>
<path d="m53.484 91.092s0.75595 1.1344 0.99219 1.5596 0.284 1.039 0.33124 1.417c0.04725 0.37798 0.50023 1.5141 0.50023 1.5141s0.80315 1.2804 1.5188 1.773c0.71563 0.49261 2.3213 1.3756 2.3213 1.3756 0.42086 0.32888 0.73031 0.59542 1.0501 0.91519 0.16916 0.15566 0.36695 0.35609 0.48421 0.47284 0.13119 0.14025 0.3149 0.39315 0.43873 0.58394 0.0857 0.11833 0.1877 0.25766 0.24236 0.32091 0.18563 0.25276 0.35799 0.46036 0.51315 0.61495 0.16656 0.16188 0.21162 0.20031 0.39222 0.34209 0.13567 0.107 0.23903 0.18633 0.37724 0.27957 0.14933 0.12547 0.20861 0.15011 0.3576 0.25425 0.21588 0.15703 0.49207 0.29699 0.61909 0.36535 0.24199 0.1223 0.6195 0.30647 0.89245 0.36846 0.11172 0.042 0.47423 0.11465 0.56431 0.14417 0.24301 0.0626 0.77917 0.18239 0.84542 0.19482 0.10475 0.0309 0.34913 0.0768 0.4408 0.0915 0.09632 0.0213 0.49884 0.0911 0.7612 0.13074 0.85044 0.0945 1.3348-0.0439 1.9963-0.28009 0.66146-0.23623 1.2166-0.76761 1.7363-1.3818 0.51972-0.61421 0.61436-1.087 0.85059-1.7012 0.23623-0.61422 0.29507-0.63738 0.95653-0.92087 0 0 1.2666-0.35465 1.7244-0.95705 0.45779-0.6024 0.62536-1.4941 0.64337-1.9374 0.01802-0.44323-0.24185-0.9126-0.24185-0.9126-1.0886-0.71204-2.0861-0.60723-2.5983 0.2868l-4.7398 0.41651c-1.3709-0.44326-2.5708 0.02005-3.5874 0.55139l1.9017-2.2908-0.94516-1.3229-0.75086 0.4501-3.4034 1.3834-2.8381-1.8335 1.7007 0.18914-0.75603-0.56689-1.5121-0.75603-0.94464-0.75603zm4.6126 8.9943c-0.22841 8e-3 -0.44511 0.16082-0.57309 0.32505v5.3e-4l-2.4329 2.3032-0.2129 0.75603-0.09715 1.48c0.47824 0.33223 0.97429 0.64101 1.4903 0.91881l2.5466 1.0847c1.5179 0.49336 3.1378 0.76383 4.823 0.76377 1.0383-3e-5 2.0521-0.10286 3.0329-0.2961-0.04755-0.1162-0.30846-0.75179-0.45579-1.062-0.23623-0.33073-0.25757-1.1358-0.21032-1.4666 0.05477-0.33053 0.33836-0.87278 0.36793-0.92398-0.09034-0.0641-0.4256-0.0845-0.76119-0.17311-0.33077-0.0874-0.50971-0.12799-0.89762-0.20774-0.6717-0.23616-0.63807-0.17838-1.0092-0.3731-0.31236-0.14852-0.45487-0.21364-0.73122-0.39843-0.37252-0.24915-0.80074-0.56433-1.0775-0.79323-0.23662-0.21655-0.29344-0.28334-0.52968-0.53072 0 0-0.08325-0.11616-0.13022-0.20102-0.1104-0.0243-0.14559-0.0559-0.38757-0.14572v-1e-3c-0.12703-0.10819-0.26272-0.20629-0.38654-0.31833-0.01892-0.0171-0.03462-0.0373-0.05426-0.0537-0.0016-1e-3 -0.0038 5e-3 -0.0057 4e-3 -0.01876-0.01-0.03545-0.0231-0.05323-0.0346-0.02032-0.0112-0.04274-0.0192-0.06098-0.0336-0.06018-0.0472-0.10795-0.10999-0.17157-0.15244-0.0087-6e-3 -0.02008-6e-3 -0.02946-0.0104-0.04661-0.0237-0.09136-0.0513-0.13746-0.076-0.05753-0.0224-1.2666-0.18139-1.2666-0.18139-0.18564-0.089-0.27868-0.20308-0.5886-0.20308z" fill="url(#i)"/>
<path d="m72.17 79.906c-0.48635 0.13418-0.92284 0.32216-1.3631 0.5973-0.75595 0.47247-1.3144 1.4509-1.5978 1.9234-0.28348 0.35435 1.0191 0.8568 1.0191 0.8568l3.2143 3.7734s0.36152 0.01897 0.73949-0.83148c0.28348-0.77957-0.27957-2.0924-0.27957-2.0924l0.7059-2.1534c-0.0031-0.04583-0.05615-0.08666-0.06068-0.12971-0.72059-0.71828-1.5247-1.3781-2.3776-1.944z" fill="url(#j)"/>
<path d="m67.9 96.491s-1.2695-0.8018-1.6036-1.3363c-0.33409-0.53454-1.4032-3.1404-1.4032-3.1404l0.06682 1.47-2.5391 1.1359-1.47 0.66817-1.4032-0.26727-1.7373-1.6036 0.93544-0.33409-2.6059-1.2695-1.8709-1.7373-1.2695-0.73499-0.33409-1.4032 0.66817-0.13363 0.06682-0.80181 0.93544 0.20045 0.06681-0.80181 0.73499 0.26727 0.20045-0.93544 0.73499 0.33409v-0.86862l0.86862 0.93544 1.1359 0.4009s0-0.60136-0.20045-1.4032c-0.20045-0.80181-0.93544-2.0045-0.93544-2.0045l1.4032-0.66818 2.5391-0.73499 3.9422-0.4009 1.47 0.06682 1.2695 0.60136s-0.13364 0.4009 0.20045 0.86862c0.33409 0.46772 1.2695 1.6704 1.47 1.8041 0.20045 0.13364 0-1.2027 0-1.2027v-0.53454l0.46772-0.46772 0.4009 0.66818 0.53454-0.20045 0.46772 0.86863 0.86862-0.53454-0.4009 0.86863 0.20045 0.26727 0.73499-0.26727s-0.46772 0.46772-0.26727 0.93544c0.20045 0.46772-0.06682 0.26727-0.06682 0.26727l0.53454-0.13363 0.13364 0.80181v0.26727l-0.20045 0.26727 0.93544 1.0023 0.26727 0.93544 0.06682 0.80181-0.60136 0.53454-0.4009 0.66817 0.45937 0.21716c-0.27284 0.33412-0.54568 0.62076-0.81851 0.84357l-1.4449 0.27562-0.80181 0.06682 1.0691 2.205 0.53454 1.6704-0.60136 0.53454z" fill="url(#l)"/>
<path d="m71.976 99.966s-0.46772-0.40091-1.0023-0.40091c-0.53454 0-1.7373 0.40091-2.3386 0.53454-0.60136 0.13364-1.47 0.46772-2.1382 0.46772-0.66817 0-3.0736-0.8018-3.0736-0.8018s1.1359 0.73499 1.7373 0.86862c0.60136 0.13364 1.0023 0.33409 1.9377 0.33409 0.93544 0 2.0045-0.53454 2.6727-0.46772 0.66817 0.0668 1.5368 0.13363 1.8709 0 0.33409-0.13364 0.33409-0.53454 0.33409-0.53454z" stroke="#000" stroke-linecap="round" stroke-linejoin="round" stroke-width=".265"/>
<path d="m67.633 96.291-1.2695-1.47s-0.06682-0.4009-0.4009-1.2027c-0.33409-0.80181-0.53454-1.5368-1.0691-2.3386-0.53454-0.80181-1.2027-1.8709-1.6704-2.1382-0.46772-0.26727-1.0023-0.33409-1.6036-0.33409-0.60136 0-1.5368 0.33409-2.0713 0.66817-0.53454 0.33409-0.20045 0.80181-0.20045 0.80181s-0.13364-0.26727-0.53454 0.13363c-0.4009 0.4009-0.60136 0.73499-1.0691 0.73499-0.46772 0-0.86862-0.26727-1.3363 0.13364-0.46772 0.4009-1.1359-0.26727-1.1359-0.26727s-1.3363-0.06682-0.06682 0.46772c1.2695 0.53454 1.8709 0.46772 2.2718 0.20045 0.4009-0.26727 0.86862 0 1.2695-0.20045 0.4009-0.20045 0.60136-0.93544 1.0023-0.93544 0.4009 0-0.20045 0.26727-0.20045 0.26727s-0.26727 0.13364 0.26727 0.66817c0.53454 0.53454 0.86863 0.93544 0.86863 0.93544l-0.73499 0.26727h1.2027c0.60136 0 2.1382 0.06682 2.7395 0.40091 0.60136 0.33409 1.1359 0.53454 1.0691 1.1359-0.06682 0.60136-1.2695 0.90204-1.2695 1.5702 0 0.66817-0.03341 1.2361 0.30068 2.0379 0.26727 0.53454 0.10022-1.1693 0.10022-1.1693s0.73499-0.90203 1.4032-1.3029c0.66817-0.4009 1.2695 0.73499 1.2695 0.73499z" stroke="#000" stroke-linecap="round" stroke-linejoin="round" stroke-width=".26458px"/>
<path d="m55.739 96.558s0.13358 0.80176-0.2005 1.804c-0.33409 1.0023-1.0022 1.2694-1.1358 2.0712-0.13363 0.80181-0.26717 2.0718-0.26717 2.4727 0 0.2623-0.2504 0.84669-0.4284 1.234 0.09277 0.0772 0.18702 0.15279 0.28164 0.22789 0.14849-0.44726 0.40058-0.92519 0.81494-0.99426 0.80181-0.13363 2.3386-0.73515 3.3409-0.60151 1.0023 0.13363 1.403 0.46767 1.403 0.46767s-0.40076-1.136-1.403-1.9379c-1.0023-0.80181-1.0025-1.6702-1.0025-1.6702s1.0689-0.06685 1.8707 0.46767c0.8018 0.53454 2.1895 1.0496 2.1895 1.0496l-1.4144-1.6077-2.3115-0.71158-0.90072-1.3198z" stroke="#000" stroke-linecap="round" stroke-linejoin="bevel" stroke-width=".16601"/>
<path d="m64.626 91.012c-1.4032-1.6036-1.6036-1.8041-2.0713-1.8709-0.46772-0.06682-1.47 0.06682-2.1382 0.46772-0.66817 0.4009-0.46772 0.93544-0.33409 1.2695 0.13363 0.33409 0.60136 1.4032 1.47 1.6704 0.86863 0.26727 1.3363 0.26727 1.8709 0.13364 0.53454-0.13364 1.5368-1.2027 1.5368-1.2027z" fill="url(#d)" stroke="#000" stroke-width=".26458px"/>
<path d="m71.775 95.622s-0.20045-1.0023-0.93544-1.8709c-0.73499-0.86863-1.7373-2.4054-1.9377-3.0068-0.20045-0.60136-0.13364-1.8709 0-2.205 0.13364-0.33409 0.4009-0.53454 1.0691-0.73499 0.66817-0.20045 1.5368-0.20045 2.0713-0.13364 0.53454 0.06682 1.4113 0.65266 1.4113 0.65266s-0.40901-0.18493-0.87673-0.25175c-0.46772-0.06682-0.86863-0.06682-0.86863-0.06682s0.86863 0.20045 1.0691 0.60136c0.20045 0.4009 0 0.66817-0.06682 1.2027-0.06682 0.53454-0.53454 1.0691-0.53454 1.0691l0.6999 0.38133-1.034-0.11407-0.46772 0.20045c-0.46772 0.20045-0.66817 0.53454-1.0023 0.60136-0.33409 0.06682-0.20045 0.06682 0.46772 0.53454 0.66817 0.46772 0.80181 0.86863 1.47 0.86863 0.66818 0 1.0023 0.20045 1.3364 0.46772s1.2385 1.8041 1.2385 1.8041-0.5035-0.86863-1.3053-1.2027c-0.80181-0.33409-1.2695-0.53454-1.5368-0.13364-0.26727 0.4009-0.26727 1.3364-0.26727 1.3364z" stroke="#000" stroke-linecap="round" stroke-linejoin="round" stroke-width=".265"/>
<path d="m69.169 90.611s0.4009 0.60136 1.0023 0.53454c0.60136-0.06682 1.0691-0.13363 1.47-0.46772 0.4009-0.33409 0.86863-0.86863 0.86863-1.2695 0-0.4009-0.13364-0.73499-0.13364-0.73499s-0.66817-0.53454-1.0691-0.60136c-0.4009-0.06682-0.86862 0-1.3363 0.26727-0.46772 0.26727-0.66817 0.60136-0.80181 1.0023-0.13363 0.4009 0 1.2695 0 1.2695z" fill="url(#c)" stroke="#000" stroke-width=".26458px"/>
<path d="m52.317 82.254c0.40516-0.38944 1.3454-0.0773 2.1013 0.39517 0.75595 0.47247 1.3616 1.7343 1.645 2.2068 0.28348 0.47247 0.80033 1.3057 0.80033 1.3057l-3.5688 2.2851s-0.55026 0.16082-0.92824-0.68963c-0.37798-0.85044-0.40565-1.667-0.40565-1.667l-0.17229-3.1709z" fill="url(#p)"/>
<path d="m69.276 83.875s-0.36582-0.92398-0.09855-1.4585c0.26727-0.53454 0.72723-1.4936 1.2618-1.8277 0.53454-0.33409 1.1119-0.68774 1.7801-0.75456" fill="none" stroke="#000" stroke-linecap="round" stroke-linejoin="round" stroke-width=".165"/>
<path d="m73.579 87.404s-1.6704-1.9377-2.1382-2.4722c-0.46772-0.53454-0.86863-1.4032-1.5368-1.7373-0.66817-0.33409-0.78594-0.42047-0.78594-0.42047" fill="none" stroke="#000" stroke-width=".26458px"/>
<path d="m63.69 89.542s0.33409-0.60136 0.13363-1.2695c-0.20045-0.66817-0.80181-0.80181-0.60136-1.3363 0.20045-0.53454 0.20045-1.1359 0.20045-1.1359l-1.0023-0.86862s0.06682 0.66817-0.4009 0.93544c-0.46772 0.26727-0.80181 0.66817-0.80181 0.66817s0.86863 0.13364 1.0691 0.53454c0.20045 0.4009 0.13364 1.1359 0.13364 1.1359l0.33409 0.33409-0.4009 0.60136z" stroke="#000" stroke-linecap="round" stroke-linejoin="round" stroke-width=".26458px"/>
<path d="m68.902 89.275s0.13364-0.86862-0.20045-1.5368c-0.33409-0.66817-0.86863-1.2027-1.1359-1.3364-0.26727-0.13363-0.06682-1.7373-0.06682-1.7373l-0.4009-0.20045v-0.80181l1.0023 0.66817s0.33409 0.4009 0.33409 0.80181c0 0.4009 0.20045 1.0691 0.46772 1.1359 0.26727 0.06682 0.86863 1.0023 0.86863 1.0023l0.26727 1.0023z" stroke="#000" stroke-linecap="round" stroke-linejoin="round" stroke-width=".26458px"/>
<path d="m57.209 94.42c1.2027 0.26726 2.5391 0.60135 3.6081 1.5368 1.0691 0.93544 1.6704 1.9377 1.7373 2.6727 0.06681 0.73499 0.13363 1.1359 0.13363 1.1359z" fill="url(#q)"/>
<path d="m58.011 92.215s1.1359 0.93545 1.8041 1.2027c0.66817 0.26726 1.2695 0.8018 1.7373 0.8018 0.46772 0 0.4009 0.33409 0.4009 0.33409l-2.0119 0.0122s-0.19304 0.12147-0.86122-0.47988c-0.66817-0.60136-1.0691-1.8709-1.0691-1.8709z" stroke="#000" stroke-linecap="round" stroke-linejoin="round" stroke-width=".26458px"/>
<path d="m58.479 84.258s1.2027-0.13364 1.4032 0.4009c0.20045 0.53454 0.86863 1.0691 0.86863 1.0691s0.66817 0 0.86862-0.4009c0.20045-0.4009-0.26727-0.46772-0.26727-0.46772l-1.1359-0.4009-0.86862-0.4009z" stroke="#000" stroke-linecap="round" stroke-linejoin="round" stroke-width=".26458px"/>
<path d="m71.976 87.337c-1.0691-0.33409-1.5368-0.66817-2.1382-1.4032-0.60136-0.73499-0.66817-1.0023-0.66817-1.0023l0.93544 0.93544s0.60136 0.53454 1.2027 0.80181c0.60136 0.26727 0.66817 0.66817 0.66817 0.66817z" stroke="#000" stroke-linecap="round" stroke-linejoin="round" stroke-width=".26458px"/>
<path d="m68.702 100.63s0.20045 0.33409-0.06682 0.80181-0.73499 0.93544-0.73499 0.93544 1.1359-0.33408 1.47-0.73499c0.33409-0.4009 0.46772-0.73499 0.46772-0.73499s0.26727 0.80181 0.66817 1.0023c0.4009 0.20046 0.4009 0.22002 0.4009 0.22002s-0.4009-0.42047-0.46772-0.95501c-0.06682-0.53454-0.06682-0.73499-0.06682-0.73499z" fill="url(#o)"/>
<path d="m65.962 87.938-0.80181-1.1359s-0.66817-0.06681-0.66817-0.73499c0-0.66817-0.06682-0.86862 0.20045-1.4032 0.26727-0.53454 0.26727-1.2695 0.26727-1.2695l-0.66817 1.1359-0.33409 0.13363-0.26727-0.93544-0.46772 0.13364 0.33409 0.4009 0.33409 0.73499s0.26727-0.20045 0.13364 0.33409c-0.13364 0.53454-0.13364 1.1359 0 1.3364 0.13363 0.20045 0.33409 0.20045 0.73499 0.60136 0.4009 0.4009 1.2027 0.66817 1.2027 0.66817z" stroke="#000" stroke-linecap="round" stroke-linejoin="round" stroke-width=".26458px"/>
<path d="m66.964 88.339s-0.06682-0.13364 0.06682-0.73499c0.13364-0.60136-0.46772-0.66817-0.33409-1.1359 0.13364-0.46772 0.46772-0.93544 0.13364-1.4032-0.33409-0.46772-1.2695-1.1359-1.2695-1.1359s0.60136 1.0023 0.66817 1.6036c0.06682 0.60136-0.06682 1.2027-0.06682 1.2027s0.46772 0.26727 0.46772 0.73499c0 0.46772 0.33409 0.86863 0.33409 0.86863z" stroke="#000" stroke-linecap="round" stroke-linejoin="round" stroke-width=".26458px"/>
<path d="m67.699 90.812 0.33409-0.93544s-0.33409-0.26727 0-0.80181c0.33409-0.53454 0.4009-0.86863 0.4009-0.86863s-0.53454 0.06682-0.80181 0.73499c-0.26727 0.66818 0.06682 1.8709 0.06682 1.8709z" stroke="#000" stroke-linecap="round" stroke-linejoin="round" stroke-width=".26458px"/>
<path d="m66.296 91.279s0.13364-0.80181-0.20045-1.47c-0.33409-0.66817-1.5368-1.2695-1.5368-1.2695l0.53454 1.1359s0.66817-0.06682 0.80181 0.46772c0.13364 0.53454 0.4009 1.1359 0.4009 1.1359z" stroke="#000" stroke-linecap="round" stroke-linejoin="round" stroke-width=".26458px"/>
<path d="m58.215 82.542s0.66482 0.51902 1.1994 0.58584c0.53454 0.06682 1.0691 0 1.3363 0.46772 0.26727 0.46772 0.46772 0.80181 0.46772 0.80181l-0.4009-1.0691-1.0023-0.73499-0.86862-0.26727z" stroke="#000" stroke-linecap="round" stroke-linejoin="round" stroke-width=".26458px"/>
<path d="m64.292 81.324s-0.26727 0.33409 0.20045 0.86862c0.46772 0.53454 1.2027 0.93544 1.2027 0.93544s-0.60136-0.33409-0.66817-0.93544c-0.06682-0.60136-0.06682-0.7937-0.06682-0.7937z" stroke="#000" stroke-linecap="round" stroke-linejoin="round" stroke-width=".26458px"/>
<path d="m62.908 81.575 0.31452 1.4194s0.26727-0.06682 0.80181 0.26727c0.53454 0.33409 0.73499 0.86863 0.73499 0.86863s-0.20045-1.0691-0.66818-1.2695c-0.46772-0.20045-0.73499-0.33409-0.73499-0.33409z" stroke="#000" stroke-width=".26458px"/>
<path d="m60.75 82.727s0-0.26727 0.66817 0c0.66817 0.26727 1.0691 0.53454 1.0691 0.86862v0.33409l-0.06682-1.2695-0.53454-0.06682 0.53454-0.46772-0.75456-0.30641 0.08639 0.70731z" stroke="#000" stroke-linecap="round" stroke-linejoin="round" stroke-width=".26458px"/>
<path d="m59.615 88.74s0.73499-0.13364 0.66817-0.80181c-0.06682-0.66817-0.46772-1.0023-0.46772-1.0023l0.13364 1.0023z" stroke="#000" stroke-width=".26458px"/>
<path d="m58.479 89.141c-1.0691 0.13363-2.3386-0.26727-2.3386-0.26727" fill="none" stroke="#000" stroke-linecap="round" stroke-linejoin="round" stroke-width=".165"/>
<path d="m56.675 88.005s0.60136 0.33409 1.0691 0.4009" fill="none" stroke="#000" stroke-linecap="round" stroke-linejoin="round" stroke-width=".165"/>
<path d="m72.749 87.3c-1.0751-0.93635-0.53756 0.34049-1.1647-0.93635" fill="none" stroke="#000" stroke-linecap="round" stroke-linejoin="round" stroke-width=".146"/>
<path d="m53 99.966s0.26727-0.20045 0.06682-0.80181-0.53454-0.80181-0.53454-0.80181 0.06681 0.46772 0.20045 0.93544c0.13364 0.46773 0.26727 0.66818 0.26727 0.66818z" fill="none" stroke="#000" stroke-width=".26458px"/>
<path d="m51.062 91.947-0.86868 2.2722-0.80977 1.4185-0.74569 0.38137c0.0047 0.01945 0.0092 0.03898 0.01394 0.05839 0.21524 0.0285 0.68687 0.17237 0.93999 0.88108 0.33409 0.93544 0.60146 2.0713 1.0692 2.6727 0.46772 0.60136 0.93565 1.6702 1.4702 1.8707 0.53454 0.20045 1.0687 0.13384 1.0687 0.13384s-1.1356-1.0694-1.4697-1.8712c-0.33408-0.80181-1.0025-2.8063-1.0025-3.8086s0.33435-4.0091 0.33435-4.0091z" stroke="#000" stroke-linecap="round" stroke-linejoin="bevel" stroke-width=".16601"/>
<path d="m65.979 105.13s-0.26727-0.0668-1.0691 0.46772c-0.80181 0.53454-1.2695 1.2027-1.2695 1.2027s0.46772-0.93545 1.1359-0.735c0.66817 0.20046 1.6036 0.46773 1.6036 0.46773z" stroke="#000" stroke-width=".26458px"/>
<path d="m60.35 101.97-0.20045 0.80181 0.46772 0.46772s0.53454-0.0668 1.1359-0.13363c0.60136-0.0668-0.33409-0.33409-0.33409-0.33409z" stroke="#000" stroke-width=".26458px"/>
<path d="m63.757 103.71 0.40101 0.26717s-0.20056 0.20089-1.0692 0.26769c-0.86862 0.0668-2.539-2.7e-4 -3.8086 0.13332-1.2695 0.13364-2.606 0.13374-3.2742 0.40101-0.31095 0.12438-0.63079 0.27572-0.88987 0.40411 1.5745 1.0334 3.3521 1.7875 5.2612 2.1937l1.1746-0.9276h-1.2697s0.33404-0.40069 1.1358-0.53433c0.80181-0.13363 4.1429-1.7374 4.1429-1.7374z" stroke="#000" stroke-linecap="round" stroke-linejoin="bevel" stroke-width=".16601"/>
<path d="m52.265 97.627s0.60136-0.66817 0.66818-1.5368c0.06682-0.86863-0.33409-0.86863-0.26727-1.6036 0.06682-0.73499-0.20045-0.60135-0.13363-1.3363 0.06681-0.735-0.33409-1.1359-0.33409-1.1359s0.20045 0.80181-0.06682 1.2695c-0.26727 0.46772-0.46772 0.53454-0.20045 1.1359 0.26727 0.60135 0.4009 0.73499 0.26727 1.3363-0.13364 0.60136 0.06682 1.8709 0.06682 1.8709z" stroke="#000" stroke-linecap="round" stroke-linejoin="round" stroke-width=".26458px"/>
<path d="m52.532 90.678s-0.53454 0.53454-0.33409 1.0023c0.20045 0.46772-0.20045 0.86862-0.20045 0.86862s-0.46772-0.33409-0.46772-0.80181c0-0.46772 1.0023-1.0691 1.0023-1.0691z" stroke="#000" stroke-linecap="round" stroke-linejoin="round" stroke-width=".26458px"/>
<path d="m54.269 93.551c0-0.86863-0.20045-1.0023-0.53454-1.2695s-0.20045 0.60135-0.20045 0.60135z" stroke="#000" stroke-linecap="round" stroke-linejoin="round" stroke-width=".26458px"/>
<path d="m52.799 99.899c0.33409-0.53454 0.26727-1.0023 0.26727-1.0023l-0.73499-0.46772s0.13364 0.26727 0.20045 0.73499c0.06681 0.46772 0.26727 0.73499 0.26727 0.73499z" stroke="#000" stroke-linecap="round" stroke-linejoin="round" stroke-width=".26458px"/>
<path d="m70.439 88.406s-0.33409 0.46772-0.20045 0.80181c0.13364 0.33409 0.66817 1.2695 0.66817 1.2695s0.33409-0.46772 0.33409-1.0691c0-0.60136-0.4009-1.1359-0.4009-1.1359z" stroke="#000" stroke-width=".26458px"/>
<path d="m62.822 89.542s0.33409 0.46772 0.20045 0.93544c-0.13363 0.46772-0.4009 1.0691-0.53454 1.3363-0.13364 0.26727-0.73499-0.26727-0.80181-0.66817-0.06682-0.4009-0.13364-1.0023 0.06682-1.47 0.20045-0.46772 0.46772-0.46772 0.46772-0.46772z" stroke="#000" stroke-width=".26458px"/>
<path d="m70.294 98.37-0.18899 0.64051s-0.20451 0.0628-0.47178-0.20451c-0.26727-0.26727-1.1831-1.1987-1.1831-1.1987s0.0513-0.11405 0.31857-0.31452c0.26727-0.20045-0.07828-0.29494-0.07828-0.29494l-0.31857 0.0553s-0.36582 0.32193-0.16536 0.72283l0.22407 0.30641s-0.46367 0.0122-0.86457-0.32192c-0.4009-0.33409-0.4009-0.735-0.26727-1.0691 0.13364-0.33409 0.68369-0.73094 0.68369-0.73094s0.66748 0.15725 1.0684 0.0236c0.4009-0.13364 0.71484-0.22813 1.144-0.22813 0.26727 0 1.0461 0.20046 1.0461 0.20046s0.36177-0.33409 0.69585-0.13364c0.33409 0.20045 0.60136 0.46772 0.60136 0.86863 0 0.4009-0.62903 1.1987-0.62903 1.1987s0.29494-0.41712 0.09449-0.81802c-0.20045-0.40091-0.50351 0.0911-0.50351 0.0911l0.25581 0.32598s-0.21261 0.3935-0.5467 0.7944c-0.33409 0.40091-0.43599 0.546-0.70326 0.67964-0.26727 0.13363-0.18829-0.49876-0.18829-0.49876z" fill="#e08757" stroke="#e0763a" stroke-linecap="round" stroke-width=".265"/>
<path d="m66.075 82.352s0.16536-0.02363 0.18899 0.25986c0.02363 0.28348 0.07087 1.0631 0.07087 1.1576 0 0.0945 0.25986-0.75595 0.25986-0.75595s0.35435-0.16536 0.02363-0.47247c-0.33073-0.30711-0.54334-0.18899-0.54334-0.18899z" stroke="#000" stroke-linecap="round" stroke-linejoin="bevel" stroke-width=".26458px"/>
<path d="m70.186 98.478-0.18899 0.64051s-0.20451 0.0628-0.47178-0.20451c-0.26727-0.26727-1.1831-1.1987-1.1831-1.1987s0.0513-0.11405 0.31857-0.31452c0.26727-0.20045-0.07828-0.29494-0.07828-0.29494l-0.31857 0.0553s-0.36582 0.32193-0.16536 0.72283l0.22407 0.30641s-0.46367 0.0122-0.86457-0.32192c-0.4009-0.33409-0.4009-0.735-0.26727-1.0691 0.13364-0.33409 0.68369-0.73094 0.68369-0.73094s0.66748 0.15725 1.0684 0.0236c0.4009-0.13364 0.71484-0.22813 1.144-0.22813 0.26727 0 1.0461 0.20046 1.0461 0.20046s0.36176-0.33409 0.69585-0.13364c0.33409 0.20045 0.60136 0.46772 0.60136 0.86863 0 0.4009-0.62903 1.1987-0.62903 1.1987s0.29494-0.41712 0.09449-0.81802c-0.20045-0.40091-0.50351 0.0911-0.50351 0.0911l0.25581 0.32598s-0.21261 0.3935-0.5467 0.7944c-0.33409 0.40091-0.43599 0.546-0.70326 0.67964-0.26727 0.13363-0.18829-0.49876-0.18829-0.49876z" fill="url(#e)"/>
<g transform="rotate(17.243 96.457 95.908)" stroke="#000" stroke-linecap="round" stroke-linejoin="bevel">
<circle transform="scale(-1,1)" cx="-74.65" cy="104.09" r=".32357" stroke-width=".019976"/>
<circle transform="scale(-1,1)" cx="-75.146" cy="103.85" r=".32357" stroke-width=".019976"/>
<circle transform="scale(-1,1)" cx="-75.572" cy="103.64" r=".27774" stroke-width=".017146"/>
<circle transform="scale(-1,1)" cx="-75.879" cy="103.45" r=".20899" stroke-width=".012902"/>
</g>
<g transform="rotate(38.411 81.89 98.133)" stroke="#000" stroke-linecap="round" stroke-linejoin="bevel">
<circle transform="scale(-1,1)" cx="-74.65" cy="104.09" r=".32357" stroke-width=".019976"/>
<circle transform="scale(-1,1)" cx="-75.146" cy="103.85" r=".32357" stroke-width=".019976"/>
<circle transform="scale(-1,1)" cx="-75.572" cy="103.64" r=".27774" stroke-width=".017146"/>
<circle transform="scale(-1,1)" cx="-75.879" cy="103.45" r=".20899" stroke-width=".012902"/>
</g>
<g transform="matrix(-.95853 .285 .285 .95853 100.88 -22.067)" stroke="#000" stroke-linecap="round" stroke-linejoin="bevel">
<g transform="rotate(10.227 64.719 61.799)">
<circle transform="scale(-1,1)" cx="-74.65" cy="104.09" r=".32357" stroke-width=".019976"/>
<circle transform="scale(-1,1)" cx="-75.146" cy="103.85" r=".32357" stroke-width=".019976"/>
<circle transform="scale(-1,1)" cx="-75.572" cy="103.64" r=".27774" stroke-width=".017146"/>
<circle transform="scale(-1,1)" cx="-75.879" cy="103.45" r=".20899" stroke-width=".012902"/>
</g>
<g transform="rotate(26.666 65.53 88.101)">
<circle transform="scale(-1,1)" cx="-74.65" cy="104.09" r=".32357" stroke-width=".019976"/>
<circle transform="scale(-1,1)" cx="-75.146" cy="103.85" r=".32357" stroke-width=".019976"/>
<circle transform="scale(-1,1)" cx="-75.572" cy="103.64" r=".27774" stroke-width=".017146"/>
<circle transform="scale(-1,1)" cx="-75.879" cy="103.45" r=".20899" stroke-width=".012902"/>
</g>
</g>
<path d="m64.627 91.014c-1.4032-1.6036-1.6036-1.8041-2.0713-1.8709-0.46772-0.06682-1.47 0.06682-2.1382 0.46772-0.66817 0.4009-0.46772 0.93544-0.33409 1.2695 0.13363 0.33409 0.60136 1.4032 1.47 1.6704 0.86863 0.26727 1.3363 0.26727 1.8709 0.13364 0.53454-0.13364 1.5368-1.2027 1.5368-1.2027z" fill="url(#n)" stroke="#000" stroke-width=".26458px"/>
<path d="m69.171 90.613s0.4009 0.60136 1.0023 0.53454c0.60136-0.06682 1.0691-0.13363 1.47-0.46772 0.4009-0.33409 0.86863-0.86863 0.86863-1.2695 0-0.4009-0.13364-0.73499-0.13364-0.73499s-0.66817-0.53454-1.0691-0.60135c-0.4009-0.06682-0.86862 0-1.3363 0.26727-0.46772 0.26727-0.66817 0.60136-0.80181 1.0023-0.13363 0.4009 0 1.2695 0 1.2695z" fill="url(#m)" stroke="#000" stroke-width=".26458px"/>
<g transform="translate(-1.3229 -7.1815)" fill="none" stroke="#fff" stroke-linecap="round" stroke-linejoin="round">
<path d="m68.755 106.08s0.4009-0.4009-1.7373-0.73499-5.3454-0.13364-6.2808 0.13363c-0.93544 0.26727-3.0068 0.60136-3.9422 1.0023l-0.93544 0.40091" opacity=".95" stroke-width=".065"/>
<path d="m68.37 106.26s0.38574-0.41551-1.7634-0.66996-5.3467 0.065-6.2715 0.36681c-0.92487 0.30183-2.9824 0.71262-3.9023 1.148l-0.91991 0.43538" opacity=".95" stroke-width=".065"/>
<path d="m67.914 106.39s0.3491-0.42581-1.6673-0.62457c-2.0164-0.19877-4.9972 0.20401-5.8535 0.53001-0.85634 0.32606-2.7686 0.79059-3.6166 1.2501l-0.84798 0.45957" opacity=".95" stroke-width=".062896"/>
<path d="m67.473 106.5s0.31762-0.4152-1.5614-0.5648c-1.879-0.14959-4.645 0.29692-5.4361 0.62679-0.79112 0.32989-2.5622 0.81392-3.3433 1.2716l-0.78112 0.45768" opacity=".95" stroke-width=".059399"/>
</g>
<g transform="rotate(14.475 100.29 93.992)" fill="none" stroke="#fff" stroke-linecap="round" stroke-linejoin="round">
<path d="m68.755 106.08s0.4009-0.4009-1.7373-0.73499-5.3454-0.13364-6.2808 0.13363c-0.93544 0.26727-3.0068 0.60136-3.9422 1.0023l-0.93544 0.40091" opacity=".95" stroke-width=".065"/>
<path d="m68.37 106.26s0.38574-0.41551-1.7634-0.66996-5.3467 0.065-6.2715 0.36681c-0.92487 0.30183-2.9824 0.71262-3.9023 1.148l-0.91991 0.43538" opacity=".95" stroke-width=".065"/>
<path d="m67.914 106.39s0.3491-0.42581-1.6673-0.62457c-2.0164-0.19877-4.9972 0.20401-5.8535 0.53001-0.85634 0.32606-2.7686 0.79059-3.6166 1.2501l-0.84798 0.45957" opacity=".95" stroke-width=".062896"/>
<path d="m67.473 106.5s0.31762-0.4152-1.5614-0.5648c-1.879-0.14959-4.645 0.29692-5.4361 0.62679-0.79112 0.32989-2.5622 0.81392-3.3433 1.2716l-0.78112 0.45768" opacity=".95" stroke-width=".059399"/>
</g>
<path d="m72.579 98.279s-0.41063-0.39094 1.7187-0.77742c2.1293-0.38649 2.9351-0.47365 3.8768-0.2294" fill="none" opacity=".95" stroke="#fff" stroke-linecap="round" stroke-linejoin="round" stroke-width=".065"/>
<path d="m72.968 98.452s-0.39582-0.40591 1.7464-0.71305 2.4401-0.39203 3.3554-0.21325" fill="none" opacity=".95" stroke="#fff" stroke-linecap="round" stroke-linejoin="round" stroke-width=".065"/>
<path d="m73.427 98.568s-0.35945-0.41711 1.6515-0.66532c2.0109-0.24822 2.1777-0.24443 2.8831-0.0565" fill="none" opacity=".95" stroke="#fff" stroke-linecap="round" stroke-linejoin="round" stroke-width=".062896"/>
<path d="m73.872 98.672s-0.32772-0.40727 1.5471-0.60297c1.8748-0.19568 2.4097 0.0755 2.4097 0.0755" fill="none" opacity=".95" stroke="#fff" stroke-linecap="round" stroke-linejoin="round" stroke-width=".059399"/>
<g transform="matrix(-.93651 .35064 .35064 .93651 100.27 -26.168)" fill="none" stroke="#fff" stroke-linecap="round" stroke-linejoin="round">
<path d="m68.755 106.08s0.4009-0.4009-1.7373-0.73499-3.7714-0.3127-4.7069-0.0454" opacity=".95" stroke-width=".065"/>
<path d="m68.37 106.26s0.38574-0.41551-1.7634-0.66996-3.2242-0.29267-4.1491 9e-3" opacity=".95" stroke-width=".065"/>
<path d="m67.914 106.39s0.3491-0.42581-1.6673-0.62457c-2.0164-0.19877-3.3529 0.07-3.6138 0.12841" opacity=".95" stroke-width=".062896"/>
<path d="m67.473 106.5s0.31762-0.4152-1.5614-0.5648c-1.7559-0.10651-2.6507 0.0496-3.1504 0.18122" opacity=".95" stroke-width=".059399"/>
</g>
<path d="m52.482 81.975s1.3364 0.31738 1.5869 0.43431c0.25056 0.11693 0.58465 0.26727 0.73499 0.43431 0.15034 0.16704 0.66817 1.0023 0.78511 1.186 0.11693 0.18375 0.25056 0.51784 0.4009 0.68488 0.15034 0.16704 0.60136 0.91874 0.70158 1.1025 0.10022 0.18375 0.15034 0.30068 0.15034 0.30068" fill="none" stroke="#000" stroke-linecap="round" stroke-linejoin="round" stroke-width=".165"/>
<path d="m51.713 82.844s0.13363 0.28398 0.13363 0.48443 0.05011 0.56795 0 0.88533c-0.05011 0.31738-0.06682 0.71829-0.05011 0.88533 0.0167 0.16704 0.16704 0.56795 0.18375 0.80181 0.0167 0.23386 0.06682 0.90203 0.06682 1.0357s-0.01669 0.30068-0.01669 0.30068" fill="none" stroke="#000" stroke-linecap="round" stroke-linejoin="round" stroke-width=".165"/>
<path d="m61.391 90.387s0.85358-0.66292 1.1804-0.71352 0.7104-0.04361 0.7104-0.04361l0.57724 0.6405s-0.83698 0.4613-1.2773 0.39676c-0.44028-0.06454-1.1908-0.28013-1.1908-0.28013z" fill="url(#h)" opacity=".2"/>
<path d="m69.951 89.026s0.80382-0.62606 1.1288-0.67212c0.32497-0.04607 0.71194-0.03696 0.71194-0.03696l0.63567 0.61407s-0.80415 0.43406-1.2531 0.36967c-0.44899-0.0644-1.2233-0.27471-1.2233-0.27471z" fill="url(#g)" opacity=".2"/>
</g>
<g transform="translate(-31.272 -60.549)">
<path d="m65.225 68.642 0.09818 0.39739c4.7411 0.32782 9.0996 2.0242 12.671 4.6964l0.27441-0.28629c-3.6687-2.7553-8.1587-4.495-13.043-4.8075zm-3.4298 0.01447c-4.5166 0.33643-8.6875 1.8959-12.172 4.3465l0.26924 0.29146c3.3863-2.3715 7.4276-3.8894 11.803-4.239zm20.182 8.2403-0.27699 0.28319c3.2046 3.6875 5.2672 8.3685 5.6601 13.51l0.40721 0.1018c-0.37556-5.2925-2.4905-10.111-5.7903-13.895zm-36.794 0.13488c-3.2058 3.7316-5.2674 8.4486-5.6643 13.626l0.02379-0.0062 0.3824-0.0956c0.41344-5.0275 2.4256-9.6081 5.5376-13.243zm42.605 16.873-0.40669 0.10077c-0.36847 5.2572-2.6098 10.212-5.8431 13.956l0.31988 0.29507c3.332-3.8432 5.5892-8.9425 5.9299-14.352zm-48.293 0.06822c0.33103 5.3134 2.151 9.9484 5.4303 13.763l0.27698-0.2629c-3.1832-3.7155-4.9506-8.238-5.3006-13.399l-0.33848-0.08372zm39.182 16.725c-3.7161 2.9968-8.3673 4.9009-13.454 5.2317l-0.07286 0.29507-0.02687 0.11007c5.2351-0.31355 10.022-2.2667 13.836-5.3526zm-29.733 0.22697-0.27031 0.30991c3.7045 2.9395 8.1279 4.711 13.154 5.0788l-0.01707-0.0677-0.08423-0.33641c-4.8788-0.38344-9.0929-2.0826-12.699-4.9345z" fill="#fff" stroke="#fff" stroke-linecap="round" stroke-linejoin="bevel" stroke-width=".26045"/>
</g>
<g transform="translate(-31.272 -60.549)" fill="#fff" stroke="#fff" stroke-linecap="round" stroke-linejoin="bevel" stroke-width=".036953">
<g transform="translate(-1.3229 -7.1815)">
<circle cx="45.924" cy="91.229" r=".59856"/>
<circle cx="57.133" cy="80.599" r=".59856"/>
<g transform="matrix(-1 0 0 1 129.7 -.015028)">
<circle cx="45.924" cy="91.229" r=".59856"/>
<circle cx="57.133" cy="80.599" r=".59856"/>
</g>
</g>
<g transform="matrix(1 0 0 -1 -1.3624 192.21)">
<circle cx="45.924" cy="91.229" r=".59856"/>
<circle cx="57.133" cy="80.599" r=".59856"/>
<g transform="matrix(-1 0 0 1 129.7 -.015028)">
<circle cx="45.924" cy="91.229" r=".59856"/>
<circle cx="57.133" cy="80.599" r=".59856"/>
</g>
</g>
</g>
<g transform="translate(-31.272 -60.549)" fill="#fff">
<g transform="translate(-1.3229 -7.1815)" aria-label="N">
<path d="m66.332 67.808q0 0.27733-0.01929 0.83681-0.01929 0.55948-0.01929 0.83922 0 0.26286 0.0048 0.78858 0.0048 0.52331 0.0048 0.78617 0 0.07958-0.06029 0.07958-0.03617 0-0.10852-0.0072t-0.10852-0.0072q-0.03858 0-0.11817 0.0072-0.07958 0.0072-0.11817 0.0072-0.04341 0-0.1037-0.07958-0.5209-0.70177-1.5796-2.0932-0.16399-0.21222-0.19051-0.23633-0.02412 0-0.02412 0.09887 0 0.37138 0.01206 1.1166 0.01206 0.74276 0.01206 1.1141 0 0.07958-0.04823 0.07958-0.041 0-0.1254-0.0072-0.0844-0.0072-0.1254-0.0072-0.04341 0-0.13022 0.0072-0.0844 0.0072-0.12781 0.0072-0.06029 0-0.06029-0.04823 0-0.26527 0.02412-0.79823 0.02653-0.53537 0.02653-0.80305 0-0.2918-0.0217-1.0514-0.0048-0.19775-0.02412-0.59324l-0.0024-0.03135q-0.0024-0.03617 0.05788-0.03859 0.15675-0.0024 0.24598-0.0096 0.03376-0.0024 0.12781-0.01929 0.07958-0.01447 0.1254-0.01447 0.0217 0 0.07476 0.06994 0.55466 0.76206 1.6977 2.2669 0.05064 0.0627 0.09405 0.10852 0.01688-0.10129 0.01688-0.46302 0-0.3135-0.02412-0.94051-0.0217-0.62701-0.0217-0.9381 0-0.07958 0.04823-0.07958 0.04341 0 0.13022 0.0072 0.08923 0.0072 0.13264 0.0072 0.04582 0 0.13746-0.0072 0.09164-0.0072 0.13746-0.0072 0.05064 0 0.05064 0.05305z" fill="#fff" stroke-width=".26458"/>
</g>
<g transform="translate(-1.3229 -7.1815)" aria-label="S">
<path d="m65.762 128.3q-0.04823 0.0796-0.13264 0.24116-0.02653 0.0748-0.09405 0.21222-0.01447 0.0217-0.03858 0.0217 0.0024 0-0.23392-0.0844-0.23392-0.0868-0.38585-0.0868-0.44373 0-0.44373 0.39067 0 0.21704 0.31109 0.37862 0.52331 0.2725 0.57878 0.3135 0.31109 0.24839 0.31109 0.67042 0 0.54019-0.42685 0.85128-0.38344 0.27974-0.94292 0.27974-0.26045 0-0.27974-0.0579-0.0096-0.0916-0.04341-0.26768-0.01929-0.0724-0.06029-0.21704-0.0072-0.0217-0.0072-0.041 0-0.0338 0.03617-0.0338 0.05788 0 0.17604 0.0121 0.12058 0.0121 0.18087 0.0121 0.74759 0 0.74759-0.48232 0-0.23633-0.30145-0.40996-0.54984-0.31351-0.5619-0.32556-0.30386-0.24598-0.30386-0.66077 0-0.44856 0.29421-0.71865 0.28698-0.26045 0.74276-0.26045 0.19293 0 0.44373 0.0627 0.27251 0.0699 0.40997 0.16881 0.01206 0.01 0.02412 0.0314z" fill="#fff" stroke-width=".26458"/>
</g>
<g transform="translate(-1.3229 -7.1815)" aria-label="E">
<path d="m95.386 100.82q0 0.0386-0.01929 0.11093-0.0217 0.0916-0.02653 0.11094-0.0072 0.0868-0.03376 0.25321-0.01206 0.0434-0.0627 0.0434-0.02412 0-0.09164-0.01-0.29662-0.0434-0.91881-0.0434-0.17604 0-0.53054 0.01-0.3545 0.01-0.53054 0.01-0.07958 0-0.07958-0.0699 0-0.27009 0.02894-0.81028 0.03135-0.54261 0.03135-0.8127 0-0.27492-0.02894-1.0249-0.0048-0.19292-0.02653-0.57636l-0.0024-0.03376q-0.0024-0.05547 0.0627-0.05547 0.16881 0 0.50643 0.0096 0.33762 0.0096 0.50643 0.0096 0.16158 0 0.48231-0.0096 0.32315-0.0096 0.48472-0.0096 0.11334 0 0.12299 0.06994 0.05064 0.31833 0.05064 0.3955 0 0.05547-0.05306 0.05547-0.20498 0-0.62218-0.0217-0.41479-0.02412-0.6246-0.02412-0.19775 0-0.2508 0.05305-0.05064 0.05305-0.05064 0.26286v0.35932q0 0.14711 0.0072 0.17122 0.0217 0.07476 0.1254 0.07476 0.02894 0 0.08199-0.0024 0.05547 0 0.08199 0 0.47267 0 0.84887-0.01688 0.14711-0.0048 0.34727-0.02411 0.05064-0.0048 0.05064 0.04341 0 0.07717-0.01929 0.23633-0.01688 0.15916-0.01688 0.23874 0 0.04341-0.07235 0.04341-0.02894 0-0.21463-0.01688-0.13505-0.01447-0.60772-0.01447-0.39791 0-0.50402 0.0096-0.09646 0.0072-0.11093 0.10129 0.0024-0.01688 0.0024 0.1857v0.35691q0 0.2508 0.07717 0.3135 0.06029 0.0506 0.30145 0.0506l0.26527-2e-3q0.16881 0 0.94774-0.0579l0.03617-2e-3q0.04823-5e-3 0.04823 0.0603z" fill="#fff" stroke-width=".26458"/>
</g>
<g transform="translate(-1.3229 -7.1815)" aria-label="W">
<path d="m36.709 99.152q0 0.01929-0.48231 1.0321-0.16158 0.35209-0.49437 1.0514-0.03135 0.0651-0.06511 0.0651h-0.43408q-0.04582 0-0.07476-0.0651-0.17846-0.41961-0.51366-1.3215-0.1664 0.44372-0.51849 1.3215-0.02653 0.0651-0.07235 0.0651h-0.43167q-0.03617 0-0.06752-0.0651-0.1664-0.34967-0.4992-1.0514-0.46061-0.9598-0.46061-1.0321 0-0.19775 0.01206-0.59566t0.01206-0.59566q0-0.04341 0.06029-0.04341 0.04341 0 0.13022 0.0072 0.08923 0.0072 0.13264 0.0072 0.041 0 0.12299-0.0048t0.12299-0.0048q0.05064 0 0.05064 0.03617 0 0.19534-0.02412 0.59083-0.0217 0.39309-0.0217 0.58842 0 0.12299 0.48714 1.1141 0.16158 0.32797 0.17604 0.32797 0.0048-2e-3 0.01206-0.0169 0.02894-0.0555 0.12299-0.30868 0.17363-0.47026 0.35691-1.0683 0.0072-0.06029 0.0072-0.38103 0-0.14228-0.0096-0.42444-0.0072-0.28456-0.0072-0.42685 0-0.03617 0.05064-0.03617 0.04582 0 0.13746 0.0072 0.09164 0.0072 0.13987 0.0072 0.041 0 0.12299-0.0072t0.12299-0.0072q0.05547 0 0.05547 0.03858 0 0.15193-0.0096 0.4582-0.0096 0.30386-0.0096 0.45579 0 0.24839 0.0024 0.30145 0.0072 0.12058 0.36415 1.0587 0.03859 0.10611 0.1254 0.30386 0.0024 0.01 0.0096 0.0169 0.01447 0 0.17122-0.32074 0.47508-0.97186 0.47508-1.0973 0-0.19775-0.0217-0.59083-0.0217-0.39309-0.0217-0.58842 0-0.03617 0.01929-0.03617 0.04823 0 0.14228 0.0072 0.09646 0.0072 0.14469 0.0072 0.04341 0 0.13264-0.0072 0.08923-0.0072 0.13505-0.0072 0.05064 0 0.05788 0.02894 0-0.0024 0 0.06752 0 0.19051 0.01206 0.56913t0.01206 0.56913z" fill="#fff" stroke-width=".26458"/>
</g>
<g transform="translate(-1.3229 -7.1815)">
<g fill="#fff">
<g transform="rotate(42.475)" aria-label="ne">
<g fill="#fff" stroke-width=".26458">
<path d="m115.55 6.3151q0 0.045475-0.0413 0.045475-0.0682 0-0.20464-0.00207-0.13435-0.00207-0.20257-0.00207-0.0372 0-0.0372-0.059945 0-0.10129 6e-3 -0.30799t6e-3 -0.31006q0-0.082682-2e-3 -0.24598-2e-3 -0.16536-2e-3 -0.24805 0-0.23564-0.0682-0.3328-0.0827-0.11576-0.30592-0.11576-0.10336 0-0.28732 0.11576-0.19431 0.12196-0.19431 0.21704v1.2402q0 0.051677-0.0393 0.051677-0.0661 0-0.19844-0.00207-0.13229-0.00207-0.19844-0.00207-0.0434 0-0.0434-0.047542 0-0.1633 4e-3 -0.48989 6e-3 -0.3266 6e-3 -0.49196 0-0.44028-0.093-0.81235-6e-3 -0.018604-6e-3 -0.026872 0-0.020671 0.0269-0.028939 0.0145-0.00207 0.23565-0.037207 0.22324-0.037207 0.23358-0.037207 0.0124 0 0.0165 0.033073 0.0103 0.12816 0.0475 0.25838 0.10749-0.084749 0.28319-0.21084 0.21704-0.13229 0.41961-0.13229 0.38861 0 0.53124 0.22531 0.10542 0.16536 0.10542 0.53537 0 0.064079-4e-3 0.19637-2e-3 0.13229-2e-3 0.19844 0 0.13849 4e-3 0.41341t4e-3 0.41341z"/>
<path d="m117.69 5.2464q0 0.15296-0.13229 0.20464-0.0889 0.033073-1.2795 0.12196 0.0269 0.1819 0.2005 0.31006 0.16537 0.12196 0.35554 0.12196 0.32659 0 0.59944-0.21084 0.0331-0.026872 0.0662-0.053744 0.0165 0 0.0207 0.00413 6e-3 0.00413 0.0786 0.14469 0.0724 0.13849 0.0724 0.14883 0 0.012402-0.0331 0.047542-0.30385 0.32246-0.77928 0.32246-0.47955 0-0.76481-0.28525-0.28525-0.28732-0.28525-0.76481 0-0.42581 0.27285-0.74207 0.28732-0.32866 0.70487-0.32866 0.3886 0 0.64905 0.28525 0.25425 0.27699 0.25425 0.67386zm-0.49196-0.12609q0-0.17157-0.13643-0.30386-0.13435-0.13229-0.30385-0.13229-0.19017 0-0.339 0.15296-0.14676 0.15296-0.14676 0.34313 0 0.043408 0.0744 0.043408 0.30593 0 0.73174-0.062012 0.11989-0.016536 0.11989-0.041341z"/>
</g>
</g>
<g transform="rotate(42.475)" aria-label="sw">
<g fill="#fff" stroke-width=".26458">
<path d="m113.33 54.105q0 0.30799-0.24598 0.49403-0.22324 0.1695-0.54363 0.1695-0.12403 0-0.14056-0.0062-0.0351-0.01654-0.0351-0.10128 0-0.04548-0.0124-0.13643-0.0103-0.09095-0.0103-0.13436 0-0.02687 0.0372-0.03514 0.0269-0.0062 0.0765 0 0.0641 0.0062 0.062 0.0062 0.39067 0 0.39067-0.23978 0-0.11369-0.17156-0.20877-0.27905-0.15296-0.3204-0.1881-0.17156-0.14676-0.17156-0.38447 0-0.31006 0.23358-0.48369 0.21084-0.15503 0.5333-0.15503 0.0289 0 0.0413 0.02687 0.0145 0.02687 0.0517 0.16743 0.0393 0.14056 0.0393 0.1695 0 0.02274-0.0393 0.02894-0.1323 0.0186-0.26666 0.03514-0.15916 0.04341-0.15916 0.17363 0 0.09302 0.16743 0.1881 0.24805 0.13849 0.3142 0.2005 0.16949 0.16123 0.16949 0.41341z"/>
<path d="m116.4 53.26q0 0.38861-0.0434 0.48782-0.0579 0.13643-0.30592 0.54364-0.26872 0.44028-0.32453 0.45475-0.0165 0.0041-0.16536 0.0041-0.10129 0-0.11783-0.0041-0.0641-0.01654-0.49196-0.71107-0.11782 0.1943-0.23771 0.39067-0.1943 0.30592-0.24804 0.32039-0.0165 0.0041-0.13643 0.0041-0.12196 0-0.13849-0.0041-0.0641-0.01447-0.32453-0.45062-0.24598-0.41134-0.29766-0.54777-0.0475-0.12402-0.0475-0.48782 0-0.30386 0.0207-0.41548 0.0103-0.04548 0.0517-0.04548 0.062 0 0.18603 0.0041t0.18604 0.0041q0.0393 0 0.0393 0.06408 0 0.04548-4e-3 0.13849-4e-3 0.09095-4e-3 0.13643 0 0.35967 0.0207 0.5085 0.0186 0.13022 0.32453 0.5457 0.0372 0.04961 0.0434 0.04961 6e-3 0 0.0372-0.04547 0.26871-0.39067 0.30592-0.5333 0.0248-0.09922 0.0248-0.44442 0-0.07028-8e-3 -0.20877t-8e-3 -0.20671q0-0.04548 0.0372-0.04548h0.39481q0.0331 0 0.0331 0.05374 0 0.06614-6e-3 0.2005-6e-3 0.13229-6e-3 0.19844 0 0.36587 0.0124 0.42375 0.0124 0.05581 0.1943 0.32453 0.1819 0.26665 0.20877 0.26665 6e-3 0 0.0372-0.04961 0.26252-0.39894 0.28319-0.5333 0.0186-0.11162 0.0186-0.37827 0-0.07855-0.0124-0.22531-0.0124-0.14883-0.0124-0.21291 0-0.03101 0.0413-0.03101 0.062 0 0.18397-0.0041 0.12195-0.0041 0.18396-0.0041 0.0455 0 0.0558 0.04134 0.0165 0.08062 0.0165 0.42375z"/>
</g>
</g>
<g transform="rotate(-42.679)" aria-label="nw">
<g fill="#fff" stroke-width=".26458">
<path d="m-20.626 94.164q0 0.04548-0.04134 0.04548-0.06821 0-0.20464-0.0021-0.13436-0.0021-0.20257-0.0021-0.03721 0-0.03721-0.05994 0-0.10129 0.0062-0.30799 0.0062-0.20671 0.0062-0.31006 0-0.08268-0.0021-0.24598-0.0021-0.16536-0.0021-0.24805 0-0.23564-0.06821-0.3328-0.08268-0.11576-0.30592-0.11576-0.10335 0-0.28732 0.11576-0.1943 0.12196-0.1943 0.21704v1.2402q0 0.05168-0.03927 0.05168-0.06615 0-0.19844-0.0021-0.13229-0.0021-0.19844-0.0021-0.04341 0-0.04341-0.04754 0-0.1633 0.0041-0.48989 0.0062-0.3266 0.0062-0.49196 0-0.44028-0.09302-0.81235-0.0062-0.0186-0.0062-0.02687 0-0.02067 0.02687-0.02894 0.01447-0.0021 0.23564-0.03721 0.22324-0.03721 0.23358-0.03721 0.0124 0 0.01654 0.03307 0.01034 0.12816 0.04754 0.25838 0.10749-0.08475 0.28319-0.21084 0.21704-0.13229 0.41961-0.13229 0.38861 0 0.53123 0.22531 0.10542 0.16536 0.10542 0.53537 0 0.06408-0.0041 0.19637-0.0021 0.13229-0.0021 0.19844 0 0.13849 0.0041 0.41341 0.0041 0.27492 0.0041 0.41341z"/>
<path d="m-17.457 92.723q0 0.38861-0.04341 0.48782-0.05788 0.13643-0.30592 0.54364-0.26872 0.44028-0.32453 0.45475-0.01654 0.0041-0.16536 0.0041-0.10128 0-0.11782-0.0041-0.06408-0.01654-0.49196-0.71107-0.11782 0.1943-0.23771 0.39067-0.1943 0.30592-0.24805 0.32039-0.01654 0.0041-0.13643 0.0041-0.12196 0-0.13849-0.0041-0.06408-0.01447-0.32453-0.45062-0.24598-0.41134-0.29766-0.54777-0.04754-0.12402-0.04754-0.48782 0-0.30386 0.02067-0.41548 0.01034-0.04547 0.05168-0.04547 0.06201 0 0.18604 0.0041 0.12402 0.0041 0.18604 0.0041 0.03927 0 0.03927 0.06408 0 0.04547-0.0041 0.13849-0.0041 0.09095-0.0041 0.13643 0 0.35967 0.02067 0.5085 0.0186 0.13022 0.32453 0.5457 0.03721 0.04961 0.04341 0.04961t0.03721-0.04548q0.26872-0.39067 0.30592-0.5333 0.02481-0.09922 0.02481-0.44442 0-0.07028-0.0083-0.20877t-0.0083-0.20671q0-0.04547 0.03721-0.04547h0.39481q0.03307 0 0.03307 0.05374 0 0.06614-0.0062 0.2005-0.0062 0.13229-0.0062 0.19844 0 0.36587 0.0124 0.42375 0.0124 0.05581 0.1943 0.32453 0.1819 0.26665 0.20877 0.26665 0.0062 0 0.03721-0.04961 0.26252-0.39894 0.28319-0.5333 0.0186-0.11162 0.0186-0.37827 0-0.07855-0.0124-0.22531-0.0124-0.14883-0.0124-0.21291 0-0.03101 0.04134-0.03101 0.06201 0 0.18397-0.0041 0.12196-0.0041 0.18397-0.0041 0.04547 0 0.05581 0.04134 0.01654 0.08062 0.01654 0.42375z"/>
</g>
</g>
<g transform="rotate(-42.679)" aria-label="se">
<g fill="#fff" stroke-width=".26458">
<path d="m-19.618 141.82q0 0.30799-0.24598 0.49402-0.22324 0.1695-0.54364 0.1695-0.12402 0-0.14056-6e-3 -0.03514-0.0165-0.03514-0.10128 0-0.0455-0.0124-0.13643-0.01034-0.0909-0.01034-0.13436 0-0.0269 0.03721-0.0351 0.02687-6e-3 0.07648 0 0.06408 6e-3 0.06201 6e-3 0.39067 0 0.39067-0.23978 0-0.11368-0.17157-0.20877-0.27905-0.15296-0.32039-0.1881-0.17156-0.14676-0.17156-0.38447 0-0.31006 0.23358-0.48369 0.21084-0.15503 0.5333-0.15503 0.02894 0 0.04134 0.0269 0.01447 0.0269 0.05168 0.16743 0.03927 0.14056 0.03927 0.1695 0 0.0227-0.03927 0.0289-0.13229 0.0186-0.26665 0.0351-0.15916 0.0434-0.15916 0.17363 0 0.093 0.16743 0.1881 0.24805 0.13849 0.31419 0.20051 0.1695 0.16123 0.1695 0.41341z"/>
<path d="m-17.569 141.34q0 0.15296-0.13229 0.20464-0.08888 0.0331-1.2795 0.12196 0.02687 0.1819 0.2005 0.31006 0.16536 0.12195 0.35553 0.12195 0.3266 0 0.59945-0.21084 0.03307-0.0269 0.06615-0.0537 0.01654 0 0.02067 4e-3 0.0062 4e-3 0.07855 0.1447 0.07235 0.13849 0.07235 0.14882 0 0.0124-0.03307 0.0476-0.30386 0.32246-0.77928 0.32246-0.47956 0-0.76481-0.28526-0.28525-0.28732-0.28525-0.76481 0-0.42581 0.27285-0.74207 0.28732-0.32866 0.70487-0.32866 0.38861 0 0.64906 0.28525 0.25425 0.27699 0.25425 0.67386zm-0.49196-0.12609q0-0.17156-0.13643-0.30386-0.13436-0.13229-0.30386-0.13229-0.19017 0-0.339 0.15296-0.14676 0.15297-0.14676 0.34314 0 0.0434 0.07441 0.0434 0.30592 0 0.73174-0.062 0.11989-0.0165 0.11989-0.0413z"/>
</g>
</g>
</g>
</g>
</g>
</svg>
