<?xml version="1.0" encoding="UTF-8"?>
<svg width="408.08" height="81.877" version="1.1" viewBox="0 0 107.96993 21.663363" xmlns="http://www.w3.org/2000/svg" xmlnscc="http://creativecommons.org/ns#" xmlnsdc="http://purl.org/dc/elements/1.1/" xmlnsrdf="http://www.w3.org/1999/02/22-rdf-syntax-ns#">
<metadata>
<rdfRDF>
<ccWork rdfabout="">
<dcformat>image/svg+xml</dcformat>
<dctype rdfresource="http://purl.org/dc/dcmitype/StillImage"/>
<dctitle/>
</ccWork>
</rdfRDF>
</metadata>
<g transform="translate(-27.706 -30.949)">
<g transform="matrix(.31809 0 0 .31809 127.53 3.7382)" fill="#fff">
<g fill="#fff">
<g fill="#fff">
<g fill="#fff">
<g transform="translate(3.1438e-6 -3.1307e-6)">
<path transform="matrix(.035416 -.27177 6.2017 .001552 -1136.6 83.981)" d="m-231.86 147.2-6.7896 0.0446-6.7896 0.0446 3.3562-5.9023 3.3562-5.9023 3.4334 5.8577z" opacity=".95"/>
<path d="m-222.3 145.72 0.0144-1.4026h-6.7615v9.2626h1.6976v-3.7977h4.5748v-1.3894h-4.5748v-2.6729z"/>
<path d="m-219.09 153.58v-9.2626h-1.6976v9.2626z"/>
<path d="m-207.7 153.58v-9.2626h-1.6688v6.6559l-5.3948-6.6559h-1.6688v9.2626h1.6976v-6.6426l5.366 6.6426z"/>
<path d="m-205.02 144.32v9.2626h4.0856c3.0498 0 5.2509-1.9584 5.2509-4.6313 0-2.6862-2.1867-4.6313-5.2078-4.6313zm1.6976 1.4026h2.4025c1.9853 0 3.5246 1.3497 3.5246 3.2419 0 1.879-1.4962 3.2155-3.4527 3.2155h-2.4744z"/>
<path d="m-183.28 145.72v-1.4026h-8.0706v1.4026h3.1793v7.86h1.6976v-7.86z"/>
<path d="m-173.11 153.58v-9.2626h-1.6976v4.0226h-5.3372v-4.0226h-1.6976v9.2626h1.6976v-3.8374h5.3372v3.8374z"/>
<path d="m-163.27 145.72v-1.4026h-7.193v9.2626h7.3657v-1.4026h-5.6681v-2.5538h4.92v-1.4026h-4.92v-2.5009z"/>
<path d="m-146.96 153.58 3.3664-9.2626h-1.7551l-2.4312 7.5292-2.4456-7.5292-1.6688 0.0132-2.4312 7.516-2.4456-7.5292h-1.827l3.3376 9.2626h1.7551l2.4169-7.2249 2.3881 7.2249z"/>
<path d="m-136.62 151.49 0.96386 2.0907h1.8126l-4.4021-9.2626h-1.7407l-4.4453 9.2626h1.7695l0.96387-2.0907zm-0.64738-1.3894h-3.7979l1.899-4.1153z"/>
<path d="m-129.08 150.5 3.6972-6.1795h-1.7263l-2.8197 4.5122-2.8772-4.5122h-1.712l3.7548 6.2324v3.0302h1.6832z"/>
<path d="m-109.98 153.58 3.3663-9.2626h-1.7551l-2.4312 7.5292-2.4456-7.5292-1.6688 0.0132-2.4312 7.516-2.4456-7.5292h-1.827l3.3376 9.2626h1.7551l2.4169-7.2249 2.3881 7.2249z"/>
<path d="m-103.75 153.58v-9.2626h-1.6976v9.2626z"/>
<path d="m-94.214 145.72v-1.4026h-8.0706v1.4026h3.1793v7.86h1.6976v-7.86z"/>
<path d="m-84.041 153.58v-9.2626h-1.6976v4.0226h-5.3372v-4.0226h-1.6976v9.2626h1.6976v-3.8374h5.3372v3.8374z"/>
<path d="m-69.125 144.32h-1.6976v5.4253c0 1.5746-1.0214 2.5009-2.6614 2.5009-1.6544 0-2.7046-0.9395-2.7046-2.5009v-5.4253h-1.6976v5.4253c0 2.4215 1.6688 3.9036 4.3878 3.9036s4.3734-1.482 4.3734-3.9036z"/>
<path d="m-63.39 144.26c-2.1867 0-3.6684 0.99243-3.6684 2.5803 0 3.2949 5.4379 2.1436 5.4379 4.2079 0 0.71455-0.70492 1.1248-1.8846 1.1248-1.079 0-2.3737-0.47637-3.4095-1.3497l-0.73369 1.3497c1.0358 0.87333 2.532 1.4688 4.1144 1.4688 2.2155 0 3.7979-1.0189 3.7979-2.6729 0.01439-3.3346-5.4236-2.2495-5.4236-4.274 0-0.62193 0.64737-0.96596 1.64-0.96596 0.76246 0 1.8558 0.25141 2.9491 0.86009l0.70492-1.3762c-0.9351-0.56899-2.2155-0.95273-3.5246-0.95273z"/>
<path transform="matrix(-.035416 -.27177 -6.2017 .001552 847.45 83.937)" d="m-231.86 147.2-6.7896 0.0446-6.7896 0.0446 3.3562-5.9023 3.3562-5.9023 3.4334 5.8577z" opacity=".95"/>
</g>
<path transform="translate(3.1438e-6 -3.1307e-6)" d="m-301.06 120.49-4.87-2.4948-4.8161 2.5975 0.8678-5.4026-3.9586-3.7777 5.4064-0.84417 2.3695-4.9322 2.4735 4.8809 5.423 0.72943-3.8776 3.8607z" opacity=".95"/>
<path transform="translate(3.1438e-6 -3.1307e-6)" d="m22.706 120.49-4.87-2.4948-4.8161 2.5975 0.8678-5.4026-3.9586-3.7777 5.4064-0.84418 2.3695-4.9322 2.4735 4.8809 5.423 0.72943-3.8776 3.8607z" opacity=".95"/>
<path transform="scale(.26458)" d="m-479.45 428.55-8.3242 8.0156 17.887 17.025-17.887 17.025 8.3242 8.0137 17.936-17.07 17.936 17.07 8.3223-8.0137-17.887-17.025 17.887-17.025-8.3223-8.0156-17.936 17.072z" opacity=".95"/>
<g stroke="#fff">
<path d="m-294.33 129.96s0.93544 2.7395 2.0045 3.3409c1.0691 0.60136 1.9377 0.73499 2.539 0.73499 0.60134 0 2.4054-0.20045 3.4077-0.86862 1.0023-0.66818 1.2027-1.8041 1.2027-1.8041l5.6127-21.716s1.8317 9.617 2.5944 11.905c0.66818 2.0045 3.2187 9.5434 3.8201 10.412 0.60134 0.86862 2.7395 2.4054 4.8108 2.2718 2.0713-0.13363 5.0781-1.0691 5.5458-2.2718 0.46772-1.2027 3.0068-18.508 3.0068-18.508s3.1404-15.568 3.8086-16.37c0.66818-0.80181 1.637-1.0691 2.6393-1.0023 1.0023 0.06682 1.9711 0.60136 1.9711 0.60136s0.20046-0.66817 0.20045-1.0691c0.10023-0.93544-0.66817-1.9711-1.47-2.7729-0.80181-0.80181-1.5702-1.3029-3.0068-1.3698-1.7102-0.03025-2.8731 0.63476-3.7418 1.1693-0.86863 0.53454-1.9377 1.9711-2.2718 3.107-0.33409 1.1359-2.8732 9.4212-3.6081 14.032-0.73499 4.6104-1.47 10.357-1.47 10.357l-0.53454 3.8086h-0.40093c-0.33408 0-2.1382-7.684-2.1382-7.684s-1.8709-8.0849-2.1382-10.691c-0.26728-2.6059-1.0023-10.29-1.0023-10.29s-0.10021-0.86862-0.3675-1.6704c-0.73498-0.7684-2.0713-1.1693-2.0713-1.1693l-6.1138-0.03341-8.1517 34.277s-0.13364 0.73499-0.53454 0.93545c-0.40092 0.20045-4.1427 2.3386-4.1427 2.3386z" stroke-width=".26458px"/>
<path transform="scale(.26458)" d="m-683.24 323.84c-1.4521 0.0947-3.0312 0.66387-5.1777 2.4316-4.2932 3.5355-13.383 18.687-19.191 30.557-5.8084 11.869-7.5771 18.183-8.8398 20.203l-1.2617 2.0195s-8.0818-1.2629-9.8496-0.75782c-1.7678 0.5051-3.7569 5.2301-5.3027 6.1816-0.47445 0.2372 10.858 0.89024 11.363 1.9004 0.50509 1.0102-12.374 47.73-14.395 51.266-2.0203 3.5355-22.98 43.435-29.799 42.678-6.8185-0.75764-3.7879-14.395-1.7676-23.486 2.0203-9.0914 19.177-56.608 23.722-60.399 1.8671-1.38 2.942-2.5712 2.942-2.5712s-3.6843-7.9925-12.776-9.7603c-9.0914-1.7678-12.122-0.75761-13.637 0-1.5152 0.75764-12.626 20.203-15.404 27.021-2.7779 6.8185-5.3047 16.92-5.3047 16.92s-27.02 52.528-34.344 52.275c-7.3236-0.25247-4.0418-19.193-2.0215-26.012 2.0203-6.8185 16.936-52.066 21.719-57.326 2.1968-3.0753 1.0508-1.5313 2.9568-4.1479-1.546-1.6228-3.0834-5.6981-12.049-8.4771-9.5577-2.9627-11.869-1.0107-13.637 0.25196-1.7678 1.2627-10.606 14.647-16.414 29.547-5.8084 14.9-4.041 16.162-4.041 16.162s-25.506 50.507-33.84 50.002c-8.3338-0.50509 0.50431-32.325 2.0195-36.113 1.5152-3.7881 14.647-35.86 18.688-38.891 4.0406-3.0304 5.0508-3.2832 5.0508-3.2832s-5.5561-7.322-10.859-9.0898c-5.3033-1.7678-11.616-2.5252-14.646-1.7676-3.0305 0.75761-6.8184 4.7969-6.8184 4.7969s-5.5551-8.8391-9.5957-10.859c-4.0406-2.0203-11.871-3.2812-18.689-3.2812-6.8185 0-27.273 3.5339-39.395 28.535-12.122 25.001-15.659 45.711-15.406 57.58 0.25247 11.869 3.0309 18.435 6.5664 22.223 3.5356 3.7881 6.819 6.3133 11.617 6.8184 4.7982 0.5051 6.3131 0.75744 11.111-0.75781 4.7982-1.5152 12.628-8.8387 16.416-14.395s12.879-22.476 13.637-21.213c0.75764 1.2627-0.50558 9.3442 0.25195 13.385 0.75765 4.0406 3.2824 11.365 5.3027 14.143 2.0203 2.7779 8.587 9.0898 14.9 9.0898 6.3135 0 9.3442-0.5033 13.385-3.2813 4.0406-2.7779 12.373-12.629 16.414-18.689 4.0406-6.0609 5.0518-8.5861 6.3144-9.3438 1.2627-0.75764 4.1e-4 8.3348 1.5156 13.891 1.5152 5.5558 5.0508 11.869 10.102 14.395 5.0508 2.5254 12.122 4.2926 17.678 2.7773 5.5558-1.5152 14.142-9.8493 20.203-20.961 6.0609-11.112 7.0705-12.879 7.8281-11.869 0.75764 1.0102-0.75762 12.627 2.5254 18.688 3.283 6.0609 9.5969 15.405 19.193 15.152 9.5964-0.25247 14.394-3.5346 20.707-11.363 6.3135-7.8287 11.112-16.921 12.627-18.184 1.5152-1.2627 0.25347 9.3453 3.7891 15.406 3.5356 6.0609 9.8481 13.637 16.414 13.637 6.566 0 11.113 3.0295 23.234-8.8398 12.122-11.869 14.647-19.445 15.91-21.213s0.2517 8.0809 2.0195 13.637c1.7678 5.5558 8.5866 15.405 15.91 15.91 7.3236 0.5051 7.5758 1.0111 13.637-1.2617 6.0609-2.2728 15.404-12.375 18.939-18.436 3.5355-6.0609 6.5678-13.638 6.8203-11.365 0.25247 2.2728 2.2711 12.881 5.8066 17.932 3.5356 5.0508 13.385 14.898 27.527 14.898 14.142 0 24.495-1.7671 39.143-22.223 14.647-20.456 21.72-48.739 22.982-52.527 1.2627-3.7881 0.25226-7.0717-0.75782-7.3242-1.0102-0.25247-6.3129 8.8385-7.8281 11.111-1.5152 2.2729-14.142 29.294-18.436 34.598-4.2931 5.3033-16.667 22.729-28.789 21.467-12.122-1.2627-12.375-17.425-11.617-23.486 0.75761-6.0609 3.2826-22.729 11.111-35.355s18.941-27.275 26.77-25.76c7.8287 1.5152-3.5353 19.446-4.293 21.719-0.7576 2.2729-1.2635 3.7879-0.50586 4.293 0.75761 0.50506 11.616-4.2928 15.404-8.5859 3.7881-4.2932 2.7779-6.3133 2.5254-9.3438-0.25247-3.0305-2.777-19.699-13.889-23.234-11.112-3.5355-21.719-2.0203-30.811 5.0508-9.0914 7.0711-22.475 26.77-25 31.82-2.5254 5.0508-4.0414 13.131-5.5566 15.404-1.5152 2.2728-23.485 43.689-29.041 43.689-5.5559 0-5.5565-6.5656-4.7988-11.111 0.7576-4.5457 4.5455-29.042 9.3438-39.396 4.7982-10.354 14.142-31.819 15.91-33.334 1.7678-1.5152 4.041-2.2734 4.041-2.2734s-4.042-6.5654-7.8301-7.8281c-3.7881-1.2627-14.646-3.2838-16.666-3.0312-2.0203 0.25247-10.355 5.8077-19.699 32.324-9.3439 26.516-6.0606 20.961-6.0606 20.961s-23.991 43.436-31.314 43.941c-7.3236 0.50506-6.8184-13.385-6.8184-13.385s4.2932-23.233 7.5762-34.598c3.283-11.364 13.889-40.404 14.646-41.162 0.75761-0.7576 12.374 1.0096 14.395 0.25196 2.0203-0.75761 6.5668-5.0518 8.082-8.8398 1.5152-3.7881 1.2617-5.5547 1.2617-5.5547s-0.25271 0.25216-3.2832 1.0098c-3.0305 0.75761-14.141 0.25195-14.141 0.25195s-0.50506-0.25112 0-2.2715c0.50509-2.0203 17.456-31.597 21.971-35.609 3.8008-2.9412 4.293-3.0293 4.293-3.0293s0.0129-1.1762-2.3926-3.8189c-3.0305-3.5355-14.528-9.0614-17.811-9.3139-1.6415-0.12627-2.9678-0.50485-4.4199-0.41015zm-220.31 69.732c1.2277 0.0223 2.2994 0.29074 3.0137 0.55859 1.4286 0.53571 6.9629 7.3212 6.9629 13.393 0 0-7.8568 16.072-19.643 36.607-11.786 20.536-22.857 36.607-27.857 35.357-5-1.25 1.9651-31.607 7.3223-46.607s23.571-36.964 26.25-38.393c1.3393-0.7143 2.7235-0.93834 3.9512-0.91602z" stroke-width="1px"/>
<path d="m-167.58 97.082c1.6036 0.60136 2.6727 0.86863 3.274 0.53454 0.60136-0.33409 4.009-7.684 5.1449-8.5526 1.1359-0.86862 0.86862-0.73499 0.66817-1.2695-0.20045-0.53454-4.1427-2.1382-5.6127-2.0713-1.47 0.06682-2.3386 1.8709-2.8731 2.94-0.53454 1.0691-2.2718 5.2786-2.2718 6.1472 0 0.86863 0 1.4032 0.60136 1.6704 0.60136 0.26727 1.0691 0.60136 1.0691 0.60136z" stroke-width=".26458px"/>
</g>
<g stroke="#fff">
<path transform="scale(.26458)" d="m-296.57 348.22c-30.649 0.083-56.82 6.2168-60.57 7.1543-4.2857 1.0714-35 12.5-37.857 27.143-2.8571 14.643 5.3568 22.499 7.1426 23.928 1.7857 1.4286 13.572 5.3574 13.572 5.3574s-6.0728-13.572-4.2871-17.857c1.7857-4.2857 7.5006-10.356 30.715-15.355 23.214-5 20-1.7871 20-1.7871l-20 107.5s-0.35717 9.6443 0 11.787c0.35713 2.1428 2.1428 8.9272 7.5 10.713 5.3571 1.7857 16.446 2.5279 21.43-0.35742 3.3928-1.9643-4.093-4.974 2.1426-31.785 6.2051-26.68 4.8203-26.428 4.8203-26.428l5.5371 0.71289s19.707 48.032 24.463 53.93c4.4643 5.5357 8.3928 8.2132 11.25 8.5703 2.8572 0.35716 10-0.53518 20.357-9.2852 4.2857-3.5715-2.4978-5.5377-8.0352-13.928-6.3822-9.6703-23.572-46.25-23.572-46.25s25.081-9.0566 39.465-34.287c10.692-18.756 5.7137-34.106 4.2852-36.963s-8.9286-20-45-22.143c-4.5089-0.26786-8.9789-0.381-13.357-0.36914zm-14.855 26.082s33.928 1.2514 43.393 4.2871c9.4643 3.0357 15.357 7.6783 15.357 8.3926 0 0.71425-6.6085 15.535-25.537 25.535-18.929 10-26.786 10.715-27.5 10.715-0.71429 0 5.1788-32.143 4.1074-35.893s-3.75-7.858-6.25-8.5723c-2.5-0.71425-3.5706-1.6063-3.9277-2.6777-0.35716-1.0714 0.35743-1.7871 0.35743-1.7871z" stroke-width="1px"/>
<path transform="scale(.26458)" d="m-30.188 380.97c-6.4837 0.1055-15.416 2.4676-24.01 10.57-12.5 11.786-21.427 30.357-22.855 35.357-1.4286 5-2.8574 10.715-2.8574 10.715s-12.648 24.475-14.791 24.475c-2.1429 0 0.79688-8.9043 0.79688-8.9043s1.473-27.061 4.707-42.355c3.9286-15.357 5.3574-18.215 5.3574-18.215s-0.71401-6.0709-9.6426-9.2852c-8.9286-3.2143-12.856-2.1437-18.57 1.4277-5.7143 3.5714-15.715 15.356-22.857 26.428-7.1428 11.071-11.072 20.626-12.59 23.215-10.089 9.4643-12.768 8.9297-12.768 8.9297v-2e-3s5.0003-20.355 5.3574-25.355c0.35713-5 1.0714-25.715-17.5-33.215-18.571-7.5-34.644 1.4286-36.43 2.5-1.7857 1.0715-18.213 10.715-28.213 43.572-10 32.857-3.5726 47.857-1.4297 52.143s8.572 14.998 25.715 15.355c17.143 0.35716 21.427-5.3563 28.57-11.428 7.1428-6.0714 18.93-27.143 18.93-27.143s10.714-0.71512 20-8.5723c9.2857-7.8572 28.215-38.838 28.215-38.838s-2.144 44.196-3.9297 50.625c-1.7857 6.4286-3.5709 20.356-11.785 21.07-8.2143 0.71429-10.096-1.0419-14.285-6.4277-0.62501-0.80357-1.5195-0.35743-1.5195-0.35743l-13.48 1.4277s6.6066 16.607 21.16 19.107c7.7679 1.7858 25.267 1.6078 29.91-0.17773 4.6429-1.7857 11.785-8.2146 17.143-15.357 5.3571-7.1428 10.357-15.715 10.357-15.715s-0.71484 11.251 9.2852 23.215c6.25 5.5357 13.929 9.9997 23.572 9.6426 9.6429-0.35716 18.929-0.71455 30-12.857 11.071-12.143 27.143-40.357 30-59.285 2.8571-18.929-2.8574-7.2319-4.7324-3.3926-2.2321 4.3751-25.178 45.09-29.643 49.465-1.9643 2.3214-11.696 11.429-20.268 10-8.5714-1.4286-11.785-12.144-11.785-16.072 0-3.9286 1.0712-16.428 2.1426-16.785 1.0714-0.35717 1.7843 1.7849 8.2129 1.4277 6.4286-0.35716 28.215-1.428 36.43-19.285 8.2143-17.857 4.4632-26.965 3.5703-31.43-1.3085-6.5424-11.071-17.499-16.428-19.285-1.6741-0.55803-4.1154-0.97569-7.0625-0.92773zm-150.88 14.768c3.2143-0.35717 5.0017 5.356 4.6445 11.07-0.35713 5.7143-6.3215 33.178-8.0684 37.984-1.4502 3.9898-2.5 4.6426-2.5 4.6426s-5.5466-0.35661-7.6895 0.71484c-2.1429 1.0714-3.885 2.6444-4.2422 5.9453 0.0215 3.4272 0.22798 5.1228 1.8262 6.3008 1.4088 0.67283 4.2441 0.8418 4.2441 0.8418s-12.143 21.429-17.5 20.357c-5.3572-1.0715-9.642-10.359-3.9277-29.287 5.7143-18.929 17.142-43.571 19.285-46.428 2.1429-2.8571 10.713-11.785 13.928-12.143zm159.67 4.3965c0.84821-0.0223 1.5854 0.15709 2.1211 0.60352 2.1429 1.7857 2.4989 5.7143 1.0703 10-1.4286 4.2857-3.2137 8.2146-11.785 17.857-8.5714 9.6429-18.572 14.285-22.857 13.57 0 0 1.0723-4.9986 3.5723-10.713 2.5-5.7143 16.785-25 19.643-27.5 2.1429-1.875 5.6917-3.7514 8.2363-3.8184z" stroke-width="1.0016"/>
</g>
</g>
</g>
</g>
</g>
</g>
</svg>
