<?xml version="1.0" encoding="utf-8"?>
<svg width="117.21" height="115.78" version="1.1" viewBox="0 0 31.011781 30.633713" xmlns="http://www.w3.org/2000/svg">
  <defs>
    <radialGradient id="a" cx="150.39" cy="88.349" r="15.506" gradientTransform="matrix(1.4401 -.38038 .31781 1.2031 -94.257 39.163)" gradientUnits="userSpaceOnUse">
      <stop stop-color="#d4aa00" offset="0"/>
      <stop stop-color="#d4aa00" stop-opacity="0" offset="1"/>
    </radialGradient>
    <linearGradient id="b" x1="259.92" x2="262.62" y1="137.88" y2="132.5" gradientUnits="userSpaceOnUse">
      <stop offset="0"/>
      <stop stop-opacity="0" offset="1"/>
    </linearGradient>
  </defs>
  <g transform="translate(-244.19 -123.98)">
    <g transform="translate(108.67 51.216)">
      <g transform="translate(1.3095 7.5137)">
        <g>
          <path d="m165.14 80.572c0 8.4132-6.9047 15.234-15.422 15.234-8.5176 2.8e-4 -15.423-6.8196-15.423-15.233-5.6e-4 -8.4132 6.9037-15.234 15.421-15.235 8.5176-8.3e-4 15.423 6.8186 15.424 15.232-1e-3 -0.53617-8e-3 0.42347 0 2e-3z" fill="#f60"/>
          <path d="m165.14 80.57c0 8.4132-6.9047 15.234-15.422 15.234-8.5176 2.8e-4 -15.423-6.8196-15.423-15.233-5.6e-4 -8.4132 6.9037-15.234 15.421-15.235 8.5176-8.3e-4 15.423 6.8186 15.424 15.232-1e-3 -0.53616-8e-3 0.42347 0 2e-3z" fill="url(#a)" stroke="#000" stroke-linecap="round" stroke-linejoin="bevel" stroke-width=".166"/>
        </g>
      </g>
    </g>
    <path transform="scale(.26458)" d="m965.04 554.59c-4.3247 0-8.6805 0.37891-9.1856 0.37891-1.0102 0-11.869 7.0723-11.869 7.0723s5.3031 6.8182 6.8184 8.5859c0.80424 0.93829 2.2918 4.0317 3.5371 6.7754 5.6168 2.9322 11.772 4.9937 18.287 5.9805 0.66271-7.8398 1.9877-24.58 1.4082-26.898-0.37882-1.5152-4.6714-1.8945-8.9961-1.8945z" fill="#06a22e" stroke="#000" stroke-linecap="round" stroke-linejoin="bevel" stroke-width=".6274"/>
    <path d="m252.61 148.52-2.3938 0.66221c0.37529 0.48079 1.1233 1.4366 1.4262 1.79 0.20549 0.23973 0.58555 1.0301 0.90374 1.7311 0.30623 0.15986 0.61987 0.30753 0.93817 0.44663 0.058-0.16383 0.14536-0.33764 0.28744-0.50003 0.45167-0.51619 1.6772-1.0327 2.3225-1.1617 0.43866-0.0877 1.0548-0.0498 1.3861-0.0206 0.0603-0.48712 0.0203-0.93792 0.0476-1.3882z" fill="#06632e"/>
    <path transform="scale(.26458)" d="m953.57 478.57c-1.188 0-3.6736 0.56991-6.1367 1.2266-2.4827 1.7727-4.825 3.7232-6.9922 5.8516 0.38267 2.8657 1.7016 6.3315 2.9512 7.9219 0.71448 1.7857 0.53515 2.1445 0.53515 2.1445s0.53516 1.0706-0.71484 1.4277c-1.25 0.35713-1.25-0.53645-2.5-0.71485-1.25-0.17854-1.7846-1.7848-2.3203-2.6777-0.5359-0.89284-5.5e-4 -2.8583-0.71485-3.9297-0.1293-0.19396-0.2993-0.48145-0.45312-0.72656-0.63623 0.73508-1.2548 1.4855-1.8535 2.252 0.12939 0.62415 0.21717 1.1927 0.16407 1.5117-0.17855 1.0714-1.4277 2.3209-2.6777 3.0352-0.27659 0.15805-0.79299 0.58558-1.3965 1.1172-5.2123 8.6229-8.2156 18.7-8.2148 29.473 1e-3 15.843 6.4836 30.188 16.967 40.598 0.80708-0.33614 1.7479-0.74012 2.2871-1.0098 1.0714-0.53571 4.106 1.0723 6.0703 1.0723 1.9643 0 3.9297-1.0723 3.9297-1.0723l1.9629 2.8574 3.9297-1.4277 1.7852 2.3203 2.1426-1.25 2.6797 2.8574 3.2129-2.3203 1.9648 1.7852 1.9648-1.4277 1.6074 1.7852 1.4277-1.0723 2.3223 2.1426 2.1426-1.7852 3.2148 2.3223 0.89258-3.0371 3.3926 2.8574 1.7852-3.5703 2.8574 2.5 1.6074-3.5723 2.6777 3.3926s0.89427-1.9632 1.7871-3.5703c0.89303-1.6072-0.17969-3.0371-0.17969-3.0371l4.2871 1.0723 0.7129-4.8223 4.1075 1.4297v-4.4648l3.75 0.89257 0.3574-3.3926 4.4648 1.6074-1.25-4.1074 5.3574 2.6797s0.1778 0.17855 0.1778-1.25c0-1.4286-1.9649-5-1.9649-5l1.25 0.17774c1.25 0.17854 3.9297 1.9648 3.9297 1.9648s-0.7154-4.464-0.1797-5.8926c0.5357-1.4285 4.8223-5.5371 4.8223-5.5371s-0.6463-1.7951 0.1113-2.5527c1.1145-1.4719 0.074-4.0264 0.074-5.668 0-1.6415-1.5897-3.481-4.7031-6.9082-6.6848-10.57-7.1428-16.816-11.65-22.355-4.329-4.468-6.2398-1.9432-8.8086-3.7109-3.1044-3.0178-11.757-9.8974-22.641-4.8144-1.4196-1.8813-4.9756-6.4272-9.2344-6.7012-4.7945-1.5242-14.4-8.8965-17.078-8.8965z" fill="#06a22e" stroke="#000" stroke-linecap="square" stroke-width=".6274"/>
    <path transform="scale(.26458)" d="m1000.6 551.94c-1.1978 0.0208-4.308 1.5195-5.334 1.5195-1.2627 0-11.11 6.1877-13.383 6.9453-2.2729 0.75761-6.5662-0.37767-8.334-0.5039-1.7678-0.12628-9.4714 0.8823-12.123 1.5137-2.6516 0.63133-4.166 1.3906-4.166 1.3906s-0.25296 0.25216-1.5156 1.0098c-1.2627 0.75761-3.0312 2.2715-3.0312 2.2715l1.8945 2.5586 3.8658-1.4104 1.7846 2.262 2.2734-1.1523s3.8188-2.5098 5.7129-2.8887c1.894-0.37878 10.734-1.5144 12.754-1.6406 2.0203-0.12627 12.374-3.7887 14.268-4.7988 1.894-1.0102 5.9348-5.8082 5.8086-6.8184-0.024-0.1894-0.1981-0.26262-0.4746-0.25781z" fill="#06632e"/>
    <path transform="scale(.26458)" d="m953.41 478.78c-1.3942 0.19446-5.1451 1.0742-5.9216 1.2405-2.4351 1.7482-4.6461 3.6662-6.7759 5.7578 0.14234 1.0659 0.45865 2.2138 0.80831 3.3184 0.5715 1.55 1.1148 2.8471 1.5636 3.4883 0.89288 1.1607 1.204 2.9467 1.204 2.9467s5.7148 11.251 5.7148 15.537 2.142 13.213 3.9277 16.07c1.7857 2.8571 6.0723 11.787 8.5723 13.572 2.5 1.7857 12.857 1.4277 12.857 1.4277s-7.8577-4.9992-8.2148-6.4277c-0.35717-1.4286-7.8563-3.5726-8.9277-6.4297-1.0714-2.8572-3.572-11.429-3.2148-15 0.35717-3.5714 3.9283-6.4288 7.1426-7.8574 3.2143-1.4286 10.715-4.2852 10.715-4.2852l2.1426-4.2852-2.8574 0.53516s-0.26716 0.80354-1.4277 0.625c-1.1607-0.17877-8.2148-3.0352-8.2148-3.0352s-6.8957 3.1804-11.441-1.3652c-4.5457-4.5457-5.0508-10.102-5.0508-10.102s-1.0094-1.5152 3.0312-2.5254c4.0406-1.0102 16.162 5.0508 16.162 5.0508l6.0606 3.0293-2.0248-2.858c-2.9313-1.341-6.6361-3.6906-9.8683-5.6007l-3.0209-1.7531c-1.2729-0.63011-2.3915-1.0073-2.9409-1.0745z" fill="#06632e"/>
    <path transform="scale(.26458)" d="m936.66 539.57c-1.5152 0-3.1566 0.50547-4.6719 1.5156-1.0303 0.68687-3.2515 2.9741-5.0759 4.726 0.85508 2.3601 1.8447 4.6007 2.9914 6.8069 0.40736-0.30422 0.57181-0.47108 0.94782-0.67355 1.6415-0.88388 4.1665-3.032 6.0606-3.1582 1.894-0.12624 11.111 0.88476 11.111 0.88476s-8.9642-4.6722-9.2168-6.1875c-0.25248-1.5152 3.5352-2.5254 3.5352-2.5254s-4.1664-1.3887-5.6816-1.3887z" fill="#06632e"/>
    <path transform="scale(.26458)" d="m925.99 520.69s-1.0158 2.0813-2.4342 3.3239c-0.0415 0.89184-0.0238 1.7205-0.0237 2.6225 4.5e-4 6.6794 1.1429 12.775 3.2609 18.74 4e-3 -0.0822 0.0778 0.9078 0.0778 0.85656 0-0.69449 4.6112-4.962 4.6112-4.962-0.69219 0-1.9423-2.9435-2.7144-3.6691-1.1129-1.0459-3.6851-8.3569-3.6624-10.156-0.0632-3.5987 0.88476-6.7559 0.88476-6.7559z" fill="#06632e"/>
    <path d="m266.2 135.13a4.7395 4.858 0 0 1 -4.7395 4.8579 4.7395 4.858 0 0 1 -4.7395 -4.8579 4.7395 4.858 0 0 1 4.7395 -4.8579 4.7395 4.858 0 0 1 4.7395 4.8579z" fill="#59b56e" stroke="#000" stroke-linecap="round" stroke-linejoin="round" stroke-width=".152"/>
    <path d="m260.53 134.89s-0.48173 0.28907-0.96379 0.48189c-0.48205 0.19282-1.1569 0.86776-1.3497 1.4462-0.12668 0.38002-0.5417 0.59098-0.81353 0.69279a4.7333 4.8516 0 0 0 4.0914 2.4237 4.7333 4.8516 0 0 0 0.72707 -0.0612c-0.0707-0.1988-0.44661-1.2571-0.53462-1.6091-0.0964-0.38565-0.19282-1.3495 0-1.7352 0.19282-0.38564-0.4819-1.4462-0.4819-1.4462z" fill="#06632e"/>
    <path d="m265.26 135.03a3.796 3.8909 0 0 1 -3.796 3.8909 3.796 3.8909 0 0 1 -3.796 -3.8909 3.796 3.8909 0 0 1 3.796 -3.8909 3.796 3.8909 0 0 1 3.796 3.8909z" fill="#06a22e" stroke="#000" stroke-linecap="round" stroke-linejoin="round" stroke-width=".102"/>
    <path d="m260.52 134.93s-0.47501 0.28503-0.95031 0.47516c-0.47532 0.19012-1.1407 0.85562-1.3309 1.426-0.0115 0.0344-0.0278 0.0656-0.0437 0.0972a3.7696 3.8638 0 0 0 3.2757 1.9604 3.7696 3.8638 0 0 0 0.37898 -0.0234c-0.0815-0.24449-0.1567-0.47815-0.18923-0.60825-0.0951-0.38026-0.19013-1.3306 0-1.7109 0.19012-0.38025-0.47516-1.426-0.47516-1.426z" fill="#06632e"/>
    <path d="m262.06 134.63a1.1143 1.1421 0 0 1 -1.1143 1.1421 1.1143 1.1421 0 0 1 -1.1143 -1.1421 1.1143 1.1421 0 0 1 1.1143 -1.1421 1.1143 1.1421 0 0 1 1.1143 1.1421z" stroke="#59b56e" stroke-linecap="round" stroke-linejoin="round" stroke-width=".35376"/>
    <path transform="scale(.26458)" d="m952.14 530 0.71484 5.3574s0.71484 2.1434 3.2148 3.2148c2.5 1.0714 7.1426 1.7852 7.1426 1.7852l-1.0723-2.5h5s1.0717-0.35797 2.8574-1.0723c1.7857-0.7143 6.4277-1.7852 6.4277-1.7852s18.929-8.5e-4 23.572 1.4277c4.6429 1.4286 24.643 3.2148 24.643 3.2148l1.6844 1.2539c0.3988-0.39873 0.6344-0.65468 0.743-0.75948 0.027-0.18029-0.048-0.30838-0.031-0.48466-0.1451-0.56205-0.221-1.2789 0.081-1.8711 0.057-0.0757 0.3292-0.44725 0.3756-0.52846 0.021-0.0458 0.1832-0.47135 0.2004-0.51144 0.1893-0.44194 0.1224-1.0647 0.1224-1.0647s-1.9449 0.48196-7.0588-0.33873c-5.1139-0.82076-10.48-1.5143-11.68-1.4512-1.1996 0.0631-8.4616-1.6413-10.734-1.7676-2.2728-0.12624-7.766 0.0624-8.9023-0.12695-1.1364-0.18936-5.0498-1.0729-6.123-1.0098-1.0733 0.0631-7.9553-0.31505-8.9023-0.4414-0.947-0.12624-4.861 0.94679-6.25 1.5781-1.3889 0.63133-4.5452 1.957-5.6816 1.957-1.1364 0-3.5586 0.20899-3.5586 0.20899z" fill="#59b56e"/>
    <path d="m271.76 142.45s-5.6224-0.85045-6.5673-0.94494c-0.94494-0.0945-4.4412-0.51972-5.4807-0.56697-1.0394-0.0472-2.2206-0.0472-2.5041 0.14175-0.28348 0.18898-2.1734 0.61421-2.6931 0.56696" fill="none" stroke="#000" stroke-linecap="round" stroke-linejoin="round" stroke-width=".165"/>
    <path d="m249.77 131.31s0.26008 2.1614 0.21284 2.9174c-0.0473 0.75595 0 3.1656 0 3.8743s0.75595 2.0789 0.75595 2.8348-0.33073 1.4647 0 1.8426c0.33073 0.37798 0.99219 1.2757 1.3702 1.3702" fill="none" stroke="#000" stroke-linecap="round" stroke-linejoin="round" stroke-width=".165"/>
    <path d="m252.3 141.08s0.70871 0.94494 1.2284 1.1812c0.51971 0.23623 1.3229 0.33073 1.3229 0.33073" fill="none" stroke="#000" stroke-linecap="round" stroke-linejoin="round" stroke-width=".165"/>
    <path d="m268.88 140.6s0.30588-0.13595 0.61176 0c0.30587 0.13594 0.71372 0.16993 0.74771 0l0.034-0.16994s-0.0124-0.13922 0.10782-0.15124c0.12016-0.012 0.55274 0.39654 0.55274 0.39654s-0.012-0.33646-0.0961-0.43258c-0.0841-0.0961-0.73298-0.81711-0.80508-0.9613s-0.20427-0.38451-0.20427-0.38451-0.33646-0.036-0.72098 0.10814c-0.38451 0.14419-1.2497 0.6729-1.2497 0.6729l-0.48064 0.0961s1.0574 0.14419 1.0574 0.38451c0 0.24033 0.24033 0.8171 0.24033 0.8171z" fill="#59b56e"/>
    <path d="m269.2 140.05s0.64574-0.0339 0.61177-0.20392c-0.034-0.16993-0.3059-0.27189-0.50981-0.16993s-0.54378 0.20392-0.54378 0.20392z" fill="#338d6e" stroke="#338d6e" stroke-width=".19033px"/>
    <path d="m259.25 130.73s-1.6036 1.3364-2.5391 1.2695c-0.93545-0.0668-2.0713-0.86862-2.0713-0.86862" fill="none" stroke="#000" stroke-linecap="round" stroke-linejoin="round" stroke-width=".165"/>
    <path d="m258.12 131.47-0.93544-0.66818" fill="none" stroke="#000" stroke-linecap="round" stroke-linejoin="round" stroke-width=".165"/>
    <path d="m251.97 149.78s1.0023-0.53454 1.47-1.0691c0.46773-0.53454 0.66818-0.80181 0.66818-0.80181" fill="none" stroke="#000" stroke-linecap="round" stroke-linejoin="round" stroke-width=".165"/>
    <path d="m249.4 149.73s1.6036-1.3364 2.0713-1.47c0.46773-0.13364 0.93545-0.26727 0.93545-0.26727" fill="none" stroke="#000" stroke-linecap="round" stroke-linejoin="round" stroke-width=".165"/>
    <path d="m251.23 144.23s-0.60136-0.73499-1.5368-1.0691c-0.93544-0.33409-2.1382-0.53454-2.4054-0.40091-0.26727 0.13364-0.9595 0.4476-1.4032 1.0023-0.52678 0.65856-0.62885 0.7301-0.62885 0.7301" fill="none" stroke="#000" stroke-linecap="round" stroke-linejoin="round" stroke-width=".165"/>
    <path d="m250.15 142.33s-1.0524-0.13363-1.6871 0.0668c-0.81851 0.0835-1.8876 0.7517-1.8876 0.7517" fill="none" stroke="#000" stroke-linecap="round" stroke-linejoin="round" stroke-width=".165"/>
    <path d="m245.19 144.45c-0.0755-0.0755 0.297-1.5572 0.50113-2.1549 0.20487-0.59987 0.73499-1.4032 1.4032-1.8041 0.66818-0.4009 1.2695-1.2027 1.3364-1.5368 0.0668-0.33409 0-0.60136 0-0.60136" fill="none" stroke="#000" stroke-linecap="round" stroke-linejoin="round" stroke-width=".165"/>
    <path d="m244.28 138.68s0.33409-0.20045 0.60136-0.73499 0.46772-1.1359 0.93544-1.3364l0.46772-0.20045" fill="none" stroke="#000" stroke-linecap="round" stroke-linejoin="round" stroke-width=".165"/>
    <path d="m265.08 131.89s1.8662 2.1025 2.2442 2.575c0.37798 0.47247 1.2284 2.5513 1.6064 2.9293 0.37796 0.37797 0.75594 1.1339 0.75594 1.1339" fill="none" stroke="#000" stroke-linecap="round" stroke-linejoin="round" stroke-width=".165"/>
    <path d="m254.84 149.48s0.7684 0 0.90203-0.16705c0.13364-0.16704 0.80181-0.0334 0.93545-0.16704 0.13363-0.13364 0.96885-0.43431 1.2027-0.46772 0.23386-0.0334 0.23386-0.20045 0.53454-0.26727 0.30068-0.0668 0.96885-0.13364 1.0357-0.30068 0.0668-0.16704 0.70158-0.46772 1.0023-0.46772s0.36749-0.13364 0.60135-0.26727c0.23387-0.13364 1.0023-0.30068 1.3698-0.46772 0.3675-0.16705 0.46772-0.50113 1.0023-0.53454 0.53454-0.0334 0.86862-0.43431 0.86862-0.43431" fill="none" stroke="#000" stroke-linecap="round" stroke-linejoin="round" stroke-width=".065"/>
    <path d="m259.02 149.58s0.96885-0.50113 1.2361-0.63476c0.26727-0.13364 1.2027-0.0334 1.3698-0.30068 0.16704-0.26727 0.50113-0.33409 0.66817-0.4009 0.16704-0.0668 0.53454-0.36751 0.73499-0.40091s0.60136-0.33409 0.60136-0.33409 0.63476-0.46772 0.83522-0.36749c0.20045 0.10022 0.4009-0.10023 0.56794-0.23386 0.16704-0.13364 0.83521-0.20046 0.86863-0.33409" fill="none" stroke="#000" stroke-linecap="round" stroke-linejoin="round" stroke-width=".065"/>
    <path d="m254.87 148.37c0.16704-0.0668 0.60136-0.13363 0.7684-0.0668 0.16704 0.0668 0.70158-0.0668 0.86862-0.20046 0.16705-0.13363 1.2027-0.36749 1.5034-0.4009 0.30067-0.0334 1.1025-0.43431 1.1025-0.43431" fill="none" stroke="#000" stroke-linecap="round" stroke-linejoin="round" stroke-width=".065"/>
    <path d="m262.86 132.4s-0.13363 0.13363 0.0334 0.23386c0.16705 0.10022 0.50114 0.13363 0.50114 0.13363s-0.3675 0.0668-0.20046 0.20045c0.16705 0.13364 0.3675 0.16705 0.3675 0.16705s-0.23386 0-0.13364 0.13363c0.10023 0.13364 0.43432 0.10023 0.30068 0.23386-0.13363 0.13364 0.10023 0.43432 0.10023 0.43432s-0.26727-0.0668-0.20045 0.16704c0.0668 0.23386 0.36749 0.4009 0.36749 0.4009s0-0.13363-0.0668 0.10023 0.16705 0.3675 0.16705 0.3675-0.0334 0 0.0334 0.13363c0.0668 0.13364 0.20043 0.50114-0.0668 0.60136-0.26727 0.10023-0.33408 0.36749-0.20043 0.36749 0.13363 0 0.16704 0.3675-0.0334 0.3675-0.20045 0-0.40091-0.13364-0.43431 0.0334s0.13363 0.4009 0.13363 0.4009-0.23386-0.16704-0.3675 0c-0.13363 0.16705 0 0.40091 0 0.40091s0 0.43431-0.20045 0.26727c-0.20045-0.16705 0.0668-0.23387-0.20045-0.26727-0.26727-0.0334-0.46772 0.13363-0.30068 0.23386 0.16704 0.10022-0.10022-0.13364-0.20045 0.0668-0.10023 0.20045-0.30068-0.0334-0.40091 0.13363-0.10022 0.16704-0.0668 0.33409-0.30067 0.23386-0.23386-0.10023-0.33409 0.13363-0.33409 0.13363s0.10023-0.13363-0.16704-0.16704c-0.26727-0.0334-0.33409 0.13364-0.33409 0.13364s0.10023-0.20046-0.0668-0.30068c-0.16704-0.10023-0.36749 0.0334-0.36749 0.0334s0.13363 0.0334-0.0334-0.13364c-0.16705-0.16704-0.33409-0.0334-0.33409-0.0334s0.16704-0.10022-0.10022-0.30068c-0.26728-0.20045-0.28398 0.0334-0.36751 0.13363 0 0-0.0334-0.0835 0.0334-0.21715 0.10021-0.0334-0.0334-0.16705-0.0334-0.16705s-0.0167-0.0334-0.21716-0.0668c-0.20045-0.0334 0.13364-0.16705 0-0.26728-0.33408-0.0501 0.0167-0.30068-0.36749-0.33409-0.13364 0.0334 0.0835-0.28397-0.0501-0.4176-0.13364-0.13364-0.3675-0.13364-0.3675-0.13364s0.10022 0.0668 0.20045-0.16704c0.10023-0.23386-0.13364-0.33409-0.13364-0.33409l-0.10022-0.13363s0.23386 0.13363 0.23386-0.13364-0.20045-0.36749-0.20045-0.36749" fill="none" stroke="url(#b)" stroke-linecap="round" stroke-linejoin="round" stroke-width=".065"/>
    <path d="m258.1 144.28s0.0834 0.1853 0.25024 0.19451c0.16678 9e-3 0.18525-0.20391 0.18525-0.20391s0.0881 0.16213 0.20854 0.1621c0.12044-2e-5 0.22233-0.14833 0.22233-0.14833s-5e-3 0.14362 0.16682 0.12968c0.17142-0.0139 0.1621-0.20853 0.1621-0.20853s0.0418 0.15288 0.21315 0.13893c0.17141-0.0139 0.23159-0.19466 0.23159-0.19466" fill="none" stroke="#000" stroke-linecap="round" stroke-linejoin="round" stroke-width=".065"/>
    <path d="m263.35 144.79s0.0945 0.16536 0.28348 0.0709c0.18899-0.0945 0.16537-0.23624 0.16537-0.23624s0.0472 0.14174 0.25985 0.11812c0.21261-0.0236 0.25986-0.25986 0.25986-0.25986s0.0945 0.14174 0.28348 0.0709c0.18899-0.0709 0.23625-0.25986 0.23625-0.25986s0.0945 0.0945 0.25984 0.0472c0.16537-0.0472 0.25988-0.21261 0.25988-0.21261s0.23622 0.16536 0.42521 0.16536 0.11811-0.28348 0.11811-0.28348" fill="none" stroke="#000" stroke-linecap="round" stroke-linejoin="round" stroke-width=".065"/>
    <path d="m255.58 137.42s-0.21261 0.18899-0.37797 0.0472c-0.16537-0.14174-0.0709-0.47247-0.0709-0.47247s-0.16536 0.25986-0.35435 0.14174c-0.18899-0.11811-0.23623-0.47246-0.23623-0.47246s-0.21261 0.23623-0.37798 0.11811c-0.16536-0.11811-0.21261-0.47247-0.21261-0.47247s0 0.4016-0.18899 0.30711c-0.18899-0.0945-0.21261-0.4016-0.21261-0.4016" fill="none" stroke="#000" stroke-linecap="round" stroke-linejoin="round" stroke-width=".065"/>
    <path d="m251.87 130.09s-0.11812 0.21262 0.0472 0.30711c0.16536 0.0945 0.4016-0.14174 0.4016-0.14174s-0.21261 0.25986-0.0945 0.35435c0.11811 0.0945 0.44884-0.0709 0.44884-0.0709s-0.23623 0.16537-0.11811 0.25986c0.11811 0.0945 0.25985-0.0472 0.25985-0.0472" fill="none" stroke="#000" stroke-linecap="round" stroke-linejoin="round" stroke-width=".065"/>
    <path d="m266.61 138.17s0.1181 0.16521 0.28333 0.14166c0.16522-0.0236 0.14166-0.23611 0.14166-0.23611s0.11811 0.14166 0.23613 0.1181c0.11811-0.0236 0.18888-0.18888 0.18888-0.18888s0.0236 0.14166 0.18889 0.0944c0.16521-0.0471 0.11811-0.23611 0.11811-0.23611s0.0708 0.14166 0.23611 0.0944c0.16521-0.0471 0.1889-0.23611 0.1889-0.23611" fill="none" stroke="#000" stroke-linecap="round" stroke-linejoin="round" stroke-width=".064966"/>
    <path d="m262.2 142.84s0.0939 0.1802 0.26098 0.17984c0.16703-5e-4 0.17326-0.21419 0.17326-0.21419s0.0973 0.15682 0.21749 0.14988c0.12025-7e-3 0.21346-0.16082 0.21346-0.16082s4e-3 0.14364 0.17398 0.11989c0.17034-0.0237 0.14988-0.21747 0.14988-0.21747s0.0505 0.15023 0.22076 0.12649c0.17033-0.0237 0.22005-0.20762 0.22005-0.20762" fill="none" stroke="#000" stroke-linecap="round" stroke-linejoin="round" stroke-width=".065"/>
    <path d="m270.35 143.46s0.0686 0.23335-0.11341 0.28928c-0.18206 0.0559-0.36073-0.22637-0.36073-0.22637s0.15044 0.30016 0.0145 0.36645c-0.13596 0.0663-0.42236-0.16762-0.42236-0.16762s0.1942 0.21316 0.0582 0.27944c-0.13596 0.0663-0.24317-0.10304-0.24317-0.10304" fill="none" stroke="#000" stroke-linecap="round" stroke-linejoin="round" stroke-width=".065"/>
    <path d="m254 144.26s0.0322 0.15611 0.15824 0.19172c0.12612 0.0354 0.17671-0.12437 0.17671-0.12437s0.0397 0.13918 0.13187 0.15977c0.0922 0.0206 0.19557-0.0755 0.19557-0.0755s-0.0284 0.10907 0.10548 0.12781c0.1336 0.0187 0.15978-0.13187 0.15978-0.13187s5e-3 0.12418 0.13937 0.14283c0.13358 0.0187 0.21058-0.10936 0.21058-0.10936" fill="none" stroke="#000" stroke-linecap="round" stroke-linejoin="round" stroke-width=".050982"/>
  </g>
</svg>