<?xml version="1.0" encoding="utf-8"?>
<svg width="117.21" height="115.78" version="1.1" viewBox="0 0 31.01169 30.633713" xmlns="http://www.w3.org/2000/svg">
  <defs>
    <radialGradient id="oobom" cx="152.03" cy="87.924" r="15.506" gradientTransform="matrix(1.1136 -.51159 .50699 1.1036 -61.418 70.009)" gradientUnits="userSpaceOnUse">
      <stop stop-color="#4c5550" offset="0"/>
      <stop stop-color="#4c5550" stop-opacity="0" offset="1"/>
    </radialGradient>
    <radialGradient id="lunfj" cx="152.68" cy="83.634" r=".35645" gradientTransform="matrix(1.0994 0 0 1.0208 -15.214 -1.7797)" gradientUnits="userSpaceOnUse">
      <stop offset="0" style="stop-color: rgb(255, 232, 220);"/>
      <stop stop-opacity="0" offset="1" style="stop-color: rgb(143, 109, 91);"/>
    </radialGradient>
    <radialGradient id="feldz" cx="152.26" cy="83.89" r=".85298" gradientTransform="matrix(1.120791, 0.001734, -0.002016, 1.303194, -18.226528, -25.701547)" gradientUnits="userSpaceOnUse">
      <stop stop-opacity="0" offset="0" style="stop-color: rgb(191, 57, 0);"/>
      <stop offset="1" style=""/>
    </radialGradient>
  </defs>
  <g transform="translate(-105.49 -107.21)">
    <g transform="translate(-28.726 41.955)">
      <g>
        <path d="m165.14 80.572c0 8.4132-6.9047 15.234-15.422 15.234-8.5176 2.8e-4 -15.423-6.8196-15.423-15.233-5.6e-4 -8.4132 6.9037-15.234 15.421-15.235 8.5176-8.3e-4 15.423 6.8186 15.424 15.232-1e-3 -0.53617-8e-3 0.42347 0 2e-3z" fill="#aea49c"/>
        <path d="m165.14 80.57c0 8.4132-6.9047 15.234-15.422 15.234-8.5176 2.8e-4 -15.423-6.8196-15.423-15.233-5.6e-4 -8.4132 6.9037-15.234 15.421-15.235 8.5176-8.3e-4 15.423 6.8186 15.424 15.232-1e-3 -0.53616-8e-3 0.42347 0 2e-3z" fill="url(#oobom)" stroke="#000" stroke-linecap="round" stroke-linejoin="bevel" stroke-width=".166"/>
      </g>
      <path transform="scale(.26458)" d="m584.31 249.89c-0.57982 0.381-1.0787 0.74236-1.3613 1.0957-0.71429 0.89285-1.9629 2.0536-2.5879 2.5-0.62502 0.44643-1.7868 2.9467-2.6797 3.4824-0.89283 0.53571-1.1607 1.1596-1.875 2.3203-0.71429 1.1607-2.6777 2.9464-3.3027 3.75-0.62498 0.80357-1.8753 3.9294-2.8574 4.8223-0.98215 0.89285-2.5003 2.6777-2.8574 3.3027-0.35717 0.62499-0.53516 2.5-0.53516 2.5s-0.35742-2.4107-1.6074-3.125c-1.25-0.71429-2.2324-0.98243-2.2324-0.98243s1.7854 2.1431 1.5176 2.8574c-0.26796 0.71427-0.52539 1.0918-0.52539 1.0918 0.1081-1.7995-0.0348-0.54362-0.30273-1.2344-0.8036-2.1429-3.6641-1.9805-3.6641-1.9805l0.83203 2.748-2.5684-1.3535 0.16211 0.72461-0.71875 0.89648-1.1504-1.3379s-0.3672 0.98074-0.0996 1.3379c0.26797 0.35713 0.26758 0.625 0.26758 0.625l-2.9453-4.9102c-0.80356-1.3393-2.4127-5.0006-3.752-6.3398-1.3393-1.3393-2.7676-3.1247-3.3926-4.6426-0.53032-1.2879-1.9741-4.7762-2.6875-6.6562-8.7358 3.6123-16.39 9.2655-22.355 16.355 0.0141 0.224 0.0327 0.83292 0.043 0.92578 0.0892 0.80357 1.4288 3.3033 1.6074 4.6426 0.1784 1.3393 0.89229 3.2151 0.53516 3.5723-0.35716 0.35717 0.53636 3.1253 0.0898 4.1074-0.4464 0.98214-0.0889 2.678 0.35743 3.6602 0.44643 0.98214 0.62582 4.5536 1.0723 5s3.4816 3.214 4.2852 3.3926c0.80356 0.17858 1.4277 2.0547 1.4277 2.0547s-0.0886 0.089-2.4102-0.35742c-0.94708-0.12744-2.5873-0.40631-2.7676-0.55859 0 0-0.0666 0.33508 0.35742 0.82617 0.71426 0.625 2.7678 1.3398 3.125 1.3398s-0.0672 0.0893-2.2324 0c-1.7634-0.40178-3.1035-0.51367-3.1035-0.51367s0.24595 0.51312 1.1387 1.0488c0.89288 0.53572 2.1426 0.73633 2.1426 0.73633s-1.2277-0.0662-3.125-0.0215c-0.58038 0.17859-1.9414-0.0234-1.9414-0.0234s0.35659 0.75976 1.1602 1.3848c0.49197 0.38265 1.0834 0.41549 1.4883 0.38867-0.53138 0.0681-2.432 0.31412-3.2949 0.39258-0.98215 0.0893-2.1445 0.17774-2.1445 0.17774s1.0714 1.0723 1.875 1.0723h1.4297s-1.6959 0.53599-3.5039 0.98242c-1.6741 0.33483-3.125 1.8965-3.125 1.8965s1.1373-0.37833 2.1641-0.28906c1.1607 0.17858 1.6524 0.51171 1.6524 0.51171s-3.0801 0.73745-3.7051 1.541c-0.62498 0.80358-1.9199 2.7676-1.9199 2.7676s0.71481-0.57981 2.2773-1.1602c0.80357-0.0893 0.80274 0 0.80274 0s-2.4994 3.4819-4.2852 4.0176c-1.7743 0.53229-4.0682 2.8183-4.0977 2.8477 2.4e-4 1e-3 2e-3 3e-3 2e-3 4e-3 0.0208-0.012 2.3133-1.334 3.291-1.334 0.98215 0 1.9648 0.44726 1.9648 0.44726l-5.0117 2.2461c9e-3 0.0448 0.0165 0.09 0.0254 0.13476l1.2363 0.38672-0.9336 1.0215c5.7804 25.789 29.051 45.083 56.898 45.082 6.4134-2.1e-4 12.578-1.0396 18.35-2.9297-0.41841-1.0802-0.83203-2.1949-0.83203-2.3711 0-0.35713 1.1602 0.17968 1.1602 0.17968l-2.1426-3.4824 1.875 0.26758-1.6074-5.0898s0.71483 0.1797 1.3398-0.44532c0.62498-0.62499-0.26758-2.8e-4 -0.26758-0.98242 0-0.98215 0.17839-1.608 1.25-2.3223 1.0714-0.71429 1.4701-1.3235 1.875-1.25 1.1799 0.21399 2.3223 0.53711 2.3223 0.53711s0.71399 0.26732 2.1426-0.0899c1.4286-0.35716 4.286-1.1604 4.7324-1.5176 0.44643-0.35712 0.44531-0.89257 0.44531-0.89257s0.44586-3e-4 1.1602-0.35743c0.71426-0.35712 2.68-1.0276 3.0371-1.3848 0.35717-0.35713 1.2497-0.8297 1.5176-0.84766 0.26797-0.35716 0.44642-1.1604 0.625-1.5176 0.1784-0.35712 0.66854-1.0282 0.75781-1.4746 0.0892-0.44643 0.0906-1.2932-0.71289-2.2754-0.80356-0.98213-2.0098-2.322-2.6348-3.2148-0.62502-0.89285-1.786-3.2148-2.2324-3.8398-0.44644-0.62501-2.2316-3.3926-2.4102-4.0176-0.17877-0.625-0.0901-2.322-0.17969-3.2148-0.0892-0.89286-0.44641-1.6959-0.625-2.4102-0.17839-0.71428-0.44531-1.339-0.44531-2.1426 0-0.80357 0.17865-1.5176 0.35742-2.1426 0.1784-0.625 0.89258-1.6967 0.89258-2.2324 0-0.53571 0.9375-2.3652 0.9375-2.3652l-1.2949 0.22265 0.84765-1.8301-1.3828 0.3125s-0.40329-0.3136 0.40039-1.1172c0.80357-0.80357 0.44727-1.7852 0.44727-1.7852s-2.1869 1.7402-2.0977 1.1152c0.0892-0.625 1.9199-3.0352 1.9199-3.0352l-1.7871 0.35742-0.86132 1.0898c0.23899-0.32388 0.68245-1.0789 0.90625-2.5176 0.31256-0.62503 0.98242-1.5625 0.98242-1.5625s-1.786-0.0449-2.2324 0.58007c-0.44644 0.62501-0.71485 1.6953-0.71485 1.6953s0.53737-2.0979 0.89453-3.0801c0.35717-0.98215 0.89258-1.3398 0.89258-1.3398s-1.3402-0.26675-1.6973 0.17969c-0.35717 0.44643-0.71485 2.0078-0.71485 2.0078s-0.66966-2.8555 1.25-4.1055c-0.17839-0.89286-0.71289-1.966-0.71289-2.7695 0-0.80358 0.53599-1.428 0.98242-2.4102 0.4464-0.98214 1.5179-2.4107 1.875-3.125 0.35717-0.71428 2.6777-5.7148 2.6777-5.7148l-0.98242 0.625s1.25-4.1953 1.25-5.4453 0.44614-3.6616 0.89257-5.4473c0.44644-1.7857 1.4289-7.8566 0.98243-8.6602-0.44644-0.80357-0.35743-1.25-0.35743-1.25l0.71485-0.625s-0.17926-1.5187-0.44727-2.3223c-0.16613-0.49821-0.31924-0.89234-0.3789-1.291-4.4327-3.0054-9.3094-5.4134-14.51-7.125z" fill="#ffe6d5" stroke="#000" stroke-linecap="round" stroke-linejoin="bevel" stroke-width=".6274"/>
      <path transform="scale(.26458)" d="m542.96 251.77c-2.6943 1.1458-5.2618 2.5755-7.7277 4.0932 1.2849 0.61415 2.3402 0.99274 1.7899 0.99274-0.46 0-1.4232-0.11511-2.6434-0.42885-0.37001 0.23827-0.86941 0.55115-1.2335 0.79744 0.71936 0.61228 1.0546 0.78369 1.4785 1.147 0.88388 0.75761 2.5254 0.75781 2.5254 0.75781h-2.7774s-1.8937-1.1364-1.3887 0c0.5051 1.1364 4.293 2.2734 4.293 2.2734l-4.9258-1.1367 1.6426 1.1367 4.166 2.3984s-1.1356-0.37901-2.0195-0.75782c-0.88388-0.3788-3.0305 0.63086-2.5254 0.63086 0.50506 0 4.041 2.0215 4.041 2.0215l-3.5371-0.88477 3.0312 2.1465-5.5547-1.1367 4.293 2.5254h-1.6426l1.1367 1.2637-2.5254-0.12695 2.1465 1.2637-2.7773 0.5039s1.7667 0.38027 3.4082 0.63282c1.6415 0.25254 3.2832 2.5254 3.2832 2.5254s-1.3889-0.75859-2.1465-1.2637c-0.75761-0.50507-5.0508-0.88476-5.0508-0.88476l1.7676 1.2637h-2.0195l3.5352 1.3887-5.5566-0.75781 3.7891 0.88477-2.6524 0.88281h3.1582c1.6415 0 3.1562 0.88476 3.1562 0.88476l-3.0312-0.25195 1.1367 0.63086-4.7988-0.25195 2.9043 1.1348-1.7676 0.50586 3.0312 0.37891-2.1465 0.63086 3.7871 1.2637-4.9238 0.25195 3.1562 1.6406-1.1367 0.2539 3.6621 1.8926-3.4082 0.63281 5.0508 0.88282-3.1582 0.2539s0.6325 0.25196 2.0215 0.25196c1.3889 0 2.1465 1.6406 2.1465 1.6406l-1.7676 0.88477 2.2715-0.25196-0.75781 1.1348 3.5371 1.7676-2.5254 0.63281 3.7871 2.0195s-0.37793 0.50459-1.6406 0.63086c-1.2627 0.12626-2.5254-0.75781-2.5254-0.75781l1.1367 2.6523 2.7773 2.2734s1.3892-0.7583 0.75782-0.12695c-0.63134 0.63134-2.4004 0.50586-2.4004 0.50586s-1.0093 1.3876-1.6406 2.2715c-0.63137 0.88389-2.0195 2.7793-2.0195 2.7793s2.5238-0.63232 4.0391-1.2637c1.5152-0.63134 2.6524-1.7676 2.6524-1.7676s-0.12657 0.63184-1.1367 1.8945c-1.0102 1.2627-2.9043 2.1465-2.9043 2.1465l0.75781 0.37891-2.0195 1.2617-0.50586 2.1465 1.0098-1.2617s1.7694-0.7584 3.5371-0.50586 1.766 1.5157 3.2812 1.8945c1.5152 0.3788 3.6625-0.75654 5.1777-0.88282 1.5152-0.12626 4.5452-2.7795 5.6816-3.5371 1.1364-0.75761 2.9044-2.6515 3.2832-4.293 0.37879-1.6415 2.2734-2.777 2.2734-3.7871s-1.1368-8.7132-1.5156-9.8496-4.5464-5.8076-5.1777-7.0703c-0.63137-1.2627-4.5456-8.2079-4.6719-9.0918-0.12628-0.88388-3.1563-4.9247-3.5352-5.8086-0.37882-0.88389-2.0197-4.4194-2.7773-5.0508-0.2219-0.80991-1.0112-3.7882-1.6426-5.4297-0.47257-1.2286-0.85724-2.3536-1.2595-3.3184z" fill="#fff"/>
      <path transform="scale(.26458)" d="m543.39 251.63c-0.14835 0.0615-0.29369 0.1064-0.4414 0.16909 0.0526 0.14227 2.317 6.2544 2.4936 7.4905 0.1784 1.25 3.0374 5.3582 3.3945 7.0547 0.35717 1.6964 1.6055 5.3574 1.6055 5.3574l0.89453-1.1621s-0.26953 0.98297-0.26953 1.6973c0 0.71428 0.53711 2.1426 0.53711 2.1426l0.53516-0.80273s0.26741 2.4096 0.53515 2.9453c0.26797 0.53572 0.80469 1.25 0.80469 1.25l0.35742-0.80274s0.35577 2.5896 0.71289 2.8574c0.35717 0.26785 0.625 0.98046 0.625 0.98046l0.80469-0.53515s0.17709 0.80412 0.0879 1.3398c-0.0892 0.53571-0.71289 0.625-0.71289 0.625s0.44587 1.161 1.1602 0.98242 1.6953 0.17774 1.6953 0.17774l0.17969 1.0723 0.625-0.35742-0.0898 1.9648 1.1621-0.625 0.26758 2.4102 0.98242-0.26758 0.35743 2.7676s-0.0897 1.4289-0.71485 1.6074c-0.62502 0.17859-1.25 0.71289-1.25 0.71289l2.9453-0.35546-1.3379 1.5176 1.4277 1.0703-1.7852 1.5176 0.80274 2.0547-2.1426-1.0723-0.44531 1.0723 0.71289 2.2324s0.0906 1.8742-0.71289 2.6777c-0.80361 0.80357-2.2338 2.0547-3.3945 2.6797-1.1607 0.625-3.6602 2.5-3.6602 2.5l1.25-1.9648s-1.0712 1.2494-2.1426 1.7852c-1.0715 0.53572-3.3027 1.4297-3.3027 1.4297l1.6055-3.3945-3.125 1.5195 2.1426-3.5723-3.6602 1.5176s-2.8569 1.5176-3.3926 2.1426c-0.53571 0.62499-2.6777 2.4121-2.6777 2.4121s5.0882-1.6967 4.1953-0.35743c-0.89284 1.3393-3.9277 6.25-3.9277 6.25s4.4648-3.6621 6.3398-3.6621c1.875 0 1.0703 0.44727 1.0703 0.44727s-2.3217 1.25-2.2324 2.5c0.0892 1.25 0.26757 2.5898 0.26757 2.5898s3.036-2.0541 4.7324-1.9648c1.6964 0.0893 1.0723 0.44727 1.0723 0.44727s-0.44586-8.4e-4 -1.1602 1.4277c-0.71426 1.4286-0.44727 2.5898-0.44727 2.5898s3.125-1.7863 5-2.5898c1.875-0.80357 3.9278-1.4291 4.5527-1.3398 0.62502 0.0893 4.2863 0.35823 5.7148 0.17968 1.4286-0.17858 3.75-0.0893 4.375 0 0.62498 0.0893-1.5176 0.53516-1.5176 0.53516s0.80386 0.53516 1.6074 0.53516c0.80357 0 1.1602 0.53711 1.1602 0.53711l-1.1602 0.17773s1.6074 0.53516 2.2324 0.53516c0.62499 0 0.53516 0.625 0.53516 0.625l0.80273 0.0898 0.0898 1.0723h1.4297l-0.80469 1.1602 2.3223-0.53515s0.44576 0.71429-0.0898 1.25c-0.53571 0.53572-0.625 0.53515-0.625 0.53515s1.1607-0.17802 1.875-0.53515 1.25-0.53711 1.25-0.53711 0.53654 0.17914 0.44727 0.71484c-0.0892 0.53572 0 0.53516 0 0.53516l1.0703-1.0703 0.71484 0.71289 0.98242-0.53515 1.1602 0.80469 1.0723-0.71485s0.53515 0.0899 0.53515 0.71485c0 0.625 1.5172 1.7854-0.0898 2.7676-1.6072 0.98214-1.4286 1.6063-3.75 2.0527-2.3214 0.44643-3.661 0.44753-5.3574 0.17969-1.6964-0.26786-4.1953-0.89258-4.1953-0.89258s8.2146 2.142 9.1074 2.6777c0.89287 0.53571 2.3203 3.3926 2.3203 3.3926s3.6602 0.89286 4.9102 0c1.25-0.89285 2.1443-1.4286 3.0371-1.875 0.89288-0.44642 4.911 0.89342 5.9824 0.71484s1.875-0.98242 1.875-0.98242-1.0714-2.0538-4.375-4.1074c-3.3036-2.0536-3.4838-3.5706-3.3945-4.5527 0.0892-0.98214 0.98243-2.055 0.98243-3.0371s0.44726-5.8027 0.44726-5.8027 1.2506 5.2676 1.9648 5.8926c0.71429 0.625 1.1599 2.3225 1.4277 2.6797 0.26797 0.35713 2.3209 2.6774 2.3209 2.6774l-1.2486-2.7673v-2.8574c0-0.44643-0.62668-2.2327-0.89454-3.2148-0.0758-0.27771-0.11049-0.59127-0.12695-0.91211-0.031-0.19314-0.0508-0.39215-0.0508-0.60547 0-0.48225 0.07-0.92198 0.16016-1.3398 6e-3 -0.0464 0.0118-0.13762 0.0176-0.17774 0.017-0.11935 0.0871-0.32668 0.15625-0.53125 8e-3 -0.0296 0.0151-0.0645 0.0234-0.0938 4e-3 -0.013 0.0134-0.0315 0.0176-0.0449 0.2935-0.81765 0.7705-1.8655 0.83008-1.9961 0.0127-0.0622 0.0449-0.13868 0.0449-0.19141 0-0.30891 0.27706-0.96274 0.54102-1.5332l0.26171-0.78711h-0.12695l-1.0332 0.17773 0.12109-0.26172 0.50391-1.3457h-0.76172l-0.39844 0.0898s-0.0303-0.0347-0.0586-0.0898h-0.0312v-0.12305c-4e-3 -0.0268-2e-3 -0.0513 0-0.084v-0.23828l0.16406-0.18164c0.0766-0.11827 0.17392-0.24816 0.32617-0.40039 0.15419-0.15419 0.25645-0.31356 0.33594-0.47266l0.15234-1.1523c-3e-3 -0.0132-3e-3 -0.01-6e-3 -0.0215l-0.89062 0.48633c-0.62384 0.44408-1.2962 0.86822-1.2422 0.49023 0.0145-0.10163 0.0865-0.26145 0.17774-0.43945v-6e-3l0.0195-0.0312c0.32235-0.61521 0.80431-1.293 1.2109-1.8496l0.28907-0.4414-1.6074 0.17968-0.53516 0.64258-0.2832 0.35742c0.0149-0.0202 0.0363-0.0584 0.0527-0.082l-0.12695 0.15235s0.18399-0.27388 0.35351-0.53907c0.22226-0.42535 0.47447-1.0687 0.62696-2.0488 0.26972-0.53937 0.73905-1.2106 0.88086-1.4121l-0.0312-0.15039c-0.32643-6.7e-4 -1.6695 0.0295-2.082 0.56445-0.0221 0.0366-0.0444 0.0605-0.0664 0.10156-0.025 0.0381-0.0446 0.0826-0.0684 0.12305-0.2676 0.55011-0.50586 1.3086-0.50586 1.3086s0.10278-0.38779 0.14453-0.55078c-0.1484 0.3974-0.23633 0.72852-0.23633 0.72852s0.53737-2.0979 0.89453-3.0801c0.0426-0.117 0.0923-0.19715 0.13868-0.29688 0.011-0.0227 0.0292-0.0871 0.0391-0.10351 8e-3 -0.0137 0.0188-0.0272 0.0273-0.041 0.23562-0.45567 0.41909-0.65353 0.54297-0.75976 0.0447-0.0559 0.10179-0.12868 0.11328-0.14258-0.0413-8e-3 -0.71588-0.13672-1.2266-0.0352-0.15265 0.041-0.33157 0.17788-0.49219 0.32031-0.33829 0.52438-0.66211 1.9062-0.66211 1.9062s-0.27338-1.2224 0.0664-2.418c9e-3 -0.0281 0.0186-0.0555 0.0293-0.084 0.16217-0.52325 0.43749-1.0336 0.92578-1.4297 0.0309-0.0349 0.14062-0.17382 0.14062-0.17382l-0.28711-1.2676c-0.17547-0.53082-0.33702-1.0552-0.33789-1.498v-4e-3c0-6e-3 1e-3 -1.7853 0.625-2.0527 0.62502-0.26786-1.0712-1.0714-2.1426-0.625-1.0714 0.44643-1.6973 0.80469-1.6973 0.80469l0.53711-2.6797-1.7871 1.25-0.0879-2.9453-1.1621 1.1602-0.17774-2.8574 1.5176-1.4277-1.6074-0.35742 0.26758-1.0723 2.5898-1.0723-1.9648-0.89257 2.7676-0.98243-1.875-0.35546 2.5-1.6074-1.9629-0.35742 2.3203-2.2324-1.5176 0.17773s4.3742-2.231 4.5527-3.5703c0.1784-1.3393-0.0879-1.7852-0.0879-1.7852s-0.89371 1.4269-2.3223 1.6055c-1.4286 0.17859 1.4297-1.875 1.4297-1.875l-3.75 0.98243 4.2852-4.1953-3.9297 1.3379 1.25-4.2852-2.3203 3.9297-2.0547-3.6621 0.0898 5.2676s-0.53545 0.17943-0.89258-1.4277c-0.35717-1.6071-0.35742-1.6973-0.35742-1.6973s-1.6953 0.80386-1.6953 2.2324v3.2148l-1.9648-3.5723s-1.2495 2.0541-1.1602 3.2148c0.0892 1.1607 0.35546 2.6797 0.35546 2.6797l-1.875-2.5-0.26757 1.9629-1.6953-1.25-0.0898 2.4121-1.1602-0.80469-0.71484 3.5723-2.0527-2.8574s-0.80388 0.44616-0.98243 0.89258c-0.17877 0.44643-0.35742 2.0527-0.35742 2.0527l-1.1602-2.0527-0.26954 1.6973-1.3379-2.5-0.35742 1.875-1.3398-1.5195s-0.12034-0.38201-0.21485-0.68554c-0.0151 0.13149-0.0547 0.41797-0.0547 0.41797s-0.18638-1.2114-0.73828-2.1719c-0.24167-0.24644-0.52768-0.59803-0.79883-0.89648-0.0251-0.0162-0.0445-0.0419-0.0703-0.0566-0.60942-0.34825-1.1494-0.58737-1.5488-0.74414-0.18297-0.0555-0.50196-0.14844-0.50196-0.14844s0.56427 0.72271 0.875 1.3887c0.32389 0.5356 0.5726 1.0811 0.46094 1.3789-0.0271 0.0721-0.0476 0.0988-0.0742 0.16406-5e-3 0.0341-3e-3 0.0697-0.0117 0.10351-0.0423 0.16938-0.146 0.33747-0.24218 0.46875-0.114 0.22006-0.19727 0.35547-0.19727 0.35547 4e-3 -0.0657 3e-3 -0.0672 6e-3 -0.125-8.7e-4 8.9e-4 -0.0137 0.0156-0.0137 0.0156s-0.0881-0.62388-0.44531-1.0703c-0.35717-0.44643-1.0717-1.341-1.6074-1.5195-0.53571-0.17858-1.6973-0.44531-1.6973-0.44531l0.80469 2.5898-0.35743 0.44531-2.1426-1.4277-0.10547 0.36524 0.0176 0.0762-0.0606 0.0762-0.0312 0.10742-0.53516 0.80274-1.25-1.0703-0.15625 0.31445c-0.0382 0.25278-0.0487 0.51496 0.0644 0.66601 0.26797 0.35713 0.26758 0.625 0.26758 0.625l-0.62109-1.0352-0.26953 0.0547s-4.0184-7.2324-4.4648-7.8574c-0.44643-0.62499-0.53487-1.5187-2.0527-2.9473s-2.7676-3.8398-2.7676-3.8398l-1.9648-5z" fill="#f95"/>
      <path transform="scale(.26458)" d="m584.08 250.11c-0.57982 0.381-0.85769 0.52139-1.1404 0.87473-0.71429 0.89285-1.9629 2.0536-2.5879 2.5-0.62502 0.44643-1.7868 2.9467-2.6797 3.4824-0.89284 0.53571-1.1607 1.1596-1.875 2.3203-0.71429 1.1607-2.6777 2.9464-3.3027 3.75-0.62499 0.80357-1.8753 3.9294-2.8574 4.8223-0.98214 0.89285-2.5003 2.6777-2.8574 3.3027-0.2665 0.46634-0.39932 1.4243-0.46679 1.9844v0.50195l1.1367 1.0098 0.37891-1.3887s0.25276-1.8947 0.75781-2.6524c0.5051-0.75762 2.2723-2.9051 2.7774-3.4102 0.50509-0.50507 2.6519-3.7872 3.2832-4.166 0.63133-0.3788 3.284-4.6728 3.7891-5.5566 0.50506-0.88388 2.2718-2.1461 3.4082-3.1562 1.1284-1.003 3.1464-3.301 3.6742-3.7071-0.51794-0.18676-0.91157-0.33872-1.4362-0.5114zm12.084 5.5752c0.0227 0.64612-0.0185 0.9255-0.17711 1.2957-0.37889 0.88388-0.63085 3.6609-0.63085 4.166 0 0.50507 0.5039-1.1367 0.5039-1.1367s0.50462 0.50547 0.63086 1.5156c0.12627 1.0102 0.25438 4.9242-0.37695 6.4394-0.63137 1.5152-1.3906 2.5254-1.3906 2.5254l1.5156-0.3789-1.3887 4.9258 1.0098-1.0098s-0.75658 1.7671-0.88281 2.3984c-0.12628 0.63134-2.4004 3.1562-2.4004 3.1562l1.5156-1.1367s-0.50547 1.264-1.5156 2.4004c-1.0102 1.1364-2.3984 3.7871-2.3984 3.7871l-0.37891-2.2734-1.8945 3.4102 0.88477 0.25195-1.5156 1.5156-0.12695 1.8945 1.7676-1.5156-0.63086 2.9043s0.88438-0.63165 1.8945-1.1367 2.3984 0.25195 2.3984 0.25195l0.0996 0.16602c0.48151-0.97204 1.4467-2.2801 1.7852-2.957 0.35717-0.71428 2.6777-5.7148 2.6777-5.7148l-0.98242 0.625s1.25-4.1953 1.25-5.4453c0-1.25 0.44617-3.6616 0.89257-5.4473 0.44644-1.7858 1.4288-7.8566 0.98243-8.6602-0.44644-0.80358-0.35743-1.25-0.35743-1.25l0.71485-0.625s-0.17915-1.5187-0.44727-2.3223c-0.16592-0.49821-0.16154-0.41883-0.44203-0.9122-0.84428-0.57242-1.7103-1.1793-2.5859-1.7077z" fill="#fff"/>
      <path transform="scale(.26458)" d="m569.29 335.8s0.0695 0.17221 0.17773 0.40235c-0.0364-0.0839-0.17773-0.40235-0.17773-0.40235zm0.17773 0.40235c0.23243 0.53573 1.0278 2.3515 1.877 3.9726 0.39241 0.74915 0.76744 1.0919 1.0801 1.2422-0.57209-9e-3 -1.2714-0.0277-1.7949-0.0801-0.89284-0.0893-2.9453-2.8574-2.9453-2.8574s0.80245 1.072 2.3203 3.2148c0.69371 0.97935 1.2116 1.3479 1.5781 1.4746-0.73608 0.0623-2.1174 0.15814-3.0058-0.0469-1.1607-0.26786-2.054-1.0709-1.9648-0.53516 0.0893 0.53571 1.3398 1.0703 1.3398 1.0703s-1.4283 0.089-2.7676-0.35743c-1.3393-0.44643-2.1445-1.1602-2.1445-1.1602s0.17858 0.26786 1.25 1.875 0.98352 0.44671 2.4121 1.6074c1.4285 1.1607 0.98242 1.5176 0.98242 1.5176l-2.7695 0.17969 1.0723 0.625s-0.62474 0.44616-1.5176 0.26757c-0.89283-0.17857-2.3223-1.1621-2.3223-1.1621l0.625 1.1621s-3.3918-0.17885-2.9453 0.26758c0.4464 0.44643-0.2685 1.964-0.44727 1.5176-0.17858-0.44642-2.053-0.98298-1.1602 0.17773 0.89277 1.1607 0.80274 2.8571 0.80274 3.75 0 0.89285-0.5349-0.98158-1.4277-1.7852-0.89283-0.80356-2.6797-0.35742-2.6797-0.35742s-1.4283-0.80218-0.89258-0.0879c0.53556 0.71428 0.44662 1.8736 0.35742 2.5879-0.0893 0.71427 1.1602 3.2148 1.1602 3.2148l-1.6055-1.5176-0.53711 2.4102s-2.6786-4.9104-2.8574-5.2676c-0.17859-0.35713-1.7852-0.53516-1.7852-0.53516s0.8043 0.80329 1.0723 1.5176c0.26774 0.71428-0.26954 3.3926-0.26954 3.3926s3.9e-4 -0.44587-0.26757-1.1602c-0.26786-0.71429-1.9645-2.2327-2.2324-2.5898-0.21434-0.28576-2.6817-1.3021-3.3984-1.6562 0.52102 0.5605 1.1757 3.0336 1.2559 4.1562 0.0835 1.1687-0.89181 1.3908-1.0234 1.416 6.7605 2.7107 14.151 4.2073 21.898 4.207 6.4134-2.3e-4 12.578-1.0396 18.35-2.9297-0.4184-1.0802-0.83204-2.1949-0.83204-2.3711 0-0.35717 1.1602 0.17968 1.1602 0.17968l-2.1426-3.4824 1.875 0.26758-1.6074-5.0898s0.71482 0.17972 1.3398-0.44532c0.62499-0.62498-0.26757-2.8e-4 -0.26757-0.98242 0-0.98215 0.17839-1.608 1.25-2.3223 0.68829-0.45887 1.0874-0.85328 1.4004-1.0723l-0.0606-0.14258-13.303-6.875 1.9629 2.9453s-2.3209-0.71288-3.6602-1.3379c-0.94926-0.44297-1.5237-1.4497-1.7871-2.0098zm-25.809 15.889c-0.0591-0.0636-0.11732-0.11981-0.17188-0.12891-0.10707-0.0178-7e-3 0.0405 0.17188 0.12891z" fill="#f95"/>
      <path d="m155.27 90.927s-1.2361-0.58465-1.8208-0.88533c-0.58466-0.30068-1.47-0.80181-1.8542-1.0023-0.3842-0.20045-1.0357-0.31738-1.7874-0.51783-0.7517-0.20045-2.489-0.23386-2.7896-0.28398" fill="none" stroke="#000" stroke-linecap="round" stroke-linejoin="round" stroke-width=".165"/>
      <path d="m157.84 90.443s-0.45102-0.20045-0.83522-0.16704c-0.3842 0.03341-1.3029 0.18375-1.6036 0.05011-0.30067-0.13364-1.2528-0.63476-1.5869-0.96885s-2.1549-1.5201-2.4221-1.5869" fill="none" stroke="#000" stroke-linecap="round" stroke-linejoin="round" stroke-width=".165"/>
      <path d="m158.94 89.892s0.16705-0.33409-0.0334-0.48443c-0.20046-0.15034-0.48443-0.18375-0.51784-0.4009-0.0334-0.21716-0.0835-0.4009 0.0668-0.56795 0.15034-0.16704 0.23386-0.35079 0.36749-0.4009 0.13364-0.05011 0.41761-0.05011 0.41761-0.05011l0.45102 0.55124 0.0167 0.41761-0.16704 0.30068-0.11693 0.31738-0.20045 0.18375-0.21716 0.11693z"/>
      <path d="m154.58 85.03s0.13359-0.16976-0.31728-0.76394c-0.45088-0.59418-0.88505-1.0186-1.2357-1.1544-0.35068-0.13581-1.0186-0.06791-1.4027-0.05093-0.38408 0.01696-0.70136 0.20372-0.95185 0.2207-0.25048 0.01697-0.21709 0.05093-0.21709 0.05093s0.23379 0.03396 0.31728 0.15279c0.0835 0.11884 0.23379 0.45837 0.35068 0.56023 0.1169 0.10186 0.36739 0.35651 0.70136 0.52627 0.33399 0.16977 0.86836 0.39046 1.3025 0.42441 0.43418 0.03395 0.75146 0 0.95185 0.01696 0.20039 0.01697 0.50097 0.01697 0.50097 0.01697z" stroke="#000" stroke-linecap="round" stroke-linejoin="round" stroke-width=".16631"/>
      <path d="m153.16 83.855c0 0.4932-0.40386 0.89302-0.90204 0.89301-0.27376-0.02362-0.90204-0.39981-0.90204-0.89301s0.40386-0.82215 0.90204-0.82214c0.49818-4e-6 0.90204 0.32894 0.90204 0.82214z" fill="#2b1100" stroke="#000" stroke-linecap="round" stroke-linejoin="round" stroke-width=".1"/>
      <path d="m141.36 86.911c-0.11812 0.4016 0.0472 0.68508-0.16536 0.73233-0.21261 0.04725-0.33073 0.16536-0.33073 0.16536l0.49609-0.11812v0.59059l0.16537-0.37798 0.14174 0.54334 0.0945-0.47247s0.28349 0.89769 0.23624 1.0867c-0.0473 0.18899-0.0709 0.3071-0.0709 0.3071s0.33073-0.94494 0.33073-1.1103c0-0.16536-0.0709 0.92132-0.14175 1.2284-0.0709 0.3071-0.21261 0.56696-0.21261 0.56696l0.37798-0.51972-0.0236 0.37798 0.18899-0.16536-0.21261 0.99219s0.44884-0.61421 0.56696-0.89769c0.11812-0.28348 0.11812-0.30711 0.11812-0.30711s-0.35435 1.2284-0.30711 1.1339c0.0473-0.0945 0.35436-0.77958 0.35436-0.77958l-0.0236 0.7087 0.49609-0.99219" fill="none" stroke="#000" stroke-linecap="round" stroke-linejoin="round" stroke-width=".065"/>
      <path d="m140.77 85.163s-0.35436 0.14174-0.77958 0c-0.42522-0.14174-0.75595-0.33073-0.75595-0.33073s0.87407-0.11812 1.2048-0.35435 0.87407-0.47247 0.87407-0.47247-0.82683 0.25986-1.1576 0.14174-0.77957-0.4016-0.77957-0.4016 0.49609 0.07087 0.99218-0.04725c0.4961-0.11812 0.94495-0.37798 0.94495-0.37798h-0.82683l0.77958-0.16536-0.68508-0.02363 0.68508-0.21261s-0.42522-0.14174-0.66146-0.07087-0.37798 0.18899-0.37798 0.18899 0.51972-0.4016 0.75596-0.47247c0.23623-0.07087 0.51971-0.07087 0.51971-0.07087" fill="none" stroke="#000" stroke-linecap="round" stroke-linejoin="round" stroke-width=".065"/>
      <path d="m143.3 79.493s0.0236-0.16536-0.18899 0.18899c-0.21261 0.35435-0.25986 0.61421-0.47247 0.73233-0.21261 0.11812-0.35435 0.3071-0.35435 0.3071s1.2757-0.25986 1.7009-0.56696l0.42523-0.3071s-0.4016 0.63783-0.68509 0.77958c-0.28348 0.14174-0.94494 0.37798-0.94494 0.37798s0.85045-0.09449 0.75596-0.09449c-0.0945 0-0.54334 0.42522-0.87407 0.44884-0.33073 0.02363-0.61421 0.16536-0.61421 0.16536l0.96856-0.11812s-0.21261-0.14174-0.30711 0.14174c-0.0945 0.28348-0.16536 0.49609-0.16536 0.49609s1.0867-0.87407 1.4883-1.0631c0.4016-0.18899 1.252-0.61421 1.252-0.61421l-0.94495 1.252s0.94495-0.44885 1.0631-0.59059c0.11812-0.14174 0.25986-0.63783 0.44885-0.73233 0.18899-0.0945 0.47247-0.16536 0.47247-0.16536s-0.44885 0.21261-0.56697 0.37798c-0.11811 0.16536-0.54334 0.96856-0.66145 1.1576-0.11812 0.18899-0.56697 0.51972-0.56697 0.51972s1.2284-0.47247 1.5119-0.75595c0.28348-0.28348 0.66146-0.59059 0.66146-0.59059l-1.0394 1.2048s1.252-0.56696 1.5828-0.8032c0.33073-0.23624 1.252-0.56696 1.252-0.56696" fill="none" stroke="#000" stroke-linecap="round" stroke-linejoin="round" stroke-width=".065"/>
      <path d="m144.32 93.455s0.75595 0.37798 0.87407 0.68508c0.11812 0.3071 0.23624 0.54334 0.23624 0.54334s0.11811-0.63784 0.0472-0.92132c-0.0709-0.28348-0.23623-0.47247-0.23623-0.47247s0.23623-0.04725 0.49609 0.35435c0.25986 0.4016 0.68508 1.4647 0.68508 1.4647l0.16537-0.77958 0.42522 0.42522s0.0236-0.28348-0.14174-0.54334c-0.16536-0.25986-0.23623-0.56696-0.18899-0.75595 0.0472-0.18899 1.1103 1.5828 1.1103 1.5828l-0.11812-0.89769 0.66146 1.2284-0.18899-0.99219 0.44885 0.63784-0.14174-0.73233s0.0472 0.16536 0.37797 0.23624c0.33073 0.07087 0.33073 0.07087 0-0.37798-0.33073-0.44885-0.35435-0.68508-0.35435-0.68508" fill="none" stroke="#000" stroke-linecap="round" stroke-linejoin="round" stroke-width=".065"/>
      <path d="m137.84 81.855s-0.51972 0.25986-0.87407 0.16536c-0.35435-0.09449-0.49609 0.02363-0.49609 0.02363s0.16536 0.28348 0.63783 0.4016 0.77958 0.07087 0.77958 0.07087l-1.1576 0.18899 1.0158 0.07087-1.0158 0.28348 0.73233-0.07087-0.44884 0.21261s-0.0709-0.02363 0.23623 0.02363c0.30711 0.04725 0.66146-0.04725 0.66146-0.04725s-0.85045 0.33073-1.1812 0.30711c-0.33073-0.02363-0.68508-0.07087-0.68508-0.07087s0.8977 0.37798 1.1812 0.37798 0.56696 0.35435 0.56696 0.35435" fill="none" stroke="#000" stroke-linecap="round" stroke-linejoin="round" stroke-width=".065"/>
      <path d="m154.88 76.398 0.47247-0.61421-0.44884 0.28348 0.0709-0.73233-0.42522 0.49609-0.16536-0.51972-0.11812 0.44885s-0.44885-0.92132-0.4016-0.66146c0.0473 0.25986-0.0472 0.61421-0.0472 0.61421" fill="none" stroke="#000" stroke-linecap="round" stroke-linejoin="round" stroke-width=".065"/>
      <path d="m152.11 74.083s0.14174-0.28348-0.0709-0.68508c-0.21261-0.4016-0.56696-1.0867-0.56696-1.0867s-0.33073 0.25986-0.35436 0.47247c-0.0236 0.21261-0.0709 0.44885-0.0709 0.44885l-0.23623-0.87407-0.11812 0.75595-0.37798-1.1339-0.0709 0.85044-0.28348-0.25986 0.0945 0.3071" fill="none" stroke="#000" stroke-linecap="round" stroke-linejoin="round" stroke-width=".065"/>
      <path d="m152.23 78.288s0.18899-0.51972-0.0236-1.0631c-0.21261-0.54334-0.44884-0.7087-0.44884-0.7087s0.18898 0.25986 0 0.51972c-0.18899 0.25986-0.37798 0.68508-0.37798 0.68508l-0.16537-0.66146-0.0945 0.66146" fill="none" stroke="#000" stroke-linecap="round" stroke-linejoin="round" stroke-width=".065"/>
      <path d="m149.44 75.288 0.25986-0.54334s0.0472 0 0.0709 0.25986c0.0236 0.25986-0.11811 0.56696-0.11811 0.56696l0.37797-0.47247v0.35435l0.0236 0.35435s-0.14174 0.16536-0.18899 0.33073c-0.0472 0.16536 0.25986 0.02363 0.25986 0.02363l0.25986-0.35435-0.25986 0.96857" fill="none" stroke="#000" stroke-linecap="round" stroke-linejoin="round" stroke-width=".065"/>
      <path d="m156.15 83.816 0.0472-1.5592s0.23623 2.4805 0.23623 2.3387c0-0.14174 0.11812-1.7009 0.11812-1.7009s-0.0236 0.51972 0.0709 0.68508c0.0945 0.16536 0.14174 0.37798 0.14174 0.37798" fill="none" stroke="#000" stroke-linecap="round" stroke-linejoin="round" stroke-width=".065"/>
      <path d="m152.06 81.123s0.0473-0.04725-0.37797-0.25986c-0.42522-0.21261-1.441-0.42522-1.441-0.42522s0.92132 0.23624 1.1339 0.42522c0.21261 0.18899 0.47247 0.42522 0.47247 0.42522s-0.47247-0.18899-0.87407-0.28348c-0.4016-0.09449 0.11812 0.11812 0.35435 0.33073 0.23624 0.21261-1.3938 0.04725-1.3938 0.04725l0.99219 0.3071s-1.5355 0.14174-1.4174 0.14174c0.11812 0 0.73233 0.09449 0.77958 0.18899 0.0473 0.0945-0.66146-0.07087-0.89769 0.07087-0.23624 0.14174-0.66146 0.4016-0.66146 0.4016" fill="none" stroke="#000" stroke-linecap="round" stroke-linejoin="round" stroke-width=".065"/>
      <path d="m147.03 82.8s-0.0945 0.4016-0.47246 0.47247c-0.37798 0.07087-0.70871 0.14174-0.70871 0.14174l1.63-0.09449-1.1339 0.85044s0.8977-0.37798 1.2048-0.37798c0.30711 0 0.47247 0.0945 0.47247 0.0945" fill="none" stroke="#000" stroke-linecap="round" stroke-linejoin="round" stroke-width=".065"/>
      <path d="m154.85 79.21c-0.0709 0.21261-0.21261 0.96857-0.21261 0.96857s0.56696-0.96857 0.54334-0.85045c-0.0236 0.11812-0.30711 1.1339-0.30711 1.1339l0.42522-0.4016s-0.23623 0.44885-0.23623 0.61421c0 0.16536 0.21261-0.14174 0.21261-0.14174" fill="none" stroke="#000" stroke-linecap="round" stroke-linejoin="round" stroke-width=".065"/>
      <path d="m139.38 75.242 1.0691 0.7684-0.73499-0.83522 0.33409 0.10023-0.30068-0.4009 0.13364 0.03341-0.30068-0.50113 0.96885 0.4009s-0.43431-0.56795-0.73499-0.7684-0.56795-0.4009-0.66817-0.23386c-0.10023 0.16704 0.0668 0.56795 0.0668 0.83522 0 0.26727 0.16705 0.60136 0.16705 0.60136z" fill="#ff8080"/>
      <path d="m144.79 79.318-0.26726 0.30068 0.96885-0.20045-0.40091 0.33409 0.56795-0.23386 0.10023 0.43431 0.20045-0.4009 0.60135 0.20045-0.36749-0.4009 1.1359 0.26727-0.33409-0.30068h0.73499l-0.50113-0.33409 0.90203-0.30068-0.93544-0.26727 0.86863-0.80181-1.0357 0.23386 0.63476-0.63476-0.73499 0.20045 0.33409-0.7684s-0.73499 1.7038-0.46773 0.53454c0.26727-1.1693 0.26727-1.2361 0.26727-1.2361l-0.63476 1.1025 0.36749-0.96885-0.70158 0.73499 0.50113-1.0023-0.60135 0.53454-0.63477-1.2027 0.16705 1.1359-0.86863-0.16704 0.83522 0.7684-1.0691 0.13364s0.73499 0.13363 0.96885 0.26727 0.30068 0.23386 0.30068 0.23386h-1.1025l0.86863 0.53454-0.70158-0.06682 0.73499 0.53454-0.73499 0.13364 0.93544 0.30068z" fill="#666"/>
      <path d="m140.28 78.048 0.60136 0.3675-0.50113 0.20045 0.90203 0.03341-0.43431 0.30068s0.70158-0.13363 0.96885 0.10023 0.60136 0.13364 0.60136 0.13364" fill="none" stroke="#000" stroke-width=".065"/>
      <path d="m155.65 87.971s-2.1048-1.6704-4.8777-1.637c-2.7729 0.03341-3.274 0.30068-3.8086 0.53454-0.53454 0.23386-2.1382 1.1359-2.1382 1.1359" fill="none" stroke="#000" stroke-width=".065"/>
      <path d="m155.28 88.405s-2.6393-1.0691-4.3097-1.3029c-1.6704-0.23386-4.0424-0.56795-4.577-0.7684-0.53454-0.20045-1.0023-0.3675-1.0023-0.3675" fill="none" stroke="#000" stroke-width=".065"/>
      <path d="m154.28 90.142s-0.36749 0-0.53454 0.20045c-0.16704 0.20045-0.43431 0.50113-0.66817 0.63477-0.23386 0.13363-1.0023 0.56795-1.0023 0.56795" fill="none" stroke="#000" stroke-width=".065"/>
      <path d="m153.58 89.608s-0.70158 0.03341-1.1359 0.23386c-0.43431 0.20045-0.76839 0.33409-0.76839 0.33409" fill="none" stroke="#000" stroke-width=".065"/>
      <path d="m155.15 89.006s-2.0713-0.10023-3.2072 0.03341c-1.1359 0.13364-2.3052 0.60136-2.3052 0.60136" fill="none" stroke="#000" stroke-width=".065"/>
      <path d="m154.18 88.572s-3.3075-0.7684-3.842-0.80181c-0.53454-0.03341-2.2718 0-2.5725-0.03341s-0.90204-0.20045-0.90204-0.20045" fill="none" stroke="#000" stroke-width=".065"/>
      <path d="m155.88 89.374s-0.93545 0.10023-1.3698 0.20045c-0.43431 0.10022-1.637 0.90203-1.637 0.90203" fill="none" stroke="#000" stroke-width=".065"/>
      <path d="m156.45 89.507s-0.80181 0.23386-1.1359 0.60136c-0.33409 0.3675-0.63476 1.0023-0.63476 1.0023" fill="none" stroke="#000" stroke-width=".065"/>
      <path d="m156.19 88.171s-0.30068-0.63477-0.70159-0.96885c-0.4009-0.33409-2.8397-1.0691-2.8397-1.0691" fill="none" stroke="#000" stroke-width=".065"/>
      <path d="m156.75 88.505s-2.9734-1.2695-4.3431-1.47c-1.3698-0.20045-3.4077-0.4009-3.4077-0.4009" fill="none" stroke="#000" stroke-width=".065"/>
      <path d="m156.19 88.839s-1.6036-0.46772-2.2384-0.66817c-0.63476-0.20045-3.9756-0.7684-4.4434-0.7684s-3.4411 0.63476-3.4411 0.63476" fill="none" stroke="#000" stroke-width=".065"/>
      <path d="m156.59 89.04s-2.9734-2.0045-3.5079-2.1047-2.5725-0.46772-4.0759-0.10023c-1.5034 0.3675-4.6104 1.8041-4.6104 1.8041" fill="none" stroke="#000" stroke-width=".065"/>
      <path d="m155.25 90.71s-0.4009 0.06682-0.70158 0.30068-1.0023 0.7684-1.2695 0.7684" fill="none" stroke="#000" stroke-width=".065"/>
      <path d="m154.45 83.36s0.43431-0.03341 0.63476-0.20045l0.20045-0.16704" fill="none" stroke="#000" stroke-width=".065"/>
      <path d="m154.01 82.926s0.0668-0.20045 0.46772-0.4009c0.40091-0.20045 0.66818-0.23386 0.66818-0.23386" fill="none" stroke="#000" stroke-width=".065"/>
      <path d="m153.61 82.725s0.63476-1.1025 0.80181-1.47c0.16704-0.3675 0.23386-0.80181 0.23386-0.80181" fill="none" stroke="#000" stroke-width=".065"/>
      <path d="m153.05 82.391s0.16704 0.23386 0-0.23386c-0.16704-0.46772-0.50113-0.96885-0.50113-0.96885" fill="none" stroke="#000" stroke-width=".065"/>
      <path d="m152.31 82.425s0.0334-0.20045-0.30068-0.3675c-0.33408-0.16704-0.50113-0.16704-0.50113-0.16704" fill="none" stroke="#000" stroke-width=".065"/>
      <path d="m157.05 83.026s0.80181-0.3675 1.1693-0.43431c0.36749-0.06682 1.0357-0.23386 1.1359-0.4009" fill="none" stroke="#000" stroke-width=".065"/>
      <path d="m157.22 82.458s1.2695-0.53454 1.7372-0.70158c0.46772-0.16704 1.2361-0.4009 1.5034-0.4009" fill="none" stroke="#000" stroke-width=".065"/>
      <path d="m157.02 81.924s1.2361-1.1025 1.8041-1.3363c0.56795-0.23386 2.2384-0.7684 2.2384-0.7684" fill="none" stroke="#000" stroke-width=".065"/>
      <path d="m156.82 81.255s0.93545-1.637 1.8375-2.3052c0.90204-0.66817 2.1048-1.2361 2.6393-1.4032 0.53454-0.16704 1.4366-0.26727 1.4366-0.26727" fill="none" stroke="#000" stroke-width=".065"/>
      <path d="m158.79 87.336s0.13363-0.20045 0.26726-0.3675c0.13364-0.16704 0.13364-0.4009 0.13364-0.4009" fill="none" stroke="#000" stroke-width=".065"/>
      <path d="m159.09 87.737s0.23386-0.26727 0.3675-0.3675c0.13363-0.10023 0.60135-0.10023 0.60135-0.10023" fill="none" stroke="#000" stroke-width=".065"/>
      <path d="m157.42 85.231s-0.23386-0.26727-0.26727-0.50113c-0.0334-0.23386-0.0334-0.3675 0.0334-0.56795 0.0668-0.20045 0.4009-0.56795 0.4009-0.56795" fill="none" stroke="#000" stroke-width=".065"/>
      <path d="m157.39 82.692s0.10023-0.06682 0.30068 0.06682c0.20045 0.13363 0.36749 0.3675 0.36749 0.3675l-0.26726-0.46772s-0.0668-0.13364-0.20046-0.16704c-0.13363-0.03341-0.20045 0.20045-0.20045 0.20045z" stroke="#000" stroke-width=".065"/>
      <path d="m156.45 91.044s-0.0668 0.83522-0.20045 1.0691c-0.13364 0.23386-0.66818 0.90203-0.66818 0.90203" fill="none" stroke="#000" stroke-width=".065"/>
      <path d="m155.85 91.044s-0.0334 0.43431-0.0334 0.60136c0 0.16704 0.0334 0.60136 0.0334 0.60136" fill="none" stroke="#000" stroke-width=".065"/>
      <path d="m156.29 91.078s-0.30067 0.63477-0.53454 0.7684c-0.23386 0.13364-0.66817 0.26727-0.66817 0.26727" fill="none" stroke="#000" stroke-width=".065"/>
      <path d="m155.55 90.877s-0.4009 0.4009-0.50113 0.60136c-0.10023 0.20045-0.43431 0.3675-0.43431 0.3675" fill="none" stroke="#000" stroke-width=".065"/>
      <path d="m157.19 90.81s0.13363 0.33409 0 0.53454c-0.13364 0.20045-0.30068 0.46772-0.30068 0.46772" fill="none" stroke="#000" stroke-width=".065"/>
      <path d="m156.95 90.844-0.23386 0.53454" fill="none" stroke="#000" stroke-width=".065"/>
      <path d="m157.39 90.743 0.26727 0.3675" fill="none" stroke="#000" stroke-width=".065"/>
      <path d="m158.36 90.209-0.13363 0.33409" fill="none" stroke="#000" stroke-width=".065"/>
      <path d="m158.93 89.975-0.10023 0.33409" fill="none" stroke="#000" stroke-width=".065"/>
      <path d="m156.19 88.138a0.029233 0.033409 0 0 1 -0.0292 0.03341 0.029233 0.033409 0 0 1 -0.0292 -0.03341 0.029233 0.033409 0 0 1 0.0292 -0.03341 0.029233 0.033409 0 0 1 0.0292 0.03341z" stroke="#000" stroke-linecap="round" stroke-linejoin="round" stroke-width=".065"/>
      <path d="m156.45 89.541a0.029233 0.033409 0 0 1 -0.0292 0.03341 0.029233 0.033409 0 0 1 -0.0292 -0.03341 0.029233 0.033409 0 0 1 0.0292 -0.03341 0.029233 0.033409 0 0 1 0.0292 0.03341z" stroke="#000" stroke-linecap="round" stroke-linejoin="round" stroke-width=".065"/>
      <path d="m156.6 89.056a0.029233 0.033409 0 0 1 -0.0292 0.03341 0.029233 0.033409 0 0 1 -0.0292 -0.03341 0.029233 0.033409 0 0 1 0.0292 -0.03341 0.029233 0.033409 0 0 1 0.0292 0.03341z" stroke="#000" stroke-linecap="round" stroke-linejoin="round" stroke-width=".065"/>
      <path d="m156.78 88.522a0.029233 0.033409 0 0 1 -0.0292 0.03341 0.029233 0.033409 0 0 1 -0.0292 -0.03341 0.029233 0.033409 0 0 1 0.0292 -0.03341 0.029233 0.033409 0 0 1 0.0292 0.03341z" stroke="#000" stroke-linecap="round" stroke-linejoin="round" stroke-width=".065"/>
      <path d="m156.2 88.856a0.029233 0.033409 0 0 1 -0.0292 0.03341 0.029233 0.033409 0 0 1 -0.0292 -0.03341 0.029233 0.033409 0 0 1 0.0292 -0.03341 0.029233 0.033409 0 0 1 0.0292 0.03341z" stroke="#000" stroke-linecap="round" stroke-linejoin="round" stroke-width=".065"/>
      <path d="m155.28 88.422a0.029233 0.033409 0 0 1 -0.0292 0.03341 0.029233 0.033409 0 0 1 -0.0292 -0.03341 0.029233 0.033409 0 0 1 0.0292 -0.03341 0.029233 0.033409 0 0 1 0.0292 0.03341z" stroke="#000" stroke-linecap="round" stroke-linejoin="round" stroke-width=".065"/>
      <path d="m155.65 87.987a0.029233 0.033409 0 0 1 -0.0292 0.03341 0.029233 0.033409 0 0 1 -0.0292 -0.03341 0.029233 0.033409 0 0 1 0.0292 -0.03341 0.029233 0.033409 0 0 1 0.0292 0.03341z" stroke="#000" stroke-linecap="round" stroke-linejoin="round" stroke-width=".065"/>
      <path d="m154.19 88.605a0.029233 0.033409 0 0 1 -0.0292 0.03341 0.029233 0.033409 0 0 1 -0.0292 -0.03341 0.029233 0.033409 0 0 1 0.0292 -0.03341 0.029233 0.033409 0 0 1 0.0292 0.03341z" stroke="#000" stroke-linecap="round" stroke-linejoin="round" stroke-width=".065"/>
      <path d="m155.16 89.048a0.029233 0.033409 0 0 1 -0.0292 0.03341 0.029233 0.033409 0 0 1 -0.0292 -0.03341 0.029233 0.033409 0 0 1 0.0292 -0.03341 0.029233 0.033409 0 0 1 0.0292 0.03341z" stroke="#000" stroke-linecap="round" stroke-linejoin="round" stroke-width=".065"/>
      <path d="m155.9 89.39a0.029233 0.033409 0 0 1 -0.0292 0.03341 0.029233 0.033409 0 0 1 -0.0292 -0.03341 0.029233 0.033409 0 0 1 0.0292 -0.03341 0.029233 0.033409 0 0 1 0.0292 0.03341z" stroke="#000" stroke-linecap="round" stroke-linejoin="round" stroke-width=".065"/>
      <path d="m152.14 83.148s-0.12292 0.12954-0.14751 0.20926c-0.0246 0.07972-0.0123 0.25909 0.0246 0.35874 0.0368 0.09965 0.13521 0.24912 0.13521 0.24912s0.20897-0.15944 0.25814-0.25909c0.0491-0.09965 0.11063-0.17937 0.0984-0.26905-0.0123-0.08969 0-0.1993-0.0615-0.23916-0.0615-0.03986-0.3073-0.04983-0.3073-0.04983z" stroke="#000" stroke-width=".24791px" style=""/>
      <path d="m153.11 83.857c0 0.46638-0.38189 0.84445-0.85298 0.84445-0.25886-0.02233-0.85298-0.37807-0.85298-0.84445 0-0.46638 0.38189-0.77744 0.85298-0.77743 0.47109-4e-6 0.85298 0.31106 0.85298 0.77743z" fill="url(#feldz)"/>
      <path d="m152.25 83.445s-0.0147 0.22781 0.0589 0.299c0.0737 0.07119 0.16207 0.17086 0.30943 0.17086 0.14733 0 0.41256 0.09966 0.41256 0 0-0.09967 0.0147-0.299-0.0442-0.41291-0.059-0.1139-0.23576-0.27053-0.35363-0.27053-0.11789 0-0.22104 0.02849-0.27998 0.07119-0.0589 0.04271-0.10323 0.14238-0.10323 0.14238z" fill="url(#lunfj)" opacity=".4"/>
    </g>
  </g>
</svg>