<?xml version="1.0" encoding="utf-8"?>
<svg width="117.21" height="115.81" version="1.1" viewBox="0 0 31.011706 30.641521" xmlns="http://www.w3.org/2000/svg" xmlns:xlink="http://www.w3.org/1999/xlink">
  <defs>
    <linearGradient id="paahviha">
      <stop stop-color="#00a7ff" stop-opacity="0" offset="0"/>
      <stop stop-color="#00a7ff" offset="1"/>
    </linearGradient>
    <radialGradient id="aaxxkpej" cx="227.4" cy="190.18" r=".24809" gradientTransform="matrix(1.4703 -.11408 .18307 2.3595 -143.36 -232.71)" gradientUnits="userSpaceOnUse" xlink:href="#a"/>
    <radialGradient id="vhiferos" cx="220.01" cy="190.17" r=".77679" gradientTransform="matrix(1.1968 .047018 -.040073 1.0201 -35.689 -14.162)" gradientUnits="userSpaceOnUse" xlink:href="#a"/>
    <radialGradient id="cyjmylkz" cx="279.06" cy="92.786" r="15.506" gradientTransform="matrix(1.4024 -.50486 .49345 1.3707 -158.07 106.38)" gradientUnits="userSpaceOnUse">
      <stop stop-color="#5fbcd3" offset="0"/>
      <stop stop-color="#5fbcd3" stop-opacity="0" offset="1"/>
    </radialGradient>
  </defs>
  <g transform="translate(-6.9631 -8.3911)">
    <g transform="translate(-195.11 -165.71)">
      <g transform="translate(-57.205 105.35)">
        <path d="m290.2 84.063c0 8.4132-6.9047 15.234-15.422 15.234-8.5176 2.8e-4 -15.423-6.8196-15.423-15.233-5.6e-4 -8.4132 6.9037-15.234 15.421-15.235 8.5176-8.3e-4 15.423 6.8186 15.424 15.232-1e-3 -0.53617-8e-3 0.42347 0 2e-3z" fill="#d5f6ff"/>
        <path d="m290.2 84.061c0 8.4132-6.9047 15.234-15.422 15.234-8.5176 2.8e-4 -15.423-6.8196-15.423-15.233-5.6e-4 -8.4132 6.9037-15.234 15.421-15.235 8.5176-8.3e-4 15.423 6.8186 15.424 15.232-1e-3 -0.53616-8e-3 0.42347 0 2e-3z" fill="url(#cyjmylkz)" stroke="#000" stroke-linecap="round" stroke-linejoin="bevel" stroke-width=".16601"/>
      </g>
      <path transform="scale(.26458)" d="m849.54 665.01c-0.11853 0.0235-0.0623 0.16414-0.11775 0.21958-0.37882 0.37882-0.57952 0.60854-0.57952 0.60854l-0.0625-0.69336s-0.44147 0.6941-0.63086 1.0098c-0.18935 0.31559-0.59515-0.62445-0.59515-0.62445s0.15963 0.0706-0.10016 0.8139c-0.31559 0.44194-1.6407 1.578-1.8301 1.1992-0.18935-0.37879-0.37891-0.50586-0.37891-0.50586s-0.37837 1.642-0.82031 1.8945c-0.44194 0.25247-2.6258-0.43025-2.6258-0.43025s0.43621 0.56391 0.22545 0.87166c-0.75761 0.63133-2.8398 1.2012-2.8398 1.2012s1.0325-2.619 0-0.88477c-1.0101 1.7678-2.3998 3.472-2.6524 3.5352-0.25247 0.0631-0.82031-0.94727-0.82031-0.94727l-0.56836 1.0117s-0.88491 0.75722-1.4531 1.0098c-0.56822 0.25247 0.0644-1.3887 0.0644-1.3887s-2.2098 1.2625-2.7148 1.7676c-0.5051 0.5051-1.0742 1.0098-1.0742 1.0098l-0.37891-1.1992s-0.88417 1.9577-1.1367 2.084c-0.25247 0.12623-0.88281-0.63282-0.88281-0.63282s0.31559 1.0098 0 1.1992c-0.31559 0.18936-0.94727 0.56836-0.94727 0.56836s-17.693 1.223-20.729 1.5801c-3.0357 0.35716-7.8557 2.1426-9.4629 2.1426-1.6071 0-3.75-0.71485-3.75-0.71485l0.89258 1.9648s0.35716 0.71484 1.25 0.71484h0.89257s-1.0717 0.89173-2.8574 1.0703c-1.7857 0.1784-3.5723 2.1426-3.5723 2.1426s1.0714-0.35576 2.5-0.71289c1.4286-0.35716 2.3223 1.0703 2.3223 1.0703s-3.5706 0.7154-5.1777 1.4297c-1.6072 0.71429-5.1797 1.25-5.1797 1.25l5.8926-0.17969s-3.2143 2.1426-5 2.1426c-1.7857 0-4.8203 0.17969-4.8203 0.17969l2.6777 1.0703-3.2148 1.25s0.89312-0.1771 2.8574 0.17969c1.9643 0.35716 2.6797 0 2.6797 0s-2.858 1.9646-4.8223 1.6074c-1.9643-0.35716-3.3926-0.53711-3.3926-0.53711s1.4283 1.4297 3.3926 1.4297c0.93434 0 1.4052-0.0417 1.6621-0.084-0.73383 0.23598-3.6887 1.1543-5.4121 1.1543-1.4108 0-1.7942-0.0907-1.9062-0.14258l2.6211 1.5723-5.5352 0.53516 3.2129 0.53711-5.1777 0.35546s0.53601 1.25 1.6074 1.25c1.0714 0 2.3203 0.17969 2.3203 0.17969s-4.2857 0.35613-5 0.17774c-0.71429-0.17878 1.7871 1.25 1.7871 1.25l-3.0371-0.17774-1.7871 0.38281c-0.85301 3.9201-1.3128 7.9843-1.3125 12.156 2e-3 31.798 26.1 57.573 58.293 57.572 8.9957-3e-4 17.512-2.0167 25.119-5.6113-0.30589-0.81854-0.66992-1.6527-0.66992-2.1797 0-0.89283 1.0723-2.3203 1.0723-2.3203s4.8863 0.75657 6.5898 0.58008c6.3999-4.182 11.922-9.5681 16.217-15.846-0.62773-1.2179-1.2742-2.3948-1.5566-2.7715-0.53571-0.71425-2.3223-1.9648-2.3223-1.9648s-2.4994-3.3934-3.0352-4.4648-2.6777-3.7492-3.9277-5.1777c-1.25-1.4286-3.4024-3.8946-3.5918-4.2734-0.18936-0.37878-0.31569-2.0197-0.18945-2.5879 0.12623-0.56821 0.69465-4.799 0.75781-5.5566 0.0631-0.75761-0.31569-1.7678-0.18945-2.5254 0.12623-0.75761 0.3783-0.94614 0.25195-1.6406-0.12624-0.69445-0.12624-1.3883 0-2.3984 0.12623-1.0102 0.25381-1.8316 0.0645-2.6524-0.18935-0.82076 0.0632-1.5163 0.37891-1.6426 0.31559-0.12624 1.3242 0.12695 1.3242 0.12695s-1.0092-1.3256-1.4512-1.5781c-0.44194-0.25247 0.82032-0.3789 0.82032-0.3789s-0.69348-0.88477-1.0723-0.88477c-0.37882 0-0.69531-0.37695-0.69531-0.37695l1.1992-0.63281-1.7676-0.31446s-0.25237-0.25265 0.18945-0.56836c0.44194-0.31559 1.0098-0.25195 1.0098-0.25195l-1.957-0.56836 0.75781-1.2637-1.5156-0.25195s-0.25165-1.515 0.31641-1.7676c0.56821-0.25247-0.25195-0.94727-0.25195-0.94727l-1.0117-0.4414 1.0117-0.94727 1.1348-0.18945s-0.1889-1e-4 -0.82031-0.18945c-0.63133-0.18936-0.69336-0.37891-0.69336-0.37891s0.18952-0.44147 0.75781-0.63086c0.56818-0.18935-0.2539-0.31641-0.2539-0.31641l1.0117-0.88476-0.94727 0.44336 1.5137-1.1367-1.5781 0.4414s1.073-1.1986 1.3887-1.2617c0.31559-0.0631 0.31641-0.18946 0.31641-0.18946l-2.2734 0.0625s0.37917-0.0633 1.3262-0.56836 1.6426-1.0098 1.6426-1.0098l-1.2637 0.0625-0.25196-0.31446s1.1993-0.19073 1.5781-0.44335c0.37878-0.25248 0.18945-0.50391 0.18945-0.50391l-2.3359-0.12695s-0.063-0.56775 0.56836-0.63086c0.63134-0.0631 1.1992-0.25196 1.1992-0.25196l-0.75781-0.18945s0.37905-0.12767 0.94727-0.25391c0.56821-0.12623 1.0742-0.69336 1.0742-0.69336s-1.1375 0.31569-1.4531 0.18946c-0.31559-0.12624-0.37891-0.18946-0.37891-0.18946s1.3901 0.12614 1.832-0.18945 1.1348-0.82031 1.1348-0.82031-0.69291 0.5039-1.5137 0.5039-1.5801-0.18945-1.5801-0.18945 1.1375-0.18882 1.6426-0.4414c0.50506-0.25248 1.1367-0.63086 1.1367-0.63086s-1.8314-0.12634-2.084-0.18946c-0.25247-0.0631 0.25338-1.2 1.0742-1.7051 0.82073-0.5051 0.37695-0.82032 0.37695-0.82032s-1.0398-0.19033-1.6445-0.15234c0.5437-0.20676 1.457-0.60547 1.457-0.60547l-2.084-0.18945 3.4727-1.1992s-1.7052 0.25195-2.084 0.25195h-0.4414s1.1362-0.1257 1.5781-0.44141c0.44194-0.31559 0.63086-0.4414 0.63086-0.4414s-0.88361 0.31507-1.3887 0.25195c-0.5051-0.0631 0.12576-0.63157 0.63086-0.75781 0.50509-0.12624 0.75781-0.12695 0.75781-0.12695s-0.25206-0.31446-0.82031-0.31446h-0.82032s-0.0637-0.31701 0.44141-0.44336c0.5051-0.12623 1.0098-0.31445 1.0098-0.31445h-0.69532s0.31568-0.18882 0.37891-0.44141c0.0631-0.25247 0.0644-0.3164 0.0644-0.3164l-0.69531-0.0625s0.63226-0.31707 0.88477-0.63281c0.25247-0.31559 0.75781-1.0723 0.75781-1.0723l-1.1367 0.31445 1.0098-0.63086-0.50586-0.5039 1.2012-0.50586-0.88477-0.44141 0.69531-0.63281-0.44335-0.1875 0.75781-0.25391-0.69336-0.75781 0.3789 0.12695 0.82032-0.3789-0.69532-0.37891 0.75782-0.31445-0.63086-0.0644 0.75-1.6172c-3.3811-2.916-7.1006-5.4548-11.102-7.5449zm-75.197 32.705-0.0586-0.0351s0.0146 0.0148 0.0586 0.0351z" fill="#e6e6e6" stroke="#000" stroke-linecap="round" stroke-width=".6274"/>
      <path d="m224.75 176c-0.0105 0.018-0.0195 0.0375-0.0341 0.0521-0.0998 0.0998-0.14976 0.16622-0.14976 0.16622l-5.3e-4 -7e-3c-8e-4 1e-3 -0.0129 0.0139-0.0129 0.0139l-0.0151-0.17087c-0.0147 0.023-0.1076 0.1696-0.1539 0.24675-8e-3 0.0132-0.0168 0.018-0.0258 0.0196-0.0402 0.0333-0.0836-0.0436-0.10329-0.082-3e-3 0.0232-0.0155 0.0582-0.0542 0.11252-0.0625 0.0874-0.27456 0.27719-0.39766 0.3247-1.1e-4 5e-5 -5.3e-4 -5e-5 -5.3e-4 0-0.0462 0.0199-0.0831 0.0255-0.0965-2e-3 -0.0431-0.0861-0.0804-0.11702-0.0915-0.12544-6e-3 0.0269-0.0992 0.41938-0.21174 0.48369-2e-3 9.9e-4 -6e-3 5.2e-4 -8e-3 2e-3 -2e-3 1e-3 -3e-3 4e-3 -5e-3 5e-3 -0.10384 0.0593-0.50757-0.0676-0.60267-0.0981 0.0547 0.0312 0.11826 0.0947-0.0171 0.20752-0.0274 0.0228-0.062 0.0453-0.10013 0.0672-5.2e-4 2.6e-4 -1e-3 7.8e-4 -2e-3 9.9e-4 -0.0309 0.0177-0.0639 0.035-0.0991 0.0516-0.23999 0.1154-0.55879 0.20339-0.55879 0.20339s0.13955-0.36836 0.11258-0.38819c-0.0163 0.0122-0.0447 0.0507-0.10068 0.14867-0.2661 0.46549-0.63219 0.91409-0.69873 0.93071-9.9e-4 2.7e-4 -2e-3 -9.9e-4 -4e-3 -9.9e-4 -2e-3 7.8e-4 -7e-3 7e-3 -8e-3 7e-3 -0.0648 0.0163-0.20449-0.22981-0.21173-0.24262l-0.14255 0.25345s-0.13797 0.11759-0.27009 0.20236c-1.2e-4 8e-5 -2.6e-4 -7e-5 -5.3e-4 0-0.0391 0.0251-0.0779 0.0483-0.11207 0.0636-3e-3 2e-3 -8e-3 5e-3 -0.0109 6e-3 -0.14959 0.0665 0.0171-0.36548 0.0171-0.36548-0.0101 6e-3 -0.14055 0.0802-0.29694 0.17654-0.16217 0.0997-0.34094 0.21587-0.40747 0.28236-0.13306 0.13299-0.28301 0.26585-0.28301 0.26585l-1e-3 -3e-3 -9e-3 9e-3 -0.0965-0.30611c-0.013 0.0286-0.22772 0.50096-0.2923 0.53325-2e-3 7.8e-4 -4e-3 -6e-5 -6e-3 5.2e-4 -1e-3 5.3e-4 -3e-3 5e-3 -4e-3 5e-3 -0.061 0.0304-0.19386-0.12308-0.21742-0.15073 0.0105 0.0355 0.072 0.24823-5e-3 0.29422-0.0831 0.0498-0.24996 0.1492-0.24996 0.1492-2e-5 1e-5 -5.3e-4 -2e-5 -5.3e-4 0-5.3e-4 2.6e-4 -9e-3 6e-3 -9e-3 6e-3s-4.6579 0.32207-5.4572 0.41606c-0.79922 0.094-2.0682 0.56369-2.4913 0.56369-0.41824 0-0.96692-0.18212-0.97967-0.18635l0.23188 0.51052s0.0943 0.18842 0.32949 0.18842h0.23497s-6e-3 4e-3 -7e-3 5e-3h2e-3s-0.2818 0.23432-0.75193 0.28134c-0.35261 0.0351-0.70555 0.33506-0.85986 0.48264-0.0467 0.0451-0.0769 0.0774-0.0769 0.0774s0.28211-0.0939 0.65846-0.18788c0.37633-0.0941 0.61196 0.28183 0.61196 0.28183l-7e-3 2e-3c7e-5 1e-4 2e-3 3e-3 2e-3 3e-3s-0.94026 0.18834-1.3634 0.37632c-0.41352 0.1837-1.2986 0.31848-1.3396 0.32468l1.5312-0.047s-5e-3 3e-3 -6e-3 4e-3h2e-3s-0.84626 0.56422-1.3164 0.56422c-0.46538 0-1.2442 0.0456-1.2601 0.0465l0.69874 0.27926-6e-3 2e-3 3e-3 1e-3 -0.83662 0.32521c9e-3 -2e-3 0.23855-0.0441 0.74573 0.0481 0.51748 0.0941 0.70597 0 0.70597 0l-5e-3 3e-3c-3e-3 2e-3 -0.75222 0.51658-1.2684 0.42277-0.5108-0.0929-0.87815-0.13926-0.88724-0.1404 0.0112 0.0112 0.38031 0.37269 0.88982 0.37269 0.24614 0 0.36976-0.0104 0.43742-0.0217-2e-3 5.3e-4 -7e-3 2e-3 -9e-3 3e-3 1e-3 -2.3e-4 5e-3 -2.6e-4 6e-3 -5.3e-4 -0.1932 0.062-0.97109 0.30406-1.4248 0.30406-0.3606 0-0.4619-0.0229-0.49474-0.0368l0.68479 0.41089-4e-3 5.3e-4 3e-3 2e-3 -1.4507 0.13989 0.84076 0.14041-8e-3 5.4e-4 6e-3 1e-3 -1.3618 0.0934c2e-3 5e-3 0.14267 0.3278 0.42296 0.3278 0.28225 0 0.61094 0.047 0.61094 0.047l-9e-3 5.3e-4c2.5e-4 4e-5 8e-3 9.9e-4 8e-3 9.9e-4s-1.1283 0.0939-1.3164 0.047c-0.0221-6e-3 -0.0308-4e-3 -0.0319 5.4e-4 8e-3 0.0439 0.50301 0.32727 0.50301 0.32727h-3e-3c1e-5 1e-5 2e-3 1e-3 2e-3 1e-3l-0.79996-0.047-0.47046 0.10063c-0.2246 1.0319-0.34558 2.1017-0.34551 3.1999 5.2e-4 8.373 6.876 15.16 15.357 15.16 0.0606 0 0.11988-4e-3 0.18024-5e-3l-0.0753-0.22662s-0.33273-0.9307-0.66517-0.66487c-0.33243 0.26583-0.53181-0.46538-0.99724-1.13-0.4654-0.66458 0 0.66437 0 0.66437l-0.86452-1.6612s-0.0667 0.0667-0.0667 0.59827c0 0.53167-0.86399-1.3292-0.86399-1.3292s-0.19988 0.39829-0.19988 1.0629-0.66464-1.0629-0.66464-1.0629l0.33258-0.39851 0.0667-0.59827 0.59855-0.79754 0.33206-1.1966-0.33206-0.19924-0.19986-0.9968 0.7984-0.59828-0.93165 0.19977-0.19934-0.53169-0.26596 0.39852-0.26597-1.5285-0.19934 0.5317-0.26598-0.59827 0.66517-0.73096-0.7984 0.4651 0.73179-0.9302-0.79789 0.26585s0.53193-0.79756 0.79789-1.0634c0.26595-0.26582 1.1969-0.19926 1.8618-0.19926s0.7979-0.59776 0.7979-0.59776h0.79736l-0.93061 0.46509 1.0639 0.0661-1.0639 0.66487 1.1305-0.19977-0.66516 0.26586 0.66516 0.13317s-0.3992 0.0665-0.66516 0.26585c-0.26594 0.19937-0.53141 0.53116-0.53141 0.53116h0.86451l-0.66516 0.39902 0.73126-0.26584-0.79789 1.196s0.66455-0.59789 1.13-0.93021c0.46541-0.33226 1.8623-0.59776 1.8623-0.59776l-0.99774 1.0629s1.1974-0.66473 1.5963-0.86413c0.39894-0.19936 1.3959-0.26585 1.3959-0.26585l-0.66516 0.79806 0.93114-0.53221h0.86399s-0.13248 0.19954-0.53141 0.33244c-0.39893 0.13293-0.93114 0.26586-0.93114 0.26586s0.86466 0.33267 1.1971 0.19975 1.2627 0 1.2627 0l-1.3959 0.73044s1.3296-0.19889 2.2604-0.26533c0.93081-0.0666 2.1941 0.66449 2.593 0.99678 0.39894 0.33228 0.66504 0.5317 0.86452 0.79753 0.19945 0.26583-0.66501 0.79706-0.59855 1.3287 0.0666 0.53167 0.59855 1.4624 0.59855 1.4624s0.41182 0.30591 0.7824 0.56111c0.38473-0.36622 0.75099-0.75132 1.0954-1.1553l-1.3464-0.33604s-0.53113-0.86428-0.13219-1.1966c0.39891-0.33229 1.0633 0.26584 1.0633 0.26584s1.1e-4 -0.53147-0.46531-0.93021c-0.46539-0.39875-0.93112-1.7282-0.93112-1.7282l1.5958 1.7948-0.22111-0.82717c-0.17063-0.24354-0.43782-0.65043-0.50324-0.78118-0.14103-0.28196-0.66348-0.93219-0.99258-1.3081-0.32909-0.37594-0.86333-0.99156-0.9132-1.0912-0.0498-0.0997-0.0786-0.70332-0.0454-0.85285 0.0333-0.14953 0.18258-1.1376 0.1992-1.337 0.0167-0.19939-0.0833-0.4655-0.05-0.66488 0.0333-0.19937 0.0999-0.2488 0.0667-0.43156-0.0332-0.18274-0.0332-0.36548 0-0.63131 0.0333-0.26583 0.0665-0.48192 0.0165-0.6979-0.0498-0.21598 0.0171-0.39883 0.10014-0.43207 0.0216-9e-3 0.0555-0.0101 0.0939-8e-3 0.10134 2e-3 0.22771 0.0319 0.25098 0.0378-6e-3 -8e-3 -0.26354-0.34573-0.37854-0.41141-0.11635-0.0665 0.21587-0.0996 0.21587-0.0996s-0.18223-0.23281-0.28196-0.23281c-0.0997 0-0.18334-0.0991-0.18334-0.0991l0.31553-0.16674-0.46531-0.0825s-0.0663-0.0667 0.05-0.1497c0.0653-0.0466 0.13359-0.0595 0.18746-0.0641 0.044-6e-3 0.0656-3e-3 0.0764-3e-3l-0.51333-0.14917 0.19934-0.33245-0.39869-0.0667s-0.0664-0.39864 0.0832-0.4651c0.14959-0.0665-0.0667-0.24933-0.0667-0.24933l-0.26597-0.11616 0.26597-0.24931 0.299-0.0495s-0.0495-2.7e-4 -0.21586-0.05c-0.1662-0.0498-0.18282-0.0996-0.18282-0.0996s0.0502-0.11638 0.19986-0.16623c0.1496-0.0498-0.0672-0.083-0.0672-0.083l0.25512-0.22249-0.22361 0.10428 0.0165-0.0123-0.0309 0.0146 0.39456-0.2963-0.39713 0.11098 3e-3 -3e-3 -0.017 5e-3s0.28252-0.31529 0.36564-0.33191c0.0831-0.0166 0.0832-0.0495 0.0832-0.0495l-0.59856 0.0161s0.0998-0.0163 0.34911-0.14918c0.24933-0.13292 0.43279-0.26585 0.43279-0.26585l-0.33311 0.0165-0.0661-0.083s0.0135-2e-3 0.0146-3e-3c0 0 0.0746-0.0127 0.15596-0.0304 1e-3 -2.7e-4 2e-3 -7.9e-4 4e-3 -1e-3 0.0906-0.0208 0.19197-0.0497 0.24117-0.0825 0.0997-0.0665 0.05-0.13267 0.05-0.13267l-0.61456-0.033s-0.0121-0.12225 0.1095-0.15743c2e-3 -8e-4 5e-3 -8e-4 7e-3 -2e-3 0.0105-3e-3 0.0199-6e-3 0.0325-7e-3 5.2e-4 -6e-5 1e-3 -5.2e-4 2e-3 -5.2e-4 5e-3 -8e-4 8e-3 -2e-3 0.013-3e-3 0.0795-8e-3 0.15383-0.0237 0.21121-0.0377 0.0528-0.0136 0.0904-0.0253 0.0904-0.0253l-0.19935-0.05s0.0993-0.0333 0.24893-0.0667c0.14913-0.0331 0.28164-0.18129 0.28249-0.18222-0.0126 3e-3 -0.0681 0.0191-0.14513 0.034-2e-3 2.7e-4 -2e-3 1.4e-4 -4e-3 5.3e-4 -0.0893 0.0182-0.18908 0.0327-0.23344 0.0151-0.0831-0.0332-0.0996-0.05-0.0996-0.05s0.02 2.7e-4 0.0222 5.3e-4c-2.1e-4 -1.9e-4 -8e-3 -4e-3 -8e-3 -4e-3s0.20345 0.0184 0.35531-7e-3c0.0454-9e-3 0.086-0.0208 0.11258-0.0398 0.10352-0.0738 0.23231-0.16842 0.26544-0.19255-0.0382 0.0242-0.0984 0.0593-0.20658 0.0863-0.049 0.0134-0.10227 0.0227-0.15855 0.0227-0.21607 0-0.41623-0.0495-0.41623-0.0495s0.0135-3e-3 0.0146-3e-3h5.4e-4c5.3e-4 -8e-5 0.0738-0.013 0.16165-0.0325 2e-3 -2.7e-4 3e-3 -7.9e-4 5e-3 -1e-3 0.0883-0.0205 0.18849-0.048 0.25151-0.0795 0.13295-0.0665 0.29901-0.16621 0.29901-0.16621s-0.48196-0.0329-0.54846-0.0495 0.0665-0.31619 0.2825-0.44909c0.21608-0.13292 0.0991-0.21578 0.0991-0.21578s-0.27355-0.0497-0.43275-0.0398c0.14314-0.0544 0.3837-0.1595 0.3837-0.1595l-0.54897-0.05 0.9146-0.3154s-0.44924 0.0661-0.54897 0.0661h-0.1162s0.0196-3e-3 0.0222-4e-3h-7e-3s0.0748-9e-3 0.16423-0.0273c0.0164-3e-3 0.0335-9e-3 0.0505-0.0129 0.0243-6e-3 0.0485-0.0114 0.0717-0.0191 0.0444-0.0149 0.0851-0.0323 0.11412-0.0531 0.11571-0.0824 0.1647-0.11528 0.16527-0.11564-0.012 4e-3 -0.0531 0.019-0.12034 0.0358-0.0778 0.0206-0.17185 0.0395-0.24426 0.0304-0.13299-0.0166 0.0327-0.16604 0.16577-0.19926 3e-3 -8e-4 4e-3 -8e-4 8e-3 -2e-3 2e-3 -7.8e-4 5e-3 -2e-3 7e-3 -3e-3 0.10838-0.027 0.16116-0.031 0.18126-0.0319-5e-3 -5e-3 -0.0686-0.08-0.21277-0.08h-0.21586s-0.0167-0.0833 0.11618-0.11666c0.13299-0.0332 0.26596-0.0825 0.26596-0.0825h-0.18333s0.0834-0.0496 0.10014-0.11614c0.0166-0.0665 0.0171-0.083 0.0171-0.083l-0.18332-0.0166s0.16642-0.0831 0.23291-0.16621c0.0665-0.083 0.19986-0.28237 0.19986-0.28237l-0.29954 0.0825 0.26597-0.1657-0.13325-0.13266 0.31606-0.13317-0.23291-0.11614 0.18334-0.16674-0.11672-0.049 0.0151-5e-3 0.18437-0.0619-0.18231-0.19925 0.0278 9e-3 -0.0135-0.0146 0.0981 0.033 0.20296-0.0945-0.18281-0.0996 0.19934-0.0825-0.1663-0.0171 0.20399-0.43826c-0.88841-0.76473-1.8652-1.431-2.9158-1.9796z" fill="#808080"/>
      <path d="m226.69 188.75c-0.48258 0.34468-0.96521 0.72838-1.0599 0.9493-0.20045 0.46772 0.0665 1.0694 0.13332 1.4035 0.0668 0.33408 0.66073 1.4659 0.66073 1.4659l0.0284-0.38336c0.0472-0.27683 0.16949-1.1773 0.18476-1.3605 0.0167-0.20045-0.0835-0.46773-0.0501-0.66818s0.10061-0.25085 0.0672-0.4346c-0.0334-0.18374-0.0334-0.36731 0-0.63458 0.0152-0.12204 0.0284-0.23154 0.0357-0.33745z" fill="#e6e6e6"/>
      <path d="m224.77 175.95c-0.0314 6e-3 -0.0165 0.0434-0.0311 0.0581-0.10023 0.10023-0.15333 0.16101-0.15333 0.16101l-0.0165-0.18345s-0.11681 0.18365-0.16692 0.26717c-0.0501 0.0835-0.15746-0.16522-0.15746-0.16522s0.0422 0.0187-0.0265 0.21535c-0.0835 0.11693-0.4341 0.41752-0.48421 0.31729-0.0501-0.10022-0.10026-0.13384-0.10026-0.13384s-0.10011 0.43444-0.21704 0.50126c-0.11693 0.0668-0.69475-0.11384-0.69475-0.11384s0.11541 0.1492 0.0597 0.23063c-0.20045 0.16704-0.75137 0.31781-0.75137 0.31781s0.27317-0.69296 0-0.2341c-0.26726 0.46772-0.63495 0.91864-0.70177 0.93535-0.0668 0.0167-0.21704-0.25064-0.21704-0.25064l-0.15038 0.26769s-0.23413 0.20035-0.38447 0.26717c-0.15034 0.0668 0.017-0.36742 0.017-0.36742s-0.58467 0.33404-0.7183 0.46767c-0.13364 0.13364-0.28422 0.26717-0.28422 0.26717l-0.10026-0.3173s-0.23393 0.51798-0.30076 0.55139c-0.0668 0.0334-0.23357-0.16743-0.23357-0.16743s0.0835 0.26717 0 0.31729c-0.0835 0.0501-0.25063 0.15038-0.25063 0.15038s-4.6812 0.32357-5.4844 0.41806c-0.80319 0.0945-2.0785 0.56689-2.5037 0.56689-0.42521 0-0.99218-0.18913-0.99218-0.18913l0.23616 0.51986s0.0945 0.18914 0.33073 0.18914h0.23616s-0.28356 0.23593-0.75603 0.28318c-0.47247 0.0472-0.94516 0.56689-0.94516 0.56689s0.28348-0.0941 0.66146-0.18861c0.37798-0.0945 0.61443 0.28318 0.61443 0.28318s-0.94472 0.18928-1.3699 0.37827c-0.42523 0.18899-1.3705 0.33073-1.3705 0.33073l1.5591-0.0475s-0.85045 0.56689-1.3229 0.56689-1.2754 0.0475-1.2754 0.0475l0.70848 0.28319-0.85059 0.33073s0.2363-0.0469 0.75602 0.0475c0.51972 0.0945 0.70901 0 0.70901 0s-0.75619 0.51979-1.2759 0.4253c-0.51972-0.0945-0.89762-0.14211-0.89762-0.14211s0.3779 0.37827 0.89762 0.37827c0.24721 0 0.37181-0.011 0.43977-0.0222-0.19416 0.0624-0.97596 0.3054-1.432 0.3054-0.37328 0-0.47473-0.024-0.50437-0.0377l0.6935 0.416-1.4645 0.14159 0.85008 0.14211-1.3699 0.0941s0.14181 0.33073 0.42529 0.33073c0.28349 0 0.61392 0.0475 0.61392 0.0475s-1.1339 0.0942-1.3229 0.047c-0.18899-0.0473 0.47284 0.33073 0.47284 0.33073l-0.80357-0.047-0.47284 0.10129c-0.22569 1.0372-0.34734 2.1125-0.34726 3.2163 5.3e-4 8.4132 6.9057 15.233 15.423 15.233 2.3801-8e-5 4.6333-0.53357 6.6461-1.4847-0.0809-0.21658-0.17725-0.43729-0.17725-0.57671 0-0.23623 0.28371-0.61392 0.28371-0.61392s1.2928 0.20018 1.7436 0.15348c1.6933-1.1065 3.1543-2.5316 4.2907-4.1925-0.16609-0.32223-0.33712-0.63363-0.41186-0.73329-0.14174-0.18898-0.61443-0.51986-0.61443-0.51986s-0.66131-0.89785-0.80305-1.1813-0.70849-0.99197-1.0392-1.3699c-0.33073-0.37798-0.90023-1.0304-0.95034-1.1307-0.0501-0.10022-0.0835-0.53437-0.0501-0.68471s0.1838-1.2697 0.20051-1.4702c0.0167-0.20046-0.0835-0.46773-0.0501-0.66818s0.10009-0.25033 0.0667-0.43408c-0.0334-0.18374-0.0334-0.36732 0-0.63459s0.0671-0.48462 0.0171-0.70177c-0.0501-0.21716 0.0167-0.40118 0.10025-0.43459 0.0835-0.0334 0.35037 0.0336 0.35037 0.0336s-0.26702-0.35073-0.38396-0.41755c-0.11693-0.0668 0.21704-0.10025 0.21704-0.10025s-0.18348-0.2341-0.2837-0.2341c-0.10023 0-0.18397-0.0997-0.18397-0.0997l0.31729-0.16743-0.46767-0.0832s-0.0668-0.0668 0.0501-0.15038c0.11693-0.0835 0.26717-0.0667 0.26717-0.0667l-0.5178-0.15037 0.20051-0.33435-0.40101-0.0667s-0.0666-0.40085 0.0837-0.46767c0.15034-0.0668-0.0667-0.25064-0.0667-0.25064l-0.26769-0.11678 0.26769-0.25063 0.30024-0.0501s-0.05-3e-5 -0.21704-0.0501c-0.16705-0.0501-0.18346-0.10027-0.18346-0.10027s0.0501-0.1168 0.2005-0.16691c0.15034-0.0501-0.0672-0.0837-0.0672-0.0837l0.26769-0.23409-0.25063 0.1173 0.40049-0.30075-0.41755 0.11678s0.2839-0.31712 0.36742-0.33382c0.0835-0.0167 0.0837-0.0501 0.0837-0.0501l-0.60151 0.0165s0.10032-0.0167 0.35088-0.15037c0.25056-0.13363 0.4346-0.26717 0.4346-0.26717l-0.33435 0.0165-0.0667-0.0832s0.31732-0.0505 0.41755-0.11731c0.10022-0.0668 0.0501-0.13332 0.0501-0.13332l-0.61805-0.0336s-0.0167-0.15022 0.15038-0.16692c0.16704-0.0167 0.31729-0.0667 0.31729-0.0667l-0.2005-0.0501s0.10029-0.0338 0.25063-0.0672 0.28422-0.18345 0.28422-0.18345-0.30095 0.0835-0.38447 0.0501c-0.0835-0.0334-0.10026-0.0501-0.10026-0.0501s0.3678 0.0334 0.48473-0.0501 0.30024-0.21704 0.30024-0.21704-0.18333 0.13332-0.40049 0.13332-0.41807-0.0501-0.41807-0.0501 0.30096-0.0499 0.4346-0.11678c0.13363-0.0668 0.30076-0.16692 0.30076-0.16692s-0.48457-0.0334-0.55139-0.0501c-0.0668-0.0167 0.067-0.31749 0.28422-0.45113 0.21715-0.13364 0.0997-0.21704 0.0997-0.21704s-0.27512-0.0504-0.43511-0.0403c0.14385-0.0547 0.3855-0.1602 0.3855-0.1602l-0.55138-0.0501 0.9188-0.31729s-0.45115 0.0667-0.55138 0.0667h-0.11679s0.30061-0.0333 0.41754-0.11679c0.11693-0.0835 0.16692-0.11679 0.16692-0.11679s-0.23379 0.0834-0.36742 0.0667c-0.13364-0.0167 0.0333-0.1671 0.16691-0.2005 0.13364-0.0334 0.20051-0.0336 0.20051-0.0336s-0.0667-0.0832-0.21704-0.0832h-0.21705s-0.0169-0.0839 0.11679-0.11731c0.13365-0.0334 0.26717-0.0832 0.26717-0.0832h-0.18397s0.0835-0.05 0.10026-0.11679c0.0167-0.0668 0.017-0.0837 0.017-0.0837l-0.18399-0.0165s0.16729-0.0839 0.2341-0.16743c0.0668-0.0835 0.2005-0.2837 0.2005-0.2837l-0.30075 0.0832 0.26716-0.16692-0.13384-0.13332 0.31781-0.13384-0.23409-0.11679 0.18396-0.16744-0.1173-0.0496 0.2005-0.0672-0.18345-0.20051 0.10025 0.0336 0.21705-0.10025-0.18397-0.10025 0.2005-0.0832-0.16691-0.017 0.19844-0.42788c-0.89459-0.77152-1.8787-1.4433-2.9373-1.9963zm-19.896 8.6532-0.0155-9e-3s4e-3 4e-3 0.0155 9e-3z" fill="none" stroke="#000" stroke-linecap="round" stroke-width=".166"/>
      <path d="m226.24 176.91-1.6302 1.5426-0.68925 2.2076 0.22992 0.017 0.0655 0.0164-0.1147 0.7138 0.57403 0.8468 0.57404 0.71381 0.42685 0.54742-0.033 0.61418h0.1147l0.033 0.73075 0.0569-0.0247c-6e-3 -8e-3 -0.0173-0.0185-0.0173-0.0185s0.0494-0.11578 0.19642-0.16536c0.14702-0.0496-0.066-0.0827-0.066-0.0827l0.25073-0.22133-0.21977 0.10373 0.0162-0.0123-0.0305 0.0144 0.38776-0.29476-0.3903 0.1104 3e-3 -3e-3 -0.0167 5e-3s0.27766-0.31366 0.35935-0.3302c0.0816-0.0165 0.0817-0.0493 0.0817-0.0493l-0.58825 0.0159s0.0981-0.0161 0.3431-0.1484c0.24504-0.13223 0.42533-0.26448 0.42533-0.26448l-0.32737 0.0164-0.065-0.0827s0.0131-2e-3 0.0142-3e-3c0 0 0.0734-0.0126 0.15328-0.0303 1e-3 -2.7e-4 2e-3 -7.9e-4 4e-3 -9.9e-4 0.089-0.0207 0.18867-0.0495 0.23703-0.0822 0.098-0.0661 0.0492-0.13198 0.0492-0.13198l-0.60398-0.0329s-0.012-0.12164 0.1076-0.15664c2e-3 -7.8e-4 5e-3 -7.8e-4 7e-3 -2e-3 0.0104-3e-3 0.0195-6e-3 0.032-7e-3 5.2e-4 -6e-5 1e-3 -5.3e-4 2e-3 -5.3e-4 5e-3 -7.8e-4 8e-3 -2e-3 0.0127-3e-3 0.0783-8e-3 0.15119-0.0236 0.20759-0.0375 0.052-0.0134 0.0888-0.0251 0.0888-0.0251l-0.19591-0.0498s0.0976-0.0332 0.24464-0.0663c0.14656-0.033 0.2768-0.18035 0.27762-0.18127-0.0123 3e-3 -0.0669 0.019-0.14262 0.0339-2e-3 2.5e-4 -2e-3 1.3e-4 -4e-3 5.2e-4 -0.0877 0.0181-0.18581 0.0326-0.22941 0.0149-0.0816-0.0331-0.0975-0.0498-0.0975-0.0498s0.0197 2.5e-4 0.0218 5.3e-4c-2.1e-4 -1.9e-4 -8e-3 -4e-3 -8e-3 -4e-3s0.19994 0.0186 0.34919-7e-3c0.0446-9e-3 0.0845-0.0207 0.11065-0.0395 0.10173-0.0734 0.22831-0.16755 0.26088-0.19155-0.0375 0.024-0.0967 0.059-0.20302 0.0858-0.0482 0.0132-0.10053 0.0226-0.15582 0.0226-0.21236 0-0.40908-0.0493-0.40908-0.0493s0.0131-3e-3 0.0142-3e-3h5.2e-4c5.2e-4 -8e-5 0.0726-0.0128 0.15886-0.0324 2e-3 -2.6e-4 3e-3 -7.9e-4 5e-3 -1e-3 0.0867-0.0204 0.18525-0.0477 0.24718-0.0791 0.13067-0.0661 0.29387-0.16535 0.29387-0.16535s-0.47367-0.0328-0.53902-0.0493c-0.0653-0.0165 0.0653-0.31455 0.27763-0.44677 0.21236-0.13224 0.0975-0.21466 0.0975-0.21466s-0.26886-0.0495-0.42533-0.0395c0.14069-0.0542 0.37711-0.15868 0.37711-0.15868l-0.53952-0.0498 0.89886-0.31378s-0.44151 0.0657-0.53952 0.0657h-0.11428s0.0193-3e-3 0.0218-4e-3h-7e-3s0.0736-9e-3 0.1614-0.0272c0.0161-3e-3 0.033-9e-3 0.0497-0.0128 0.0239-6e-3 0.0478-0.0113 0.0706-0.019 0.0436-0.0147 0.0836-0.0322 0.11217-0.0529 0.11371-0.0821 0.16186-0.11466 0.16241-0.11502-0.0117 4e-3 -0.0522 0.0188-0.11826 0.0355-0.0765 0.0205-0.16889 0.0393-0.24007 0.0303-0.13069-0.0165 0.0322-0.16517 0.16293-0.19822 3e-3 -7.9e-4 4e-3 -7.9e-4 8e-3 -2e-3 2e-3 -7.9e-4 5e-3 -2e-3 7e-3 -3e-3 0.10652-0.0269 0.15839-0.0304 0.17815-0.0313-5e-3 -5e-3 -0.0674-0.0796-0.20911-0.0796h-0.21215s-0.0164-0.083 0.1142-0.11606c0.13069-0.0331 0.26138-0.0827 0.26138-0.0827h-0.18017s0.0819-0.0494 0.0985-0.11554c0.0163-0.0661 0.0167-0.0827 0.0167-0.0827l-0.18018-0.0159s0.16356-0.0827 0.2289-0.16536c0.0653-0.0826 0.19642-0.28088 0.19642-0.28088l-0.29438 0.0822 0.26139-0.16484-0.13095-0.13198 0.31062-0.1325-0.2289-0.11554 0.18018-0.16586-0.11471-0.0488 0.0147-5e-3 0.18119-0.0616-0.17916-0.19822 0.0274 9e-3 -0.0132-0.0144 0.0964 0.0329 0.19947-0.094-0.17968-0.0991 0.19592-0.0822-0.16343-0.017 0.20048-0.43598c-0.43262-0.37694-0.88671-0.72927-1.3602-1.0558z" fill="#e6e6e6"/>
      <path d="m218.45 182.26s0.4961-0.21261 0.63784-0.44884c0.14174-0.23624 0.23623-0.44885 0.23623-0.44885s-0.33073 0.21261-0.47247 0.21261h-0.14174s0.35435-0.0945 0.37798-0.33073c0.0236-0.23623 0.0945-0.4016 0.0945-0.4016s-0.11812 0.0236-0.35435 0.0236c-0.23624 0-0.35436 0.16536-0.35436 0.16536l0.35436-0.49609-0.42523-0.0236s-0.0472-0.0236 0.0945-0.18899c0.14174-0.16536 0.44885-0.4016 0.44885-0.4016l-0.4961 0.16537s-0.0709-0.14174 0.0945-0.28348c0.16536-0.14174 0.35435-0.23624 0.35435-0.23624l-0.61421-0.0236s0.0709-0.0945 0.18898-0.30711c0.11812-0.21261 0.30711-0.33073 0.30711-0.33073h-0.42522l0.28348-0.33072 0.11812-0.18899-0.4016-0.0236 0.28348-0.30711-0.28348 0.0709 0.25986-0.51972-0.25986 0.16536s0.16536-0.44884 0.0709-0.4016c-0.0945 0.0472-0.21261 0.0945-0.21261 0.0945s0.0945-0.42523 0.0945-0.61421c0-0.18899-0.18899 0.18898-0.18899 0.18898l0.0472-0.77957-0.11812 0.18899s0-0.33073-0.16536-0.51972c-0.16537-0.18899-0.44885-0.47247-0.56697-0.49609-0.11812-0.0236-0.14174-0.42523-0.14174-0.42523l-0.14174 0.37798-0.23623-0.37798s0.0472 0.25986-0.0472 0.28348l-0.0945 0.0236-0.16536-0.30711-0.0945 0.33073-0.16537-0.35435s0.0709 0.28348-0.0709 0.30711c-0.14174 0.0236-0.0709-0.30711-0.0709-0.30711l-0.21261 0.21261-0.28349-0.18899v0.14175l-0.37797-0.18899 0.0236 0.21261-0.61422-0.0945 0.23624 0.18899-0.59059-0.11811s0.16537 0.11811 0.16537 0.21261-0.0945 0.0945-0.0945 0.0945l-0.33073-0.16536s0.16537 0.21261 0.0236 0.28348l-0.14174 0.0709-0.14174-0.18899s0.18898 0.35435 0.0472 0.47247c-0.14174 0.11812-0.28348-0.28348-0.28348-0.28348s0.0472 0.0709 0 0.28348c-0.0472 0.21261-0.11812 0.23624-0.11812 0.23624l-0.35435-0.0945 0.0709 0.21261s0.0945 0-0.0472 0.11812c-0.14174 0.11812-0.47246 0.18899-0.68508 0.30711-0.21261 0.11811-0.42522 0.28348-0.42522 0.28348s0.47247-0.21261 0.56696-0.18899l0.0945 0.0236s-0.82683 0.35435-1.0158 0.7087c-0.18899 0.35436-0.30711 0.44885-0.30711 0.44885s0.4016-0.23623 0.54334-0.28348l0.14174-0.0472s-0.63783 0.51972-0.94494 0.85045c-0.3071 0.33073-0.68508 0.73233-0.85044 0.73233-0.16537 0 0.33073 0.0236 0.61421-0.11812 0.28348-0.14174 0.44884-0.21261 0.44884-0.21261l-0.89769 0.68508 0.37797-0.11812s-0.28348 0.37797-0.3071 0.54334c-0.0236 0.16536-0.0473 0.37798-0.0473 0.37798l0.35435-0.28349s-0.16536 0.96857-0.28348 1.0867c-0.16823 0.28516 0.37798-0.18898 0.37798-0.18898s-0.16537 0.73232-0.30711 0.85044-0.44885 0.87407-0.44885 0.87407 0.1069-0.0735 0.28349-0.21261c0.11811-0.0473 0.28348 0 0.28348 0s-0.16537 0.28348-0.18899 0.47247c-0.0236 0.18899-0.16536 0.68508-0.16536 0.68508l-0.35436 0.14174s0.23624 0.0473 0.4016-0.0236c0.16537-0.0709 0.16537-0.0945 0.16537-0.0945l-0.44885 0.4961 0.35435-0.11812s0.0709 0.0709 0.0473 0.28348c-0.0236 0.21261-0.23624 0.37798-0.23624 0.37798l-0.42522-0.0472s0.21261 0.18899 0.35435 0.23623c0.14175 0.0473 0.18899 0.0236 0.18899 0.0236s1.63-0.14174 1.8426 0.0236c0.21261 0.16536 0.49609 0.37798 0.7087 0.35435 0.21261-0.0236-0.0709-0.16536-0.0709-0.16536l-0.11812-0.21261 0.42523 0.14174-0.18899-0.25986s0.25986 0 0.37798-0.0473c0.11811-0.0472-0.21262-0.14174-0.21262-0.14174l0.33073-0.11812-0.23623-0.14174s0.25986-0.0945 0.37797-0.18899c0.11812-0.0945 0.51972-0.87407 0.51972-0.87407v0.35436l0.25986-0.37798v0.33073l0.18899-0.0473s-0.14174 0.14174 0.0236 0.25986c0.16536 0.11812 0.0945 0.35435 0.0472 0.49609-0.0472 0.14174-0.11811 0.42523 0.0472 0.51972 0.16537 0.0945 0.44885-0.11812 0.44885-0.11812l-0.0473 0.21262 0.28348-0.18899 0.47247-0.25986s0.61421-0.0945 0.8032-0.0945-0.0945-0.18899-0.0945-0.18899l-0.14175-0.33074s0.44885 0.0236 0.68508-0.0945c0.23624-0.11812-0.0472-0.23623-0.0472-0.23623l-0.0236-0.21262 0.54334-0.23623-0.18899-0.0945 0.37798-0.0472-0.14174-0.14174h0.37798l-0.0709-0.14174s0.35435 0.11811 0.37797-0.0945c0.0236-0.21261 0.18899-0.33073 0.18899-0.33073z" fill="#333" stroke="#000" stroke-linecap="round" stroke-width=".166"/>
      <path d="m224.76 175.99c-0.0107 0.018-0.0642 0.073-0.0789 0.0878-0.10047 0.10011-0.10618 0.12533-0.10618 0.12533l-1e-3 -7e-3c-8e-4 1e-3 -0.0125 0.0139-0.0125 0.0139l-0.0159-0.17631c-0.0118 0.0142-0.0337 0.0628-0.0337 0.0628l-0.015 0.0212c-0.0355 0.0561-0.0743 0.11562-0.10603 0.16832-8e-3 0.0131-0.0164 0.018-0.0254 0.0196-0.0144 0.0119-0.0291 7e-3 -0.0431-2e-3 -7e-5 1.2e-4 7e-5 4.1e-4 0 5.2e-4 -0.0276-0.012-0.0314-0.0485-0.0584-0.0833-8e-3 0.0152-0.0424 0.0952-0.0569 0.11531-0.0628 0.0876-0.27682 0.27809-0.40071 0.32575h-5.2e-4c-0.0251 0.0108-0.0203 8e-3 -0.0377 8e-3 -0.0191 2e-3 -0.0315 4e-3 -0.0592-0.0188-0.025-0.0471-0.0599-0.0976-0.094-0.11528-0.0237 0.095-0.11241 0.42714-0.21131 0.48348-2e-3 1e-3 -6e-3 6e-4 -8e-3 2e-3 -2e-3 1e-3 -3e-3 4e-3 -5e-3 5e-3 -0.015 9e-3 -0.0372 0.0123-0.0629 0.0139-0.16764 4e-3 -0.37135-0.0665-0.53599-0.11533 0.0777 0.0751 0.0803 0.11592-0.0248 0.21114-0.0276 0.0228-0.0624 0.0454-0.10083 0.0673-5.3e-4 2.7e-4 -1e-3 8.3e-4 -2e-3 1e-3 -0.0312 0.0177-0.0643 0.0351-0.0998 0.0518-0.24153 0.11578-0.56235 0.20405-0.56235 0.20405l0.0674-0.16977c-0.0101 3e-3 0.0447-0.1525 0.0447-0.1525s0.0202-0.0583-7e-3 -0.0711c-0.0132 0.0206-0.0864 0.13205-0.10507 0.16462-0.2678 0.46701-0.62435 0.90521-0.69131 0.9219-1e-3 2.7e-4 -2e-3 -1e-3 -4e-3 -1e-3 -2e-3 8e-4 -7e-3 7e-3 -8e-3 7e-3 -9e-3 2e-3 -0.0201-2e-3 -0.0317-9e-3 -7e-3 5e-3 -0.0216 0.0217-0.0259 0.0228-0.0129 3e-3 -0.029-6e-3 -0.0463-0.0202l-3e-3 0.0678 0.26039 1.0389s0.14188-0.28327 0.14188-0.16521c0 0.11807 0.0717 0.82603 0.0717 0.82603l0.30768-0.21233 0.0239 0.68516 0.21257-0.14191 0.0712 0.42519s0.44962-0.18917 0.40226-0.0239c-0.0474 0.16529-0.0945 0.30711-0.0945 0.30711h0.40279l-0.0946 0.30711h0.33159l0.0233 0.30658s0.49729-0.2119 0.37889 0.0714c-0.11842 0.28335 0.0473 0.33041 0.0473 0.33041s0.37894-0.28367 0.33158 0.0232c-0.0474 0.30699-0.0473 0.37805-0.0473 0.37805h0.40226s-0.26032 0.4721-0.0945 0.44849c0.16578-0.0236 0.3555-0.0471 0.3555-0.0471l0.0233 0.21233s0.35521-0.11832 0.37889-0.0239c0.0236 0.0945-0.0708 0.28359 0.0239 0.25997 0.0947-0.0236 0.237 0.2838 0.237 0.2838s0.2836-0.0711 0.21257 0.0234c-0.0711 0.0945-0.11799 0.18851-0.11799 0.18851l0.47348-0.11756-0.49738-0.73177 0.28429-0.33093-0.49738 0.0709s0.14208-0.42497 0-0.40135c-0.14209 0.0236-0.45009-0.14191-0.45009-0.14191s0.52081-0.35424 0.30768-0.35424c-0.21314 0-0.42566 0.0948-0.42566-0.0471 0-0.14168 0.0944-0.21277-0.0239-0.25998-0.1184-0.0472-0.23648-0.18851-0.23648-0.18851l0.16579-0.47282s0.59151-0.25915 0.37837-0.28277c-0.21314-0.0236-0.61536-0.0476-0.61536-0.0476s1.1129-0.66134 0.97085-0.66134c-0.14209 0-0.42617-0.0943-0.42617-0.0943s0.75793-0.1651 0.45009-0.21233c-0.30787-0.0472-0.40294-0.0947-0.30821-0.14191 0.0947-0.0472 0.89963-0.3304 0.73386-0.3304s-0.59164 0.0468-0.28378-0.0476c0.30786-0.0945 0.0712-0.14138 0.0712-0.14138l0.61587-0.25998h-0.71098l0.85287-0.33041 0.0707-0.21234s-0.61563 0.11778-0.59197 0.0234c0.0236-0.0945 0.80531-0.47219 1.1606-0.28329 0.35523 0.18892 0.1185-0.0705 0.1185-0.0705l-0.33107-0.507c-0.59655-0.42904-1.1683-0.79821-1.8259-1.1405z" fill="#333"/>
      <path transform="scale(.26458)" d="m812.95 671.43-6.0723 2.4121-2.4102 5.3574 0.35743 4.4629-2.1445 8.5723 1.9648 3.9277 0.95117 1.6133 1.0137-0.36328-0.89258-0.53516s0.98134-0.35772 1.4277-0.71484c0.44644-0.35717 1.9648-3.3027 1.9648-3.3027v1.3398l0.98242-1.4297v1.25l0.71289-0.17774s-0.53506 0.53599 0.0898 0.98243c0.62498 0.44643 0.3565 1.3393 0.17773 1.875-0.17839 0.53571-0.4451 1.6058 0.17969 1.9629 0.62502 0.35716 1.6953-0.44532 1.6953-0.44532l-0.17773 0.80274 1.0703-0.71485 1.7871-0.98046s0.52812-0.0793 1.0723-0.1543l-0.35743-3.6856 3.3926-11.072zm-7.2266 26.559 0.26563 0.44922c0.0572-0.0151 0.12679-0.0241 0.17383-0.043 0.30369-0.12137-0.10059-0.28811-0.43946-0.40625z" fill="#1a1a1a" stroke="#1a1a1a" stroke-width=".62362"/>
      <path d="m216.26 176.34c-0.0546-2e-3 -0.10846-7.2e-4 -0.1613 5e-3 -0.42268 0.0462-1.5025 0.0924-1.8313 0.39298-0.32876 0.30056-0.72796 0.90148-1.1506 1.1789-0.42268 0.27746-0.89225 0.73995-0.89225 0.73995l0.5635-0.18512s-0.11777 0.41653-0.30564 0.46278c-0.18786 0.0462-0.61025 0.0921-0.61025 0.0921s0.37572 0.25476 0.49313 0.23164c0.11741-0.0231 0.21113-0.0465 0.21113-0.0465s0.0704-0.0461-0.42276 0.2544c-0.49313 0.30057-0.68063 0.30043-0.68063 0.30043l0.42276 0.25439 0.0935 0.0693-0.49314 0.13909 0.21165 0.18459s-0.37586-0.32332-0.35239-0.18459c0.0234 0.13871 0.25838 0.46226 0.25838 0.46226l0.23475 0.23113-0.35239-0.11581 0.39965 0.64737-0.32876-0.16184s0.23438 0.43951 0.42225 0.60136c0.18786 0.16184 0.49313 0.25439 0.49313 0.25439s-0.56358 0.16156-0.65751 0.11532c-0.0939-0.0462 0.32876 0.20838 0.32876 0.20838l-0.23475 0.30043-0.2815 0.39297s0.25815 1.5e-4 0.4695-0.13858l0.21112-0.13857-0.42224 0.6934 0.25787-0.0925-0.23475 0.46278-0.25838 0.1846s0.188 0.0232 0.35237-0.0693l0.16438-0.0925-0.16438 0.32369 0.23476-0.0228-0.14075 0.27716 0.188 0.0233-0.17105 0.33634c0.2094 0.15988 0.48125 0.35686 0.6873 0.33431 0.21134-0.0231-0.0704-0.16184-0.0704-0.16184l-0.11713-0.20838 0.42224 0.13909-0.18748-0.2544s0.25808-2.4e-4 0.37549-0.0465c0.11741-0.0462-0.21112-0.13859-0.21112-0.13859l0.32876-0.11582-0.23476-0.13857s0.2581-0.0926 0.37551-0.18511c0.0704-0.0554 0.21896-0.3121 0.34518-0.54067 0.0283-0.079 0.0609-0.15169 0.10123-0.19928 0.11741-0.13871-0.0473-0.50828-0.0473-0.50828l0.0236-0.13909-0.61076 0.46277 0.51676-0.67064-1.2446 0.90178 0.44638-0.53206s-0.16438-0.0459-0.32875 0.0698c-0.16439 0.11561-0.0941-0.16192 0.0467-0.2544 0.14089-0.0924 0.58712-0.0461 0.75151-0.23114 0.16437-0.18497-0.16439-0.0233-0.16439-0.0233s0.21113-0.11553 0.37551-0.23114c0.16437-0.1156 0.23475-0.34695 0.23475-0.34695s-0.0701 0.0925-0.35187 0.16184c-0.28179 0.0694-0.5404 0.0465-0.5404 0.0465s0.30558-0.16228 0.5404-0.23163c0.17842-0.0527 0.0177-0.0622-0.0827-0.0653 0.0418-0.0241 0.0984-0.066 0.19982-0.16589 0.30527-0.30056 0.21163-0.30042 0.21163-0.30042l-0.54039 0.27716 0.47001-0.71667-0.47001 0.41625s-0.0468-0.27745 0.21164-0.48554c0.2583-0.20808 0.58714-0.60084 0.58714-0.60084l-0.44639 0.16183s0.0468-0.2312 0.21112-0.32368c0.16437-0.0924 0.30564-0.11582 0.30564-0.11582h-0.39914l0.35187-0.20787s-0.96262 0.439-1.127 0.439 0.21112-0.16185 0.21112-0.16185 0.14089-0.0692 0.32876-0.20787c0.18785-0.13872 0.37601-0.18511 0.37601-0.18511l-0.63388 0.0233 0.5635-0.34696-0.72788 0.20787s0.32846-0.20801 0.44587-0.23113c0.11741-0.0231 0.44639-0.0693 0.44639-0.0693l-0.35238-0.0233 0.13767-0.0905c-0.0546 0.026-0.11393 0.0504-0.18442 0.0678-0.37572 0.0925-0.47001 0-0.47001 0s0.35237-0.3007 0.51676-0.34696c0.16437-0.0462 0.39913-0.25439 0.39913-0.25439l0.14126-0.32369s0.56343 0.23112 0.4695 0.39298c-0.0939 0.16184-0.16438 0.43951-0.16438 0.43951l0.70426-0.60136-0.21113 0.5781h0.21113s0.25867 1.4e-4 0.30563-0.13859c0.047-0.13872 0.0704 0.23135-0.18801 0.34696-0.18389 0.0823-0.34621 0.15311-0.4849 0.21394 0.0892-0.0281 0.19835-0.0494 0.32053-0.0294 0.28179 0.0462 0.49314 0.32369 0.49314 0.32369l-0.46951 0.32369s0.32876-0.18503 0.49313-0.0926c0.16438 0.0925 0.30513 0.32369 0.30513 0.32369s-0.16431-0.25411-0.39913 0.11582c-0.23483 0.36993-0.44638 0.6934-0.44638 0.6934s0.39949-0.32354 0.54038-0.30042c0.14089 0.0231 0.30513 0.16185 0.30513 0.16185s-0.25838 0.27766-0.25838 0.4395c0 0.16185 0.14074 0.34645 0.14074 0.34645s-0.21111 0.18514-0.37549 0.0233c-0.16437-0.16185-0.18801-0.11531-0.18801-0.11531s0.16445 0.30035 0.25838 0.36971c0.0939 0.0694-0.094 0.50881-0.094 0.50881s-0.14075-0.48547-0.14075-0.39299c0 0.0924-0.0234 0.48525 0 0.60086 0.0234 0.11559-0.25838 0.23113-0.25838 0.23113l-0.0704 0.48554s0.0467-0.11546 0.21113-0.13859c0.16438-0.0231 0.0236 0.27767 0.0236 0.27767l0.188 0.20787 0.14075 0.39298 0.0468-0.30043s0.11763 0.18497 0.11763 0.32369c0 0.0395 0.0287 0.10017 0.0668 0.1659 0.16598-0.0242 0.51242-0.0733 0.6611-0.0733 0.18786 0-0.094-0.18511-0.094-0.18511l-0.14075-0.32369s0.4458 0.0231 0.68062-0.0925c0.23483-0.11559-0.0467-0.23113-0.0467-0.23113l-0.0236-0.20787 0.54039-0.23165-0.18801-0.092 0.37551-0.0465-0.14075-0.13858h0.37602l-0.0709-0.13858s0.35254 0.11553 0.37601-0.0925c0.0234-0.20809 0.18801-0.3237 0.18801-0.3237s0.49299-0.2083 0.63388-0.43951c0.1409-0.23121 0.23476-0.439 0.23476-0.439s-0.32861 0.20787-0.46951 0.20787h-0.14074s0.35201-0.0924 0.37549-0.3237c0.0234-0.2312 0.094-0.39297 0.094-0.39297s-0.11755 0.0228-0.35237 0.0228c-0.23483 0-0.35187 0.16185-0.35187 0.16185l0.35187-0.48554-0.42225-0.0228s-0.0473-0.0233 0.0935-0.1851c0.1409-0.16185 0.44639-0.39298 0.44639-0.39298l-0.49313 0.16184s-0.0704-0.13894 0.094-0.27767c0.16438-0.13872 0.35239-0.23113 0.35239-0.23113l-0.61076-0.0228s0.0707-0.0928 0.18801-0.30093c0.11741-0.20808 0.30512-0.32369 0.30512-0.32369h-0.42276l0.28201-0.32369 0.11712-0.18461-0.39913-0.0233 0.28201-0.30042-0.28201 0.0693 0.25838-0.5088-0.25838 0.16185s0.10071-0.27062 0.0976-0.36314l-0.0575-0.0166c-0.0837 0.0388-0.18082 0.0794-0.18082 0.0794s0.0153-0.0766 0.0251-0.1239l-0.21318-0.0612s-0.30498-0.46241-0.61024-0.64737c-0.26712-0.16184-0.6785-0.35898-1.0602-0.37478zm-1.3505 3.1322c-0.11653 0.0366-0.19623 0.0865-0.19623 0.0865s0.14012-0.0619 0.19623-0.0865zm-1.0448-0.37426c0.0899-0.0428 0.16146-0.0926 0.21266-0.13909zm0.33182-0.2792s-0.0349 0.0635-0.11711 0.13859l0.0704-0.046z" fill="#e6e6e6"/>
      <path d="m220.5 181.19s0.37797 0.75596 0.33072 1.2757c-0.0472 0.51972-0.23623 1.0394-0.18898 1.3229 0.0472 0.28348 1.4174 1.2284 1.4174 1.2284s-0.85045-0.66145-0.85045-1.2757c0-0.61421 0.0945-0.99218 0.0945-0.99218s1.1812 1.2757 1.3229 1.5592 0.0472 1.4174 0 2.0316 0.0472 2.1734 0.0945 2.4568c0.0472 0.28348 0 1.2757 0 1.7009v1.1812s0.0945-0.47247 0.33073-0.8032 0.66145-0.89769 0.66145-1.6064c0-0.7087-0.14174-1.3229-0.14174-1.3229s0.18899 1.0394 0.51972 1.3702 1.4174 1.7481 1.4174 1.7481-0.47247-1.7481-0.56696-2.2206c-0.0945-0.47247-0.47247-1.4646-0.66146-2.0316-0.18899-0.56696-0.37798-1.0394-0.47247-1.7954-0.0945-0.75595-0.18899-1.1812-0.37798-1.5119s0.47247 0.47247 0.8977 0.85045c0.42522 0.37797 1.4646 1.7481 1.3702 1.5592-0.0945-0.18899-0.14174-0.8977-0.56697-1.3702-0.42522-0.47247-1.7954-1.6536-2.2678-2.0789-0.47247-0.42522-1.0394-0.85044-1.1812-1.2284-0.14174-0.37797-0.42522-0.37797-0.42522-0.37797s0.99219 1.8426 0.75595 1.7009c-0.23623-0.14174-1.5119-1.3702-1.5119-1.3702z" fill="#333"/>
      <path d="m225.17 190.2-0.60135-1.5368-0.0668-1.2027s0 0.20045 0.13363-0.33409c0.13364-0.53454 0.40091-0.13363 0.40091-0.13363l0.46772-0.26727-0.0668 0.46772 0.53454-0.20045-0.13363 0.73499 0.46772-0.20045-0.40091 0.60135-0.26727 1.0691-0.33408 0.4009 0.0668 1.0023z" fill="#e6e6e6"/>
      <path d="m222.37 191.34 0.93545-1.2695-0.40091 0.0668 0.46772-0.86862-0.46772-1.0022-0.13363 0.26727-0.53454-0.93544v0.4009l-1.2027-0.46772 0.33408 0.73499-0.46772 0.20045 0.60136 0.26727-0.33409 0.26727 0.40091 0.40091 0.26727 0.4009h0.4009l-0.20045 0.80181z" fill="#e6e6e6"/>
      <path d="m210.27 185.22s-0.10023 0.23386-0.40091 0.23386-0.10022 0.26727-0.10022 0.26727 0.26727 0.20045 0.20045 0.43431l-0.0668 0.23386-0.46772 0.0334 0.50113 0.0668-0.63476 0.4009 0.50112-0.0668-0.86862 0.80181 0.73499-0.20045s-0.86863 0.93544-1.1359 0.96885c-0.26727 0.0334-0.26727 0.0668-0.26727 0.0668s0.93544-0.26727 1.1693-0.13363c0.23386 0.13363 0.50113-0.20046 0.50113-0.20046s-0.4009 0.70159-0.66817 0.90204-0.56795 0.33408-0.56795 0.33408l1.0357-0.4009-0.66818 0.53454 0.40091-0.10023s-0.20045 0.23386-0.3675 0.40091c-0.16704 0.16704-0.43431 0.80181-0.43431 0.80181s0.30068-0.13364 0.60136-0.33409c0.30067-0.20045 0.33408-0.26727 0.33408-0.26727s-0.63476 0.53454-0.83521 0.90204c-0.20046 0.36749-0.43432 0.8018-0.43432 0.8018l0.7684-0.46772-0.7684 0.96885 0.63477-0.0334s0.10022 0-0.20045 0.46773c-0.30068 0.46772-0.43432 1.5368-0.43432 1.5368l0.60136-0.46773-0.33409 0.66818 0.50113-0.13364-0.0668 0.50113 0.30068-0.36749-0.16704 0.53454 0.7684-0.66818" fill="none" stroke="#000" stroke-linecap="round" stroke-linejoin="round" stroke-width=".065"/>
      <path d="m224.33 201.98s-2.228-0.62181-2.7625-0.88909c-0.53453-0.26726-2.3386-1.2695-2.3386-1.2695" fill="none" stroke="#000" stroke-linecap="round" stroke-width=".165"/>
      <path d="m227.13 201.36h-1.4855c-0.46772 0-1.8709-0.13364-2.4722-0.40091-0.60135-0.26727-1.47-0.60136-1.6704-1.0023-0.20046-0.4009-0.80181-1.0691-1.2695-1.2027-0.46773-0.13364-0.26727 0.46772-0.26727 0.46772s0.4009-0.13364 0.60135 0.13363c0.20046 0.26727 0.93544 0.64312 0.93544 0.64312" fill="none" stroke="#000" stroke-linecap="round" stroke-linejoin="round" stroke-width=".165"/>
      <path d="m210.07 184.8s0.10214 0.0438 0.25569 0.0674c0.0945-0.0236 0.55372-0.0584 0.55372-0.0584l1.0631-0.0118 0.20984 0.0716-0.20163 0.44395c-0.80634-0.11373-1.6251-0.11823-2.2879-0.43286z" fill="#808080"/>
      <path d="m213.91 183.27v0.63784c0 0.14174-0.36617 0.41341-0.42523 0.46066-0.0591 0.0472-0.1063 0.0118-0.1063 0.0118l0.25986 0.16536-0.34254 0.10631 0.25985 0.0591s-0.16536 0.12993-0.23623 0.16536c-0.0709 0.0354-0.23624 0.0354-0.23624 0.0354l0.2953 0.36616-0.41342-0.11811s0.11812 0.15355 0.16537 0.15355c0.0473 0 0 0.1063-0.16536 0.1063-0.16537 0-0.23624 0.0472-0.31892 0-0.0827-0.0472-0.57878-0.41341-0.57878-0.41341l-0.17717 0.0709 0.3071-0.24805z" fill="#e6e6e6"/>
      <path d="m215.86 184.33s0.0591 0.17718 0.0236 0.25986c-0.0354 0.0827-0.11811 0.21261-0.11811 0.21261s0.16536-0.2008 0.33072-0.21261c0.16537-0.0118 0.68509-0.11812 0.79139-0.0591 0.10631 0.0591 0.21261 0.12993 0.21261 0.12993s-0.18899-0.25986-0.29529-0.36616c-0.10631-0.10631-0.24805-0.30711-0.24805-0.30711s0.28349 0.0473 0.43704-0.0354 0.46066-0.30711 0.46066-0.30711l0.1063-0.0827s-0.0118 0.0591-0.15355 0c-0.14174-0.0591-0.22442-0.16537-0.22442-0.16537l0.75595-0.21261-0.18899-0.0945 0.23623-0.0354-0.0945-0.1063 0.22443-0.0354-0.0473-0.10631s0.0945 0.0236 0.18899-0.0354c0.0945-0.0591 0.35435-0.24805 0.35435-0.24805s-0.0827 0.0354-0.12993 0.0236c-0.0472-0.0118-0.0118-0.16537-0.0118-0.16537s0.46066-0.25985 0.54334-0.31891c0.0827-0.0591 0.37797-0.54334 0.43703-0.67327 0.0591-0.12993 0.0945-0.27167 0.0945-0.27167s-0.12993 0.0118-0.18899 0.0591c-0.0591 0.0472-0.17718 0.15355-0.17718 0.15355s0.0354-0.2008 0.0709-0.2953c0.0354-0.0945 0.10631-0.29529 0.10631-0.29529l0.0118-0.0354s-0.11812-0.0118-0.2008 0.0118c-0.0827 0.0236-0.37798 0.0354-0.37798 0.0354l0.21262-0.2953-0.44885-0.0354s0.35435-0.4016 0.44885-0.43703c0.0945-0.0354 0.16536-0.0827 0.16536-0.0827s-0.17718-0.0827-0.24805-0.0827c-0.0709 0-0.37797 0.12993-0.37797 0.12993s0.14174-0.16537 0.27167-0.23624c0.12993-0.0709 0.37798-0.14174 0.37798-0.14174s-0.37798-0.18899-0.47248-0.2008c-0.0945-0.0118-0.22442-0.0472-0.27167-0.0118-0.0472 0.0354-0.17717 0.12993-0.29529 0.23624-0.11812 0.1063-1.63 2.1497-1.63 2.1497z" fill="#e6e6e6"/>
      <path d="m219.95 199.19s-0.0501-0.1754-0.0334-0.25056c0.0167-0.0752 0.0668-0.20046 0.10022-0.20046 0.0334 0 0.21716-0.0418 0.33409 0.0418 0.11693 0.0835 0.65147 0.46773 0.65147 0.46773l0.47607 0.68487-0.42596-0.18375s-0.47607-0.36749-0.52619-0.42596c-0.0501-0.0585-0.1921-0.14198-0.27562-0.13363-0.0835 8e-3 -0.30068 0-0.30068 0z"/>
      <path d="m212.73 193.52s0.59059-0.96857 0.75595-1.0158c0.16537-0.0473 0.35436-0.11812 0.70871-0.11812s1.3229 0.0709 1.4647-0.0472c0.14174-0.11812 0.49609-0.61421 0.49609-0.61421s0.42522-0.73233 0.63784-0.94494c0.21261-0.21261 0.96856-0.59059 1.3229-0.7087 0.35435-0.11812 0.96857-0.16537 0.85045-0.16537s-1.0631-0.23624-1.441 0c-0.37797 0.23624-1.1339 0.54334-1.5828 1.1812-0.44885 0.63784-0.85045 0.54335-1.1576 0.4961-0.30711-0.0472-0.51972-0.28348-0.51972-0.28348l1.5355-2.1025-0.70871 0.37797s0.21261-0.82682 0.49609-1.1576c0.28349-0.33073 1.6773-1.0158 1.6773-1.0158l-0.77958 0.0709 0.77958-0.63784-0.66146 0.28348 0.16536-0.59058s-0.44885 0.66146-0.8032 0.73233c-0.35435 0.0709-0.77957 0.14174-0.99218 0.28348-0.21262 0.14174-0.47248 0.33073-0.47248 0.33073s0.66146-0.25986 0.8032-0.25986 0.21262 0.0472 0.21262 0.0472-0.68509 0.61421-1.1339 0.75595c-0.44885 0.14174-0.96857 0.35435-0.96857 0.35435l-0.59058 0.47247 0.7087-0.35435s-0.42522 0.54334-0.44885 0.8032c-0.0236 0.25986-0.0709 0.47247-0.0709 0.47247s0.21261-0.56697 0.4016-0.63784c0.18899-0.0709 0.11812-0.0236 0.11812-0.0236s-0.47247 1.2757-0.66146 1.4174-0.54334 0.42522-0.54334 0.42522l0.92132-0.49609s-0.33073 1.1576-0.75595 1.4174c-0.42523 0.25986-0.99219 0.61421-0.99219 0.61421l0.89769-0.21261s-0.23623 0.63783-0.42522 0.7087c-0.18899 0.0709-0.28348 0-0.51972-0.0472-0.23623-0.0473-0.59059 0.3071-0.59059 0.3071s0.4016-0.21261 0.59059-0.0472c0.18899 0.16536 0.4016 0.37797 0.54334 0.37797s-0.89769 1.7009-0.89769 1.7009l1.0631-0.82682s0.3071 0.0709 0.3071 0.30711c0 0.23623-0.35435 1.4646-0.35435 1.4646l0.44885-0.63783s0.23623 0.11812 0.33072 0.35435c0.0945 0.23624 0.21262 1.2993 0.21262 1.2993l0.23623-1.3702 0.4016 1.0631 0.11812-0.51972s0.28348 0.8977 0.0945 1.2993c-0.18899 0.4016-0.49609 0.85044-0.49609 0.85044l0.59059-0.47247s0.0236 0.4961-0.21261 0.70871c-0.23624 0.21261-0.54334 0.77957-0.59059 0.99218-0.0472 0.21262-0.35436 0.59059-0.35436 0.59059l0.61422 0.82683s-0.0709-0.61422 0.0236-0.70871c0.0945-0.0945 0.42523-0.30711 0.42523-0.47247s-0.0236-0.66146-0.0236-0.66146l0.49609-0.61421 0.35436-1.3465-0.35436-0.23623-0.21261-0.87407 0.8032-0.66146-0.94494 0.11812-0.28348-0.56697-0.23624 0.47247-0.25985-1.5592-0.23624 0.54334-0.18899-0.49609 0.66146-0.77958-0.77958 0.37798 0.73233-0.87407z" fill="#333"/>
      <path d="m227.02 196.74 0.89769 0.14173-0.37798-0.47246 0.56697 0.23623v-0.28348l0.7087 0.94494 0.23624 0.75595-0.94494-0.42522s-0.42523-0.0945-0.37798 0.18899c0.0472 0.28348 0.28348 0.94494 0.28348 0.94494l1.3702 0.33073s-0.53153 0.64964-0.6024 0.7087c-0.0709 0.0591-0.59059 0.54334-0.59059 0.54334l-0.76776-0.57877s-0.54334-1.1694-0.57878-1.2875c-0.0354-0.11811-0.0591-0.29529-0.0118-0.40159 0.0472-0.10631 0.35436-0.61422 0.43704-0.70871 0.0827-0.0945 0.25986-0.27167 0.16536-0.36616-0.0945-0.0945-0.41341-0.27167-0.41341-0.27167z" fill="#333"/>
      <path d="m222.44 191.78s-0.69689-0.75595-0.81501-1.0276c-0.11811-0.27166-0.41341-0.82682-0.55515-0.92131-0.14174-0.0945-0.34254-0.33073-0.63783-0.36617-0.2953-0.0354-0.66146 0-0.8032 0.0473-0.14174 0.0472-0.56697 0.17718-0.61422 0.23624-0.0472 0.0591-0.0354 0.3071-0.0354 0.3071s-0.0591 0.0354-0.12993-0.0236c-0.0709-0.0591-0.1063-0.14174-0.1063-0.14174s0.0591 0.18899 0.11811 0.23624c0.0591 0.0472 0.22443 0.1063 0.22443 0.1063s0.0236 0.0827-0.0709 0.10631c-0.0945 0.0236-0.15355 0.0236-0.15355 0.0236s0.17718 0.059 0.23624 0.0118c0.0591-0.0472 0.0709-0.0118 0.0709-0.0118s-0.0945 0.0236-0.0827 0.0945 0.059 0.12993 0.059 0.12993v-0.12993l0.0827-0.0473s0.1063 0.17718 0.21261 0.23624c0.1063 0.0591 0.3071 0.29529 0.57878 0.29529 0.27166 0 0.22442 0.0118 0.27166 0.0118 0.0472 0 0.72052 0.22442 0.90951 0.29529 0.18899 0.0709 1.2402 0.53153 1.2402 0.53153z"/>
      <path d="m225.81 191.27s0.0236-0.27167 0.0827-0.35435c0.0591-0.0827 0.17717-0.17718 0.23623-0.30711 0.0591-0.12992 0.0709-0.28348 0.0827-0.41341s-0.0354-0.35435 0-0.41341c0.0354-0.0591 0.31892-0.18899 0.31892-0.18899l0.0709-0.16536s-0.11811 0.1063-0.17718 0.11812c-0.0591 0.0118-0.1063-0.0236-0.1063-0.0236l-0.12993-0.14174s0.0945 0.14174 0.0709 0.16536c-0.0236 0.0236-0.12993 0.0591-0.18899 0.0472-0.0591-0.0118-0.17717-0.0472-0.25985-0.0118-0.0827 0.0354-0.15356 0.0236-0.18899 0.0945-0.0354 0.0709-0.0709 0.53153-0.0709 0.61421 0 0.0827 0.15355 0.6969 0.18898 0.76777 0.0354 0.0709 0.0709 0.21261 0.0709 0.21261z"/>
      <path d="m220.66 189.74s-0.30711-0.18899-0.55515-0.16537c-0.24805 0.0236-0.74414 0.21261-0.74414 0.21261s-0.11812 0.0472-0.11812 0.0945c0 0.0472 0.17717 0.34254 0.2008 0.4016 0.0236 0.0591 0.3071 0.36616 0.43703 0.41341 0.12993 0.0472 0.36617 0.0591 0.36617 0.0591s0.25986 0 0.42522-0.28348c0.16536-0.28349 0.11812-0.36617 0.11812-0.43704 0-0.0709-0.12993-0.29529-0.12993-0.29529z" fill="#06f"/>
      <path d="m225.63 190.49s0.1063 0 0.21261-0.0591 0.17718-0.17718 0.18899-0.24805c0.0118-0.0709 0.0236-0.16537 0.0236-0.25986 0-0.0945 0.0354-0.2008-0.0236-0.22442-0.0591-0.0236-0.16537-0.0472-0.22442-0.0472-0.0591 0-0.0945 0.0591-0.14175 0.12993-0.0472 0.0709-0.0591 0.2008-0.0827 0.25986-0.0278 0.14262-3e-3 0.30567-3e-3 0.30567z" fill="#06f"/>
      <path d="m228.31 200.27 0.54334-0.8032s-0.12993 0.2008-0.30711 0.18899c-0.17717-0.0118-0.37797 0.0236-0.5079-0.0945-0.12993-0.11811-0.62603-0.67327-0.67327-0.80319-0.0472-0.12993 0.0709-0.33073-0.0472-0.47248-0.11812-0.14174-0.22442-0.36616-0.22442-0.36616s0.22442-0.4016 0.35435-0.51972c0.12993-0.11811 0.53153-0.35435 0.76776-0.43703 0.23624-0.0827 0.50791-0.0472 0.67327-0.0945 0.16537-0.0472 0.42522-0.22442 0.47247-0.21261 0.0472 0.0118 0.56697 0.62603 0.56697 0.62603l0.35435 0.64964s-0.67327 0.93313-0.69689 0.98038c-0.0236 0.0473-0.61422 0.77957-0.70871 0.88588-0.0945 0.10631-0.56696 0.47247-0.56696 0.47247z"/>
      <path d="m225.63 190.49s0.1063 0 0.21261-0.0591 0.17718-0.17718 0.18899-0.24805c0.0118-0.0709 0.0236-0.16537 0.0236-0.25986 0-0.0945 0.0354-0.2008-0.0236-0.22442-0.0591-0.0236-0.16537-0.0472-0.22442-0.0472-0.0591 0-0.0945 0.0591-0.14175 0.12993-0.0472 0.0709-0.0591 0.2008-0.0827 0.25986-0.0278 0.14262-3e-3 0.30567-3e-3 0.30567z" fill="url(#aaxxkpej)"/>
      <path d="m225.93 189.92a0.17127 0.28085 0 0 1 -0.17128 0.28085 0.17127 0.28085 0 0 1 -0.17128 -0.28085 0.17127 0.28085 0 0 1 0.17128 -0.28084 0.17127 0.28085 0 0 1 0.17128 0.28084z"/>
      <path d="m220.66 189.74s-0.30711-0.18899-0.55515-0.16537c-0.24805 0.0236-0.74414 0.21261-0.74414 0.21261s-0.11812 0.0472-0.11812 0.0945c0 0.0472 0.17717 0.34254 0.2008 0.4016 0.0236 0.0591 0.3071 0.36616 0.43703 0.41341 0.12993 0.0472 0.36617 0.0591 0.36617 0.0591s0.25986 0 0.42522-0.28348c0.16536-0.28349 0.11812-0.36617 0.11812-0.43704 0-0.0709-0.12993-0.29529-0.12993-0.29529z" fill="url(#vhiferos)"/>
      <path d="m220.37 189.93a0.27758 0.38388 0 0 1 -0.27758 0.38388 0.27758 0.38388 0 0 1 -0.27758 -0.38388 0.27758 0.38388 0 0 1 0.27758 -0.38388 0.27758 0.38388 0 0 1 0.27758 0.38388z"/>
      <path d="m219.96 189.92s0.3071 0.11812 0.38978 0.11812c0.0827 0 0.34254-0.0473 0.34254-0.0473s-0.0236-0.0945-0.15355-0.12993c-0.12993-0.0354-0.57877 0.0591-0.57877 0.0591z" fill="#fff" opacity=".3"/>
      <path d="m225.83 189.9s0.1063 0.0118 0.15355-0.0118c0.0473-0.0236 0.0709-0.0591 0.0709-0.0591l-0.0945-0.0472s-0.0709 0.0236-0.11812 0.0472c-0.0472 0.0236-0.10631 0.0709-0.10631 0.0709z" fill="#fff" opacity=".3"/>
      <path d="m224.35 199.52a0.14174 0.14174 0 0 1 -0.14174 0.14174 0.14174 0.14174 0 0 1 -0.14174 -0.14174 0.14174 0.14174 0 0 1 0.14174 -0.14174 0.14174 0.14174 0 0 1 0.14174 0.14174z" fill="#333"/>
      <path d="m225.25 199.93a0.14174 0.14174 0 0 1 -0.14174 0.14174 0.14174 0.14174 0 0 1 -0.14174 -0.14174 0.14174 0.14174 0 0 1 0.14174 -0.14174 0.14174 0.14174 0 0 1 0.14174 0.14174z" fill="#333"/>
      <path d="m225.53 199.26a0.14174 0.14174 0 0 1 -0.14174 0.14174 0.14174 0.14174 0 0 1 -0.14174 -0.14174 0.14174 0.14174 0 0 1 0.14174 -0.14174 0.14174 0.14174 0 0 1 0.14174 0.14174z" fill="#333"/>
      <path d="m224.92 198.98a0.14174 0.14174 0 0 1 -0.14174 0.14174 0.14174 0.14174 0 0 1 -0.14174 -0.14174 0.14174 0.14174 0 0 1 0.14174 -0.14174 0.14174 0.14174 0 0 1 0.14174 0.14174z" fill="#333"/>
      <path d="m226.69 199.88a0.14174 0.14174 0 0 1 -0.14174 0.14174 0.14174 0.14174 0 0 1 -0.14174 -0.14174 0.14174 0.14174 0 0 1 0.14174 -0.14174 0.14174 0.14174 0 0 1 0.14174 0.14174z" fill="#333"/>
      <path d="m226.6 199.38a0.14174 0.14174 0 0 1 -0.14174 0.14174 0.14174 0.14174 0 0 1 -0.14174 -0.14174 0.14174 0.14174 0 0 1 0.14174 -0.14174 0.14174 0.14174 0 0 1 0.14174 0.14174z" fill="#333"/>
      <path d="m227.09 199.74a0.14174 0.14174 0 0 1 -0.14174 0.14174 0.14174 0.14174 0 0 1 -0.14174 -0.14174 0.14174 0.14174 0 0 1 0.14174 -0.14174 0.14174 0.14174 0 0 1 0.14174 0.14174z" fill="#333"/>
      <path d="m226.45 200.52a0.14174 0.14174 0 0 1 -0.14174 0.14174 0.14174 0.14174 0 0 1 -0.14174 -0.14174 0.14174 0.14174 0 0 1 0.14174 -0.14174 0.14174 0.14174 0 0 1 0.14174 0.14174z" fill="#333"/>
      <path d="m225.96 201.06a0.14174 0.14174 0 0 1 -0.14174 0.14174 0.14174 0.14174 0 0 1 -0.14174 -0.14174 0.14174 0.14174 0 0 1 0.14174 -0.14174 0.14174 0.14174 0 0 1 0.14174 0.14174z" fill="#333"/>
      <path d="m225.77 200.59a0.14174 0.14174 0 0 1 -0.14174 0.14174 0.14174 0.14174 0 0 1 -0.14174 -0.14174 0.14174 0.14174 0 0 1 0.14174 -0.14174 0.14174 0.14174 0 0 1 0.14174 0.14174z" fill="#333"/>
      <path d="m225.01 200.45a0.14174 0.14174 0 0 1 -0.14174 0.14174 0.14174 0.14174 0 0 1 -0.14174 -0.14174 0.14174 0.14174 0 0 1 0.14174 -0.14174 0.14174 0.14174 0 0 1 0.14174 0.14174z" fill="#333"/>
      <path d="m224.07 199.22a0.14174 0.14174 0 0 1 -0.14174 0.14174 0.14174 0.14174 0 0 1 -0.14174 -0.14174 0.14174 0.14174 0 0 1 0.14174 -0.14174 0.14174 0.14174 0 0 1 0.14174 0.14174z" fill="#333"/>
      <path d="m225.89 197.09a0.14174 0.14174 0 0 1 -0.14174 0.14174 0.14174 0.14174 0 0 1 -0.14174 -0.14174 0.14174 0.14174 0 0 1 0.14174 -0.14174 0.14174 0.14174 0 0 1 0.14174 0.14174z" fill="#333"/>
      <path d="m226.45 196.97a0.14174 0.14174 0 0 1 -0.14174 0.14174 0.14174 0.14174 0 0 1 -0.14174 -0.14174 0.14174 0.14174 0 0 1 0.14174 -0.14174 0.14174 0.14174 0 0 1 0.14174 0.14174z" fill="#333"/>
      <path d="m226.97 197.19a0.14174 0.14174 0 0 1 -0.14174 0.14174 0.14174 0.14174 0 0 1 -0.14174 -0.14174 0.14174 0.14174 0 0 1 0.14174 -0.14174 0.14174 0.14174 0 0 1 0.14174 0.14174z" fill="#333"/>
      <path d="m224.85 198.25a0.14174 0.14174 0 0 1 -0.14174 0.14174 0.14174 0.14174 0 0 1 -0.14174 -0.14174 0.14174 0.14174 0 0 1 0.14174 -0.14174 0.14174 0.14174 0 0 1 0.14174 0.14174z" fill="#333"/>
      <path d="m226.93 200.61a0.14174 0.14174 0 0 1 -0.14174 0.14174 0.14174 0.14174 0 0 1 -0.14174 -0.14174 0.14174 0.14174 0 0 1 0.14174 -0.14174 0.14174 0.14174 0 0 1 0.14174 0.14174z" fill="#333"/>
      <path d="m227.49 200.66a0.14174 0.14174 0 0 1 -0.14174 0.14174 0.14174 0.14174 0 0 1 -0.14174 -0.14174 0.14174 0.14174 0 0 1 0.14174 -0.14174 0.14174 0.14174 0 0 1 0.14174 0.14174z" fill="#333"/>
      <path d="m224.68 198.22s-1.1812-0.75596-2.2679-1.1103-4.8192-0.21261-4.8192-0.21261" fill="none" stroke="#000" stroke-linecap="round" stroke-width=".065"/>
      <path d="m226.81 197.16s-0.0472-0.42522-1.0394-0.73233c-0.99219-0.30711-2.3624-0.61421-2.3624-0.61421" fill="none" stroke="#000" stroke-linecap="round" stroke-width=".065"/>
      <path d="m226.31 197s0.70871-0.0472-1.5828-0.33073c-2.2915-0.28348-3.6853-0.68508-3.6853-0.68508" fill="none" stroke="#000" stroke-linecap="round" stroke-width=".065"/>
      <path d="m225.68 197.04s0.4016-0.4016 0.0472-0.77957c-0.35435-0.37798-1.4647-0.82683-1.4647-0.82683" fill="none" stroke="#000" stroke-linecap="round" stroke-width=".065"/>
      <path d="m224.66 198.93s-3.8506-1.3702-4.4648-1.441c-0.61421-0.0709-2.0316-0.0472-2.0316-0.0472" fill="none" stroke="#000" stroke-linecap="round" stroke-width=".065"/>
      <path d="m223.88 199.19s-1.1339-0.59059-2.3624-0.49609c-1.2284 0.0945-2.7403 1.0394-3.0474 1.3229-0.3071 0.28348-0.94494 0.8032-0.94494 0.8032" fill="none" stroke="#000" stroke-linecap="round" stroke-width=".065"/>
      <path d="m224.23 199.5s-0.89769-0.21261-1.5828 0.0472c-0.68509 0.25986-2.9766 2.1734-2.9766 2.1734" fill="none" stroke="#000" stroke-linecap="round" stroke-width=".065"/>
      <path d="m225.42 199.29s-3.0002-0.25987-3.5908-0.18899c-0.59058 0.0709-1.4883 0.37797-1.8662 0.77957-0.37798 0.4016-0.61422 1.2284-0.61422 1.2284" fill="none" stroke="#000" stroke-linecap="round" stroke-width=".065"/>
      <path d="m222.53 197.99s-0.44885-0.4016-0.73233-0.35435c-0.28348 0.0472-1.3702 0.0945-1.8426 0.54334-0.47247 0.44885-1.2284 1.5592-1.3465 2.1497-0.11812 0.59059-0.11812 1.7245-0.11812 1.7245" fill="none" stroke="#000" stroke-linecap="round" stroke-width=".065"/>
      <path d="m224.92 200.45s-0.75595-0.33073-1.2048 0.16536c-0.44884 0.4961-1.3465 2.4096-1.3465 2.4096" fill="none" stroke="#000" stroke-linecap="round" stroke-width=".065"/>
      <path d="m225.82 201.06s-1.1812 0.16536-1.2757 0.25986c-0.0945 0.0945-1.0158 1.6773-1.0158 1.6773" fill="none" stroke="#000" stroke-linecap="round" stroke-width=".065"/>
      <path d="m226.79 200.56s0.0236 0.11811-0.25986 0.42522c-0.28348 0.3071-0.44885 1.1339-0.44885 1.1339" fill="none" stroke="#000" stroke-linecap="round" stroke-width=".065"/>
      <path d="m227.28 200.71-0.44884 0.8977" fill="none" stroke="#000" stroke-linecap="round" stroke-width=".065"/>
      <path d="m226.24 200.54s-0.21261 0.68508-0.33073 0.8032-0.35435 0.51972-0.42522 0.68508c-0.0709 0.16537-0.0236 0.42522-0.0236 0.42522l-0.0236 0.0945" fill="none" stroke="#000" stroke-linecap="round" stroke-width=".065"/>
      <path d="m225.06 201.67s-0.11812 0.25986-0.21262 0.4016-0.28348 0.28348-0.33073 0.47247c-0.0472 0.18899 0.0236 0.44884 0.0236 0.44884" fill="none" stroke="#000" stroke-linecap="round" stroke-width=".065"/>
      <path d="m226.55 199.93s-0.77958 0.33073-1.0867 0.35435c-0.3071 0.0236-1.7245-0.23623-2.1497-0.18899-0.42522 0.0472-0.66145 0.11812-0.66145 0.11812" fill="none" stroke="#000" stroke-linecap="round" stroke-width=".065"/>
      <path d="m225.58 200.56s-1.3465 0.18898-1.5119 0.44884c-0.16537 0.25986-1.2757 2.008-1.2757 2.008" fill="none" stroke="#000" stroke-linecap="round" stroke-width=".065"/>
      <path d="m225.11 199.93s-1.7481 0.33073-2.0789 0.61421-1.2757 2.5277-1.2757 2.5277-0.16536 0.44884-0.33073 0.56696l-0.16536 0.11812" fill="none" stroke="#000" stroke-linecap="round" stroke-width=".065"/>
      <path d="m226.48 199.43s-6.3784-1.5119-6.9689-1.5119-1.5119 0.21261-1.8426 0.61421c-0.33073 0.4016-1.2048 1.7481-1.2048 1.7481" fill="none" stroke="#000" stroke-linecap="round" stroke-width=".065"/>
      <path d="m226.86 199.76s-2.7876-0.16536-3.2364-0.0472c-0.44885 0.11812-1.7245 0.8032-1.9135 1.0158-0.18898 0.21261-0.33072 1.2048-0.33072 1.6064s0.33072 1.5119 0.33072 1.5119" fill="none" stroke="#000" stroke-linecap="round" stroke-width=".065"/>
      <path d="m221.19 200.78s-0.30711 0.59058-0.4016 0.89769c-0.0945 0.3071 0.37797 2.5041 0.37797 2.5041" fill="none" stroke="#000" stroke-linecap="round" stroke-width=".065"/>
      <path d="m221.97 201.18s-0.16536 0.8977-0.0945 1.2048c0.0709 0.3071 0.54334 1.5355 0.54334 1.5355" fill="none" stroke="#000" stroke-linecap="round" stroke-width=".065"/>
      <path d="m209.71 197.75c-0.25986 0.73232-0.35435 0.96856-0.47247 0.99218-0.11812 0.0236 0.42522-0.0709 0.51972-0.18898 0.0945-0.11812 0.0945-0.18899 0.0945-0.18899l-0.0709 1.1103 0.18899-0.37797s0.11812 0.73233 0.14174 0.92131c0.0236 0.18899 0.16537 0.54335 0.16537 0.54335s-0.0472-0.75596 0.0709-0.82683c0.11811-0.0709 0.18898-0.14174 0.18898-0.14174s-0.21261 0.0945-0.0945 0.35435c0.11812 0.25986 0.28348 0.82683 0.28348 0.82683l0.16537-0.66146 0.14174 0.63783s-0.0709-0.28348 0.11812-0.49609c0.18898-0.21261 0.25985-0.23624 0.25985-0.23624" fill="none" stroke="#000" stroke-width=".065"/>
      <path d="m206.38 186.22c-1.6064 0.33073-1.441 0.54334-2.008 0.61421-0.11811 0.0236-0.41341-0.0236-0.41341-0.0236s0.11812 0.3071 0.99218 0.3071c0.87407 0 0.34254 0.0709 0.34254 0.0709l-0.94494 0.14174 0.92132 0.0945-0.56696 0.18899 0.54334 0.0945s-0.21261 0.16537-0.56697 0.25986c-0.35435 0.0945-0.7087-0.0236-0.7087-0.0236l0.99218 0.28349-1.1103 0.4016 0.75595-0.0472-0.99218 0.47247s0.42522-0.0709 0.85044-0.14174c0.42523-0.0709 0.70871-0.0236 0.70871-0.0236s-0.0945 0.28349-0.47247 0.30711c-0.37798 0.0236-0.73233 0.14174-0.73233 0.14174h0.51972l-0.68509 0.8032s0.68509-0.66146 0.8977-0.66146h0.56696" fill="none" stroke="#000" stroke-width=".065"/>
      <path d="m206.21 192.2c-0.87407 0.33073-0.99218 0.61421-1.252 0.56697-0.25985-0.0473-0.61421 0.0472-0.61421 0.0472s0.16537 0.28348 0.4961 0.28348 1.0631-0.35435 1.0631-0.35435l-0.59059 0.44885 0.42522-0.0945s-0.14174 0.14174-0.18899 0.4016c-0.0472 0.25986-0.0709 0.61422-0.0709 0.61422s0.33073-0.44885 0.4961-0.47248c0.16536-0.0236 0.0472 0.0236 0.0472 0.0236l0.0709 0.59059 0.42523-0.42522v0.18898s0.3071-0.16536 0.44884-0.16536 0.28349 0.0473 0.28349 0.0473" fill="none" stroke="#000" stroke-width=".065"/>
      <path d="m217.95 189.22 0.47247-0.23624-0.0709 0.28348 0.8032-0.73232 0.44884 0.28348s0.0236-0.33073 0.44885-0.35435c0.42522-0.0236 0.89769 0.3071 0.89769 0.3071l-0.33073-0.49609 0.33073-0.0473s-0.16536-0.14174-0.63783-0.28348-1.0394-0.33073-1.0394-0.33073l0.42523-0.18899-0.73233 0.11812-0.54334 0.35435 0.56696-0.14174s-0.25986 0.42522-0.51972 0.51972c-0.25985 0.0945-1.1103 0.33073-1.1103 0.33073l0.56696-0.0236-0.85044 0.7087 0.77957-0.3071z" fill="#333"/>
      <path d="m228.06 197.68s-1.5592-2.0316-2.5041-2.8348c-0.94495-0.8032-1.7482-1.3229-1.7482-1.3229" fill="none" stroke="#000" stroke-linecap="round" stroke-width=".165"/>
      <path d="m227.26 197.78s-0.0473-0.56697-0.0945-0.75595c-0.0472-0.18899-0.61421-1.1339-0.61421-1.1339l1.3229 1.5119z"/>
    </g>
  </g>
</svg>